<svg xmlns="http://www.w3.org/2000/svg" id="flag-icons-as" viewBox="0 0 512 512">
  <path fill="#006" d="M0 0h512v512H0Z"/>
  <path fill="#bd1021" d="M0 256 512 0v512Z"/>
  <path fill="#fff" d="m41.4 256 470-228.6v457.2"/>
  <path d="M334.9 288.5c5.4.3 5.2 5.7 5.2 5.7l19.3.5c2.5-6.8 5-6 9.7-2.6a35 35 0 0 0 9.3 4.5c2-9.6 15.6-7.7 15.6-7.7 5.8-13.9 6.3-13.7 2.8-15.5a11.4 11.4 0 0 1-4.9-4.7 28 28 0 0 1-5.4-13.3c-.4-3.5-4.5 1.7-5.2.7-.7-1.2-6.8-.5-6.8-.5 1.5 1.6-3.6.6-3.6.6.5.5 0 2 0 2-.5-.7-4.4-1.4-4.4-1.4a6.5 6.5 0 0 1-1.2 1.7c-2.1-.8-6.3-.7-6.3-.7a21.4 21.4 0 0 0-11.7 3c-1.7 1-8 4-13 9-5.1 5-8 4.3-8 4.3-1.5 5.6-13.6 12.3-13.6 12.3-2 1.7-8.1 2.5-11.2 0-3.1-2.6 0-7.4 0-7.4 1.2-2 2.3-2 2.4-9.5.1-5 5.3-9.2 10.7-15 6.6-7.3 15.9-19.3 15.9-19.3 0 3.7 2 4.3 2 4.3 1.8-3.7 4.4-6.7 4.4-6.7.2.3.6.5.6.5 2-2.8 3.3-3.9 3.3-3.9-.7-.3-6.5 0-11.8 4.7-5.4 4.7-9 3.1-9 3.1-3.7-1.2-4-4-4-4-2.8-11.8 7.9-20 7.9-20-14.3-3.5-4-21.7 13.8-29.5 17.7-7.7 17.5-11.2 17.5-11.2a13.9 13.9 0 0 1 2 3.3c0-.1 1.4-2 11.7-6.6a76 76 0 0 0 15-8.5c1.4 2.6 1.2 4.4 1.2 4.4 28-9.8 55.5-32.4 55.5-32.4.8 1.9.4 4.8.4 4.8 4.6-4.3 21-14 21-14 .3 6.2-4.8 8.6-4.8 8.6a8.2 8.2 0 0 1 .8 2.5 384 384 0 0 0 15.4-10.2c4.6 4 .5 10.4.5 10.4 1.6-.2 2.7-1.6 2.7-1.6 1.3 6.8-6.3 12.8-6.3 12.8 1.3 0 3.6-1.4 3.6-1.4-1.5 7.4-15.5 15.6-15.5 15.6 2 1.8.1 4.2-1.6 5.4-1.7 1-4.6 3.4-3.7 4.4.9 1 7.1-3.5 7.1-3.5 1 3.1-6.9 9.3-6.9 9.3 5.6.7 21-6.3 21-6.3-1.3 6-7 10.6-14.3 13.3-7.1 2.7-6.7 3.1-6.7 3.1 1.2 1 11-1.9 11-1.9-2.9 6.6-13.2 11.2-13.2 11.2 2.8 2.5 6.7-.4 10.6-3a62 62 0 0 1 15-6.9c5.7-2 9.8-.5 9.8-.5 5-1.5 9 .7 9 .7 9.2.7 10.2 4 10.2 4 1 .3 1.8.7 4.2 2.5 2.4 1.7 2.2 7.1 2.1 9.8 0 2.6-.8 2.6-1.3 3.3-.4.8-.5 1.6-.5 2.6s-2.4 7.4-16.7 7.4h-21.8c-1.2 0-2.6.7-2.6.7-6 3-2.8-2-10 3.8-7.2 6-10.9 5-10.9 5a96.2 96.2 0 0 1-13 11.2c-4.3 2.8-3.6 2.5.2 4.1s9.4 0 9.4 0c-3.6 2.5-1 3.6-1 3.6 4.6-3 7.6-1.9 7.6-1.9 1.5 4.2-4 10.8-4 10.8 2.1.2 6.1 0 6.1 0-1 2.8-4.9 5.9-7.8 6.8-3 1-2.5 1.4-1.6 3 .8 1.9.2 3.7.2 3.7-5.2-3.5-5.3-.4-5.3-.4-.6 4.1-.5 10.2-.5 10.2-3.6-1.8-3.8.6-3.8.6-1 3.8-5.4 8.1-5.4 8.1-.1-2.3-2.3-3-2.3-3-2.3 4.5-6.6 7.2-6.6 7.2-.5 3.8.6 9.1.6 9.1-2.8-.5-3.8-.5-4.2.1-.4.7.6 1 .6 1l35.6.9c.5 0 2.6.3 2.6 4 .1 4-3 4.2-3 4.2l-39-1s.2 1.1-1.8 2.2-1.3-1.2-2 3.6c-.5 4.7-8.2-.4-8.2-.4-1.3 1.9-4.3 4.3-4.3 4.3-1.8-5.3-3.6-7-6.4-2.4-2.7 4.6 5.1 3.8 5.1 3.8s45.7-6.7 48.2-7c2.5-.2 5.1 0 6.3 3.4 1 3.5-5.6 4-5.6 4l-46.9 5.2c-1 2.7-4.9 2.6-4.9 2.6.4 2.6-2.4 4.3-3.8 5.2-1.5 1-6 .6-6 .6-5.4 3.7-8 .8-8 .8-3.6 1.5-5.8.8-8.7-.4-3-1.3-2.7-4.8-2.7-4.8l-29.6 3a7.2 7.2 0 0 0-2.3 1.5c1 1.3-2.2 4.4-2.2 4.4 1 .6 2.6 2.3 2.9 6 .2 4-4.8 4.6-2.3 7.4 2.4 2.7 7.1.4 12.3-2 5-2.5 10-2.2 12.2-2.2 2.2 0 8.3 1.6 12.1 3 3.8 1.2 5.1.4 5.4-1.5.2-2 2-2.5 2-2.5-.5 1.9.5 2.8.5 2.8 1.5 0 4-1.4 4-1.4-.2 1.5-2.1 2.4-2.1 2.4-3.7 2.4 1.4 1.5 1.4 1.5a50.3 50.3 0 0 1 16.5-1.6 130.7 130.7 0 0 1 15.2 5.6c.4-1.3.2-4.4.2-4.4 3.1 1 4.4 2.8 4.4 2.8 1.3-1.3.5-3.6.5-3.6 10.2 5.8-2.2 8.4-5.5 9.6-3.3 1-3.3 2.4-3.3 2.4 2.8-.8 4.7-1.2 7-1.4 2.2-.1 1.4 0 6.9-1 5.5-1.2 8.3 1.2 8.3 1.2-4.6.2-6 1.6-6 1.6 3 1.9.2 3.6.2 3.6-4.1-5.2-7.7.2-7.7.2a16.3 16.3 0 0 1 6.8 1.4c.9.6 3 1.7 5.7 3 3.8 1.6 3 .6 6 1.6 3 1.2 1.8 4 1.8 4a7.3 7.3 0 0 0-4-3.2c-.2 3.1-3.3 3.7-3.3 3.7 3.9-4.2-4.4-6.1-8.3-6-3.8 0-6.7 2.5-6.7 2.5 7.8 7.4 13.2 5 13.2 5-1 2.6-7.4 1.5-7.4 1.5 3 2.3 2.6 3.9 2.6 3.9-1.6-1.6-4.1-.8-9.8-4.4-5.5-3.6-10.5-2.4-10.5-2.4 5.5 5.7-2 9.2-2 9.2-2.8 1.7 1.2 3.7 1.2 3.7-3.5.7-4-2.8-4-2.8-1.8-.4-4.4 1.8-4.4 1.8.2-3.5 4.9-1.7 5-5.4.1-3.7-4.3-6.6-17.5-4.8-13.2 1.9-17-2.4-17-2.4-1.2 0-1.3 1.2-1.3 1.2 2 2.1 3 3 2.7 4.4-.4 1.5.7 2 .7 2-2.5-.2-2.6-3-2.6-3 0 1.2-.5 1.2-1.3 2.5s0 2.8 0 2.8c-1.1-.9-3-2-1.2-4.5 1.3-2-2.8-4.5-2.8-4.5-1.7-1.7-6-.1-6-.1-9 1.7-14.2-4-14.2-4-1 0-3-.5-3-.5-9.5 4.2-17.9-5-17.9-5-7.1 1.4-10.4-2-12.5-5.5a12.3 12.3 0 0 0-5.6-5.4c-2.8-1.6-5.5-6.6-2.8-9.2 2.2-2.3 1.6-2.8 1.6-2.8-3.8-6.3 6.5-8.2 6.8-9.8.2-2.1 2.4-3.5 4.7-3.7 2.4-.1 2.4 0 4-1.4 1.4-1.7 4.3.3 4.3.3.7-.4 5.8-4.4 10.3-2.4 4.6 2 8.4.7 8.4.7 3.2-.7 29.9-4.3 29.9-4.3 1.6-2.7 3-5.8 10.3-7.4s12.8-6.4 12.8-6.4c-1.3-1.4-3.5-1.3-4.6-1.4-1.1-.1-3.4-2.2-3.4-2.2-1.4.7-2 .4-11.7 6.3-8.7 5.2-9-5.2-9-5.2h-18.7c-.3 4-3.3 5.6-3.3 5.6l-7 .3c-3.7-2-3.7-8.8-3.7-8.8a65.2 65.2 0 0 0-32.2 7.7c-23.4-11.9-41.7-14.7-41.7-14.7 28.4-3 43.5-11 43.5-11a67.5 67.5 0 0 0 30.4 9.7c.5-5.7 4.4-7.1 4.4-7.1z"/>
  <path fill="#ffc221" d="M301 335.7c-5.9 3.4-4.8 5.3-4.3 6.4.5 1 .6 2.1-1 3.8-1.7 1.6-1.5 2.2-1.5 2.2.3 5.7 4.3 7 6 8.4 1.5 1.1 3.9 4.9 3.9 4.9a9.3 9.3 0 0 0 8.7 4.4c2.4 0 2.2-.2 1-1.3l-3.6-3a18.8 18.8 0 0 1 6.2 4.5c6 6.6 11.6 5.7 14 5.4 2.5-.3 2.1-1.8 2.1-1.8-.1-.2-2.4-.4-2.4-.4-9.2-.8-11.9-6.8-11.9-6.8a25.7 25.7 0 0 0 16.7 6.4c2.6-.1 2.4.7 1.9.8-.6.1-1.3 0-2.6-.1-1.2 0-1.2.2-1 .8.4.4 1.5.5 3 .4 1.4 0 .2.2 4 3 3.8 3 13 .6 13 .6-6-1.5-6.8-4.3-6.8-4.3-8.2 1-11.5-3.9-11.5-3.9a34.7 34.7 0 0 0-5.9-3.7c-4.6-2-5.3-6.2-5.3-6.2 1.3 2 3.8 4 7 5 3.3.8 4.1 1.2 4.1 1.2a4 4 0 0 1-2.4-.2c-3.2-1-1.4.3-1.4.3 3.6 2.9 4.5 2.6 4.5 2.6 9.3 1 4.7-2.7 4.7-2.7 6.5 1.6 7.7-.9 7.7-.9 1.4 3 6.4 1.8 6.4 1.8-6.7 3.3-1.7 2.3-1.7 2.3 6.8-1.2 8.2.5 8.2.5 1.7 1.7 3.6 1.5 3.6 1.5s1.2 0 3.7.5c2.6.5 6.6 2.7 10.3 2.3 3.6-.5 4.3.6 4.3.6-.8-.2-2.4-.5-5.2.8-2.9 1.3-7.9 1.7-15.2 0s-7.8-1.4-7.8-1.4a10 10 0 0 1 3.6 4.3c.3 1.2 1.6 1.3 1.6 1.3.5-1.6 2.6-2.3 2.6-2.3 1.5 1.3 5.4 3 5.4 3 .4-.8 0-1.4 0-1.4 2.7 2.7 6 1.9 6 1.9.8-.6.6-2.2.6-2.2 1.1 0 1.3.7 2 1.3 1 .4 3.4.1 3.4.1-1-.4-1.7-1.8-1.7-1.8 3.8-2.5 11.7-1.5 11.7-1.5 5.7 1.1 5 4.9 5 4.9 1.2.5 2.8 2.3 2.8 2.3.5-1.4 0-2.7 0-2.7 2.7 1.2 3.2 4.3 3.2 4.3 3-3.5-2.9-7.4-2.9-7.4 2.9-.4 6-.1 8 .1a14.7 14.7 0 0 1 7 3.3 19 19 0 0 0 6.2 2.7c0-.8-2.2-2.1-2.7-2.4-.5-.2-.7-1-.7-1 2 .4 3.3.2 3.3.2a47.2 47.2 0 0 1-8.7-6.2c2.6.3 4.1-1.3 4.1-1.3-5.5 0-5.7-1.3-5.7-1.3.7.1 3.2.8 6.5.1s7.8 0 7.8 0c-2.4-3.8-11.5-3.1-14.5-3-3 .2-4-.2-4-.2.4-.2 1-.7 3.2-.8 2.3 0 4.6.3 7.2-1.6 2.5-1.7 6.1-1.1 6.1-1.1-.8-1.8-5-2.4-8.6 0-3.6 2.2-7 1.6-7 1.6 5.8-.8 7.4-2.9 7.4-2.9-1.6-.5-2.6.1-6 .8-3.5.7-4.4-.5-4.4-.5 3.7-2.2 6.4-3.1 6.4-3.1-3.2-.8-6.2-2.2-6.2-2.2-3.3 3.2-6 5-12.4 1.7-6.4-3.5-9.8-3-9.8-3a15 15 0 0 1 15.7.6c4.2 2.5 5.5.5 5.5.5-1.4-.8-1.2-1.6-1.2-1.6 10.2 5.2 14.7 2 17 .5 2.2-1.6-1.1-3.6-1.1-3.6-.2 3.2-4.4 4.9-7.7 3.7-3.3-1.1-6.3-2.5-11-4.6-4.8-2-10.6-.9-16.2.3-5.6 1.1-6.2.6-6.8.2-.5-.5-.7-1.8-3.6-.7-2.8 1.2-9.4-1.9-13.5-2.9a25 25 0 0 0-16.5 2.7c-5.8 3.3-8.7 2.5-10.4 1.7-1.7-.8-2.9-3-1-5s2-2.4 1.9-5.2c-.2-2.8-3-4.5-3-4.5 2.6-2.6 3.2-3.3 2.3-4.4-.8-1.1.5-1.1 2-1.8 1.5-.6.8-.7.5-1.6-.4-.8-1.2-.6-1.2-.6-3.4.1-5.3-.9-5.3-.9-5.5-2.5-10.8 2.5-10.8 2.5-3.1-2.5-3.9-.8-4.5-.3-.4.6-1.6 1-3 1.2-1.4.1-3.5.6-4.1 2 0 0-.7 1 0 2 0 0 .9 1.4-.6 3-1.6 1.6-2.2 1.9-1.6 3.4.4 1.5.3 2.7-.4 3.6 0 0-.7-.8-.5-1.8.2-1 .2-1.7 0-2.2 0 0-1.6 1.5-1.8 2.6 0 0-.7-1.7 1.6-4 2.2-2.2 3.3-3.3 2.6-4.2-.5-.7-2.1.4-2.5.7z"/>
  <path d="M307.5 360.6s-2.8-2.2-2.5-5.2c.3-3 .3-3.2 0-4 0 0-.6.3-.5 1.5l-.2 2.4s-1.5-2.4-2.2-2.9c0 0 .6-2.6-.2-3.7s-1.6-1.2-2.5-.8c-1.4.4-2.3 1.6 2 5.2 0 0 1.6 1.3 2.7 4 1.1 2.9 3 3.3 3.3 3.5zm14-8.3s-.3-1.6 1.3-4.6a6.5 6.5 0 0 0 .2-6c-.3-.8-.5-.5 1-1.8 2-1.6-.7-3.6 2.5-6.4 0 0 2-1.7 2.4-2.4 0 0-3.2 1.7-5.4 2.6-2.2.9-10.3 4.9-8.5 7.6 1.8 2.7 1.6 2.8 1.3 4 0 0-5-2.6-3.1-6.8 0 0 .7-1.6 2.7-3.6 2-1.7.9.4 4.6-1.8 0 0 3-1.8 4.6-4.1 0 0-2 1.2-2.7 1.4 0 0-4.4.8-6.2 2.6-1.7 2-5.5 5.1-4.3 8.7 0 0-4.3-.5-5.3-5 0 0-8.1 9.9 9 14.6 0 0 3 .9 5.9 1z"/>
  <path fill="#ffc221" d="M396.2 318.9c6.4-.9 43.2-6.5 46.6-6.9 3.6-.3 5-.8 6.2 2.2 1.4 3.2-5 3.3-5 3.3l-44 5c-2 .2-2.5-.6-2.5-.6l-1.7-2.2s-.5-.6.4-.8z"/>
  <path fill="#5a3719" d="M306.4 339s-4.8 9.9 13.9 12.3c0 0 0-1 .8-2.7.8-1.5 2.4-4.7.8-6.7-1.5-2 1.3-1 1.6-3.7.5-2.6-.2-2.3 1.1-4 0 0-5.8 2.1-8 4.7-2.3 2.6 3 4.5 0 7.4 0 0-2.8-1-4.3-3.9 0 0-3.6.1-6-3.5z"/>
  <path d="M324.7 351.2s4.6 4 10 3.8c5.5-.2 7.9-1.6 9.3-3.8 0 0 1 1.6 1 2.7 0 0 4.8-3.9 13-.4s5.6 2.4 7.4 2.7c0 0-3.5-.6-11.4 3-8.2 3.7-29.6 2.4-29.4-8z"/>
  <path fill="#5a3719" d="M317 333.5s2 .4 4-2c0 0-2.7.6-4 2zm-15.7 18.6s-3.8-3-1.4-3.6c0 0 1.8-.4 1.4 3.6z"/>
  <path d="M385.1 371s2.2-3.7 8-3.7c6 0 6.6 2.8 14 3.3 0 0-8.9 2.5-15.1.3a8.9 8.9 0 0 0-6.9.1z"/>
  <path fill="#5a3719" d="M326.6 353.9s9 5.3 16.8-.5c0 0 .6.6 1.2 2 0 0 6-5.7 16.6.5 0 0-1.3-.2-6.3 2-6.5 2.8-22.9 4.7-28.3-4.1z"/>
  <path d="M360.8 359.3s8.5 1 15.6.5c4.4-.2 9.2-1 6.9.4-2.5 1.5-1.3 1.7 8.9.8 10-1-.1 1.9 6.8 2.8 0 0-16.9 8.6-38.2-4.5z"/>
  <path fill="#5a3719" d="M383 353.9s5-1.8 9.7.3c4.5 2.2 3.8 2.4 6.9 2.7 0 0-2.1 3-7.2.6-5-2.5-6.4-3-9.4-3.6zm5.6 15.2s4.9-2.4 10.3.1c.6.4 2 1 3.5 1.3 0 0-4.1 1.3-8.4 0a30 30 0 0 0-5.4-1.4zm-24.2-8.7s11 1 16.8-.2c0 0-6.8 3.3 10.4 1.8 0 0 3.7-.4 3.3.2-.5.6-.8 1 1.1 1.6 0 0-12.7 5.8-31.6-3.4z"/>
  <path d="M310 351.2s.1.8 2.5 1.9c2.5 1 3.8 3 4.3 4a6 6 0 0 0 3.7 3.1s-8.6 1.8-12.3-2.7c0 0-3-3.1 1.7-6.3"/>
  <path fill="#5a3719" d="M377.2 370.9s-3.3-.3-8-1.8c-4.6-1.7-5.8-.3-8.4-2.2-2.6-2-7.9-.8-8.8-.6-1 0-3.8 0-.4-2.3 0 0-2.7 0-3.8-1.5 0 0-1.2 1.3-6 .8 0 0 2.2 3.3-6.3 2.3a11 11 0 0 0 11.8 3.3s-.6 2.6 3.3 3.6c4 1 4.7 1.7 6.8 2.5 0 0 .2-1.6-5-5.4 0 0 2.8-.1 6.8.9s13.1 3.2 18 .4zm2.1 3.9s.9 2 3.5 1.5c2.5-.5 6.7-1.2 10.8.9 0 0 .8-3.5-7.5-3.7 0 0-5.1.2-6.8 1.3zm-69.6-22.4s-3.2 2.6-.3 5.3c2.6 2.5 6.7 2.3 8.7 2.2 0 0-1.3-.6-2.2-2.2-1.1-1.5-1.1-2.6-3.3-3.6-2.2-1-2.5-1.2-2.9-1.7zm-3.2-13.5s-4.9 10 13.9 12.4c0 0 0-1 .8-2.7.6-1.5 2.3-4.7.8-6.7-1.6-2 1.2-1 1.6-3.7.4-2.6-.3-2.3 1-4 0 0-5.8 2.1-8 4.7-2.3 2.6 3 4.5 0 7.4 0 0-2.8-1-4.3-3.8 0 0-3.6 0-6-3.6z"/>
  <path d="M355.4 362s4-.7 13.9 3c10 3.7 14.1 2.8 15.6 2.8 0 0-5.6 2.9-14.3-1-7.7-3.4-8.2-2-15.2-4.8z"/>
  <path fill="#ffc221" d="M417.8 359.8s2.2-.1 3.6.4c0 0 .8-.7 3-1 0 0-1.4-1.2-6.6.6zm-6.8-5.6s2.2 0 3-1.2c0 0-1.3-1.4-3-2.2 0 0 .4 1.7 0 3.4zm-76.5-25.4s-.5-1.2 2-1.5l33.3-4.8s1.6 0 1.9 1c.2 1.3-.2 2.1-7.7 3-7.5.8-27.3 3.3-27.3 3.3s-2 .4-2.2-1z"/>
  <path fill="#ffc221" d="M364.7 327.4s0 4.4 4.5 5c4.3.7 5.8-.2 7-2.5.3-.6 1.6-5.2-.3-5.5a7 7 0 0 0-3.1.3c-1.5.7-2.9 1.4-2.5 2.1 1.2 1.7 1.4 2 1 2.2-1.1.3-1.9-.7-2.1-1.4-.2-.8.6-1.3-2.3-.8-1.2.1-2.2.1-2.2.6z"/>
  <path fill="#ffc221" d="M383.3 324c2.2.3 2 5.1-.6 7.3-3 2.4-5.7 1.5-5.7 1.5-1.6-.6-1.3-.4-.2-2.1 1-1.7 1.6-3.9 1-5.4-.2-.5.3-1 1-1 0 0 2.2-.5 4.5-.3z"/>
  <path fill="#ffc221" d="M385.3 324.5s1.6 2-.4 5.8c0 0-1 1.1 1.1 1 2-.2 6.6-2.3 6-5.1 0 0 0-.7-1.3-.7-1.2.1-.2-.6.3-.8.5 0 2-.7-2-3.3 0 0-.6-.5-1.4-.3-.6.3-2.7 1-2.7 2.4 0 .5.4 1 .4 1z"/>
  <path fill="#ffc221" d="M389.6 321s3.3 2.3 3.2 3c0 .6-.3 1.6.6 1.4.8 0 4.2-.8 3.3-3-1-2.3-2-3-3.5-3.7-1.6-.5-2 .2-3.4 1.3 0 0-1 .6-.2 1zm-17.1 3.2s.5-1.6-2.4-2.3c0 0 1.2-1 3.7-.5 2.3.5 2.1 2.2 2.1 2.3 0 0-1.9 0-3.4.5zm6.2-.4s3.2-.6 4.7-.4c0 0-1.6-3.6-6-2.5 0 0 1.6 2 1.3 2.9zm5.6-.8s0-1.2 2.8-2.3c0 0-1.3-1.3-3.3-1.1-2.1 0-2.6.8-2.6.8s2.5.9 3.1 2.5zm1-4s1.9.6 3 1.5c0 0 1.6-1.8 3-2.2 0 0-2.7-1.4-6 .8z"/>
  <path fill="#5a3719" d="M294 310.3s7.7-6.5 12-5.7c4.3.8 2.2.3 6.8-.5 4.8-.7 9.6-1.2 11.6-1 0 0-5.8-4-15.9-4 0 0-7.1 2.5-12 5.8 0 0-9.6-5.3-19.4-2.2 0 0 10.7 4 17 7.6z"/>
  <path fill="#ffc221" d="m375.6 321.6 1.3-.2s2.1 2.6.6 2.6c-1.3 0-.9-.3-1-1a2.5 2.5 0 0 0-1-1.4zm-9.7.2s-.8 1 .7.8c1.8-.3 1.5 0 3.3-1.3 0 0 1.3-1.3 3.5-.5 0 0 1.8.6 3.3-.1 1.6-.8 1.9-.7 2.7-.7.8.1.8.3 1.8-.5 1.2-.8 3-.2 4.2-1.2 1.2-1 2.7-.1 0-2 0 0-.6-.6-.5-1 0 0 1 .3 1.9 1 .8.7 2 .5 2.3.3 0 0 .2-2.4 2.5-4.6 2.4-2.2 2.4-2.3 1-2.3s-3.7-.6-4.5 0-7.7 5.1-11.8 5.9c-4 .8-7.7 2-10.4 6.2zm-108-25s12.5 3.2 15.2 4.5c0 0 .7-2-5-3.6 0 0 13.8-.4 28.2 6.2 0 0 7-6 29.6-4.2 0 0 0-2 .2-3.5 0 0-15.8-.5-30.3-9.3 0 0-13.1 6.4-37.9 10zm69 6c-.7-12.7 4-13.9 4-13.9s2.4.1 4.8.5c0 0-3.8 4.6-2.8 13.7 0 0 .4 1.4-2.8 1.4S327 303 327 303z"/>
  <path fill="#5a3719" d="M330.3 311.2s-2.4-2.4-2.6-5.2c0 0 0-.7 2.3-.7 2.4.1 2.7-.1 3.3 1.3.5 1.3 2 4.1 2.4 4.5z"/>
  <path fill="#ffc221" d="M335.4 304.9a30.2 30.2 0 0 1-.3-4.9c.2-7 1.3-6.4 1.8-5.5h2.5s-1.8-8-4-3.3a20.3 20.3 0 0 0-1.6 11.2c.2 2.1.4 3.4.7 4.2z"/>
  <path fill="#5a3719" d="M362.8 304.9s4.6.8-2.5 2.4c0 0 .3 8.7 8.7 2.6 0 0 5.1-3.2 8.5-4.5 0 0 1.8-.5 1.6-1.9 0 0 .2-1.6-1.6-1.2 0 0-1.5 0-2.5-.3 0 0-1-1.2-1.6-.8-.7.5-2.3.2-1 1.8 1.2 1.4 1.6 1 2.2.6.6-.4 3.3-1.4.8.8s-4.4-1.3-5.2-2zm-23.5 1h-2s-1.2 1.6-2-1l-.7 1.7s2.4 9.3 4.7-.7z"/>
  <path fill="#ffc221" d="M336.4 295.1s-1.1 6.2.3 9.8l22.5.5s-.3-4.3 0-10.3H356s-.5 5 0 8h-.6s-.4-4.2 0-8h-2.6s-.4 4.6-.1 8h-.5s-.4-4 0-8h-2.5s-.5 4.1 0 8h-.7s-.5-4.1 0-8h-2.9s-.6 3.9 0 8h-.5s-.7-3.9 0-8h-2.9s-.6 4.4 0 8h-.6s-.4-4.2.1-8h-2.7s-.7 3.7 0 8h-.7s-.4-3.2.2-8h-2.7zm23.7 11.1s-.5-11 1.5-13.8c2.1-2.8 2.6-2.3 6.2 0s8.2 4.8 9 5c.7.3 1.8.6 1.8 2.6s.3 2.6-2.8 0c-.4-.3-1.9-1.6-3-2-2.7-.8.7.6 1.7 2.1.8 1.2 1.6 1-.6 1.6a233.6 233.6 0 0 0-13.8 4.5z"/>
  <path d="M368 298.3s-1.7-2 .5-2.4c2-.5 2.2 3.2 2.6 5.4.3 2.3-2.6-2.2-3-2.9zm-3 9.7s-2.4.9-.8 1.6c1.6.8 6-2.9 4.5-2.6-1.6.2-3.7 1-3.7 1zm3.3-3.4s2.1-.2 1.6.7c-.3 1-1.1.4-1.4.1-.4-.1-1.8-.7-.2-.8z"/>
  <path fill="#ffc221" d="M379.7 301.7s.5 4.2 4.1 5.3c0 0 2.2.5 1.7-1.3l-.6-2.2c-.3-.7-1.8-1.1-2-1.2-.1 0-.3-.5.7-.1 1 .3 1.1.4 1-.4 0-.7-.6-.4-1.5-.8-.3-.2 0-.5.4-.4.4 0 1.3.4 1.3-1 0 0 .2-.9-.9-.9-1.2 0-1.1-.6-.8-.7.4 0 1.6.8 2-.7.4-1.4-1.7-.5-1.4-1.3.3-.8 1.8.4 1.8-.5.2-.8 1.4-1.2-.7-1.5-.9-.1 0-.6 1-.4 1.2.1 1.9-1.2 2.5-1.7.8-.5 4.5-2.7-.6-2-5 .7-6.5 3.2-6.7 3.7a13.9 13.9 0 0 0-1.3 8.1z"/>
  <path fill="#ffc221" d="M391.4 305c.7-.1 1.3 0 1.5.4.8 1.7-1 1.2-2.1 2.4s-1.2 1-2.6.6c-1.5-.5-2-2.7-2-2.7-.2-.8.4-.8 1.1-.7 0 0 2.5.3 4.1 0zm-5.4-.9s0 .4 1 .5c.7 0 3.2.3 4.8-.2 0 0 .4 0 .2-1 0 0 0-.7-1.3-.4-1.4.2-3.3 0-4-.1-.6-.2-1 0-.7 1.1zm-.2-3s0 1.2 1.2 1.4h3.7c.6 0 1.5-.3 1.6-1 0-.9.3-1.4-1.4-1s-3.6.1-3.8 0c-.2 0-1.3-.3-1.3.5zm.6-2.8s-.4.7-.3 1.2c0 .6 1 .9 2.7.9 1.7 0 3.3-.3 3.4-.9.1-.6.5-1.3-.8-1a12 12 0 0 1-3.8 0c-.7-.3-1.2-.4-1.2-.2z"/>
  <path fill="#5a3719" d="M450.2 305.1s0 1.1.9 2.4l-48.2-1.4s.6-.4.8-2.3z"/>
  <path fill="#ffc221" d="M386.8 296.4s-.4 1.2.4 1.4c.8.3 2.3.5 4.3.2 0 0 1 0 1.3-1 .4-1 .3-.5-2.4-1 0 0-.9-.3 1.6-.3 0 0 1.5 0 1.6-.2.3-.2 2.2-1.8-.3-1.6-2.4 0-1.2-.5 0-.5 1.3 0 1.6.3 2 0s0-.2-.6-.9-.2-.5.3 0c.5.3.8.4 1.3 0 .6-.6-.4-1.3 0-1.2.4 0 .7.9 2.2.2 1.7-.9 3.8-.5 4.4 0 .5.4 2.2 1 3.2 0s-1.2-2-.3-2c1-.2 1.6.2 2-.6.4-.8-1.5-1.4.3-2 1.7-.4.2-5.3-.3-5.7 0 0-2 1.1-4.1 4.5-2.2 3.5-3.5 5.6-6.4 4.5-4-1.6-6.3.7-7 1-1 .7 2.2 1 .3 1-1.8 0-1.8.2-2 .5-.1.2 0 .5.4.6.3 0 1 .6-.1.6-1.2 0-2-.2-1.6 1 0 0 0 .2.6.3.7 0 1 .8-.3.8-.8 0-.8.3-.8.4zm4.4 12s-.8.6.3.7c1.2 0 1.8.3 2.2-.3s2-.4 1-1.3c-1.2-.9-1.9-.4-3.5 1z"/>
  <path fill="#ffc221" d="M396.2 293.9s4-3.8 7.3-1.2l3.8 3s.4.3-.5 1.1c-1 .9 0 .9 1 .3 1-.5 1 0 1.5.6.5.5 1.2.8-.4.8H404s-2.2.2-1-.8c1-.9.8-2 .3-2-.6 0 0 .6-.4 1s-1.1.8-2 .8-1.4.6-.2 1c1.3.5-.1.8-.8.8s-3.7.2-.6.6c3.2.4-.3.3 2 1.6 2.7 1.5.8 4.6-.2 4.9 0 0-1 .6.3.4 1.4-.2 2.1-.3 1.1.4-.9.8-2.8 3.1-5.4 1.3 0 0-1.3-.5.9-.7 2.2 0-1.8-.6-2.5-1-.6-.4-3-3-1.5-2.7 1.6.3 1-.6 0-.9-.9-.3-1-1.7 0-1.5 1 .4 2.2 1 3.1.9.9 0 .6-.4-1.2-.9-1.8-.6-2.5-.7-2.1-2.2.4-1.5 2.4.6 2-.5-.5-1.2-2.3-.6-1.4-2s1.2-.9 1.6-.7c.4.1 1 0 0-.8-.9-.6 0-1.4.2-1.6z"/>
  <path d="M399 295s0-.5.8-.4c.7 0 .5-.3.7-.5.2 0 2 .6.3 1.2-.6.2-1.6 0-1.7-.3z"/>
  <path fill="#ffc221" d="M403 299.2s-1.4.7-.2 2.1c1 1.3 1 1.7 1 2.5-.1.8 46.4 1.3 46.4 1.3s-.1-3 1.8-4.7l-49-1.2z"/>
  <path fill="#5a3719" d="M450.9 304.3s.2-2.6 1.6-3.4c.8-.5 1.8-.2 2.2 1.8.7 2.9-1.8 5.4-2.9 4.3-1-1-.8-2.7-.8-2.7z"/>
  <path fill="#7b3c20" d="M397.6 315.1s3.1-2.7 3.6-3.8c0 0 8.4 6 7.9.5 0 0 0-1.5.2-2.9 0 0 3 .4 3.5-2l-7.8-.3s-.8-.2-2 1.1-3.7 2.7-6 1.5c0 0-1-.8-2-.1-1 .7-1 .8-.2 1.6s2.5 3.1 2.8 4.4zm18-16.4-4.6-.1s-1.6-2.4-4.9-5c0 0-1-.4.8-1.9 2-1.5 2.5-3 2.5-3.8 0-.6 0-1.8.7-1 .6.9 5.3 5.2 6 4 .7-1.3.9-1.9.9-2.3.2-.4.3-1.6 1-.3.7 1.2 1.1.9 1.2 4 0 0 0 3.3.6 4.4 0 0-6-1.9-4.1 2zm-19.8-9.8s3.5 2 5.2-.6c1.6-2.6 2.8-3 1.5-5.7-1.3-2.4 0-3.6 1-4.7 1-1 1.9-.8 2-5 .1-4 3-5.3 4.2-6.6 1.3-1.2 4.4-3.1-.4-4-4.7-.7-14.3-3.2-16.7-6.9-2.5-3.7-3.6-1.5-3.6-1.4 0 .2-.8 2.9 1.6 7.8s4.5 8 7 9.6c2.3 1.7 4.4 2.5 3.2 5.8s-3.2 9.1-5 11.8z"/>
  <path fill="#5a3719" d="M408.7 278.5s.5 8.5 6.7 11.5c0 0 1.4-3.3.8-6.6 0 0 2 .2 2.6 1.1 0 0 0-2.4-2.8-3.3-3-.9-1.5-6.4-.5-7 1-.6.7-1.8 0-2.8-.7-1-.8-2.4 1.6-1.8 2.4.6 2-.6.5-1.8-1.4-1.2-1.3-2.7.7-2.7s5.5-2 3.4-2.6c-2-.6-2.7-1.3 0-2 2.9-1 4.3-1.9 2.2-2.1-2.2-.3-3.6-1-1.5-1.3 2-.4-.3-2.5-2.7-2.6-2.5-.1-7.5.8-3.5-2.4s-5.7-.8-1.7-3c4-2-1.4-1.2-2.2-1.2-.7 0-.7 0-.4-1 .3-1.1-.5-1.7-1.8-1-1.1.7-1.1.7-1-.8 0-1.5-1.4-.4-2.3 0-1 .4-3.1 2-4.1 1.2-.8-1-1.3-1.9-4-.3-2.9 1.7-2.2.3-2.1-.5 0-.8 1-3.6-2.7-.5s-.8-3.3-3.7-1.2c-3 2.2-3.3 2.6-3.8 1.7-.4-1-1-1.8-4.3.3-3.3 2-.8-1.3-.4-2 .5-.8 1.9-5.5-1-1.8 0 0-1.4 2.6-4.5-2 0 0-3.2 4.6-4.1 2.5-.9-2-1.7-2.2-2.8-.9-1 1.3-.3 0-.7-1.2-.5-1-.8-3.1-6.3.8-5.4 4.1 2 1.2-2.2 3s-14.3 7.5-5.1 6.2c9.3-1.3-4.5 3.6-1.3 4.5 3.2.9 2.2 3.7 14.3.4 12-3.3 10-.5 16.2-3.2 6.2-2.6-1.4.9 6.8.8 8.3-.3 1.4 0 3 1.6 1.7 1.7 8.6 5.7 15 6.5 6.6.6 8.2-1.8 6.4 1-2 2.8-2.6 3.9-3.7 5-1 .8-4.2 3.1-4.3 7 0 3.9-5 4.5-3.2 8.9l4.5-4.4z"/>
  <path fill="#5a3719" d="M419.4 288s-1.5-1.1-1.5-3c0 0 1 .2 1.5.8 0 0 3.7-4.2-.9-5.7-4.4-1.6-2.2-5.6-.6-5.6 1.5 0 1.8-.4.5-2.2-1.3-1.6-1.2-1.8 1.4-2.2 2.4-.4 2.2-1 1-1.6a8.2 8.2 0 0 1-2-1.6s7.2-3.1 4.9-4.6c-2.4-1.4 0-1 2-2.5 2.2-1.5 2.5-1.8 2.7-2.4 0 0-2 .2-3.6 0 0 0 1.8-1 0-2.5s-2.4-2.7-5.4-2c-2.8.6-1.8-.3-.8-1.5 1.2-1.2.7-1.9-1.4-2.2 0 0 .3-1.2 1.8-2.7 0 0-3.9.3-5.2-.4 0 0 1.6-1 1.6-2.4 0 0-2 .8-4.8.5 0 0 1.7-1.4 1.7-2.6 0 0-4.8 1-7 2.7 0 0-.4 0-.7-.6-.4-.4-.7-1-5.9.6 0 0 .6-2.3 1.9-3.3 1.2-.8 1-2.6-7 2.4 0 0-1.1-.6-2-3 0 0-1.8 2.4-3.1 3.2 0 0-1.2.5-1-1 .2-1.7-.8-.6-1.6 0-.8.3-1.4 1.5-1-1.7s-1.2-3.9-1.2-3.9-2.4 3.6-3.9 4c0 0-2.6-2.6-3.6-4.3-.9-1.6-.9-2.3-1.8.7-1 3-2 3.2-2 3.2s-1.7-1.4-1.9-2.2c0 0-.2.9-.8 1.2 0 0-1.4-1.7-1.3-4 0 0-8.7 4.8-9.8 7.7 0 0-8.2-.5-11.5.1 0 0 .8-2.6 3-4 0 0-2.2-.2-2.3-2.4 0 0 1.7.2 2.8 0 1-.3-1.5-3.4 1.2-3.5 2.7 0 4.4 1.3 3.3-2.3-1.3-3.6-.8-3.6-.8-3.6s4.8 2.8 5.5 2c.8-.6-.6-2 3.6-1.4 4.2.8 3-1.6 4.7-1.8 1.6 0 2.4 1 1.4-6.5s5.1 3.7 1-7.7c0 0-1-3.5-3.6-5 0 0-.6 2.5-3.3.4-2.9-2.3-8.4-3-6-4.8 2.3-1.8 3.4-4 2.7-5.5 0 0-2.8 2.8-7.5.8-3.8-1.7-4.6 1.3-8.4.5 0 0 0-1 3.2-3.6 3.3-2.6-1.8.8-3.8 1.3-2 .5-2.6 0 1.6-3.3 4.3-3.3 12.8-9 11.6-13.9 0 0 2 2.6 7.3.7 5.2-1.8 9.2-2.5 10.7-5.3 1.6-2.6 5.7-5.3 6.8-6 1.1-.6 2.5-1 .9 1.6-1.7 2.6-4.3 7-11.5 10-7.3 3-10 5.1-11.4 6.8-1.3 1.5-8 5-3.6 4.5 4.3-.7 11.7 0 8.2-1-3.4-1-7.4.6-4.2-2.3s3.8-3.8 8.4-5.8c4.7-2 9.8-6.4 9.3-1.6-.5 4.6-9.2 9.7-11.3 11.2-2.1 1.6-1.3 1.4-1.3 2 0 .6-.3 1.9-1.2 2.4-.9.6-.6 1.3-.4 2.6.3 1.4-.2 1.9.4 2.1.7.2 1.3.3 1.5 1.2.3 1 .7 1.1 2 1 1.2-.1 2 0 2 .8.2.7 1.4 1.7 1.5-.5.1-2.3 1-2.7-1.3-1.7-2.3 1-2.8.7-2.7-.4 0-1-.3-.8-1.2-.9-1 0-1.3-1.4.4-2.3 1.7-.9 1.7 0 3.8-1.8 2.1-1.8 2.1-2.2 2.5-3 .3-.9-3 2.4-4.7 3.1-1.6.8-1.1-.5-.8-2.3.2-1.8 4.2-4.3 6-4.3 1.9 0 6 1 4.3 3.6-1.8 2.5-6.9 5.5-4.8 5.7 2.2.2 2.6-.6 3.9.4 1.2 1.2 0 3.5-.5 4.7a9 9 0 0 1-2.4 3s-2.3-4.2-2.2-.9c0 3.3-.5 4.4 0 4.5.5.2 3 1.9 3.8 1.9s-4.4 2.4-2.2 2.6c2.2.2 5.8-1 7-3.3 0 0-4.6-1-6.3-2.7 0 0 5.1-1.2 3.7-6.2 0 0 5.2 1.4 3 3.8-2.3 2.3-3.7 2-1.7 2.6 2 .6 2.8 1.2 2.8 1.2s1.4.7.6 1.7c-.8 1.2-.8 2.8 0 2.7.5 0 2.7-1 1-2-2-1.2 2-1 .3-2-1.6-1-2.1-1.1-2.5-1.6-.5-.4 21-13 10.1-8.3 0 0 2.3-5 5.5-5 3 0 3.3 2.5 1.6 4.5-1.9 1.9-3 4.9-7.2 5.5 0 0 6 3-1.1 7.8 0 0-1.6.7-1 1.2.6.6 4.8-1.8 5.4-3.2a5.9 5.9 0 0 1 3.1-3.2c1.6-.8 9.6-6.2 12-10.3 2.4-4 3-4.1 7.6-7.9s3.9-3 4.5-3.9c.6-.9.8-2.4 3-3.6 2-1.2 10.4-5.8 13-7.7 2.6-1.9 8-5.4 10.2-8.3 2.3-2.9 8.5-6.6 10-6 1.6.8 0 3-3.7 5.7s-12.6 10-14.1 11.2a47.7 47.7 0 0 1-12 7c-2.8.4-2.5 1.4-4.2 3.3s-5.7 5.7-7 6.7c-1.3 1.2-4.5 3.3-4.7 4.9-.1 1.5.6 1.7-2 4-2.5 2.5-9.9 7.9-12.7 8.7 0 0 4.8 1.6 2 4.9-2.9 3.2-2.7 2.7-2.9 3 0 0 7.2-1.2 2.2 4.5 0 0-1.1 1.7 1.2 0 2.4-2 1.4-4.4 1.1-4.7 0 0 3.9-2.5 8.4-2.5 4.4 0 4.2-.4.2-1.5 0 0 2.9-3.5 5.2-1.7 2.5 1.6 1.7 2.7-.8 4-2.6 1.4-6.3 1.8-9 3.4 0 0 5.2 1 8-1.1 2.8-2.2 3-1.1 3.3-.7.4.4.7 1-.5 2.9-1.3 1.8-1.4 1.8-1.3 2.2 0 .5-.2 1.7-2.7 2-2.4.5-3.7 1.6-2.8 2.8.8 1.2.8 4.1-1.3 3.9-2.1-.3-1.6-2-2.4-2.7-.8-.6-2-1.6-5.8.3-3.8 2-4-.4-3.9-1.7 0 0-2.4 2.2-4.5.3-2-2-.2-2.8 1-3.8s6-3.1 3.1-2.7c-3 .3-7.2.5-8.1-1.6-1.1-2.3 2-2 2.6-1.8.5.1 2.4 1.8 2.6-.3 0-2.3 3.2-2.5 2.1-3-1-.3-2.6 1-3 1.6 0 0-2.2-3.1-5.8-2.2-3.6 1.1 1.1.7 2 .9 1 .1.4 2-2.8 4.9-3.2 2.8-1.8 2 .6 2 2.5 0 8.3 0 5 2.7-3.5 2.9-4.9 4.2-6.6 3.8-1.8-.5.1-1.7 1-2.3.8-.4 1.2-1.3-.5-.6-1.7.6-2.2.7-3.6-1.6-1.3-2.5-.8-1.7-.2-3.3.6-1.6 1.9-3.2.3-2.6-1.6.6-1.4.6-1.3-1.2.1-1.8-1.8-2.2-1.8-2.2s.9 1.8.1 3c-.6 1.1-.7 1.5.4 1.8 1.2.3 2.2 1.3.7 2.3-1.6 1-1.3.9-.4 1.5 1 .7 2.4 1.4.9 2.9-1.5 1.4-.3 1 .5 1s2.4.6 2.4 2c0 1.5 0 1.8 2.4.5 2.4-1.4 7.2-1.2 7.2.6-.1 2-.7 2.5 2 .8 2.5-1.6 3.6 1.5 5.4 0 1.7-1.5 2.9-3 5-.4 2 2.6 1.3 3.3-1.2 5.2-2.4 1.8 1.3.4 3.1-.6s7.2-1.6 10.3-.2c3 1.3 3.9 1 6 0 2.4-.8 3.5-1 6.9 1.2a13 13 0 0 0 7.8 2.6s-3.7 1.5-8 1.7c-4.2.4-6.4 1-7.2 1.7 0 0 2.5 1.7 3 3.5 0 0 2.8-.4 4.1.1 0 0-.6 2 1 3.1 1.8 1.1 3 1.5 1.7 3s2 .8.1 2.8c-1.8 2.2-2.3 3.1-2.4 4.9 0 1.6.4 1.8-1.2 2-1.6.2.3 2-.5 4.3-.7 2-5.3 1.8-5.1 7.7 0 0 1.3-2.8 4-5.4 2.7-2.4 2.8-2.7 2.7-4.2 0-1.5-.1-1.2 1.4-2.3 1.3-1.2-.7-2.2.8-3.9 1.4-1.6.1-1.3 1.9-2.9 1.6-1.6-1.6-1.8.2-3.5 1.6-1.6-4.3-3.7-2.5-4.7 1.7-1.1 4.6-2.7-5.3-2.5 0 0 2.4-4 10.7-3.1 0 0-2 1.6-2.3 3.1l1.6.7s-.4 1.1-2 2.4c0 0 4.5 2.5 5.2 4 0 0-2.7.8-3.4 2 0 0 1.2 1.4 1.6 3 0 0-3-.3-3.4 2-.4 2.2-1.3.7-1.3 2s0 1.9-1 2.1c-1 .2-.2 1.3 0 2 .1.8.5 2.5.4 3 0 0-1.6 0-2.3.2 0 0 .5 3.3-1.3 3.7-1.8.5 1 1.2-1 1.5-1.9.3-1.6.5-4 4.7 0 0 2-1.1 4-2.5 2.2-1.4 0-1 3.4-4.3 3.4-3.5 2.8-3.7 2.5-5.4-.3-1.7-.3-3.1.9-4.8 1.3-1.6 1.6-3.5 6.1-3.2 0 0-1.3-3-3-3.7 0 0 2.2-1.5 4.4-1.6 0 0-2-2.5-6-4.7 0 0 3.3-2.9 4.1-4.2 0 0-1.5.3-2.8 0 0 0 .6-1.3 3.6-3.3 0 0 1.7 1.5 1.5 3.1 0 0 5.2-2.9 8-2.5 0 0 1.5 3.6-5.6 10.5 0 0 4.4.4 6.3.2 0 0-1 3.3-6.4 5.3-5.3 2 1.1 4.4-4.3 4-5.4-.4-3.8 1.4-3.6 4.1.1 2.8.3 5.7.2 6.4 0 0-4.3-1.4-4.2 2.8 0 4.2-2.3 5.1-2.7 5.5 0 0-1.3-1-3.2-1.8 0 0-2.7 5.1-7 8.1z"/>
  <path fill="#7b3c20" d="M413.2 235.2s1.4-.2 4 1.4c2.4 1.6 4.9-1.7 2.2-2.5-2.9-.8 0-1.9 2.4.2 2.6 2 3.6 1 4.5.3 1-.7 2-1.2.3-2.3-1.7-1.2 1.2-.6 2.5.3 1.3.8.8 1.6.6 1.8-.2.3-.3 3 2.2.5 2.6-2.6 3.9-5.1 3.8-6.4 0 0 1.4.9 1.6 2.5.2 1.6 2.2-.8 2.8-1.7.7-.8 1.7-3.1 1.6-4.8 0 0 1.7 2.7 4.3 0 2.5-2.6 1.5-1 4.5-1.8a18.8 18.8 0 0 0 9-5.5c2.1-2.6 2.3-.8 5-1.5s8.1-4.4 8.6-6.5c.5-2 .4-3.3-.3-2.5-.8.6-.5 0-1.6-.6-1.3-.8-3 .9-3 .9s1.7 1.3.4 1.9c-1.3.5-2.4 2.4-5 1.6-2.4-.7-5 2.4-5 2.4s2.2 1.7-.8 2.8c-2.8 1.2-2.4 1.5-4.1.3 0 0-3.1 3.9-5 4.7 0 0-.7 0-1.2-.8 0 0-2 2.3-3 2.7 0 0-1.4-1.2-2.5-1.6 0 0-2.5 3-4.5 4 0 0-.6-1.2-1.9-2 0 0-.6 4-4.9 6.3 0 0 .3-1-1.9-2.5 0 0-5.3 4.6-7.3 5.1-2.1.4-.3-1 0-1.6.3-.6 1.6-2.5-1-3.3s-2 .6-2.6.8c-.6.3-.6-.5-2.4-.2-1.6.2-1.4 1-2.1 1.3-.8.2-3.8-.5-3.6 1.4.2 2 1.6 3.4-1 4.5-2.7 1.2 1 1 4.4.4z"/>
  <path fill="#5a3719" d="M423.9 229.7s.6-2.6-1.6-3.8c0 0 14-2.2 3.4-7.6 0 0 12.7-2.5 9.7-6.5s-6-3.3-6.3-3.1c-.4 0 2.7-2.4 3.5-2 .8.3 11 4.1 8.3.8-2.5-3.3-2.3-3.1-2.7-4.1 0 0 3.3 0 8.4 4.9 0 0 1-1 1-3.1 0 0 3.5 1 4.7 2.1 0 0 .6-1.2.3-2 0 0 3.2 1.7 4.3 3.5 0 0 1.4-1.2 1.6-2.7 0 0 3.1 1.3 4 2.3 0 0 1-1.4.6-3.3 0 0 5.1 1.5 5.9-1.6 0 0 5.1 1 1.8 3-4.4 2.7-.5-.6-5 2.5-3.4 2.5-5.3 5.3-7 4.7-1.2-.5-2.7 3-4.3 1.4-1.6-1.8-1.6-1-2.9.8a26.1 26.1 0 0 1-3 3.7s-.8-.5-1.6-1.3c0 0-1 1.7-2.2 3 0 0-1-1.4-2.7-2.2 0 0-2.6 3-4.1 4 0 0-1.6-1.5-3.1-2 0 0-.3 4-3.4 6 0 0-.6-1.2-2.7-2 0 0-1.5 2.4-4.9 4.5z"/>
  <path fill="#5a3719" d="M416.5 223.5s-1.7 1.3-.6 2.7c1.1 1.4 1.2-.3 2.6-.3 1.4-.2 18.6-3.2 3-7.8 0 0 .6-.7 3.3-.8 2.7-.4 12.5-3 8-6.5-4.6-3.4-8.5 1.2-4.6-3 3-3.3.6-4.9.6-4.9s-9 6-11 7.2c-2 1-5 3.3-1.5 4.3 3.4 1 5.7-3.7 6-2.6.3 1-6.9 5-5.8 6.9 1 1.8.8 3.4 2.5 3 1.8-.3 6.6.9 2.7.8-3.9-.2-5.2 1-5.2 1z"/>
  <path d="M422.7 214.8s-1.6 1.2.5.6 6.3-1.5 5.6-2.5c-.9-1.2-3.6.1-6 2z"/>
  <path fill="#7b3c20" d="M450.4 196.9s8-.3 11.3 2c3.3 2.2 4.9 3.7 5.9 4 0 0-.2 3-5.3.8 0 0 .3 1.5-.3 3 0 0-1.9-1.4-4-1.8 0 0-.5 1.1-1.1 1.8 0 0-2.3-2.3-5-3l-.8 1.6s-2.8-1.7-5-1.7c0 0 .5 1.7 0 2.5 0 0-5.7-4.7-10.9-4.1 0 0 2.5 3.7 4.1 5.5 0 0-10.5-.8-8.7-6.5 1.7-5.6-.1-4.2 6.7-4.1h13.1z"/>
  <path fill="#5a3719" d="M401.3 212.5s-1.2 1 0 1.8 5.3-2.2 5.9-2.6c.6-.5 2-.4 0 1.2s-4 3.2-5.5 4.9c0 0 7-2 11.5-5.8 4.5-4-.2-1.4 7.5-5.1 7.7-3.8 11.7-9.7 7.6-9-4.1.6-7.9 5.3-11.1 7.1-3.2 1.8-5 2-4.5 1s2.8-.7 7.3-4.2c4.4-3.6 3.4-3.2 3.4-4.5 0-1.3-1.6-4.4 5-7.9 6.7-3.5 27.4-15.5 29.2-19.8 0 0-6 .7-14 6.6a74.3 74.3 0 0 1-14.4 9.4c-2.2.8-2 .2-3.3 2a183.2 183.2 0 0 1-10.8 10.4c-1.4 1-1.9 1.8-2 4 0 1.1-9 8-11.7 10.5z"/>
  <path fill="#5a3719" d="M428.7 196.7s-1.7.6-3.1 0c-1.5-.8-1-4 2.6-5.9a53.3 53.3 0 0 1 13.4-5.1s-.5 4-10.8 7.6c0 0 .7 2-2.1 3.4z"/>
  <path fill="#aa5323" d="M432.3 194s.3 1 0 1.9c0 0 19 1.8 29-9.8 0 0-13.6 1.3-19 4.5 0 0 3.5-4.2 13.6-7.7s14.3-8 15.2-10.3c0 0-13 4.5-19 4.5 0 0-1.2 0-2.4.6-1.2.7-9.3 6.6-11.5 7.6 0 0 4.6-.4 6.2-1.8 0 0-3.2 8.5-12.1 10.5z"/>
  <path fill="#5a3719" d="M395.7 204.9s-2.5 1.8-1.5 2.6c1 .9 2.8 1 6.5-2 3.8-3.3 12.9-11 7.1-11.3 0 0-7.3-.5-7 4 .2 4.5-4.8 6.4-5.1 6.7zm-17-2.7s4.9 2.9 3 5.2c0 0 14.9-12.6 10.6-15.4-4-2.7-7.3 2.5-6.3 3s3.1-.4 2.4.5a82.5 82.5 0 0 1-9.7 6.7zm-3.9-4s3.3 1 3.5 2.4c0 1.3 9.8-6.9 7.2-10.4-1.2-1.5-6.5-2.2-6.8 1-.3 3 4.9-.4 3 1.8-2.2 3-6.1 4.7-6.9 5.2zm34.8-6.9s-2 1.5-.1 2.4c1.9.9 3-.5 4-1.3.9-.9 5.5-4.3 6.5-6.4 1.2-2.2 2.7-2.9 4.4-4 1.7-1 13.5-7 20.8-13.5 7.3-6.5 4.2-4.8 11.7-9s12.5-8 14.1-12.6c0 0-3.5 1.2-6.5 3.2-3.1 2-10 6.3-11.5 7-1.4.5-3.2.6-4.3 1.7-1 1.1-1 2.4-4.6 5.4-3.7 3-22.4 16.2-24.7 18.1a357 357 0 0 0-9.8 9z"/>
  <path fill="#aa5323" d="M394.6 195.7s2-1.1 5.9-.8c3.8.2 19-14.6 23.4-17.5a364.4 364.4 0 0 0 20-14.7c2-1.9 2.3-3.8 3.9-4.9 1.6-1 3.1-.9 6.8-3 3.7-2.1 21.6-12.8 20.6-19 0 0-26.7 15.9-32.8 21.1a400 400 0 0 1-26.3 18.9c-3 2-5.4 5.2-10.5 9.4-5.1 4-10.2 7.6-11 10.5z"/>
  <path fill="#aa5323" d="M389 190s4.9-.5 5.6 2c0 0 10.5-7.3 13-10.3 2.4-3-.9-1.3 5.1-5.2a634 634 0 0 0 28.9-20.4c2.8-2.5 8.3-5.8 12.6-8.8 4.4-2.9 21.3-11.2 19.4-18l-15.2 10.1c-2.8 1.9-4 .8-6.8 3-3 2.3-9.2 6.7-10.3 8.2a172 172 0 0 1-15.3 11.8c-4.7 3-15 9.1-20.1 13.5a643 643 0 0 1-17 14z"/>
  <path fill="#aa5323" d="M373.7 188.6s2.4 0 3.3 1c0 0 4.5-4.1 9.4 0 0 0 18-12.3 19.8-15.3 1.8-3 4.8-3.1 11.7-8.2 7-5.1 11.4-7.3 16-10.8 4.7-3.7 8.7-7.8 12-10 3.3-2.1 11.8-7.7 10.4-12.4 0 0-6.9 3.8-11.3 8.7-4.5 5-4 .8-8.6 4.8A88.2 88.2 0 0 1 419 159c-5.8 2.9-2.3 2.6-6.6 5.3-4.1 2.7-3.8 2.3-5.4 2.7a10.6 10.6 0 0 0-5.4 3.2 53.6 53.6 0 0 1-10.3 6.9 113.6 113.6 0 0 0-17.7 11.6z"/>
  <path fill="#aa5323" d="M379 179.3s-.9-2 .8-3.5c1.7-1.4 5-5.2 5.4-7.5.5-2.5.1-2 5-4.1a200.7 200.7 0 0 0 40.8-23c2-1.6 7-5 8.9-6.6 0 0 .9 2.6-1.3 4.5a237 237 0 0 1-23 15.8c-2.3 1.3-8 4.2-10.1 6-2 1.6-1.7 2.1-10.9 6.6-9.1 4.4-9.5 5-9.3 5.3.3.4 4.4-1.4 6.4-2.6 2-1.1 9.4-4.6 11.7-6.4 2.2-1.8 6-4.5 7.6-5.4 1.6-.8 15-9 19-11.9 3.8-2.8 4.9-3.7 5.7-3.2.8.4 2.2.4.5 2s-7.2 6.6-9.3 8c-2.1 1.3-8.7 5.2-10.5 6.1-1.8 1-2.5 2.7-3.6 3.5-1 .8-4 2.8-7.6 3.6s-4.2 3.6-6.6 5.2c-2.4 1.5-19.3 10.6-19.8 11 0 0 1-1 .3-3.4z"/>
  <path fill="#aa5323" d="M437.5 141.3s-.9.8-.4 1.3c.6.7 3 2.3 6-.6a113.6 113.6 0 0 1 13.4-10.8c2.4-1.5 3.7-2.9 3.6-5 0 0-12.1 6.5-22.6 15.1zm16.7-1s1.8-3.2 6.4-6.1c4.6-3 11.5-7.2 12.3-8.2 0 0 1.6 1.8-1.9 4.1a332.5 332.5 0 0 0-11.4 7.5 15 15 0 0 1-5.4 2.6z"/>
  <path fill="#7b3c20" d="M361.4 174s-5 2.7-3.2 4.4c1.8 1.6 4.5 1.1 5.7.6 1-.4 3.2-1 3.5-1 .3-.1 4.7-1.4 5.9-3.5 1-2 4-4.4 6.4-6 2.4-1.7 3.3-3.5 2.9-4.7 0 0-20 9.4-21.2 10.2zm-30.2 23.4s3.6-2.1 8.5-.8c0 0-.2-1.1-1-1.8 0 0 6-1.5 7.3-4.2 1.3-2.7 1.6-2 2.7-2.8 1.2-.8 9.2-7.3 8.3-8.7-1-1.4-1.1-3.2-1.8-3.9 0 0-1.6 2.3-9.5 6-7.8 3.9-16.5 6.7-22.9 15.2-6.3 8.6-5.6 13.5 2.1 15.7 0 0 5.4-3.4 18.7-2.3 13.3 1.3 17.8 6.2 18.7 7.1.8 1 3.5 4.2.9 9.8 0 0 2.7 1.1 2.8-1.4.3-2.6.4-2 1-1.7.7.5 1.4.5 1-1.4-.2-2-1-6.3-2.4-7.8-1.1-1.5.3-.8 1-.6.8.4 3.6 2.7 2-1.6-1.7-4-2.2-2-2.3-1.9 0 .3-.3 1.3-4-1.4a28.6 28.6 0 0 0-9.4-4.8c-2.4-.6-.7-.6.8-1.1 1.5-.6 3.3-.8 4-2.5 0 0-1.4.4-4-.6a14 14 0 0 0-12.3 2.2s1.3-5-2.6-4.7c-4 .3-6.6.2-10.8 3.5 0 0-.2-5 3.7-7.6 4-2.6 3.4-1 5.6-1.7 2.2-.6 2.4-2.8 1.4-3.6 0 0 5.2 1 13.8-6.2 0 0-4.7 6-10.3 7.3 0 0-.9 3.3-6 4-5 .6-4.9 3.6-4.9 4.3z"/>
  <path fill="#5a3719" d="M316.6 227s2.4-15.1 16.6-16.2c12.2-1 16.2.6 18.6 1.4s8.5 2.5 6.1 4.5c-2.3 1.9-3.6 1.6-3.6 1.6s2.6-3 .2-3.6c-2.5-.4-2.6 1-3 2.2-.4 1.4-.4 2.8-1.7 3.8 0 0-1.2-1.4-3-.2s-.2 1.3.5 1.1c.7-.2 1.6-.6 1.4.6-.2 1-1.1 3-4 4.5-3 1.4-2.9 1.4-6.3 2-3.5.5-6.7 1.9-11.1 5.6-4.5 3.9-9.3 2.6-10.3-1.6-.8-3.7-.4-5.7-.4-5.7z"/>
  <path d="M332.7 226.4s1.3-3-1-4.3c0 0-7.4 1.3-9.7-.9 0 0 8-.5 13-2.5 5-1.8 3.6-3.2 1.9-3.6-1.8-.3-5 .5-5.3 2 0 0-1-1.5.3-2.7 1.3-1.1 3.2-1.3 5-.8 1.8.5 3.3 1.3 9.1-1.7 0 0 3.4.8 3.5 3 0 2.3-.2 3.2-.6 3.5-.2.4-.6 1-1.3 1-.7 0-1.7-.2-2.5 1.3-.8 1.6-1.4 3-2.9 4 0 0 1.7-4.9-2.6-6 0 0-3.5 2-6.2 2.2 0 0 3.5 3.2-.8 5.5z"/>
  <path fill="#5a3719" d="M340.4 217.4s-1.6-1.7.5-2c2.2 0 5 1.5 4.4 2.9-.5 1.3-3 1.2-4.9-.9z"/>
  <path fill="#fff" d="M461.4 193.7s-4 1.1-.3 3.6c3.6 2.4 5.4 4.5 8 5.1 2.7.7 5.4 1.6 5.4 4.3 0 2.6-.6 3.7-2 5.5-1.5 1.9.8 2.6 2.7 1.6l4.8-2.3c1.2-.8 3.3-.7 1.5.3-2 1-4 1.6-1.5 1.6 2.4.1 17.3.4 20.4-.6 3.1-1 7.2-1.3 7.5-5.3 0 0 .2-1.8 1.3-2.6 1.2-.8 2-2.5.3-1.4-1.7 1.3-3 1.8-3.3 1.5-.3-.4-.5-.6.8-1.2 1.2-.6 1.9 0 3-1.6 1.2-1.8 1.1-1.5.5-2.2-.6-.6-2-1-1.3-1.8.7-.9 1.3-3.3-1.4-2-2.7 1.5-8.1 5.2-10.7 5.8-2.4.6-4.3 1.3-7.6 2a30 30 0 0 0-9 3.4c-3.6 2-3.3-1.2-2.7-1.6 0 0 1.4 2.5 5-.7 3.6-3.1 2.4-.2 11.3-3.1 8.8-2.9 6.7-3.4 10.1-5.1 3.6-1.8 6.8-2 4.4-4.4-2.5-2.4-2.7-2.6-5.8 0a36.8 36.8 0 0 1-17 7s20-8.6 18-9.8a22.1 22.1 0 0 0-5.7-2.7c-1.4-.4-1.8-.7-5 .8-3.2 1.4-3.7 1.7-4.6 1.8-1 0-3.7.6-7.5 2.6s-5.8 2.8-8.5 4.3c0 0 1.8-3.6 9.8-6 7.8-2.3 11.8-4.4 11-4.8s-2.9-.9-4.3-.5c-1.5.2-1-.2-6 1.8-4.7 1.8-2.7 1.4-6.5 2.3-4 .8-5.5 1.6-7.4 2.4 0 0 .8-1 3.4-2 1.4-.4-1.5-1 2.3-1.1h1a34.3 34.3 0 0 0 9.2-3.4c-.8-.2-5.4-.7-10.2 1.6-4.7 2.1-2.6 1.4-4.2 1.6-1.6.4-5.2 2.6-6.4 3.6-1.2 1-2.8 1.7-2.8 1.7z"/>
  <path fill="#5a3719" d="M344.1 215.3s1.9.6 2.4 1.9c.5 1.3 1.6-.6 1.6-1.2 0-.5-1.2-3.2-3.2-2-2 1.2-1 1.2-.8 1.3z"/>
  <path fill="#7b3c20" d="M339 241.1s3.9-1.8 7.3-1.6c0 0-1.4-4.7 1-4 2.3.9 1.6.6 2.1.6 0 0 .2-3.1-.5-4.4 0 0 2.5.6 4.9.6 0 0-2.3-4.4.2-7.5a7.4 7.4 0 0 0 4.5 3.7v-2.6s1.8-.2 3.3.5c1.4.8 2.6-8-1.7-10 0 0-1 1.7-5 2.5s-4 1.6-5.6 4.7-3 3-6.5 5.2a17.8 17.8 0 0 0-5.5 7s1.7 2 1.5 5.3z"/>
  <path fill="#999" d="M472.5 189.7c1.4-.2-1.5-1 2.3-1.1h1a34.3 34.3 0 0 0 9.2-3.4c-.8-.2-5.4-.7-10.2 1.5s-2.6 1.5-4.2 1.8a22 22 0 0 0-6.4 3.5c-1.2 1-2.8 1.7-2.8 1.7s-4 1.1-.3 3.6c3.6 2.4 5.4 4.5 8 5.1 2.7.7 5.4 1.6 5.4 4.3a7.4 7.4 0 0 1-2 5.5c-1.5 1.9.8 2.6 2.7 1.6l4.8-2.3c1.2-.8 3.3-.7 1.4.3-2 1-3.9 1.6-1.4 1.6 2.4.1 17.3.4 20.4-.6 3.1-1 7.2-1.3 7.5-5.3 0 0 .2-1.8 1.3-2.6 1.2-.8 2-2.5.3-1.4-1.7 1.3-3 1.8-3.3 1.5-.3-.4-.5-.6.8-1.2 1.2-.6 1.9 0 3-1.6 1.2-1.8 1.1-1.5.5-2.2-.4-.3-.9-.5-1.1-.9 0 0-1-.8-2-.1a29.4 29.4 0 0 1-7.4 2.8c-1.8.2-3.8 1-7 2.6s-8.8 5-9.7 1.8l-2.8 1.2c-3.7 1.9-3.4-.8-2.7-1.6 0 0-2 2.2-1.9.3 0-2 1.3-1.7 3.5-2.3 2.1-.7 5.5-2 4.1-3.2-1.4-1.1-2.9 1.2-4.4 1.9-1.6.7-4.7 1.3-5.2-1-.5-2.2-.5-3.8-4.6-4-4.2-.2-4.1-2.9-3-4 1.3-1.1 2.2-3 6.2-3.8z"/>
  <path d="M485.9 210s6.5-2.9 12.5-4.3 1.3.2.3.5-10.4 3.4-12.6 4.5c-2.2 1-1.8.1-.2-.5zm1.4 1.5s7.4-2.5 8.8-1.5c1.4 1 .2.6-1.4.8-1.6.2-6 1-7.2 1-1.2 0-.2-.3-.2-.3zm11.9-2.6s1.4-.3 1.5.3c.1.5-.6.6-1.4.5-.8-.2-1.4-.6-.1-.8z"/>
  <path fill="#fff" d="M305 273s-.3-6.5 3-9.8 19-19.7 21.4-24.3c0 0 2 1.4 2.1 4 0 0 2.7-4.5 4.8-6.3 0 0 1.9 2 1.6 5.8 0 0 3.8-2 9.7-2 0 0-2.3 2.4-2.3 4 0 0 8.1-1 12.5-.2 0 0-11.3 6.2-8.2 6.8 3.3.6 6.5 0 6.5 0s-3.6 3.6-9.3 4.3c0 0 7.3 0 8.8 1.6 0 0-7.1 1-12.8 5.4 0 0-.6-.3-.6-1.9 0 0-.2 1.5-1.8 2.9-1.7 1.3-5.5 4.2-7 5.7-1.4 1.4-4 4.3-7 4.2 0 0 .6-2.3-1.5-3a6 6 0 0 0-6.3 1.6s-7.6.2-10.1.5c0 0 1.7-2.7 3.3-2.7 1.6 0 8 1 8.6-3.4.5-4.3-4.1-3.2-2.4-5.7 1.8-2.6 1.4-2.5 1.5-2.8 0 0-1.5.8-2.3 3.1a11.4 11.4 0 0 1-4.5 6.4 16 16 0 0 0-5.2 5.3s-1.4.2-2.6.5z"/>
  <path fill="#fff" d="M312.3 269s.2-.7 2.4-1.2c2.3-.4 2.5-1.4 2.1-2-.3-.3-1.6-.3.5-2.9 0 0 .8.3 1.3.9.6.6 3 5.8-6.3 5.3z"/>
  <path fill="#999" d="M307 264.5c0 4.3 5.7 2.7 5.7 2.7a22.9 22.9 0 0 0-4.1 3.7c.4-2-3.2-2.6-3.2-2.6a13 13 0 0 1 1.6-3.8zm20.6-23 1.8-2.6s2 1.4 2.1 4c0 0 2.7-4.5 4.8-6.3 0 0 1.9 2 1.6 5.8 0 0 3.8-2 9.7-2 0 0-2.3 2.4-2.3 4 0 0 8.1-1 12.5-.2 0 0-11.3 6.2-8.2 6.8 3.3.6 6.5 0 6.5 0s-3.6 3.6-9.3 4.3c0 0 7.3 0 8.8 1.6 0 0-2.2.3-5 1.3 0 0-2-2-8.1-1.6 0 0 4.7-2.7 8.5-3.6 0 0-1.6-2.1-4.3-.2 0 0-5.1-3.5-.8-6.5 0 0-3-.6-5 .8 0 0 0-2.5 2.2-3.5 0 0-5.7-1-7 3.2 0 0-1.2-1.7-.6-3.6 0 0-3.5 2-5.1 4.2 0 0-.6-4.3-2.8-5.9m-11 27.3c-1 .3-2.5.4-4.3.3 0 0 .1-.6 1.4-1 0 0 .3.7 2.8.7"/>
  <path d="M327 252.6s2.6 2 3.5 3.2c0 0 2.4-1.6 3.2-3 0 0 2 1.2 2.5 3 0 0 1.4-.8 1.6-2 0 0 3.3.6 4.4 1.6 0 0 .5-3 0-5.1 0 0 2.3.2 3.7.8 0 0-1.3-2.1 5.3-4.8 0 0-5 1.1-7 3.2 0 0-2 .2-3-.4v4.7s-1.2-.6-3.7-1.2c0 0-.6 1.1-1 1.4 0 0-1.7-1.4-2.3-2.9 0 0-2.5 2.2-3.3 3.1 0 0-2.4-1.6-4-1.6z"/>
  <path fill="#ffc221" d="M312 285.2s1 .5 3.4-1.5 9.3-6.3 9.9-9.8c.7-3.5-2.2-3.7-4.4-2.7-2.3 1-1.3 3-1.2 3.6 0 .6.2 3-3.5 6.4l-4.3 4z"/>
  <path fill="#ffc221" d="M311.2 286.2s-5.5-2.3-.6-4.7 7.1-3.1 7.7-5.2c.6-2 .3-1.7-1.6-.9-1.8.9-8.8 4.1-9.8 1.1 0 0 2.8 1.1 6.4-.6 3.6-1.8 6.6-2.3 4.3-3-2.3-.7-10.6.2-11.9.6-1.4.4-1 .3-1.3 1.6-.2 1.4-1.7 4.3-2.3 5-.5.9-2 4.4.6 6a9.2 9.2 0 0 0 8.5.1z"/>
  <path d="M309 274.3s-1.2.2-1 .7c.3.4.6.4 1 .4.5 0 1.2-.3 1.3-.5 0-.4-.8-.8-1.2-.6z"/>
  <path fill="#fff" d="M310.8 285s-2.5-1.2.4-2.8c3-1.6 6-3.2 6.5-3.8 0 0-1.4 2-6.8 6.6z"/>
</svg>
