<svg xmlns="http://www.w3.org/2000/svg" id="flag-icons-au" viewBox="0 0 512 512">
  <path fill="#00008B" d="M0 0h512v512H0z"/>
  <path fill="#fff" d="M256 0v32l-95 96 95 93.5V256h-33.5L127 162l-93 94H0v-34l93-93.5L0 37V0h31l96 94 93-94z"/>
  <path fill="red" d="m92 162 5.5 17L21 256H0v-1.5zm62-6 27 4 75 73.5V256zM256 0l-96 98-2-22 75-76zM0 .5 96.5 95 67 91 0 24.5z"/>
  <path fill="#fff" d="M88 0v256h80V0zM0 88v80h256V88z"/>
  <path fill="red" d="M0 104v48h256v-48zM104 0v256h48V0z"/>
  <path fill="#fff" d="m202 402.8-45.8 5.4 4.6 45.9-32.8-32.4-33 32.2 4.9-45.9-45.8-5.8L93 377.4 69 338l43.6 15 15.8-43.4 15.5 43.5 43.7-14.7-24.3 39.2 38.8 25.1Zm222.7 8-20.5 2.6 2.2 20.5-14.8-14.4-14.7 14.5 2-20.5-20.5-2.4 17.3-11.2-10.9-17.5 19.6 6.5 6.9-19.5 7.1 19.4 19.5-6.7-10.7 17.6 17.5 11.1ZM415 293.6l2.7-13-9.8-9 13.2-1.5 5.5-12.1 5.5 12.1 13.2 1.5-9.8 9 2.7 13-11.6-6.6-11.6 6.6Zm-84.1-60-20.3 2.2 1.8 20.3-14.4-14.5-14.8 14.1 2.4-20.3-20.2-2.7 17.3-10.8-10.5-17.5 19.3 6.8 7.2-19.1 6.7 19.3 19.4-6.3-10.9 17.3 17 11.2Zm175.8-32.8-20.9 2.7 2.3 20.9-15.1-14.7-15 14.8 2.1-21-20.9-2.4 17.7-11.5-11.1-17.9 20 6.7 7-19.8 7.2 19.8 19.9-6.9-11 18 17.8 11.3Zm-82.1-83.5-20.7 2.3 1.9 20.8-14.7-14.8L376 140l2.4-20.7-20.7-2.8 17.7-11-10.7-17.9 19.7 6.9 7.3-19.5 6.8 19.7 19.8-6.5-11.1 17.6 17.4 11.5Z"/>
</svg>
