<svg xmlns="http://www.w3.org/2000/svg" id="flag-icon-css-ai" viewBox="0 0 512 512">
  <defs>
    <clipPath id="a">
      <path fill-opacity=".7" d="M0 0h512v512H0z"/>
    </clipPath>
  </defs>
  <g clip-path="url(#a)">
    <path fill="#fff" fill-rule="evenodd" d="M-167.9.5h429.6v256H-168z"/>
    <path fill="#c00" d="M-167.9.5v19.2l102.5 63.2 38.6 1.3-141-83.8z"/>
    <path fill="#006" d="M-124 .5L.3 78.4V.4H-124z"/>
    <path fill="#c00" d="M16.9.5v99.4H-168v56.9H17v99.4h56.8v-99.4h184.7V99.9H73.7V.4H16.9z"/>
    <path fill="#006" d="M90.3.5v73.4L211.8 1 90.3.4z"/>
    <path fill="#c00" d="M94.1 81.9l34.2-.4L261.1 1l-35.2.7L94 82z"/>
    <path fill="#006" d="M259.8 22.5L158.3 82.9l100.1.4v90h-85.2l84.4 55 1.3 28-45.1-.7-123.5-72.8v73.4H.3v-73.4L-115.5 256l-52.3.2V512h852.5V.4l-424-.4M-168 28.9l-.4 53 89.8 1.4-89.3-54.4zm0 144.4v54.5l85.3-53.9-85.3-.6z"/>
    <path fill="#c00" d="M160.4 175.6l-35.5-.3 134 80-.9-18.3-97.5-61.4zm-295 81l125.6-79-33 .3-125.9 78.8"/>
    <path fill="#49497d" d="M368.6 245.1l2.2 2.2-2.2-2.2z"/>
    <path fill="#0e0e6e" d="M370.8 245.1l2.1 2.2-2.1-2.2z"/>
    <path fill="#262678" d="M364.3 247.3l2.1 2.1-2.1-2.1z"/>
    <path fill="#808067" d="M366.4 247.3l2.2 2.1-2.2-2.1z"/>
    <path fill="#58587b" d="M373 247.3l2.1 2.1-2.2-2.1z"/>
    <path fill="#0e0e6e" d="M292.8 249.4l2.2 2.2-2.2-2.2z"/>
    <path fill="#1b1b74" d="M360 249.4l2.1 2.2-2.2-2.2z"/>
    <path fill="#6e6c70" d="M362.1 249.4l2.2 2.2-2.2-2.2z"/>
    <path fill="#cc3" d="M296.6 253.4c0 56-6.4 119 35.3 162.8 8.6 9 24.9 29.6 38.9 28.8 14.6-.9 33.5-22.5 41.8-33.1C449 364 443.2 307 444.4 251.7c-16.4 7.4-24.6 9.8-38.9 9.8-10.6 1-27-6-36.8-10.8a57.3 57.3 0 0 1-32.4 10c-19.2.8-25.3-2.4-39.7-7.3z"/>
    <path fill="#99994e" d="M375.1 249.4l2.2 2.2-2.2-2.2z"/>
    <path fill="#49497d" d="M377.3 249.4l2.1 2.2-2.1-2.2z"/>
    <path fill="#0e0e6e" d="M444.4 249.4l2.2 2.2-2.2-2.2z"/>
    <path fill="#a4a43d" d="M295 251.6l2.2 2.2-2.2-2.2z"/>
    <path fill="#6e6c70" d="M297.1 251.6l2.2 2.2-2.2-2.2z"/>
    <path fill="#3a3a7c" d="M299.3 251.6l2.2 2.2-2.2-2.2z"/>
    <path fill="#1b1b74" d="M355.6 251.6l2.2 2.2-2.2-2.2z"/>
    <path fill="#6e6c70" d="M357.8 251.6l2.1 2.2-2.1-2.2z"/>
    <path fill="#a4a43d" d="M360 251.6l2.1 2.2-2.2-2.2z"/>
    <path fill="#d0d045" d="M368.6 251.6l2.2 2.2-2.2-2.2z"/>
    <path fill="#a4a43d" d="M377.3 251.6l2.1 2.2-2.1-2.2z"/>
    <path fill="#8d8d5b" d="M379.4 251.6l2.2 2.2-2.2-2.2z"/>
    <path fill="#3a3a7c" d="M381.6 251.6l2.2 2.2-2.2-2.2z"/>
    <path fill="#262678" d="M437.9 251.6l2.2 2.2-2.2-2.2z"/>
    <path fill="#53527c" d="M440 251.6l2.2 2.2-2.1-2.2z"/>
    <path fill="#8d8d5b" d="M442.2 251.6l2.2 2.2-2.2-2.2z"/>
    <path fill="#737370" d="M303.6 253.8l2.2 2.1-2.2-2.1z"/>
    <path fill="#53527c" d="M305.8 253.8l2.2 2.1-2.2-2.1z"/>
    <path fill="#1b1b74" d="M308 253.8l2.1 2.1-2.1-2.1z"/>
    <path fill="#262678" d="M351.3 253.8l2.2 2.1-2.2-2.1z"/>
    <path fill="#6e6c70" d="M353.4 253.8l2.2 2.1-2.2-2.1z"/>
    <path fill="#a4a43d" d="M355.6 253.8l2.2 2.1-2.2-2.1z"/>
    <path fill="#e5e59d" d="M366.4 253.8l2.2 2.1-2.2-2.1z"/>
    <path fill="#fff" d="M301 259.4c-1.1 29.4-.2 62.5 4.4 94 5 16.4 4.4 25.4 12 35.3l105.6-.8a97 97 0 0 0 11.7-32.3c6-31.8 6-66.9 6.2-98.2a65.6 65.6 0 0 1-38 7.9 73.7 73.7 0 0 1-32.5-9.9c-10.1 6-13.7 8.8-30.4 9.5-13 .7-23.5 1.7-39-5.5z"/>
    <path fill="#f2f1d7" d="M370.8 253.8l2.1 2.1-2.1-2.1z"/>
    <path fill="#d9d868" d="M373 253.8l2.1 2.1-2.2-2.1z"/>
    <path fill="#a4a43d" d="M381.6 253.8l2.2 2.1-2.2-2.1z"/>
    <path fill="#99994e" d="M383.8 253.8l2.1 2.1-2.1-2.1z"/>
    <path fill="#49497d" d="M386 253.8l2.1 2.1-2.2-2.1z"/>
    <path fill="#0e0e6e" d="M388.1 253.8l2.2 2.1-2.2-2.1z"/>
    <path fill="#3a3a7c" d="M431.4 253.8l2.2 2.1-2.2-2.1z"/>
    <path fill="#667" d="M433.6 253.8l2.1 2.1-2.1-2.1z"/>
    <path fill="#99994e" d="M435.7 253.8l2.2 2.1-2.2-2.1z"/>
    <path fill="#a4a43d" d="M437.9 253.8l2.2 2.1-2.2-2.1m-130 2.1l2.2 2.2-2.1-2.2z"/>
    <path fill="#99994e" d="M310.1 256l2.2 2.1-2.2-2.2z"/>
    <path fill="#6e6c70" d="M312.3 256l2.2 2.1-2.2-2.2z"/>
    <path fill="#49497d" d="M314.5 256l2.1 2.1-2.1-2.2z"/>
    <path fill="#1b1b74" d="M316.6 256l2.2 2.1-2.2-2.2m28.2 0l2.1 2.2-2.1-2.2z"/>
    <path fill="#53527c" d="M347 256l2.1 2.1-2.2-2.2z"/>
    <path fill="#8d8d5b" d="M349.1 256l2.2 2.1-2.2-2.2z"/>
    <path fill="#a4a43d" d="M351.3 256l2.2 2.1-2.2-2.2z"/>
    <path fill="#e5e59d" d="M362.1 256l2.2 2.1-2.2-2.2z"/>
    <path fill="#fbfaf2" d="M364.3 256l2.1 2.1-2.1-2.2z"/>
    <path fill="#f2f1d2" d="M375.1 256l2.2 2.1-2.2-2.2z"/>
    <path fill="#d9d868" d="M377.3 256l2.1 2.1-2.1-2.2z"/>
    <path fill="#a4a43d" d="M388.1 256l2.2 2.1-2.2-2.2z"/>
    <path fill="#6e6c70" d="M390.3 256l2.1 2.1-2.1-2.2z"/>
    <path fill="#3a3a7c" d="M392.4 256l2.2 2.1-2.2-2.2z"/>
    <path fill="#0e0e6e" d="M420.6 256l2.1 2.1-2.1-2.2z"/>
    <path fill="#32327b" d="M422.8 256l2.1 2.1-2.1-2.2z"/>
    <path fill="#58587b" d="M425 256l2 2.1-2-2.2z"/>
    <path fill="#808067" d="M427 256l2.2 2.1-2.1-2.2z"/>
    <path fill="#a4a43d" d="M430.7 256.6l1.4.8-1.4-.7z"/>
    <path fill="#dddc7a" d="M299.3 258.1l2.2 2.2-2.2-2.2z"/>
    <path fill="#d0d045" d="M301.5 258.1l2.2 2.2-2.2-2.2z"/>
    <path fill="#a4a43d" d="M318 258.8l1.5.7-1.4-.7z"/>
    <path fill="#808067" d="M321 258.1l2.1 2.2-2.1-2.2z"/>
    <path fill="#667" d="M323.1 258.1l2.2 2.2-2.2-2.2z"/>
    <path fill="#58587b" d="M325.3 258.1l2.2 2.2-2.2-2.2z"/>
    <path fill="#49497d" d="M327.5 258.1l2.1 2.2-2.1-2.2z"/>
    <path fill="#737370" d="M340.5 258.1l2.1 2.2-2.1-2.2z"/>
    <path fill="#99994e" d="M342.6 258.1l2.2 2.2-2.2-2.2z"/>
    <path fill="#a4a43d" d="M344.8 258.1l2.2 2.2-2.2-2.2z"/>
    <path fill="#e5e59d" d="M357.8 258.1l2.1 2.2-2.1-2.2z"/>
    <path fill="#fbfaf2" d="M360 258.1l2.1 2.2-2.2-2.2z"/>
    <path fill="#f2f1d2" d="M379.4 258.1l2.2 2.2-2.2-2.2z"/>
    <path fill="#d9d868" d="M381.6 258.1l2.2 2.2-2.2-2.2z"/>
    <path fill="#a4a43d" d="M393.9 258.8l1.4.7-1.4-.7z"/>
    <path fill="#808067" d="M396.8 258.1l2.1 2.2-2.1-2.2z"/>
    <path fill="#667" d="M399 258.1l2 2.2-2-2.2z"/>
    <path fill="#58587b" d="M401.1 258.1l2.2 2.2-2.2-2.2z"/>
    <path fill="#3a3a7c" d="M403.3 258.1l2.1 2.2-2.1-2.2z"/>
    <path fill="#58587b" d="M413.4 258.8l1.4.7-1.4-.7z"/>
    <path fill="#737370" d="M416.3 258.1l2.1 2.2-2.1-2.2z"/>
    <path fill="#99994e" d="M418.4 258.1l2.2 2.2-2.2-2.2z"/>
    <path fill="#a4a43d" d="M420.6 258.1l2.1 2.2-2.1-2.2z"/>
    <path fill="#dddc7a" d="M437.9 258.1l2.2 2.2-2.2-2.2z"/>
    <path fill="#d0d045" d="M440 258.1l2.2 2.2-2.1-2.2z"/>
    <path fill="#f2f1d7" d="M303.6 260.3l2.2 2.1-2.2-2.1z"/>
    <path fill="#e0dea1" d="M305.8 260.3l2.2 2.1-2.2-2.1z"/>
    <path fill="#dddc7a" d="M308 260.3l2.1 2.1-2.1-2.1z"/>
    <path fill="#d9d868" d="M351.3 260.3l2.2 2.1-2.2-2.1z"/>
    <path fill="#e5e3af" d="M353.4 260.3l2.2 2.1-2.2-2.1z"/>
    <path fill="#f6f6e4" d="M383.8 260.3l2.1 2.1-2.1-2.1z"/>
    <path fill="#e1e18c" d="M386 260.3l2.1 2.1-2.2-2.1z"/>
    <path fill="#d4d456" d="M429.2 260.3l2.2 2.1-2.2-2.1z"/>
    <path fill="#e1e18c" d="M431.4 260.3l2.2 2.1-2.2-2.1z"/>
    <path fill="#eeedc1" d="M433.6 260.3l2.1 2.1-2.1-2.1z"/>
    <path fill="#f2f1d2" d="M312.3 262.4l2.2 2.2-2.2-2.2z"/>
    <path fill="#e0dea1" d="M314.5 262.4l2.1 2.2-2.1-2.2z"/>
    <path fill="#dddc7a" d="M316.6 262.4l2.2 2.2-2.2-2.2z"/>
    <path fill="#d0d045" d="M318.8 262.4l2.2 2.2-2.2-2.2z"/>
    <path fill="#dddc7a" d="M344.8 262.4l2.2 2.2-2.2-2.2z"/>
    <path fill="#e5e3af" d="M347 262.4l2.1 2.2-2.2-2.2z"/>
    <path fill="#f6f6e4" d="M349.1 262.4l2.2 2.2-2.2-2.2z"/>
    <path fill="#eeedc1" d="M390.3 262.4l2.1 2.2-2.1-2.2z"/>
    <path fill="#e1e18c" d="M392.4 262.4l2.2 2.2-2.2-2.2z"/>
    <path fill="#d4d456" d="M394.6 262.4l2.2 2.2-2.2-2.2z"/>
    <path fill="#d9d868" d="M420.6 262.4l2.1 2.2-2.1-2.2z"/>
    <path fill="#e1e18c" d="M422.8 262.4l2.1 2.2-2.1-2.2z"/>
    <path fill="#eeedc1" d="M425 262.4l2 2.2-2-2.2z"/>
    <path fill="#f6f6e4" d="M427 262.4l2.2 2.2-2.1-2.2z"/>
    <path fill="#f2f1d7" d="M323.1 264.6l2.2 2.2-2.2-2.2z"/>
    <path fill="#f2f1d2" d="M325.3 264.6l2.2 2.2-2.2-2.2z"/>
    <path fill="#eeedc1" d="M327.5 264.6l2.1 2.2-2.1-2.2z"/>
    <path fill="#f2f1d2" d="M337.6 265.3l1.4.7-1.4-.7z"/>
    <path fill="#fbfaf2" d="M340.5 264.6l2.1 2.2-2.1-2.2z"/>
    <path fill="#fef8f1" d="M351.3 264.6l4.3 4.3v-4.3h-4.3z"/>
    <path fill="#f2f1d7" d="M399 264.6l2 2.2-2-2.2z"/>
    <path fill="#f2f1d2" d="M401.1 264.6l2.2 2.2-2.2-2.2z"/>
    <path fill="#e5e3af" d="M403.3 264.6l2.1 2.2-2.1-2.2z"/>
    <path fill="#e5e59d" d="M406.9 265.3l1.4.7-1.4-.7z"/>
    <path fill="#e0dea1" d="M409.8 264.6l2.1 2.2-2.1-2.2z"/>
    <path fill="#f2f1d2" d="M413.4 265.3l1.4.7-1.4-.7z"/>
    <path fill="#fbfaf2" d="M416.3 264.6l2.1 2.2-2.1-2.2z"/>
    <path fill="#fef8f1" d="M347 266.8l2.1 2.1-2.2-2.1z"/>
    <path fill="#fbbe66" d="M349.1 266.8l2.2 2.1-2.2-2.1z"/>
    <path fill="#fbc477" d="M347 269l2.1 2-2.2-2z"/>
    <path fill="#fcb144" d="M351.3 269l2.2 2-2.2-2z"/>
    <path fill="#fe9f11" d="M347 271.1l2.1 2.2-2.2-2.2z"/>
    <path fill="#fea522" d="M351.3 271.1l2.2 2.2-2.2-2.2z"/>
    <path fill="#fae3c9" d="M344.8 273.3l2.2 2.1-2.2-2.1m8.7 0l2.1 2.1-2.1-2.1z"/>
    <path fill="#fbead6" d="M364.3 273.3l2.1 2.1-2.1-2.1z"/>
    <path fill="#f9d6aa" d="M366.4 273.3l2.2 2.1-2.2-2.1z"/>
    <path fill="#fae3c9" d="M375.1 273.3l2.2 2.1-2.2-2.1z"/>
    <path fill="#fef8f1" d="M377.3 273.3l2.1 2.1-2.1-2.1z"/>
    <path fill="#f9d099" d="M344.8 275.4l2.2 2.2-2.2-2.2z"/>
    <path fill="#fdab33" d="M353.4 275.4l2.2 2.2-2.2-2.2z"/>
    <path fill="#fcf1e4" d="M357.8 275.4l2.1 2.2-2.1-2.2z"/>
    <path fill="#fbc477" d="M360 275.4l2.1 2.2-2.2-2.2z"/>
    <path fill="#fea522" d="M362.1 275.4l2.2 2.2-2.2-2.2z"/>
    <path fill="#fcb755" d="M379.4 275.4l2.2 2.2-2.2-2.2z"/>
    <path fill="#f9d6aa" d="M381.6 275.4l2.2 2.2-2.2-2.2z"/>
    <path fill="#faca88" d="M344.8 277.6l2.2 2.2-2.2-2.2z"/>
    <path fill="#fea522" d="M355.6 277.6l2.2 2.2-2.2-2.2m28.2 0l2.1 2.2-2.1-2.2z"/>
    <path fill="#f8dcbb" d="M386 277.6l2.1 2.2-2.2-2.2z"/>
    <path fill="#f6f6e4" d="M299.3 279.8l2.2 2.1-2.2-2.1z"/>
    <path fill="#fbc477" d="M344.8 279.8l2.2 2.1-2.2-2.1z"/>
    <path fill="#fbbe66" d="M388.1 279.8l2.2 2.1-2.2-2.1z"/>
    <path fill="#f8dcbb" d="M390.3 279.8l2.1 2.1-2.1-2.1z"/>
    <path fill="#faca88" d="M344.8 282l2.2 2-2.2-2z"/>
    <path fill="#fcb755" d="M394.6 282l2.2 2-2.2-2z"/>
    <path fill="#f8dcbb" d="M396.8 282l2.1 2-2.1-2z"/>
    <path fill="#fef8f1" d="M342.6 284l2.2 2.2-2.2-2.1z"/>
    <path fill="#fe9f11" d="M344.8 284l2.2 2.2-2.2-2.1z"/>
    <path fill="#fdab33" d="M405.4 284l2.2 2.2-2.2-2.1z"/>
    <path fill="#fcb144" d="M407.6 284l2.1 2.2-2.1-2.1z"/>
    <path fill="#fbc477" d="M409.8 284l2.1 2.2-2.1-2.1z"/>
    <path fill="#f9d6aa" d="M412 284l4.3 4.4-4.4-4.3z"/>
    <path fill="#fef8f1" d="M414 284l2.2 2.2-2.1-2.1z"/>
    <path fill="#fcb144" d="M342.6 286.3l2.2 2.1-2.2-2.1z"/>
    <path fill="#fdab33" d="M373 286.3l2.1 2.1-2.2-2.1z"/>
    <path fill="#fbc477" d="M375.1 286.3l2.2 2.1-2.2-2.1zm8.7 0l2.1 2.1-2.1-2.1z"/>
    <path fill="#fea522" d="M386 286.3l2.1 2.1-2.2-2.1z"/>
    <path fill="#fae3c9" d="M340.5 288.4l2.1 2.2-2.1-2.2z"/>
    <path fill="#fcb144" d="M368.6 288.4l2.2 2.2-2.2-2.2z"/>
    <path fill="#fae3c9" d="M370.8 288.4l2.1 2.2-2.1-2.2z"/>
    <path fill="#f8dcbb" d="M388.1 288.4l2.2 2.2-2.2-2.2z"/>
    <path fill="#fdab33" d="M390.3 288.4l2.1 2.2-2.1-2.2z"/>
    <path fill="#fe9f11" d="M403.3 288.4l2.1 2.2-2.1-2.2z"/>
    <path fill="#fcb755" d="M405.4 288.4l2.2 2.2-2.2-2.2z"/>
    <path fill="#f9d099" d="M407.6 288.4l2.1 2.2-2.1-2.2z"/>
    <path fill="#fbead6" d="M409.8 288.4l2.1 2.2-2.1-2.2z"/>
    <path fill="#fcb144" d="M340.5 290.6l2.1 2.1-2.1-2.1z"/>
    <path fill="#fbbe66" d="M366.4 290.6l2.2 2.1-2.2-2.1z"/>
    <path fill="#f9d099" d="M392.4 290.6l2.2 2.1-2.2-2.1z"/>
    <path fill="#fbead6" d="M401.1 290.6l2.2 2.1-2.2-2.1z"/>
    <path fill="#fcf1e4" d="M338.3 292.8l2.2 2.1-2.2-2.1z"/>
    <path fill="#fbbe66" d="M364.3 292.8l2.1 2.1-2.1-2.1z"/>
    <path fill="#f9d099" d="M394.6 292.8l2.2 2.1-2.2-2.1z"/>
    <path fill="#fae3c9" d="M401.1 292.8l2.2 2.1-2.2-2.1z"/>
    <path fill="#fbc477" d="M338.3 295l2.2 2-2.2-2z"/>
    <path fill="#fcb144" d="M362.1 295l2.2 2-2.2-2m34.7 0l2.1 2-2.1-2z"/>
    <path fill="#fbbe66" d="M401.1 295l2.2 2-2.2-2z"/>
    <path fill="#f6f6e4" d="M299.3 297l2.2 2.2-2.2-2.1z"/>
    <path fill="#fea522" d="M338.3 297l2.2 2.2-2.2-2.1z"/>
    <path fill="#fbead6" d="M362.1 297l2.2 2.2-2.2-2.1z"/>
    <path fill="#fcf1e4" d="M396.8 297l2.1 2.2-2.1-2.1z"/>
    <path fill="#fef8f1" d="M403.3 297l2.1 2.2-2.1-2.1z"/>
    <path fill="#fcf1e4" d="M336.1 299.3l2.2 2.1-2.2-2.1z"/>
    <path fill="#fbbe66" d="M360 299.3l2.1 2.1-2.2-2.1z"/>
    <path fill="#faca88" d="M399 299.3l2 2.1-2-2.1z"/>
    <path fill="#f9d099" d="M403.3 299.3l2.1 2.1-2.1-2.1z"/>
    <path fill="#f9d6aa" d="M336.1 301.4l2.2 2.2-2.2-2.2z"/>
    <path fill="#fcf1e4" d="M360 301.4l2.1 2.2-2.2-2.2z"/>
    <path fill="#fae3c9" d="M370.8 301.4l2.1 2.2-2.1-2.2z"/>
    <path fill="#fea522" d="M373 301.4l2.1 2.2-2.2-2.2z"/>
    <path fill="#fcb144" d="M375.1 301.4l2.2 2.2-2.2-2.2z"/>
    <path fill="#f9d6aa" d="M377.3 301.4l2.1 2.2-2.1-2.2z"/>
    <path fill="#fef8f1" d="M399 301.4l2 2.2-2-2.2z"/>
    <path fill="#fea522" d="M401.1 301.4l2.2 2.2-2.2-2.2z"/>
    <path fill="#fdab33" d="M403.3 301.4l2.1 2.2-2.1-2.2z"/>
    <path fill="#faca88" d="M336.1 303.6L334 310l2.1-6.5z"/>
    <path fill="#fea522" d="M357.8 303.6l2.1 2.1-2.1-2.1z"/>
    <path fill="#fef8f1" d="M360 303.6l2.1 2.1-2.2-2.1z"/>
    <path fill="#f9d099" d="M370.8 303.6l2.1 2.1-2.1-2.1z"/>
    <path fill="#fdab33" d="M379.4 303.6l2.2 2.1-2.2-2.1z"/>
    <path fill="#fae3c9" d="M381.6 303.6l2.2 2.1-2.2-2.1z"/>
    <path fill="#f8dcbb" d="M401.1 303.6l2.2 2.1-2.2-2.1z"/>
    <path fill="#f90" d="M403.3 303.6l2.1 2.1-2.1-2.1z"/>
    <path fill="#fbead6" d="M406.1 305l.8 1.5-.8-1.5z"/>
    <path fill="#fea522" d="M362.1 305.7l2.2 2.2-2.2-2.2z"/>
    <path fill="#fbbe66" d="M364.3 305.7l2.1 2.2-2.1-2.2z"/>
    <path fill="#faca88" d="M366.4 305.7l2.2 2.2-2.2-2.2z"/>
    <path fill="#fcb144" d="M368.6 305.7l2.2 2.2-2.2-2.2z"/>
    <path fill="#fae3c9" d="M370.8 305.7l2.1 2.2-2.1-2.2z"/>
    <path fill="#fe9f11" d="M373 305.7l2.1 2.2-2.2-2.2z"/>
    <path fill="#fdab33" d="M383.8 305.7l2.1 2.2-2.1-2.2z"/>
    <path fill="#fbc477" d="M386 305.7l2.1 2.2-2.2-2.2z"/>
    <path fill="#faca88" d="M388.1 305.7l2.2 2.2-2.2-2.2z"/>
    <path fill="#f9d6aa" d="M390.3 305.7l2.1 2.2-2.1-2.2z"/>
    <path fill="#fae3c9" d="M393.9 306.5l1.4.7-1.4-.7z"/>
    <path fill="#fef8f1" d="M396.8 305.7l2.1 2.2-2.1-2.2z"/>
    <path fill="#fbc477" d="M403.3 305.7l2.1 2.2-2.1-2.2z"/>
    <path fill="#fef8f1" d="M310.1 307.9l2.2 2.2-2.2-2.2z"/>
    <path fill="#fcf1e4" d="M312.3 307.9l2.2 2.2-2.2-2.2z"/>
    <path fill="#fcb755" d="M368.6 307.9l2.2 2.2-2.2-2.2z"/>
    <path fill="#fbead6" d="M373 307.9l2.1 2.2-2.2-2.2z"/>
    <path fill="#fea522" d="M375.1 307.9l2.2 2.2-2.2-2.2z"/>
    <path fill="#fe9f11" d="M392.4 307.9l2.2 2.2-2.2-2.2z"/>
    <path fill="#fcb144" d="M394.6 307.9l-2.2 4.3 2.2-4.3z"/>
    <path fill="#fe9f11" d="M399 307.9l2 2.2-2-2.2z"/>
    <path fill="#fbbe66" d="M401.1 307.9l2.2 2.2-2.2-2.2z"/>
    <path fill="#fcf1e4" d="M403.3 307.9l2.1 2.2-2.1-2.2z"/>
    <path fill="#fae3c9" d="M310.1 310l2.2 2.2-2.2-2.1z"/>
    <path fill="#fe9f11" d="M312.3 310l4.3 4.4-4.3-4.3z"/>
    <path fill="#fbead6" d="M314.5 310l2.1 2.2-2.1-2.1zm19.5 0l2.1 2.2-2.1-2.1z"/>
    <path fill="#fae3c9" d="M336.1 310l2.2 2.2-2.2-2.1z"/>
    <path fill="#fe9f11" d="M355.6 310l2.2 2.2-2.2-2.1z"/>
    <path fill="#fbc477" d="M357.8 310l2.1 2.2-2.1-2.1z"/>
    <path fill="#fea522" d="M360 310l2.1 2.2-2.2-2.1z"/>
    <path fill="#fbc477" d="M366.4 310l2.2 2.2-2.2-2.1z"/>
    <path fill="#fef8f1" d="M368.6 310l2.2 2.2-2.2-2.1z"/>
    <path fill="#fbc477" d="M377.3 310l2.1 2.2-2.1-2.1z"/>
    <path fill="#fff" d="M394.6 310l2.2 2.2-2.2-2.1z"/>
    <path fill="#fdab33" d="M396.8 310l2.1 2.2-2.1-2.1z"/>
    <path fill="#fbc477" d="M405.4 310l2.2 2.2-2.2-2.1z"/>
    <path fill="#fef8f1" d="M310.1 312.2l2.2 2.2-2.2-2.2z"/>
    <path fill="#fbead6" d="M316.6 312.2l2.2 2.2-2.2-2.2z"/>
    <path fill="#f9d6aa" d="M327.5 312.2l2.1 2.2-2.1-2.2z"/>
    <path fill="#fe9f11" d="M338.3 312.2l2.2 2.2-2.2-2.2z"/>
    <path fill="#f9d6aa" d="M342 313l1.4.7-1.5-.7z"/>
    <path fill="#f8dcbb" d="M355.6 312.2l2.2 2.2-2.2-2.2z"/>
    <path fill="#fcf1e4" d="M362.1 312.2l2.2 2.2-2.2-2.2z"/>
    <path fill="#f9d6aa" d="M379.4 312.2l2.2 2.2-2.2-2.2z"/>
    <path fill="#fdab33" d="M394.6 312.2l2.2 2.2-2.2-2.2z"/>
    <path fill="#fcb755" d="M407.6 312.2l2.1 2.2-2.1-2.2z"/>
    <path fill="#fef8f1" d="M409.8 312.2l2.1 2.2-2.1-2.2z"/>
    <path fill="#53527c" d="M292.8 314.4l2.2 2.2-2.2-2.2z"/>
    <path fill="#fcb755" d="M312.3 314.4l2.2 2.2-2.2-2.2z"/>
    <path fill="#fea522" d="M316.6 314.4l2.2 2.2-2.2-2.2z"/>
    <path fill="#fbead6" d="M325.3 314.4l2.2 2.2-2.2-2.2z"/>
    <path fill="#fe9f11" d="M329.6 314.4l2.2 2.2-2.2-2.2z"/>
    <path fill="#fcf1e4" d="M331.8 314.4l2.2 2.2-2.2-2.2z"/>
    <path fill="#fbbe66" d="M338.3 314.4l2.2 2.2-2.2-2.2z"/>
    <path fill="#fbc477" d="M340.5 314.4l2.1 2.2-2.1-2.2z"/>
    <path fill="#fbbe66" d="M342.6 314.4l2.2 2.2-2.2-2.2z"/>
    <path fill="#fea522" d="M353.4 314.4l2.2 2.2-2.2-2.2z"/>
    <path fill="#f9d6aa" d="M381.6 314.4l2.2 2.2-2.2-2.2z"/>
    <path fill="#fcb144" d="M409.8 314.4l2.1 2.2-2.1-2.2z"/>
    <path fill="#8d8d5b" d="M444.4 314.4l2.2 2.2-2.2-2.2z"/>
    <path fill="#e5e3af" d="M299.3 316.6l2.2 2.1-2.2-2.1z"/>
    <path fill="#f8dcbb" d="M312.3 316.6l2.2 2.1-2.2-2.1z"/>
    <path fill="#fdab33" d="M318.8 316.6l2.2 2.1-2.2-2.1z"/>
    <path fill="#fe9f11" d="M325.3 316.6l2.2 2.1-2.2-2.1z"/>
    <path fill="#faca88" d="M329.6 316.6l2.2 2.1-2.2-2.1z"/>
    <path fill="#fcf1e4" d="M338.3 316.6l2.2 2.1-2.2-2.1z"/>
    <path fill="#f9d099" d="M353.4 316.6l2.2 2.1-2.2-2.1m30.4 0l2.1 2.1-2.1-2.1z"/>
    <path fill="#fbbe66" d="M412 316.6l2 2.1-2-2.1z"/>
    <path fill="#fea522" d="M314.5 318.7l2.1 2.2-2.1-2.2z"/>
    <path fill="#fdab33" d="M321 318.7l2.1 2.2-2.1-2.2z"/>
    <path fill="#fea522" d="M323.1 318.7l2.2 2.2-2.2-2.2z"/>
    <path fill="#fe9f11" d="M327.5 318.7l2.1 2.2-2.1-2.2z"/>
    <path fill="#fef8f1" d="M329.6 318.7l2.2 2.2-2.2-2.2z"/>
    <path fill="#fbbe66" d="M340.5 318.7l2.1 2.2-2.1-2.2z"/>
    <path fill="#fef8f1" d="M353.4 318.7l2.2 2.2-2.2-2.2z"/>
    <path fill="#fbbe66" d="M386 318.7l2.1 2.2-2.2-2.2z"/>
    <path fill="#f9d099" d="M414 318.7l2.2 2.2-2.1-2.2z"/>
    <path fill="#f9d6aa" d="M314.5 320.9l2.1 2.2-2.1-2.2z"/>
    <path fill="#f9d099" d="M327.5 320.9l2.1 2.2-2.1-2.2z"/>
    <path fill="#fcf1e4" d="M340.5 320.9l2.1 2.2-2.1-2.2z"/>
    <path fill="#fdab33" d="M351.3 320.9l2.2 2.2-2.2-2.2m36.8 0l2.2 2.2-2.2-2.2z"/>
    <path fill="#fbead6" d="M416.3 320.9l2.1 2.2-2.1-2.2z"/>
    <path fill="#fea522" d="M316.6 323l2.2 2.2-2.2-2.1z"/>
    <path fill="#fe9f11" d="M325.3 323l2.2 2.2-2.2-2.1z"/>
    <path fill="#fcb144" d="M342.6 323l2.2 2.2-2.2-2.1z"/>
    <path fill="#faca88" d="M351.3 323l2.2 2.2-2.2-2.1z"/>
    <path fill="#f8dcbb" d="M388.1 323l2.2 2.2-2.2-2.1z"/>
    <path fill="#fcb144" d="M416.3 323l2.1 2.2-2.1-2.1z"/>
    <path fill="#d3d079" d="M299.3 325.2l2.2 2.2-2.2-2.2z"/>
    <path fill="#faca88" d="M316.6 325.2l2.2 2.2-2.2-2.2zm26 0l2.2 2.2-2.2-2.2z"/>
    <path fill="#fae3c9" d="M351.3 325.2l2.2 2.2-2.2-2.2m36.8 0l2.2 2.2-2.2-2.2z"/>
    <path fill="#f8dcbb" d="M418.4 325.2l2.2 2.2-2.2-2.2z"/>
    <path fill="#f2f1d7" d="M437.9 325.2l2.2 2.2-2.2-2.2z"/>
    <path fill="#58587b" d="M445.1 326.7l.7 1.4-.7-1.4z"/>
    <path fill="#d9d868" d="M300 328.9l.7 1.4-.7-1.4z"/>
    <path fill="#f8dcbb" d="M316.6 327.4l2.2 2.2-2.2-2.2z"/>
    <path fill="#f9d6aa" d="M386 327.4l2.1 2.2-2.2-2.2z"/>
    <path fill="#fe9f11" d="M388.1 327.4l2.2 2.2-2.2-2.2z"/>
    <path fill="#fcb144" d="M418.4 327.4l2.2 2.2-2.2-2.2z"/>
    <path fill="#f2f1d2" d="M438.6 328.9l.7 1.4-.7-1.4z"/>
    <path fill="#fcf1e4" d="M316.6 329.6l2.2 2.1-2.2-2.1z"/>
    <path fill="#fef8f1" d="M383.8 329.6l2.1 2.1-2.1-2.1z"/>
    <path fill="#fe9f11" d="M386 329.6l2.1 2.1-2.2-2.1z"/>
    <path fill="#fdab33" d="M392.4 329.6l-2.1 4.3 2.1-4.3z"/>
    <path fill="#fcb755" d="M394.6 329.6l2.2 2.1-2.2-2.1z"/>
    <path fill="#fea522" d="M420.6 329.6l2.1 2.1-2.1-2.1z"/>
    <path fill="#f9d099" d="M422.8 329.6l2.1 2.1-2.1-2.1z"/>
    <path fill="#53527c" d="M444.4 329.6l2.2 2.1-2.2-2.1z"/>
    <path fill="#808067" d="M295.7 333.2l.7 1.4-.7-1.4z"/>
    <path fill="#fea522" d="M318.8 331.7l2.2 2.2-2.2-2.2m6.5 0l2.2 2.2-2.2-2.2z"/>
    <path fill="#fe9f11" d="M349.1 331.7l2.2 2.2-2.2-2.2z"/>
    <path fill="#fae3c9" d="M383.8 331.7l2.1 2.2-2.1-2.2z"/>
    <path fill="#fef8f1" d="M392.4 331.7l2.2 2.2-2.2-2.2z"/>
    <path fill="#fcb144" d="M396.8 331.7l2.1 2.2-2.1-2.2z"/>
    <path fill="#fcb755" d="M425 331.7l2 2.2-2-2.2z"/>
    <path fill="#fef8f1" d="M427 331.7l4.4 4.4-4.3-4.4z"/>
    <path fill="#e5e59d" d="M438.6 333.2l.7 1.4-.7-1.4z"/>
    <path fill="#32327b" d="M445.1 333.2l.7 1.4-.7-1.4z"/>
    <path fill="#fcb755" d="M319.5 335.3l.7 1.5-.7-1.5z"/>
    <path fill="#fef8f1" d="M327.5 333.9l2.1 2.2-2.1-2.2z"/>
    <path fill="#fbbe66" d="M349.1 333.9l2.2 2.2-2.2-2.2z"/>
    <path fill="#fbead6" d="M383.8 333.9l2.1 2.2-2.1-2.2z"/>
    <path fill="#fe9f11" d="M388.1 333.9l2.2 2.2-2.2-2.2z"/>
    <path fill="#fcf1e4" d="M390.3 333.9l2.1 2.2-2.1-2.2z"/>
    <path fill="#fbead6" d="M396.8 333.9l2.1 2.2-2.1-2.2z"/>
    <path fill="#fdab33" d="M427 333.9l2.2 2.2-2.1-2.2z"/>
    <path fill="#667" d="M295 336l2.2 2.2-2.2-2.1z"/>
    <path fill="#f6f6e4" d="M301.5 336l2.2 2.2-2.2-2.1z"/>
    <path fill="#f9d6aa" d="M327.5 336l2.1 2.2-2.1-2.1z"/>
    <path fill="#fdab33" d="M344.8 336l2.2 2.2-2.2-2.1z"/>
    <path fill="#fe9f11" d="M347 336l2.1 2.2-2.2-2.1z"/>
    <path fill="#fcf1e4" d="M349.1 336l2.2 2.2-2.2-2.1z"/>
    <path fill="#fea522" d="M386 336l2.1 2.2-2.2-2.1z"/>
    <path fill="#faca88" d="M388.1 336l2.2 2.2-2.2-2.1m10.8 0l2.2 2.1-2.2-2.1z"/>
    <path fill="#fcb144" d="M429.2 336l2.2 2.2-2.2-2.1z"/>
    <path fill="#dddc7a" d="M437.9 336l2.2 2.2-2.2-2.1z"/>
    <path fill="#58587b" d="M295 338.2l2.2 2.2-2.2-2.2z"/>
    <path fill="#f2f1d2" d="M301.5 338.2l2.2 2.2-2.2-2.2z"/>
    <path fill="#fcb144" d="M319.5 339.7l.7 1.4-.7-1.4z"/>
    <path fill="#fea522" d="M327.5 338.2l2.1 2.2-2.1-2.2z"/>
    <path fill="#fef8f1" d="M349.1 338.2l2.2 2.2-2.2-2.2z"/>
    <path fill="#fea522" d="M351.3 338.2l2.2 2.2-2.2-2.2z"/>
    <path fill="#fcb144" d="M355.6 338.2l2.2 2.2-2.2-2.2z"/>
    <path fill="#fbead6" d="M357.8 338.2l2.1 2.2-2.1-2.2z"/>
    <path fill="#f8dcbb" d="M386 338.2l2.1 2.2-2.2-2.2z"/>
    <path fill="#fcf1e4" d="M388.1 338.2l2.2 2.2-2.2-2.2z"/>
    <path fill="#fef8f1" d="M399 338.2l2 2.2-2-2.2z"/>
    <path fill="#fe9f11" d="M401.1 338.2l2.2 2.2-2.2-2.2z"/>
    <path fill="#fbead6" d="M431.4 338.2l2.2 2.2-2.2-2.2z"/>
    <path fill="#d9d868" d="M437.9 338.2l2.2 2.2-2.2-2.2z"/>
    <path fill="#3a3a7c" d="M295 340.4l2.2 2.2-2.2-2.2z"/>
    <path fill="#e5e3af" d="M301.5 340.4l2.2 2.2-2.2-2.2z"/>
    <path fill="#faca88" d="M329.6 340.4l2.2 2.2-2.2-2.2z"/>
    <path fill="#fbead6" d="M351.3 340.4l2.2 2.2-2.2-2.2z"/>
    <path fill="#fe9f11" d="M357.8 340.4l2.1 2.2-2.1-2.2z"/>
    <path fill="#fcf1e4" d="M360 340.4l2.1 2.2-2.2-2.2z"/>
    <path fill="#fbead6" d="M383.8 340.4l2.1 2.2-2.1-2.2z"/>
    <path fill="#fae3c9" d="M386 340.4l2.1 2.2-2.2-2.2z"/>
    <path fill="#fbead6" d="M388.1 340.4l2.2 2.2-2.2-2.2z"/>
    <path fill="#fbbe66" d="M401.1 340.4l2.2 2.2-2.2-2.2m17.3 0l2.2 2.2-2.2-2.2z"/>
    <path fill="#fcf1e4" d="M420.6 340.4l2.1 2.2-2.1-2.2z"/>
    <path fill="#fef8f1" d="M422.8 340.4l2.1 2.2-2.1-2.2z"/>
    <path fill="#f8dcbb" d="M425 340.4l2 2.2-2-2.2z"/>
    <path fill="#fcb755" d="M427 340.4l2.2 2.2-2.1-2.2z"/>
    <path fill="#fae3c9" d="M431.4 340.4l2.2 2.2-2.2-2.2z"/>
    <path fill="#808067" d="M442.2 340.4l2.2 2.2-2.2-2.2z"/>
    <path fill="#32327b" d="M295 342.6l2.2 2.1-2.2-2.1z"/>
    <path fill="#a4a43d" d="M297.9 344l.7 1.4-.7-1.4z"/>
    <path fill="#e5e59d" d="M301.5 342.6l2.2 2.1-2.2-2.1z"/>
    <path fill="#fbc477" d="M318.8 342.6l2.2 2.1-2.2-2.1z"/>
    <path fill="#f9d6aa" d="M331.8 342.6l2.2 2.1-2.2-2.1z"/>
    <path fill="#fbbe66" d="M353.4 342.6l2.2 2.1-2.2-2.1z"/>
    <path fill="#f9d099" d="M360 342.6l2.1 2.1-2.2-2.1z"/>
    <path fill="#fae3c9" d="M379.4 342.6l2.2 2.1-2.2-2.1z"/>
    <path fill="#fcb144" d="M381.6 342.6l2.2 2.1-2.2-2.1z"/>
    <path fill="#fae3c9" d="M390.3 342.6l2.1 2.1-2.1-2.1z"/>
    <path fill="#f8dcbb" d="M401.1 342.6l2.2 2.1-2.2-2.1z"/>
    <path fill="#f9d099" d="M418.4 342.6l2.2 2.1-2.2-2.1z"/>
    <path fill="#fbc477" d="M429.2 342.6l2.2 2.1-2.2-2.1z"/>
    <path fill="#fbead6" d="M431.4 342.6l2.2 2.1-2.2-2.1z"/>
    <path fill="#737370" d="M442.2 342.6l2.2 2.1-2.2-2.1z"/>
    <path fill="#d9d868" d="M301.5 344.7l2.2 2.2-2.2-2.2z"/>
    <path fill="#f9d099" d="M318.8 344.7l2.2 2.2-2.2-2.2z"/>
    <path fill="#f9d6aa" d="M334 344.7l2.1 2.2-2.1-2.2m19.5 0l2.1 2.2-2.2-2.2z"/>
    <path fill="#fbc477" d="M360 344.7l2.1 2.2-2.2-2.2z"/>
    <path fill="#fef8f1" d="M370.8 344.7l2.1 2.2-2.1-2.2z"/>
    <path fill="#f8dcbb" d="M373 344.7l2.1 2.2-2.2-2.2z"/>
    <path fill="#fbc477" d="M375.1 344.7l2.2 2.2-2.2-2.2z"/>
    <path fill="#fea522" d="M377.3 344.7l2.1 2.2-2.1-2.2z"/>
    <path fill="#fbead6" d="M390.3 344.7l2.1 2.2-2.1-2.2z"/>
    <path fill="#f2f1d2" d="M435.7 344.7l2.2 2.2-2.2-2.2z"/>
    <path fill="#58587b" d="M442.2 344.7l2.2 2.2-2.2-2.2z"/>
    <path fill="#99994e" d="M297.1 346.9l2.2 2.2-2.2-2.2z"/>
    <path fill="#d0d045" d="M301.5 346.9l2.2 2.2-2.2-2.2z"/>
    <path fill="#fcb144" d="M336.1 346.9l2.2 2.2-2.2-2.2z"/>
    <path fill="#fae3c9" d="M338.3 346.9l2.2 2.2-2.2-2.2z"/>
    <path fill="#fef8f1" d="M353.4 346.9l2.2 2.2-2.2-2.2z"/>
    <path fill="#fcb755" d="M362.1 346.9l2.2 2.2-2.2-2.2z"/>
    <path fill="#fbc477" d="M364.3 346.9l2.1 2.2-2.1-2.2z"/>
    <path fill="#fcb144" d="M366.4 346.9l2.2 2.2-2.2-2.2z"/>
    <path fill="#fea522" d="M368.6 346.9l2.2 2.2-2.2-2.2z"/>
    <path fill="#fe9f11" d="M386 346.9l2.1 2.2-2.2-2.2z"/>
    <path fill="#f9d6aa" d="M388.1 346.9l2.2 2.2-2.2-2.2z"/>
    <path fill="#fef8f1" d="M418.4 346.9l2.2 2.2-2.2-2.2z"/>
    <path fill="#e0dea1" d="M435.7 346.9l2.2 2.2-2.2-2.2z"/>
    <path fill="#3a3a7c" d="M442.2 346.9l2.2 2.2-2.2-2.2z"/>
    <path fill="#737370" d="M297.1 349l2.2 2.2-2.2-2.1z"/>
    <path fill="#fbfaf2" d="M303.6 349l2.2 2.2-2.2-2.1z"/>
    <path fill="#fea522" d="M321 349l2.1 2.2-2.1-2.1z"/>
    <path fill="#fe9f11" d="M340.5 349l2.1 2.2-2.1-2.1z"/>
    <path fill="#fcb144" d="M342.6 349l2.2 2.2-2.2-2.1z"/>
    <path fill="#fbc477" d="M344.8 349l2.2 2.2-2.2-2.1z"/>
    <path fill="#faca88" d="M347 349l2.1 2.2-2.2-2.1z"/>
    <path fill="#fbc477" d="M349.1 349l2.2 2.2-2.2-2.1z"/>
    <path fill="#fcb144" d="M351.3 349l2.2 2.2-2.2-2.1z"/>
    <path fill="#fdab33" d="M353.4 349l2.2 2.2-2.2-2.1z"/>
    <path fill="#fbc477" d="M383.8 349l2.1 2.2-2.1-2.1z"/>
    <path fill="#fef8f1" d="M386 349l2.1 2.2-2.2-2.1z"/>
    <path fill="#fdab33" d="M416.3 349l2.1 2.2-2.1-2.1z"/>
    <path fill="#e1e18c" d="M435.7 349l2.2 2.2-2.2-2.1z"/>
    <path fill="#a4a43d" d="M440.8 350.5l.7 1.4-.7-1.4z"/>
    <path fill="#262678" d="M442.2 349l2.2 2.2-2.2-2.1z"/>
    <path fill="#58587b" d="M297.1 351.2l2.2 2.2-2.2-2.2z"/>
    <path fill="#f2f1d2" d="M303.6 351.2l2.2 2.2-2.2-2.2z"/>
    <path fill="#faca88" d="M321 351.2l2.1 2.2-2.1-2.2z"/>
    <path fill="#fe9f11" d="M379.4 351.2l2.2 2.2-2.2-2.2z"/>
    <path fill="#fbead6" d="M381.6 351.2l2.2 2.2-2.2-2.2z"/>
    <path fill="#fbc477" d="M401.1 351.2l2.2 2.2-2.2-2.2z"/>
    <path fill="#faca88" d="M416.3 351.2l2.1 2.2-2.1-2.2z"/>
    <path fill="#d4d456" d="M435.7 351.2l2.2 2.2-2.2-2.2z"/>
    <path fill="#32327b" d="M297.1 353.4l2.2 2.2-2.2-2.2z"/>
    <path fill="#e5e59d" d="M303.6 353.4l2.2 2.2-2.2-2.2z"/>
    <path fill="#fef8f1" d="M321 353.4l2.1 2.2-2.1-2.2z"/>
    <path fill="#fe9f11" d="M323.1 353.4l2.2 2.2-2.2-2.2z"/>
    <path fill="#fbead6" d="M379.4 353.4l2.2 2.2-2.2-2.2z"/>
    <path fill="#fea522" d="M401.1 353.4l2.2 2.2-2.2-2.2z"/>
    <path fill="#fcf1e4" d="M416.3 353.4l2.1 2.2-2.1-2.2z"/>
    <path fill="#808067" d="M440 353.4l2.2 2.2-2.1-2.2z"/>
    <path fill="#0e0e6e" d="M297.1 355.6l2.2 2.1-2.2-2.1z"/>
    <path fill="#a4a43d" d="M299.3 355.6l2.2 2.1-2.2-2.1z"/>
    <path fill="#d9d868" d="M303.6 355.6l2.2 2.1-2.2-2.1z"/>
    <path fill="#f8dcbb" d="M323.1 355.6l2.2 2.1-2.2-2.1z"/>
    <path fill="#f9d6aa" d="M399 355.6l2 2.1-2-2.1z"/>
    <path fill="#faca88" d="M414 355.6l2.2 2.1-2.1-2.1z"/>
    <path fill="#f2f1d2" d="M433.6 355.6l2.1 2.1-2.1-2.1z"/>
    <path fill="#58587b" d="M440 355.6l2.2 2.1-2.1-2.1z"/>
    <path fill="#8d8d5b" d="M299.3 357.7l2.2 2.2-2.2-2.2z"/>
    <path fill="#f9d6aa" d="M325.3 357.7l2.2 2.2-2.2-2.2z"/>
    <path fill="#fdab33" d="M368.6 357.7l2.2 2.2-2.2-2.2z"/>
    <path fill="#fff" d="M370.8 357.7l2.1 2.2-2.1-2.2z"/>
    <path fill="#fcb144" d="M374.4 358.4l1.4.8-1.4-.8z"/>
    <path fill="#fef8f1" d="M396.8 357.7l-2.2 4.3 2.2-4.3z"/>
    <path fill="#fe9f11" d="M399 357.7l2 2.2-2-2.2z"/>
    <path fill="#fdab33" d="M412 357.7l-2.2 4.3 2.1-4.3z"/>
    <path fill="#e5e59d" d="M433.6 357.7l2.1 2.2-2.1-2.2z"/>
    <path fill="#3a3a7c" d="M440 357.7l2.2 2.2-2.1-2.2z"/>
    <path fill="#667" d="M299.3 359.9l2.2 2.2-2.2-2.2z"/>
    <path fill="#f2f1d2" d="M305.8 359.9l2.2 2.2-2.2-2.2z"/>
    <path fill="#f9d6aa" d="M327.5 359.9l2.1 2.2-2.1-2.2z"/>
    <path fill="#fe9f11" d="M368.6 359.9l2.2 2.2-2.2-2.2z"/>
    <path fill="#faca88" d="M370.8 359.9l2.1 2.2-2.1-2.2z"/>
    <path fill="#fea522" d="M373 359.9l2.1 2.2-2.2-2.2z"/>
    <path fill="#fcf1e4" d="M375.1 359.9l2.2 2.2-2.2-2.2z"/>
    <path fill="#fdab33" d="M396.8 359.9l2.1 2.2-2.1-2.2z"/>
    <path fill="#fef8f1" d="M412 359.9l2 2.2-2-2.2z"/>
    <path fill="#d9d868" d="M433.6 359.9l2.1 2.2-2.1-2.2z"/>
    <path fill="#a4a43d" d="M437.9 359.9l2.2 2.2-2.2-2.2z"/>
    <path fill="#0e0e6e" d="M440 359.9l2.2 2.2-2.1-2.2z"/>
    <path fill="#3a3a7c" d="M299.3 362l2.2 2.2-2.2-2.1z"/>
    <path fill="#e5e59d" d="M305.8 362l2.2 2.2-2.2-2.1z"/>
    <path fill="#fae3c9" d="M329.6 362l4.4 4.4-4.4-4.3z"/>
    <path fill="#fe9f11" d="M331.8 362l2.2 2.2-2.2-2.1z"/>
    <path fill="#f8dcbb" d="M373 362l2.1 2.2-2.2-2.1z"/>
    <path fill="#fcf1e4" d="M392.4 362l2.2 2.2-2.2-2.1z"/>
    <path fill="#fdab33" d="M394.6 362l2.2 2.2-2.2-2.1z"/>
    <path fill="#fcb144" d="M407.6 362l2.1 2.2-2.1-2.1z"/>
    <path fill="#fef8f1" d="M409.8 362l2.1 2.2-2.1-2.1z"/>
    <path fill="#fbfaf2" d="M431.4 362l2.2 2.2-2.2-2.1z"/>
    <path fill="#8d8d5b" d="M437.9 362l2.2 2.2-2.2-2.1z"/>
    <path fill="#0e0e6e" d="M299.3 364.2l2.2 2.2-2.2-2.2z"/>
    <path fill="#a4a43d" d="M301.5 364.2l2.2 2.2-2.2-2.2z"/>
    <path fill="#d4d456" d="M305.8 364.2l2.2 2.2-2.2-2.2z"/>
    <path fill="#f9d6aa" d="M370.8 364.2l2.1 2.2-2.1-2.2z"/>
    <path fill="#f9d099" d="M390.3 364.2l2.1 2.2-2.1-2.2z"/>
    <path fill="#fe9f11" d="M392.4 364.2l2.2 2.2-2.2-2.2z"/>
    <path fill="#faca88" d="M405.4 364.2l2.2 2.2-2.2-2.2z"/>
    <path fill="#eeedc1" d="M431.4 364.2l2.2 2.2-2.2-2.2z"/>
    <path fill="#58587b" d="M437.9 364.2l2.2 2.2-2.2-2.2z"/>
    <path fill="#737370" d="M301.5 366.4l2.2 2.1-2.2-2.1z"/>
    <path fill="#f6f6e4" d="M308 366.4l2.1 2.1-2.1-2.1z"/>
    <path fill="#fbbe66" d="M331.8 366.4l2.2 2.1-2.2-2.1z"/>
    <path fill="#fcb144" d="M366.4 366.4l2.2 2.1-2.2-2.1z"/>
    <path fill="#f8dcbb" d="M369.3 367.8l.7 1.5-.7-1.5z"/>
    <path fill="#fbbe66" d="M386 366.4l2.1 2.1-2.2-2.1z"/>
    <path fill="#fe9f11" d="M388.1 366.4l2.2 2.1-2.2-2.1z"/>
    <path fill="#fbc477" d="M401.1 366.4l2.2 2.1-2.2-2.1z"/>
    <path fill="#fcf1e4" d="M403.3 366.4l2.1 2.1-2.1-2.1z"/>
    <path fill="#d3d079" d="M431.4 366.4l2.2 2.1-2.2-2.1z"/>
    <path fill="#a4a43d" d="M435.7 366.4l2.2 2.1-2.2-2.1z"/>
    <path fill="#262678" d="M437.9 366.4l2.2 2.1-2.2-2.1z"/>
    <path fill="#49497d" d="M301.5 368.5l2.2 2.2-2.2-2.2z"/>
    <path fill="#e0dea1" d="M308 368.5l2.1 2.2-2.1-2.2z"/>
    <path fill="#fae3c9" d="M329.6 368.5l2.2 2.2-2.2-2.2z"/>
    <path fill="#fdab33" d="M360 368.5l2.1 2.2-2.2-2.2z"/>
    <path fill="#fbc477" d="M362.1 368.5l2.2 2.2-2.2-2.2z"/>
    <path fill="#fbead6" d="M364.3 368.5l2.1 2.2-2.1-2.2z"/>
    <path fill="#fcb144" d="M370.8 368.5l2.1 2.2-2.1-2.2z"/>
    <path fill="#f9d6aa" d="M399 368.5l2 2.2-2-2.2z"/>
    <path fill="#99994e" d="M435.7 368.5l2.2 2.2-2.2-2.2z"/>
    <path fill="#0e0e6e" d="M301.5 370.7l2.2 2.2-2.2-2.2z"/>
    <path fill="#a4a43d" d="M303.6 370.7l2.2 2.2-2.2-2.2z"/>
    <path fill="#d4d456" d="M308 370.7l2.1 2.2-2.1-2.2z"/>
    <path fill="#f9d099" d="M327.5 370.7l2.1 2.2-2.1-2.2z"/>
    <path fill="#fe9f11" d="M329.6 370.7l2.2 2.2-2.2-2.2m10.9 0l2.1 2.2-2.1-2.2z"/>
    <path fill="#f9d6aa" d="M342.6 370.7l2.2 2.2-2.2-2.2z"/>
    <path fill="#f9d099" d="M344.8 370.7l2.2 2.2-2.2-2.2z"/>
    <path fill="#f9d6aa" d="M353.4 370.7l2.2 2.2-2.2-2.2z"/>
    <path fill="#fae3c9" d="M355.6 370.7l2.2 2.2-2.2-2.2z"/>
    <path fill="#fef8f1" d="M357.8 370.7l2.1 2.2-2.1-2.2z"/>
    <path fill="#fbead6" d="M375.1 370.7l2.2 2.2-2.2-2.2z"/>
    <path fill="#fae3c9" d="M377.3 370.7l2.1 2.2-2.1-2.2z"/>
    <path fill="#faca88" d="M379.4 370.7l2.2 2.2-2.2-2.2z"/>
    <path fill="#fbc477" d="M381.6 370.7l2.2 2.2-2.2-2.2z"/>
    <path fill="#fdab33" d="M383.8 370.7l2.1 2.2-2.1-2.2z"/>
    <path fill="#fe9f11" d="M394.6 370.7l2.2 2.2-2.2-2.2z"/>
    <path fill="#f9d6aa" d="M396.8 370.7l2.1 2.2-2.1-2.2z"/>
    <path fill="#e5e3af" d="M429.2 370.7l2.2 2.2-2.2-2.2z"/>
    <path fill="#667" d="M435.7 370.7l2.2 2.2-2.2-2.2z"/>
    <path fill="#737370" d="M303.6 372.9l2.2 2.1-2.2-2.1z"/>
    <path fill="#f2f1d7" d="M310.1 372.9l2.2 2.1-2.2-2.1z"/>
    <path fill="#fea522" d="M325.3 372.9l2.2 2.1-2.2-2.1z"/>
    <path fill="#fe9f11" d="M336.1 372.9l2.2 2.1-2.2-2.1z"/>
    <path fill="#fbbe66" d="M338.3 372.9l2.2 2.1-2.2-2.1z"/>
    <path fill="#fcf1e4" d="M340.5 372.9l2.1 2.1-2.1-2.1z"/>
    <path fill="#fea522" d="M392.4 372.9l2.2 2.1-2.2-2.1z"/>
    <path fill="#fbead6" d="M394.6 372.9l2.2 2.1-2.2-2.1z"/>
    <path fill="#dddc7a" d="M429.2 372.9l2.2 2.1-2.2-2.1z"/>
    <path fill="#a4a43d" d="M433.6 372.9l2.1 2.1-2.1-2.1z"/>
    <path fill="#262678" d="M435.7 372.9l2.2 2.1-2.2-2.1z"/>
    <path fill="#49497d" d="M303.6 375l2.2 2.2-2.2-2.2z"/>
    <path fill="#a4a43d" d="M306.5 376.5l.7 1.4-.7-1.4z"/>
    <path fill="#d3d079" d="M310.1 375l2.2 2.2-2.2-2.2z"/>
    <path fill="#f9d099" d="M327.5 375l2.1 2.2-2.1-2.2z"/>
    <path fill="#fcb144" d="M329.6 375l2.2 2.2-2.2-2.2z"/>
    <path fill="#faca88" d="M331.8 375l2.2 2.2-2.2-2.2z"/>
    <path fill="#f8dcbb" d="M334 375l2.1 2.2-2.1-2.2z"/>
    <path fill="#fef8f1" d="M336.1 375l2.2 2.2-2.2-2.2z"/>
    <path fill="#f8dcbb" d="M383.8 375l2.1 2.2-2.1-2.2z"/>
    <path fill="#fcf1e4" d="M392.4 375l2.2 2.2-2.2-2.2z"/>
    <path fill="#f6f6e4" d="M427 375l2.2 2.2-2.1-2.2z"/>
    <path fill="#8d8d5b" d="M433.6 375l2.1 2.2-2.1-2.2z"/>
    <path fill="#fbfaf2" d="M312.3 377.2l2.2 2.2-2.2-2.2z"/>
    <path fill="#fbbe66" d="M383.8 377.2l2.1 2.2-2.1-2.2z"/>
    <path fill="#faca88" d="M390.3 377.2l2.1 2.2-2.1-2.2z"/>
    <path fill="#e1e18c" d="M427 377.2l2.2 2.2-2.1-2.2z"/>
    <path fill="#49497d" d="M433.6 377.2l2.1 2.2-2.1-2.2z"/>
    <path fill="#58587b" d="M305.8 379.4l2.2 2.1-2.2-2.1z"/>
    <path fill="#e5e59d" d="M312.3 379.4l2.2 2.1-2.2-2.1z"/>
    <path fill="#fe9f11" d="M383.8 379.4l2.1 2.1-2.1-2.1z"/>
    <path fill="#fdab33" d="M388.1 379.4l2.2 2.1-2.2-2.1z"/>
    <path fill="#fbfaf2" d="M425 379.4l2 2.1-2-2.1z"/>
    <path fill="#a4a43d" d="M431.4 379.4l2.2 2.1-2.2-2.1z"/>
    <path fill="#0e0e6e" d="M433.6 379.4l2.1 2.1-2.1-2.1z"/>
    <path fill="#1b1b74" d="M305.8 381.5l2.2 2.2-2.2-2.2z"/>
    <path fill="#a4a43d" d="M308 381.5l2.1 2.2-2.1-2.2z"/>
    <path fill="#d0d045" d="M312.3 381.5l2.2 2.2-2.2-2.2z"/>
    <path fill="#fbead6" d="M381.6 381.5l2.2 2.2-2.2-2.2z"/>
    <path fill="#fe9f11" d="M386 381.5l2.1 2.2-2.2-2.2z"/>
    <path fill="#fbead6" d="M388.1 381.5l2.2 2.2-2.2-2.2z"/>
    <path fill="#e5e59d" d="M425 381.5l2 2.2-2-2.2z"/>
    <path fill="#667" d="M431.4 381.5l2.2 2.2-2.2-2.2z"/>
    <path fill="#6e6c70" d="M308 383.7l2.1 2.2-2.1-2.2z"/>
    <path fill="#e5e3af" d="M314.5 383.7l2.1 2.2-2.1-2.2z"/>
    <path fill="#faca88" d="M382.3 385.1l.7 1.5-.7-1.5z"/>
    <path fill="#fae3c9" d="M386 383.7l2.1 2.2-2.2-2.2z"/>
    <path fill="#fbfaf2" d="M422.8 383.7l2.1 2.2-2.1-2.2z"/>
    <path fill="#a4a43d" d="M429.2 383.7l2.2 2.2-2.2-2.2z"/>
    <path fill="#1b1b74" d="M431.4 383.7l2.2 2.2-2.2-2.2M308 385.9l2.1 2.1-2.1-2.1z"/>
    <path fill="#a4a43d" d="M310.1 385.9l2.2 2.1-2.2-2.1z"/>
    <path fill="#d0d045" d="M314.5 385.9l2.1 2.1-2.1-2.1z"/>
    <path fill="#fbfaf2" d="M316.6 385.9l2.2 2.1-2.2-2.1z"/>
    <path fill="#f9d6aa" d="M383.8 385.9l2.1 2.1-2.1-2.1z"/>
    <path fill="#e5e59d" d="M422.8 385.9l2.1 2.1-2.1-2.1z"/>
    <path fill="#6e6c70" d="M429.2 385.9l2.2 2.1-2.2-2.1m-119 2.1l2.1 2.2-2.2-2.2z"/>
    <path fill="#8cbf84" d="M316.6 388l2.2 2.2-2.2-2.2z"/>
    <path fill="#0cf" d="M317.6 388c7.5 15.9 34 53.2 54.4 52.5 19.7-.7 42-37.2 50.7-52.5H317.6z"/>
    <path fill="#a4a43d" d="M427 388l2.2 2.2-2.1-2.2z"/>
    <path fill="#1b1b74" d="M429.2 388l2.2 2.2-2.2-2.2m-119 2.2l2.1 2.2-2.2-2.2z"/>
    <path fill="#a4a43d" d="M312.3 390.2l2.2 2.2-2.2-2.2z"/>
    <path fill="#adb333" d="M316.6 390.2l2.2 2.2-2.2-2.2z"/>
    <path fill="#1ac5b5" d="M318.8 390.2l2.2 2.2-2.2-2.2z"/>
    <path fill="#68b070" d="M420.6 390.2l2.1 2.2-2.1-2.2z"/>
    <path fill="#667" d="M427 390.2l2.2 2.2-2.1-2.2z"/>
    <path fill="#58587b" d="M312.3 392.4l2.2 2.1-2.2-2.1z"/>
    <path fill="#7fb15c" d="M318.8 392.4l2.2 2.1-2.2-2.1z"/>
    <path fill="#27c2aa" d="M418.4 392.4l2.2 2.1-2.2-2.1z"/>
    <path fill="#a4a43d" d="M425 392.4l-2.2 4.3 2.1-4.3z"/>
    <path fill="#0e0e6e" d="M427 392.4l2.2 2.1-2.1-2.1m-114.8 2.1l2.2 2.2-2.2-2.2z"/>
    <path fill="#a4a43d" d="M314.5 394.5l4.3 4.4-4.3-4.4z"/>
    <path fill="#34be9e" d="M321 394.5l2.1 2.2-2.1-2.2z"/>
    <path fill="#96b247" d="M418.4 394.5l2.2 2.2-2.2-2.2z"/>
    <path fill="#53527c" d="M425 394.5l2 2.2-2-2.2z"/>
    <path fill="#3a3a7c" d="M314.5 396.7l2.1 2.2-2.1-2.2z"/>
    <path fill="#a2b23d" d="M321 396.7l2.1 2.2-2.1-2.2z"/>
    <path fill="#0dc9c1" d="M323.1 396.7l2.2 2.2-2.2-2.2z"/>
    <path fill="#5bb47c" d="M416.3 396.7l2.1 2.2-2.1-2.2z"/>
    <path fill="#8d8d5b" d="M422.8 396.7l2.1 2.2-2.1-2.2z"/>
    <path fill="#737370" d="M316.6 398.9l2.2 2.1-2.2-2.1z"/>
    <path fill="#74b166" d="M323.1 398.9l2.2 2.1-2.2-2.1z"/>
    <path fill="#27c2aa" d="M414 398.9l2.2 2.1-2.1-2.1z"/>
    <path fill="#a4a43d" d="M420.6 398.9l-2.2 4.3 2.2-4.3z"/>
    <path fill="#262678" d="M422.8 398.9l2.1 2.1-2.1-2.1z"/>
    <path fill="#0e0e6e" d="M316.6 401l2.2 2.2-2.2-2.2z"/>
    <path fill="#a4a43d" d="M318.8 401l4.3 4.3-4.3-4.3z"/>
    <path fill="#42bb92" d="M325.3 401l2.2 2.2-2.2-2.2z"/>
    <path fill="#0dc9c1" d="M412 401l2 2.2-2-2.2z"/>
    <path fill="#96b247" d="M414 401l2.2 2.2-2.1-2.2z"/>
    <path fill="#58587b" d="M420.6 401l2.1 2.2-2.1-2.2z"/>
    <path fill="#3a3a7c" d="M318.8 403.2l2.2 2.2-2.2-2.2z"/>
    <path fill="#adb333" d="M325.3 403.2l2.2 2.2-2.2-2.2z"/>
    <path fill="#27c2aa" d="M327.5 403.2l2.1 2.2-2.1-2.2z"/>
    <path fill="#74b166" d="M412 403.2l2 2.2-2-2.2z"/>
    <path fill="#8d8d5b" d="M418.4 403.2l2.2 2.2-2.2-2.2z"/>
    <path fill="#6e6c70" d="M321 405.4l2.1 2.1-2.1-2.1z"/>
    <path fill="#96b247" d="M327.5 405.4l2.1 2.1-2.1-2.1z"/>
    <path fill="#0dc9c1" d="M329.6 405.4l2.2 2.1-2.2-2.1z"/>
    <path fill="#42bb92" d="M409.8 405.4l2.1 2.1-2.1-2.1z"/>
    <path fill="#a4a43d" d="M416.3 405.4l-4.4 6.5 4.4-6.5z"/>
    <path fill="#1b1b74" d="M418.4 405.4l2.2 2.1-2.2-2.1z"/>
    <path fill="#0e0e6e" d="M321 407.5l2.1 2.2-2.1-2.2z"/>
    <path fill="#8d8d5b" d="M323.1 407.5l2.2 2.2-2.2-2.2z"/>
    <path fill="#7fb15c" d="M329.6 407.5l2.2 2.2-2.2-2.2z"/>
    <path fill="#34be9e" d="M407.6 407.5l2.1 2.2-2.1-2.2z"/>
    <path fill="#3a3a7c" d="M416.3 407.5l2.1 2.2-2.1-2.2z"/>
    <path fill="#1b1b74" d="M323.1 409.7l2.2 2.2-2.2-2.2z"/>
    <path fill="#a4a43d" d="M325.3 409.7l23.8 23.8-23.8-23.8z"/>
    <path fill="#74b166" d="M331.8 409.7l2.2 2.2-2.2-2.2z"/>
    <path fill="#27c2aa" d="M405.4 409.7l2.2 2.2-2.2-2.2z"/>
    <path fill="#adb333" d="M407.6 409.7l2.1 2.2-2.1-2.2z"/>
    <path fill="#667" d="M414 409.7l2.2 2.2-2.1-2.2z"/>
    <path fill="#32327b" d="M325.3 411.9l2.2 2.1-2.2-2.1z"/>
    <path fill="#42bb92" d="M334 411.9l2.1 2.1-2.1-2.1z"/>
    <path fill="#0dc9c1" d="M403.3 411.9l-8.7 10.8 8.7-10.8z"/>
    <path fill="#adb333" d="M405.4 411.9l2.2 2.1-2.2-2.1z"/>
    <path fill="#737370" d="M412 411.9l2 2.1-2-2.1z"/>
    <path fill="#49497d" d="M327.5 414l2.1 2.2-2.1-2.2z"/>
    <path fill="#42bb92" d="M336.1 414l2.2 2.2-2.2-2.2z"/>
    <path fill="#96b247" d="M403.3 414l2.1 2.2-2.1-2.2z"/>
    <path fill="#8d8d5b" d="M409.8 414l-2.2 4.3 2.1-4.3z"/>
    <path fill="#0e0e6e" d="M412 414l2 2.2-2-2.2z"/>
    <path fill="#53527c" d="M329.6 416.2l2.2 2.2-2.2-2.2z"/>
    <path fill="#42bb92" d="M338.3 416.2l2.2 2.2-2.2-2.2z"/>
    <path fill="#96b247" d="M401.1 416.2l2.2 2.2-2.2-2.2z"/>
    <path fill="#0e0e6e" d="M409.8 416.2l2.1 2.2-2.1-2.2z"/>
    <path fill="#6e6c70" d="M331.8 418.4l2.2 2.1-2.2-2.1z"/>
    <path fill="#42bb92" d="M340.5 418.4l2.1 2.1-2.1-2.1z"/>
    <path fill="#96b247" d="M399 418.4l2 2.1-2-2.1z"/>
    <path fill="#a4a43d" d="M405.4 418.4l-4.3 6.5 4.3-6.5z"/>
    <path fill="#262678" d="M407.6 418.4l2.1 2.1-2.1-2.1z"/>
    <path fill="#6e6c70" d="M334 420.5l2.1 2.2-2.1-2.2z"/>
    <path fill="#42bb92" d="M342.6 420.5l2.2 2.2-2.2-2.2z"/>
    <path fill="#96b247" d="M396.8 420.5l2.1 2.2-2.1-2.2z"/>
    <path fill="#262678" d="M405.4 420.5l2.2 2.2-2.2-2.2z"/>
    <path fill="#6e6c70" d="M336.1 422.7l2.2 2.2-2.2-2.2z"/>
    <path fill="#68b070" d="M344.8 422.7l2.2 2.2-2.2-2.2z"/>
    <path fill="#27c2aa" d="M392.4 422.7l2.2 2.2-2.2-2.2z"/>
    <path fill="#adb333" d="M394.6 422.7l2.2 2.2-2.2-2.2z"/>
    <path fill="#262678" d="M403.3 422.7l2.1 2.2-2.1-2.2z"/>
    <path fill="#667" d="M338.3 424.9l2.2 2.1-2.2-2.1z"/>
    <path fill="#74b166" d="M347 424.9l2.1 2.1-2.2-2.1z"/>
    <path fill="#34be9e" d="M390.3 424.9l2.1 2.1-2.1-2.1z"/>
    <path fill="#adb333" d="M392.4 424.9l2.2 2.1-2.2-2.1z"/>
    <path fill="#8d8d5b" d="M399 424.9l-2.2 4.3 2.1-4.3z"/>
    <path fill="#262678" d="M401.1 424.9l2.2 2.1-2.2-2.1z"/>
    <path fill="#49497d" d="M340.5 427l2.1 2.2-2.1-2.2z"/>
    <path fill="#96b247" d="M349.1 427l2.2 2.2-2.2-2.2z"/>
    <path fill="#0dc9c1" d="M351.3 427l2.2 2.2-2.2-2.2z"/>
    <path fill="#42bb92" d="M388.1 427l2.2 2.2-2.2-2.2z"/>
    <path fill="#0e0e6e" d="M399 427l2 2.2-2-2.2z"/>
    <path fill="#49497d" d="M342.6 429.2l2.2 2.1-2.2-2.1z"/>
    <path fill="#a2b23d" d="M351.3 429.2l2.2 2.1-2.2-2.1z"/>
    <path fill="#27c2aa" d="M353.4 429.2l2.2 2.1-2.2-2.1z"/>
    <path fill="#74b166" d="M386 429.2l2.1 2.1-2.2-2.1z"/>
    <path fill="#a4a43d" d="M392.4 429.2l-6.5 8.6 6.5-8.6z"/>
    <path fill="#808067" d="M394.6 429.2l2.2 2.1-2.2-2.1z"/>
    <path fill="#0e0e6e" d="M396.8 429.2l2.1 2.1-2.1-2.1z"/>
    <path fill="#262678" d="M344.8 431.3l2.2 2.2-2.2-2.2z"/>
    <path fill="#adb333" d="M353.4 431.3l2.2 2.2-2.2-2.2z"/>
    <path fill="#42bb92" d="M355.6 431.3l2.2 2.2-2.2-2.2z"/>
    <path fill="#0dc9c1" d="M381.6 431.3l2.2 2.2-2.2-2.2z"/>
    <path fill="#96b247" d="M383.8 431.3l2.1 2.2-2.1-2.2z"/>
    <path fill="#6e6c70" d="M392.4 431.3l2.2 2.2-2.2-2.2z"/>
    <path fill="#1b1b74" d="M347 433.5l2.1 2.2-2.2-2.2z"/>
    <path fill="#8d8d5b" d="M349.1 433.5l2.2 2.2-2.2-2.2z"/>
    <path fill="#74b166" d="M357.8 433.5l2.1 2.2-2.1-2.2z"/>
    <path fill="#0dc9c1" d="M360 433.5l2.1 2.2-2.2-2.2z"/>
    <path fill="#34be9e" d="M379.4 433.5l2.2 2.2-2.2-2.2z"/>
    <path fill="#adb333" d="M381.6 433.5l2.2 2.2-2.2-2.2z"/>
    <path fill="#49497d" d="M390.3 433.5l2.1 2.2-2.1-2.2z"/>
    <path fill="#0e0e6e" d="M349.1 435.7l2.2 2.1-2.2-2.1z"/>
    <path fill="#6e6c70" d="M351.3 435.7l2.2 2.1-2.2-2.1z"/>
    <path fill="#a4a43d" d="M353.4 435.7l4.4 4.3-4.4-4.3z"/>
    <path fill="#96b247" d="M360 435.7l2.1 2.1-2.2-2.1z"/>
    <path fill="#27c2aa" d="M362.1 435.7l2.2 2.1-2.2-2.1z"/>
    <path fill="#68b070" d="M377.3 435.7l2.1 2.1-2.1-2.1z"/>
    <path fill="#32327b" d="M388.1 435.7l2.2 2.1-2.2-2.1z"/>
    <path fill="#49497d" d="M353.4 437.8l2.2 2.2-2.2-2.2z"/>
    <path fill="#5bb47c" d="M364.3 437.8l2.1 2.2-2.1-2.2z"/>
    <path fill="#27c2aa" d="M373 437.8l2.1 2.2-2.2-2.2z"/>
    <path fill="#96b247" d="M375.1 437.8l2.2 2.2-2.2-2.2z"/>
    <path fill="#a4a43d" d="M381.6 437.8l-2.2 4.4 2.2-4.4z"/>
    <path fill="#808067" d="M383.8 437.8l2.1 2.2-2.1-2.2z"/>
    <path fill="#0e0e6e" d="M386 437.8l2.1 2.2-2.2-2.2z"/>
    <path fill="#262678" d="M355.6 440l2.2 2.2-2.2-2.2z"/>
    <path fill="#8d8d5b" d="M357.8 440l2.1 2.2-2.1-2.2z"/>
    <path fill="#8bb252" d="M366.4 440l2.2 2.2-2.2-2.2z"/>
    <path fill="#1ac5b5" d="M368.6 440l2.2 2.2-2.2-2.2z"/>
    <path fill="#5bb47c" d="M370.8 440l2.1 2.2-2.1-2.2z"/>
    <path fill="#58587b" d="M381.6 440l2.2 2.2-2.2-2.2z"/>
    <path fill="#0e0e6e" d="M357.8 442.2l2.1 2.1-2.1-2.1z"/>
    <path fill="#667" d="M360 442.2l2.1 2.1-2.2-2.1z"/>
    <path fill="#a4a43d" d="M362.1 442.2l2.2 2.1-2.2-2.1z"/>
    <path fill="#99994e" d="M377.3 442.2l2.1 2.1-2.1-2.1z"/>
    <path fill="#32327b" d="M379.4 442.2l2.2 2.1-2.2-2.1m-17.3 2.1l2.2 2.2-2.2-2.2z"/>
    <path fill="#99994e" d="M364.3 444.3l2.1 2.2-2.1-2.2z"/>
    <path fill="#a4a43d" d="M373 444.3l2.1 2.2-2.2-2.2z"/>
    <path fill="#667" d="M375.1 444.3l2.2 2.2-2.2-2.2z"/>
    <path fill="#0e0e6e" d="M377.3 444.3l2.1 2.2-2.1-2.2m-13 2.2l2.1 2.2-2.1-2.2z"/>
    <path fill="#667" d="M366.4 446.5l2.2 2.2-2.2-2.2z"/>
    <path fill="#a4a43d" d="M368.6 446.5l2.2 2.2-2.2-2.2z"/>
    <path fill="#99994e" d="M370.8 446.5l2.1 2.2-2.1-2.2z"/>
    <path fill="#32327b" d="M373 446.5l2.1 2.2-2.2-2.2z"/>
    <path fill="#262678" d="M368.6 448.7l2.2 2.1-2.2-2.1z"/>
    <path fill="#0e0e6e" d="M370.8 448.7l2.1 2.1-2.1-2.1z"/>
    <path fill="#f90" d="M373 303.6c3.3 7.8 14 16.5 17 20.8-3.8 4.2-4.6 3.8-4 11.7 6.4-6.9 6.6-7.6 10.8-6.5 9.1 9.1 1.6 28.8-6 33-7.6 4.6-6.2 0-17.6 5.6 5.3 4.5 11.3-.6 16.2.8 2.7 3.1-1.2 9 .8 14.4 4.4-.4 3.9-9.2 4.9-12.4 3.2-11.7 22.3-19.9 23.3-30.6 4-2 8.1-.6 13 2.1-2.4-10-10.5-9.9-12.7-13-5.2-8-9.7-17-20.8-19.3-8.3-1.7-7.7.6-13-3-3.4-2.7-13.6-7.6-12-3.6z"/>
    <path fill="#fff" fill-rule="evenodd" d="M397 312.5a1.8 1.8 0 1 1-3.5 0 1.8 1.8 0 0 1 3.5 0z"/>
    <path fill="#f90" d="M346.2 337c5.4-6.7 8-20.2 10.4-24.8 5.5 1.3 5.5 2.2 12.2-2-9-2.5-9.8-2.3-10.8-6.5 3.8-12.4 24.7-15 32-10.2 7.6 4.6 2.8 5.6 13.2 13 1.5-6.8-5.8-9.7-7-14.7 1.6-3.9 8.6-3 12.5-7.5-2.4-3.6-10 1-13.3 1.5-11.8 2.7-28-10.4-38-6.3-3.5-2.7-4.2-6.9-4-12.5-7.8 6.9-4 14-5.7 17.4-4.6 8.2-10.4 16.5-7.3 27.3 2.3 8.2 4 6.6 3.3 13-.7 4.2-.3 15.5 2.5 12.2z"/>
    <path fill="#fff" fill-rule="evenodd" d="M342.8 311.5a1.8 1.8 0 0 1 2.4.7 1.8 1.8 0 1 1-3.1 1.6 1.8 1.8 0 0 1 .7-2.3z"/>
    <path fill="#f90" d="M390 341.6c-8.5-1.2-21.5 3.5-26.6 3.8-1.7-5.4-1-5.8-8-9.4 2.5 9 3 9.5 0 12.6-12.6 3.2-25.6-13.4-25.3-22.1 0-9 3.3-5.3 4.3-18-6.5 2.2-5.3 10-9 13.5-4.1.7-7-5.7-12.8-6.7-1.9 4 6 8 8.2 10.5 8.3 8.8 5.5 29.4 14.2 35.8-.5 4.4-3.7 7.2-8.6 10 9.9 3 14-3.9 17.8-4.1 9.4-.4 19.5.3 27.2-8 5.8-6.2 3.5-6.9 9.4-9.6 4-1.5 13.4-7.7 9.1-8.3z"/>
    <path fill="#fff" fill-rule="evenodd" d="M369.9 357.6a1.8 1.8 0 1 1 1.8-3 1.8 1.8 0 0 1-1.8 3z"/>
  </g>
</svg>
