<svg xmlns="http://www.w3.org/2000/svg" id="flag-icons-ai" viewBox="0 0 512 512">
  <defs id="defs1837">
    <clipPath id="ai-a">
      <path id="path1834" fill-opacity=".7" d="M0 0h640v480H0z"/>
    </clipPath>
  </defs>
  <path id="rect4120" fill="#012169" fill-opacity="1" stroke-width="4.1" d="M0 0h512v512H0z"/>
  <path id="path1855" fill="#49497d" d="m384 212.7 2 2z"/>
  <path id="path1857" fill="#0e0e6e" d="m386 212.7 2 2z"/>
  <path id="path1859" fill="#262678" d="m379.9 214.7 2 2z"/>
  <path id="path1861" fill="#808067" d="m382 214.7 2 2z"/>
  <path id="path1863" fill="#58587b" d="m388 214.7 2 2z"/>
  <path id="path1865" fill="#0e0e6e" d="m312.9 216.8 2 2z"/>
  <path id="path1867" fill="#1b1b74" d="m375.9 216.8 2 2z"/>
  <path id="path1869" fill="#6e6c70" d="m377.9 216.8 2 2z"/>
  <path id="path1871" fill="#cc3" d="M316.5 220.4c0 52.5-6 111.6 33 152.7 8 8.4 23.4 27.7 36.5 27 13.7-.8 31.4-21.1 39.2-31 34-44.8 28.7-98.2 29.8-150.2-15.3 6.9-23 9.2-36.4 9-10 1-25.3-5.5-34.5-10-6 4-14.7 8.9-30.4 9.4-18 .8-23.8-2.3-37.2-7z"/>
  <path id="path1873" fill="#99994e" d="m390 216.8 2 2z"/>
  <path id="path1875" fill="#49497d" d="m392 216.8 2 2z"/>
  <path id="path1877" fill="#0e0e6e" d="m455 216.8 2 2z"/>
  <path id="path1879" fill="#a4a43d" d="m315 218.8 2 2z"/>
  <path id="path1881" fill="#6e6c70" d="m317 218.8 2 2z"/>
  <path id="path1883" fill="#3a3a7c" d="m319 218.8 2 2z"/>
  <path id="path1885" fill="#1b1b74" d="m371.8 218.8 2 2z"/>
  <path id="path1887" fill="#6e6c70" d="m373.8 218.8 2 2z"/>
  <path id="path1889" fill="#a4a43d" d="m375.9 218.8 2 2z"/>
  <path id="path1891" fill="#d0d045" d="m384 218.8 2 2z"/>
  <path id="path1893" fill="#a4a43d" d="m392 218.8 2 2z"/>
  <path id="path1895" fill="#8d8d5b" d="m394 218.8 2 2z"/>
  <path id="path1897" fill="#3a3a7c" d="m396.2 218.8 2 2z"/>
  <path id="path1899" fill="#262678" d="m448.9 218.8 2 2z"/>
  <path id="path1901" fill="#53527c" d="m451 218.8 2 2z"/>
  <path id="path1903" fill="#8d8d5b" d="m453 218.8 2 2z"/>
  <path id="path1905" fill="#737370" d="m323 220.9 2 2z"/>
  <path id="path1907" fill="#53527c" d="m325 220.9 2 2z"/>
  <path id="path1909" fill="#1b1b74" d="m327 220.9 2 2z"/>
  <path id="path1911" fill="#262678" d="m367.7 220.9 2 2z"/>
  <path id="path1913" fill="#6e6c70" d="m369.8 220.9 2 2z"/>
  <path id="path1915" fill="#a4a43d" d="m371.8 220.9 2 2z"/>
  <path id="path1917" fill="#e5e59d" d="m382 220.9 2 2z"/>
  <path id="path1919" fill="#fff" d="M320.6 226a509 509 0 0 0 4 88.2c4.9 15.4 4.2 23.9 11.3 33l99-.7c6-9.7 10.5-24.4 11-30.3 5.6-29.7 5.7-62.6 5.9-92a62 62 0 0 1-35.7 7.4 69 69 0 0 1-30.5-9.2c-9.5 5.6-12.8 8.2-28.4 8.9-12.2.6-22 1.6-36.6-5.2z"/>
  <path id="path1921" fill="#f2f1d7" d="m386 220.9 2 2z"/>
  <path id="path1923" fill="#d9d868" d="m388 220.9 2 2z"/>
  <path id="path1925" fill="#a4a43d" d="m396.2 220.9 2 2z"/>
  <path id="path1927" fill="#99994e" d="m398.2 220.9 2 2z"/>
  <path id="path1929" fill="#49497d" d="m400.2 220.9 2 2z"/>
  <path id="path1931" fill="#0e0e6e" d="m402.2 220.9 2 2z"/>
  <path id="path1933" fill="#3a3a7c" d="m442.9 220.9 2 2z"/>
  <path id="path1935" fill="#667" d="m444.9 220.9 2 2z"/>
  <path id="path1937" fill="#99994e" d="m446.9 220.9 2 2z"/>
  <path id="path1939" fill="#a4a43d" d="m448.9 220.9 2 2-2-2m-121.8 2 2 2z"/>
  <path id="path1941" fill="#99994e" d="m329.2 222.9 2 2z"/>
  <path id="path1943" fill="#6e6c70" d="m331.2 222.9 2 2z"/>
  <path id="path1945" fill="#49497d" d="m333.2 222.9 2 2z"/>
  <path id="path1947" fill="#1b1b74" d="m335.2 222.9 2 2-2-2m26.4 0 2 2z"/>
  <path id="path1949" fill="#53527c" d="m363.6 222.9 2 2-2-2z"/>
  <path id="path1951" fill="#8d8d5b" d="m365.7 222.9 2 2z"/>
  <path id="path1953" fill="#a4a43d" d="m367.7 222.9 2 2z"/>
  <path id="path1955" fill="#e5e59d" d="m377.9 222.9 2 2z"/>
  <path id="path1957" fill="#fbfaf2" d="m379.9 222.9 2 2z"/>
  <path id="path1959" fill="#f2f1d2" d="m390 222.9 2 2z"/>
  <path id="path1961" fill="#d9d868" d="m392 222.9 2 2z"/>
  <path id="path1963" fill="#a4a43d" d="m402.2 222.9 2 2z"/>
  <path id="path1965" fill="#6e6c70" d="m404.3 222.9 2 2z"/>
  <path id="path1967" fill="#3a3a7c" d="m406.3 222.9 2 2z"/>
  <path id="path1969" fill="#0e0e6e" d="m432.7 222.9 2 2z"/>
  <path id="path1971" fill="#32327b" d="m434.7 222.9 2 2z"/>
  <path id="path1973" fill="#58587b" d="m436.8 222.9 2 2z"/>
  <path id="path1975" fill="#808067" d="m438.8 222.9 2 2z"/>
  <path id="path1977" fill="#a4a43d" d="m442.2 223.5 1.3.7z"/>
  <path id="path1979" fill="#dddc7a" d="m319 224.9 2 2z"/>
  <path id="path1981" fill="#d0d045" d="m321 224.9 2 2z"/>
  <path id="path1983" fill="#a4a43d" d="m336.6 225.5 1.4.7z"/>
  <path id="path1985" fill="#808067" d="m339.3 224.9 2 2z"/>
  <path id="path1987" fill="#667" d="m341.3 224.9 2 2z"/>
  <path id="path1989" fill="#58587b" d="m343.4 224.9 2 2z"/>
  <path id="path1991" fill="#49497d" d="m345.4 224.9 2 2z"/>
  <path id="path1993" fill="#737370" d="m357.6 224.9 2 2z"/>
  <path id="path1995" fill="#99994e" d="m359.6 224.9 2 2z"/>
  <path id="path1997" fill="#a4a43d" d="m361.6 224.9 2 2z"/>
  <path id="path1999" fill="#e5e59d" d="m373.8 224.9 2 2z"/>
  <path id="path2001" fill="#fbfaf2" d="m375.9 224.9 2 2z"/>
  <path id="path2003" fill="#f2f1d2" d="m394 224.9 2 2z"/>
  <path id="path2005" fill="#d9d868" d="m396.2 224.9 2 2z"/>
  <path id="path2007" fill="#a4a43d" d="m407.6 225.5 1.4.7-1.3-.7z"/>
  <path id="path2009" fill="#808067" d="m410.4 224.9 2 2z"/>
  <path id="path2011" fill="#667" d="m412.4 224.9 2 2z"/>
  <path id="path2013" fill="#58587b" d="m414.4 224.9 2 2z"/>
  <path id="path2015" fill="#3a3a7c" d="m416.5 224.9 2 2z"/>
  <path id="path2017" fill="#58587b" d="m425.9 225.5 1.4.7z"/>
  <path id="path2019" fill="#737370" d="m428.6 224.9 2 2z"/>
  <path id="path2021" fill="#99994e" d="m430.6 224.9 2 2-2-2z"/>
  <path id="path2023" fill="#a4a43d" d="m432.7 224.9 2 2z"/>
  <path id="path2025" fill="#dddc7a" d="m448.9 224.9 2 2z"/>
  <path id="path2027" fill="#d0d045" d="m451 224.9 2 2z"/>
  <path id="path2029" fill="#f2f1d7" d="m323 226.9 2 2z"/>
  <path id="path2031" fill="#e0dea1" d="m325 226.9 2 2z"/>
  <path id="path2033" fill="#dddc7a" d="m327 226.9 2 2z"/>
  <path id="path2035" fill="#d9d868" d="m367.7 226.9 2 2z"/>
  <path id="path2037" fill="#e5e3af" d="m369.8 226.9 2 2z"/>
  <path id="path2039" fill="#f6f6e4" d="m398.2 226.9 2 2z"/>
  <path id="path2041" fill="#e1e18c" d="m400.2 226.9 2 2z"/>
  <path id="path2043" fill="#d4d456" d="m440.8 226.9 2 2z"/>
  <path id="path2045" fill="#e1e18c" d="m442.9 226.9 2 2z"/>
  <path id="path2047" fill="#eeedc1" d="m444.9 226.9 2 2z"/>
  <path id="path2049" fill="#f2f1d2" d="m331.2 228.9 2 2z"/>
  <path id="path2051" fill="#e0dea1" d="m333.2 228.9 2 2z"/>
  <path id="path2053" fill="#dddc7a" d="m335.2 228.9 2 2z"/>
  <path id="path2055" fill="#d0d045" d="m337.3 228.9 2 2z"/>
  <path id="path2057" fill="#dddc7a" d="m361.6 228.9 2 2z"/>
  <path id="path2059" fill="#e5e3af" d="m363.6 228.9 2 2-2-2z"/>
  <path id="path2061" fill="#f6f6e4" d="m365.7 228.9 2 2z"/>
  <path id="path2063" fill="#eeedc1" d="m404.3 228.9 2 2z"/>
  <path id="path2065" fill="#e1e18c" d="m406.3 228.9 2 2z"/>
  <path id="path2067" fill="#d4d456" d="m408.3 228.9 2 2z"/>
  <path id="path2069" fill="#d9d868" d="m432.7 228.9 2 2z"/>
  <path id="path2071" fill="#e1e18c" d="m434.7 228.9 2 2z"/>
  <path id="path2073" fill="#eeedc1" d="m436.8 228.9 2 2z"/>
  <path id="path2075" fill="#f6f6e4" d="m438.8 228.9 2 2z"/>
  <path id="path2077" fill="#f2f1d7" d="m341.3 230.9 2 2-2-2z"/>
  <path id="path2079" fill="#f2f1d2" d="m343.4 230.9 2 2-2-2z"/>
  <path id="path2081" fill="#eeedc1" d="m345.4 230.9 2 2-2-2z"/>
  <path id="path2083" fill="#f2f1d2" d="m354.9 231.6 1.3.7z"/>
  <path id="path2085" fill="#fbfaf2" d="m357.6 230.9 2 2-2-2z"/>
  <path id="path2087" fill="#fef8f1" d="m367.7 230.9 4 4v-4h-4z"/>
  <path id="path2089" fill="#f2f1d7" d="m412.4 230.9 2 2-2-2z"/>
  <path id="path2091" fill="#f2f1d2" d="m414.4 230.9 2 2-2-2z"/>
  <path id="path2093" fill="#e5e3af" d="m416.5 230.9 2 2-2-2z"/>
  <path id="path2095" fill="#e5e59d" d="m419.9 231.6 1.3.7-1.4-.7z"/>
  <path id="path2097" fill="#e0dea1" d="m422.6 230.9 2 2-2-2z"/>
  <path id="path2099" fill="#f2f1d2" d="m425.9 231.6 1.4.7z"/>
  <path id="path2101" fill="#fbfaf2" d="m428.6 230.9 2 2-2-2z"/>
  <path id="path2103" fill="#fef8f1" d="m363.6 233 2 2-2-2z"/>
  <path id="path2105" fill="#fbbe66" d="m365.7 233 2 2z"/>
  <path id="path2107" fill="#fbc477" d="m363.6 235 2 2-2-2z"/>
  <path id="path2109" fill="#fcb144" d="m367.7 235 2 2z"/>
  <path id="path2111" fill="#fe9f11" d="m363.6 237 2 2-2-2z"/>
  <path id="path2113" fill="#fea522" d="m367.7 237 2 2z"/>
  <path id="path2115" fill="#fae3c9" d="m361.6 239 2 2-2-2m8.2 0 2 2z"/>
  <path id="path2117" fill="#fbead6" d="m379.9 239 2 2z"/>
  <path id="path2119" fill="#f9d6aa" d="m382 239 2 2z"/>
  <path id="path2121" fill="#fae3c9" d="m390 239 2 2z"/>
  <path id="path2123" fill="#fef8f1" d="m392 239 2 2z"/>
  <path id="path2125" fill="#f9d099" d="m361.6 241 2 2z"/>
  <path id="path2127" fill="#fdab33" d="m369.8 241 2 2z"/>
  <path id="path2129" fill="#fcf1e4" d="m373.8 241 2 2z"/>
  <path id="path2131" fill="#fbc477" d="m375.9 241 2 2z"/>
  <path id="path2133" fill="#fea522" d="m377.9 241 2 2z"/>
  <path id="path2135" fill="#fcb755" d="m394 241 2 2z"/>
  <path id="path2137" fill="#f9d6aa" d="m396.2 241 2 2z"/>
  <path id="path2139" fill="#faca88" d="m361.6 243.2 2 2z"/>
  <path id="path2141" fill="#fea522" d="m371.8 243.2 2 2-2-2m26.4 0 2 2z"/>
  <path id="path2143" fill="#f8dcbb" d="m400.2 243.2 2 2z"/>
  <path id="path2145" fill="#f6f6e4" d="m319 245.2 2 2z"/>
  <path id="path2147" fill="#fbc477" d="m361.6 245.2 2 2z"/>
  <path id="path2149" fill="#fbbe66" d="m402.2 245.2 2 2z"/>
  <path id="path2151" fill="#f8dcbb" d="m404.3 245.2 2 2z"/>
  <path id="path2153" fill="#faca88" d="m361.6 247.2 2 2z"/>
  <path id="path2155" fill="#fcb755" d="m408.3 247.2 2 2z"/>
  <path id="path2157" fill="#f8dcbb" d="m410.4 247.2 2 2z"/>
  <path id="path2159" fill="#fef8f1" d="m359.6 249.3 2 2z"/>
  <path id="path2161" fill="#fe9f11" d="m361.6 249.3 2 2z"/>
  <path id="path2163" fill="#fdab33" d="m418.5 249.3 2 2z"/>
  <path id="path2165" fill="#fcb144" d="m420.6 249.3 2 2z"/>
  <path id="path2167" fill="#fbc477" d="m422.6 249.3 2 2z"/>
  <path id="path2169" fill="#f9d6aa" d="m424.6 249.3 4 4z"/>
  <path id="path2171" fill="#fef8f1" d="m426.6 249.3 2 2z"/>
  <path id="path2173" fill="#fcb144" d="m359.6 251.3 2 2z"/>
  <path id="path2175" fill="#fdab33" d="m388 251.3 2 2z"/>
  <path id="path2177" fill="#fbc477" d="m390 251.3 2 2zm8 0 2.2 2-2-2z"/>
  <path id="path2179" fill="#fea522" d="m400.2 251.3 2 2z"/>
  <path id="path2181" fill="#fae3c9" d="m357.6 253.3 2 2z"/>
  <path id="path2183" fill="#fcb144" d="m384 253.3 2 2z"/>
  <path id="path2185" fill="#fae3c9" d="m386 253.3 2 2z"/>
  <path id="path2187" fill="#f8dcbb" d="m402.2 253.3 2 2z"/>
  <path id="path2189" fill="#fdab33" d="m404.3 253.3 2 2z"/>
  <path id="path2191" fill="#fe9f11" d="m416.5 253.3 2 2z"/>
  <path id="path2193" fill="#fcb755" d="m418.5 253.3 2 2z"/>
  <path id="path2195" fill="#f9d099" d="m420.6 253.3 2 2z"/>
  <path id="path2197" fill="#fbead6" d="m422.6 253.3 2 2z"/>
  <path id="path2199" fill="#fcb144" d="m357.6 255.3 2 2z"/>
  <path id="path2201" fill="#fbbe66" d="m382 255.3 2 2z"/>
  <path id="path2203" fill="#f9d099" d="m406.3 255.3 2 2z"/>
  <path id="path2205" fill="#fbead6" d="m414.4 255.3 2 2z"/>
  <path id="path2207" fill="#fcf1e4" d="m355.6 257.4 2 2z"/>
  <path id="path2209" fill="#fbbe66" d="m379.9 257.4 2 2z"/>
  <path id="path2211" fill="#f9d099" d="m408.3 257.4 2 2z"/>
  <path id="path2213" fill="#fae3c9" d="m414.4 257.4 2 2z"/>
  <path id="path2215" fill="#fbc477" d="m355.6 259.4 2 2z"/>
  <path id="path2217" fill="#fcb144" d="m377.9 259.4 2 2-2-2m32.5 0 2 2z"/>
  <path id="path2219" fill="#fbbe66" d="m414.4 259.4 2 2z"/>
  <path id="path2221" fill="#f6f6e4" d="m319 261.4 2 2z"/>
  <path id="path2223" fill="#fea522" d="m355.6 261.4 2 2z"/>
  <path id="path2225" fill="#fbead6" d="m377.9 261.4 2 2z"/>
  <path id="path2227" fill="#fcf1e4" d="m410.4 261.4 2 2z"/>
  <path id="path2229" fill="#fef8f1" d="m416.5 261.4 2 2z"/>
  <path id="path2231" fill="#fcf1e4" d="m353.6 263.5 2 2z"/>
  <path id="path2233" fill="#fbbe66" d="m375.9 263.5 2 2z"/>
  <path id="path2235" fill="#faca88" d="m412.4 263.5 2 2z"/>
  <path id="path2237" fill="#f9d099" d="m416.5 263.5 2 2z"/>
  <path id="path2239" fill="#f9d6aa" d="m353.6 265.5 2 2z"/>
  <path id="path2241" fill="#fcf1e4" d="m375.9 265.5 2 2z"/>
  <path id="path2243" fill="#fae3c9" d="m386 265.5 2 2z"/>
  <path id="path2245" fill="#fea522" d="m388 265.5 2 2z"/>
  <path id="path2247" fill="#fcb144" d="m390 265.5 2 2z"/>
  <path id="path2249" fill="#f9d6aa" d="m392 265.5 2 2z"/>
  <path id="path2251" fill="#fef8f1" d="m412.4 265.5 2 2z"/>
  <path id="path2253" fill="#fea522" d="m414.4 265.5 2 2z"/>
  <path id="path2255" fill="#fdab33" d="m416.5 265.5 2 2z"/>
  <path id="path2257" fill="#faca88" d="m353.6 267.5-2.1 6 2-6z"/>
  <path id="path2259" fill="#fea522" d="m373.8 267.5 2 2z"/>
  <path id="path2261" fill="#fef8f1" d="m375.9 267.5 2 2z"/>
  <path id="path2263" fill="#f9d099" d="m386 267.5 2 2z"/>
  <path id="path2265" fill="#fdab33" d="m394 267.5 2 2z"/>
  <path id="path2267" fill="#fae3c9" d="m396.2 267.5 2 2z"/>
  <path id="path2269" fill="#f8dcbb" d="m414.4 267.5 2 2z"/>
  <path id="path2271" fill="#f90" d="m416.5 267.5 2 2z"/>
  <path id="path2273" fill="#fbead6" d="m419.2 268.9.6 1.3z"/>
  <path id="path2275" fill="#fea522" d="m377.9 269.5 2 2z"/>
  <path id="path2277" fill="#fbbe66" d="m379.9 269.5 2 2z"/>
  <path id="path2279" fill="#faca88" d="m382 269.5 2 2z"/>
  <path id="path2281" fill="#fcb144" d="m384 269.5 2 2z"/>
  <path id="path2283" fill="#fae3c9" d="m386 269.5 2 2z"/>
  <path id="path2285" fill="#fe9f11" d="m388 269.5 2 2z"/>
  <path id="path2287" fill="#fdab33" d="m398.2 269.5 2 2z"/>
  <path id="path2289" fill="#fbc477" d="m400.2 269.5 2 2z"/>
  <path id="path2291" fill="#faca88" d="m402.2 269.5 2 2z"/>
  <path id="path2293" fill="#f9d6aa" d="m404.3 269.5 2 2z"/>
  <path id="path2295" fill="#fae3c9" d="m407.6 270.2 1.4.7-1.3-.7z"/>
  <path id="path2297" fill="#fef8f1" d="m410.4 269.5 2 2z"/>
  <path id="path2299" fill="#fbc477" d="m416.5 269.5 2 2z"/>
  <path id="path2301" fill="#fef8f1" d="m329.2 271.6 2 2z"/>
  <path id="path2303" fill="#fcf1e4" d="m331.2 271.6 2 2z"/>
  <path id="path2305" fill="#fcb755" d="m384 271.6 2 2z"/>
  <path id="path2307" fill="#fbead6" d="m388 271.6 2 2z"/>
  <path id="path2309" fill="#fea522" d="m390 271.6 2 2z"/>
  <path id="path2311" fill="#fe9f11" d="m406.3 271.6 2 2z"/>
  <path id="path2313" fill="#fcb144" d="m408.3 271.6-2 4z"/>
  <path id="path2315" fill="#fe9f11" d="m412.4 271.6 2 2z"/>
  <path id="path2317" fill="#fbbe66" d="m414.4 271.6 2 2z"/>
  <path id="path2319" fill="#fcf1e4" d="m416.5 271.6 2 2z"/>
  <path id="path2321" fill="#fae3c9" d="m329.2 273.6 2 2z"/>
  <path id="path2323" fill="#fe9f11" d="m331.2 273.6 4 4z"/>
  <path id="path2325" fill="#fbead6" d="m333.2 273.6 2 2zm18.3 0 2 2z"/>
  <path id="path2327" fill="#fae3c9" d="m353.6 273.6 2 2z"/>
  <path id="path2329" fill="#fe9f11" d="m371.8 273.6 2 2z"/>
  <path id="path2331" fill="#fbc477" d="m373.8 273.6 2 2z"/>
  <path id="path2333" fill="#fea522" d="m375.9 273.6 2 2z"/>
  <path id="path2335" fill="#fbc477" d="m382 273.6 2 2z"/>
  <path id="path2337" fill="#fef8f1" d="m384 273.6 2 2z"/>
  <path id="path2339" fill="#fbc477" d="m392 273.6 2 2z"/>
  <path id="path2341" fill="#fff" d="m408.3 273.6 2 2z"/>
  <path id="path2343" fill="#fdab33" d="m410.4 273.6 2 2z"/>
  <path id="path2345" fill="#fbc477" d="m418.5 273.6 2 2z"/>
  <path id="path2347" fill="#fef8f1" d="m329.2 275.6 2 2z"/>
  <path id="path2349" fill="#fbead6" d="m335.2 275.6 2 2z"/>
  <path id="path2351" fill="#f9d6aa" d="m345.4 275.6 2 2z"/>
  <path id="path2353" fill="#fe9f11" d="m355.6 275.6 2 2z"/>
  <path id="path2355" fill="#f9d6aa" d="m358.9 276.3 1.4.7z"/>
  <path id="path2357" fill="#f8dcbb" d="m371.8 275.6 2 2z"/>
  <path id="path2359" fill="#fcf1e4" d="m377.9 275.6 2 2z"/>
  <path id="path2361" fill="#f9d6aa" d="m394 275.6 2 2z"/>
  <path id="path2363" fill="#fdab33" d="m408.3 275.6 2 2z"/>
  <path id="path2365" fill="#fcb755" d="m420.6 275.6 2 2z"/>
  <path id="path2367" fill="#fef8f1" d="m422.6 275.6 2 2z"/>
  <path id="path2369" fill="#53527c" d="m312.9 277.7 2 2z"/>
  <path id="path2371" fill="#fcb755" d="m331.2 277.7 2 2z"/>
  <path id="path2373" fill="#fea522" d="m335.2 277.7 2 2z"/>
  <path id="path2375" fill="#fbead6" d="m343.4 277.7 2 2z"/>
  <path id="path2377" fill="#fe9f11" d="m347.4 277.7 2 2z"/>
  <path id="path2379" fill="#fcf1e4" d="m349.5 277.7 2 2z"/>
  <path id="path2381" fill="#fbbe66" d="m355.6 277.7 2 2z"/>
  <path id="path2383" fill="#fbc477" d="m357.6 277.7 2 2z"/>
  <path id="path2385" fill="#fbbe66" d="m359.6 277.7 2 2z"/>
  <path id="path2387" fill="#fea522" d="m369.8 277.7 2 2z"/>
  <path id="path2389" fill="#f9d6aa" d="m396.2 277.7 2 2z"/>
  <path id="path2391" fill="#fcb144" d="m422.6 277.7 2 2z"/>
  <path id="path2393" fill="#8d8d5b" d="m455 277.7 2 2z"/>
  <path id="path2395" fill="#e5e3af" d="m319 279.7 2 2z"/>
  <path id="path2397" fill="#f8dcbb" d="m331.2 279.7 2 2z"/>
  <path id="path2399" fill="#fdab33" d="m337.3 279.7 2 2z"/>
  <path id="path2401" fill="#fe9f11" d="m343.4 279.7 2 2z"/>
  <path id="path2403" fill="#faca88" d="m347.4 279.7 2 2z"/>
  <path id="path2405" fill="#fcf1e4" d="m355.6 279.7 2 2z"/>
  <path id="path2407" fill="#f9d099" d="m369.8 279.7 2 2-2-2m28.4 0 2 2z"/>
  <path id="path2409" fill="#fbbe66" d="m424.6 279.7 2 2z"/>
  <path id="path2411" fill="#fea522" d="m333.2 281.7 2 2z"/>
  <path id="path2413" fill="#fdab33" d="m339.3 281.7 2 2z"/>
  <path id="path2415" fill="#fea522" d="m341.3 281.7 2 2z"/>
  <path id="path2417" fill="#fe9f11" d="m345.4 281.7 2 2z"/>
  <path id="path2419" fill="#fef8f1" d="m347.4 281.7 2 2z"/>
  <path id="path2421" fill="#fbbe66" d="m357.6 281.7 2 2z"/>
  <path id="path2423" fill="#fef8f1" d="m369.8 281.7 2 2z"/>
  <path id="path2425" fill="#fbbe66" d="m400.2 281.7 2 2z"/>
  <path id="path2427" fill="#f9d099" d="m426.6 281.7 2 2z"/>
  <path id="path2429" fill="#f9d6aa" d="m333.2 283.8 2 2z"/>
  <path id="path2431" fill="#f9d099" d="m345.4 283.8 2 2z"/>
  <path id="path2433" fill="#fcf1e4" d="m357.6 283.8 2 2z"/>
  <path id="path2435" fill="#fdab33" d="m367.7 283.8 2 2-2-2m34.5 0 2 2z"/>
  <path id="path2437" fill="#fbead6" d="m428.6 283.8 2 2z"/>
  <path id="path2439" fill="#fea522" d="m335.2 285.8 2 2z"/>
  <path id="path2441" fill="#fe9f11" d="m343.4 285.8 2 2z"/>
  <path id="path2443" fill="#fcb144" d="m359.6 285.8 2 2z"/>
  <path id="path2445" fill="#faca88" d="m367.7 285.8 2 2z"/>
  <path id="path2447" fill="#f8dcbb" d="m402.2 285.8 2 2z"/>
  <path id="path2449" fill="#fcb144" d="m428.6 285.8 2 2z"/>
  <path id="path2451" fill="#d3d079" d="m319 287.9 2 2z"/>
  <path id="path2453" fill="#faca88" d="m335.2 287.9 2 2zm24.4 0 2 2z"/>
  <path id="path2455" fill="#fae3c9" d="m367.7 287.9 2 2-2-2m34.5 0 2 2z"/>
  <path id="path2457" fill="#f8dcbb" d="m430.6 287.9 2 2-2-2z"/>
  <path id="path2459" fill="#f2f1d7" d="m448.9 287.9 2 2z"/>
  <path id="path2461" fill="#58587b" d="m455.7 289.2.7 1.3z"/>
  <path id="path2463" fill="#d9d868" d="m319.6 291.2.8 1.4-.7-1.4z"/>
  <path id="path2465" fill="#f8dcbb" d="m335.2 289.9 2 2z"/>
  <path id="path2467" fill="#f9d6aa" d="m400.2 289.9 2 2z"/>
  <path id="path2469" fill="#fe9f11" d="m402.2 289.9 2 2z"/>
  <path id="path2471" fill="#fcb144" d="m430.6 289.9 2 2-2-2z"/>
  <path id="path2473" fill="#f2f1d2" d="m449.6 291.2.7 1.4z"/>
  <path id="path2475" fill="#fcf1e4" d="m335.2 291.9 2 2z"/>
  <path id="path2477" fill="#fef8f1" d="m398.2 291.9 2 2z"/>
  <path id="path2479" fill="#fe9f11" d="m400.2 291.9 2 2z"/>
  <path id="path2481" fill="#fdab33" d="m406.3 291.9-2 4z"/>
  <path id="path2483" fill="#fcb755" d="m408.3 291.9 2 2z"/>
  <path id="path2485" fill="#fea522" d="m432.7 291.9 2 2z"/>
  <path id="path2487" fill="#f9d099" d="m434.7 291.9 2 2z"/>
  <path id="path2489" fill="#53527c" d="m455 291.9 2 2z"/>
  <path id="path2491" fill="#808067" d="m315.6 295.3.7 1.3z"/>
  <path id="path2493" fill="#fea522" d="m337.3 293.9 2 2-2-2m6 0 2 2-2-2z"/>
  <path id="path2495" fill="#fe9f11" d="m365.7 293.9 2 2z"/>
  <path id="path2497" fill="#fae3c9" d="m398.2 293.9 2 2z"/>
  <path id="path2499" fill="#fef8f1" d="m406.3 293.9 2 2z"/>
  <path id="path2501" fill="#fcb144" d="m410.4 293.9 2 2z"/>
  <path id="path2503" fill="#fcb755" d="m436.8 293.9 2 2z"/>
  <path id="path2505" fill="#fef8f1" d="m438.8 293.9 4 4z"/>
  <path id="path2507" fill="#e5e59d" d="m449.6 295.3.7 1.3z"/>
  <path id="path2509" fill="#32327b" d="m455.7 295.3.7 1.3z"/>
  <path id="path2511" fill="#fcb755" d="m338 297.3.6 1.4z"/>
  <path id="path2513" fill="#fef8f1" d="m345.4 295.9 2 2z"/>
  <path id="path2515" fill="#fbbe66" d="m365.7 295.9 2 2z"/>
  <path id="path2517" fill="#fbead6" d="m398.2 295.9 2 2z"/>
  <path id="path2519" fill="#fe9f11" d="m402.2 295.9 2 2z"/>
  <path id="path2521" fill="#fcf1e4" d="m404.3 295.9 2 2z"/>
  <path id="path2523" fill="#fbead6" d="m410.4 295.9 2 2z"/>
  <path id="path2525" fill="#fdab33" d="m438.8 295.9 2 2z"/>
  <path id="path2527" fill="#667" d="m315 297.9 2 2-2-2z"/>
  <path id="path2529" fill="#f6f6e4" d="m321 297.9 2 2-2-2z"/>
  <path id="path2531" fill="#f9d6aa" d="m345.4 297.9 2 2-2-2z"/>
  <path id="path2533" fill="#fdab33" d="m361.6 297.9 2 2-2-2z"/>
  <path id="path2535" fill="#fe9f11" d="m363.6 297.9 2 2-2-2z"/>
  <path id="path2537" fill="#fcf1e4" d="m365.7 297.9 2 2-2-2z"/>
  <path id="path2539" fill="#fea522" d="m400.2 297.9 2 2-2-2z"/>
  <path id="path2541" fill="#faca88" d="m402.2 297.9 2 2-2-2m10.2 0 2 2z"/>
  <path id="path2543" fill="#fcb144" d="m440.8 297.9 2 2-2-2z"/>
  <path id="path2545" fill="#dddc7a" d="m448.9 297.9 2 2-2-2z"/>
  <path id="path2547" fill="#58587b" d="m315 300 2 2z"/>
  <path id="path2549" fill="#f2f1d2" d="m321 300 2 2z"/>
  <path id="path2551" fill="#fcb144" d="m338 301.4.6 1.3z"/>
  <path id="path2553" fill="#fea522" d="m345.4 300 2 2z"/>
  <path id="path2555" fill="#fef8f1" d="m365.7 300 2 2z"/>
  <path id="path2557" fill="#fea522" d="m367.7 300 2 2z"/>
  <path id="path2559" fill="#fcb144" d="m371.8 300 2 2z"/>
  <path id="path2561" fill="#fbead6" d="m373.8 300 2 2z"/>
  <path id="path2563" fill="#f8dcbb" d="m400.2 300 2 2z"/>
  <path id="path2565" fill="#fcf1e4" d="m402.2 300 2 2z"/>
  <path id="path2567" fill="#fef8f1" d="m412.4 300 2 2z"/>
  <path id="path2569" fill="#fe9f11" d="m414.4 300 2 2z"/>
  <path id="path2571" fill="#fbead6" d="m442.9 300 2 2z"/>
  <path id="path2573" fill="#d9d868" d="m448.9 300 2 2z"/>
  <path id="path2575" fill="#3a3a7c" d="m315 302 2 2z"/>
  <path id="path2577" fill="#e5e3af" d="m321 302 2 2z"/>
  <path id="path2579" fill="#faca88" d="m347.4 302 2 2z"/>
  <path id="path2581" fill="#fbead6" d="m367.7 302 2 2z"/>
  <path id="path2583" fill="#fe9f11" d="m373.8 302 2 2z"/>
  <path id="path2585" fill="#fcf1e4" d="m375.9 302 2 2z"/>
  <path id="path2587" fill="#fbead6" d="m398.2 302 2 2z"/>
  <path id="path2589" fill="#fae3c9" d="m400.2 302 2 2z"/>
  <path id="path2591" fill="#fbead6" d="m402.2 302 2 2z"/>
  <path id="path2593" fill="#fbbe66" d="m414.4 302 2 2-2-2m16.3 0 2 2z"/>
  <path id="path2595" fill="#fcf1e4" d="m432.7 302 2 2z"/>
  <path id="path2597" fill="#fef8f1" d="m434.7 302 2 2z"/>
  <path id="path2599" fill="#f8dcbb" d="m436.8 302 2 2z"/>
  <path id="path2601" fill="#fcb755" d="m438.8 302 2 2z"/>
  <path id="path2603" fill="#fae3c9" d="m442.9 302 2 2z"/>
  <path id="path2605" fill="#808067" d="m453 302 2 2z"/>
  <path id="path2607" fill="#32327b" d="m315 304 2 2z"/>
  <path id="path2609" fill="#a4a43d" d="m317.6 305.4.7 1.4-.6-1.4z"/>
  <path id="path2611" fill="#e5e59d" d="m321 304 2 2z"/>
  <path id="path2613" fill="#fbc477" d="m337.3 304 2 2z"/>
  <path id="path2615" fill="#f9d6aa" d="m349.5 304 2 2z"/>
  <path id="path2617" fill="#fbbe66" d="m369.8 304 2 2z"/>
  <path id="path2619" fill="#f9d099" d="m375.9 304 2 2z"/>
  <path id="path2621" fill="#fae3c9" d="m394 304 2 2z"/>
  <path id="path2623" fill="#fcb144" d="m396.2 304 2 2z"/>
  <path id="path2625" fill="#fae3c9" d="m404.3 304 2 2z"/>
  <path id="path2627" fill="#f8dcbb" d="m414.4 304 2 2z"/>
  <path id="path2629" fill="#f9d099" d="m430.6 304 2 2-2-2z"/>
  <path id="path2631" fill="#fbc477" d="m440.8 304 2 2z"/>
  <path id="path2633" fill="#fbead6" d="m442.9 304 2 2z"/>
  <path id="path2635" fill="#737370" d="m453 304 2 2z"/>
  <path id="path2637" fill="#d9d868" d="m321 306 2 2z"/>
  <path id="path2639" fill="#f9d099" d="m337.3 306 2 2z"/>
  <path id="path2641" fill="#f9d6aa" d="m351.5 306 2 2-2-2m18.3 0 2 2z"/>
  <path id="path2643" fill="#fbc477" d="m375.9 306 2 2z"/>
  <path id="path2645" fill="#fef8f1" d="m386 306 2 2z"/>
  <path id="path2647" fill="#f8dcbb" d="m388 306 2 2z"/>
  <path id="path2649" fill="#fbc477" d="m390 306 2 2z"/>
  <path id="path2651" fill="#fea522" d="m392 306 2 2z"/>
  <path id="path2653" fill="#fbead6" d="m404.3 306 2 2z"/>
  <path id="path2655" fill="#f2f1d2" d="m446.9 306 2 2z"/>
  <path id="path2657" fill="#58587b" d="m453 306 2 2z"/>
  <path id="path2659" fill="#99994e" d="m317 308 2 2z"/>
  <path id="path2661" fill="#d0d045" d="m321 308 2 2z"/>
  <path id="path2663" fill="#fcb144" d="m353.6 308 2 2z"/>
  <path id="path2665" fill="#fae3c9" d="m355.6 308 2 2z"/>
  <path id="path2667" fill="#fef8f1" d="m369.8 308 2 2z"/>
  <path id="path2669" fill="#fcb755" d="m377.9 308 2 2z"/>
  <path id="path2671" fill="#fbc477" d="m379.9 308 2 2z"/>
  <path id="path2673" fill="#fcb144" d="m382 308 2 2z"/>
  <path id="path2675" fill="#fea522" d="m384 308 2 2z"/>
  <path id="path2677" fill="#fe9f11" d="m400.2 308 2 2z"/>
  <path id="path2679" fill="#f9d6aa" d="m402.2 308 2 2z"/>
  <path id="path2681" fill="#fef8f1" d="m430.6 308 2 2-2-2z"/>
  <path id="path2683" fill="#e0dea1" d="m446.9 308 2 2z"/>
  <path id="path2685" fill="#3a3a7c" d="m453 308 2 2z"/>
  <path id="path2687" fill="#737370" d="m317 310.2 2 2z"/>
  <path id="path2689" fill="#fbfaf2" d="m323 310.2 2 2z"/>
  <path id="path2691" fill="#fea522" d="m339.3 310.2 2 2z"/>
  <path id="path2693" fill="#fe9f11" d="m357.6 310.2 2 2z"/>
  <path id="path2695" fill="#fcb144" d="m359.6 310.2 2 2z"/>
  <path id="path2697" fill="#fbc477" d="m361.6 310.2 2 2z"/>
  <path id="path2699" fill="#faca88" d="m363.6 310.2 2 2-2-2z"/>
  <path id="path2701" fill="#fbc477" d="m365.7 310.2 2 2z"/>
  <path id="path2703" fill="#fcb144" d="m367.7 310.2 2 2z"/>
  <path id="path2705" fill="#fdab33" d="m369.8 310.2 2 2z"/>
  <path id="path2707" fill="#fbc477" d="m398.2 310.2 2 2z"/>
  <path id="path2709" fill="#fef8f1" d="m400.2 310.2 2 2z"/>
  <path id="path2711" fill="#fdab33" d="m428.6 310.2 2 2z"/>
  <path id="path2713" fill="#e1e18c" d="m446.9 310.2 2 2z"/>
  <path id="path2715" fill="#a4a43d" d="m451.6 311.5.7 1.4z"/>
  <path id="path2717" fill="#262678" d="m453 310.2 2 2z"/>
  <path id="path2719" fill="#58587b" d="m317 312.2 2 2z"/>
  <path id="path2721" fill="#f2f1d2" d="m323 312.2 2 2z"/>
  <path id="path2723" fill="#faca88" d="m339.3 312.2 2 2z"/>
  <path id="path2725" fill="#fe9f11" d="m394 312.2 2 2z"/>
  <path id="path2727" fill="#fbead6" d="m396.2 312.2 2 2z"/>
  <path id="path2729" fill="#fbc477" d="m414.4 312.2 2 2z"/>
  <path id="path2731" fill="#faca88" d="m428.6 312.2 2 2z"/>
  <path id="path2733" fill="#d4d456" d="m446.9 312.2 2 2z"/>
  <path id="path2735" fill="#32327b" d="m317 314.2 2 2z"/>
  <path id="path2737" fill="#e5e59d" d="m323 314.2 2 2z"/>
  <path id="path2739" fill="#fef8f1" d="m339.3 314.2 2 2z"/>
  <path id="path2741" fill="#fe9f11" d="m341.3 314.2 2 2z"/>
  <path id="path2743" fill="#fbead6" d="m394 314.2 2 2z"/>
  <path id="path2745" fill="#fea522" d="m414.4 314.2 2 2z"/>
  <path id="path2747" fill="#fcf1e4" d="m428.6 314.2 2 2z"/>
  <path id="path2749" fill="#808067" d="m451 314.2 2 2z"/>
  <path id="path2751" fill="#0e0e6e" d="m317 316.2 2 2z"/>
  <path id="path2753" fill="#a4a43d" d="m319 316.2 2 2z"/>
  <path id="path2755" fill="#d9d868" d="m323 316.2 2 2z"/>
  <path id="path2757" fill="#f8dcbb" d="m341.3 316.2 2 2z"/>
  <path id="path2759" fill="#f9d6aa" d="m412.4 316.2 2 2z"/>
  <path id="path2761" fill="#faca88" d="m426.6 316.2 2 2z"/>
  <path id="path2763" fill="#f2f1d2" d="m444.9 316.2 2 2z"/>
  <path id="path2765" fill="#58587b" d="m451 316.2 2 2z"/>
  <path id="path2767" fill="#8d8d5b" d="m319 318.3 2 2z"/>
  <path id="path2769" fill="#f9d6aa" d="m343.4 318.3 2 2z"/>
  <path id="path2771" fill="#fdab33" d="m384 318.3 2 2z"/>
  <path id="path2773" fill="#fff" d="m386 318.3 2 2z"/>
  <path id="path2775" fill="#fcb144" d="m389.4 318.9 1.4.7z"/>
  <path id="path2777" fill="#fef8f1" d="m410.4 318.3-2 4z"/>
  <path id="path2779" fill="#fe9f11" d="m412.4 318.3 2 2z"/>
  <path id="path2781" fill="#fdab33" d="m424.6 318.3-2 4z"/>
  <path id="path2783" fill="#e5e59d" d="m444.9 318.3 2 2z"/>
  <path id="path2785" fill="#3a3a7c" d="m451 318.3 2 2z"/>
  <path id="path2787" fill="#667" d="m319 320.3 2 2z"/>
  <path id="path2789" fill="#f2f1d2" d="m325 320.3 2 2z"/>
  <path id="path2791" fill="#f9d6aa" d="m345.4 320.3 2 2z"/>
  <path id="path2793" fill="#fe9f11" d="m384 320.3 2 2z"/>
  <path id="path2795" fill="#faca88" d="m386 320.3 2 2z"/>
  <path id="path2797" fill="#fea522" d="m388 320.3 2 2z"/>
  <path id="path2799" fill="#fcf1e4" d="m390 320.3 2 2z"/>
  <path id="path2801" fill="#fdab33" d="m410.4 320.3 2 2z"/>
  <path id="path2803" fill="#fef8f1" d="m424.6 320.3 2 2z"/>
  <path id="path2805" fill="#d9d868" d="m444.9 320.3 2 2z"/>
  <path id="path2807" fill="#a4a43d" d="m448.9 320.3 2 2z"/>
  <path id="path2809" fill="#0e0e6e" d="m451 320.3 2 2z"/>
  <path id="path2811" fill="#3a3a7c" d="m319 322.3 2 2z"/>
  <path id="path2813" fill="#e5e59d" d="m325 322.3 2 2z"/>
  <path id="path2815" fill="#fae3c9" d="m347.4 322.3 4 4z"/>
  <path id="path2817" fill="#fe9f11" d="m349.5 322.3 2 2z"/>
  <path id="path2819" fill="#f8dcbb" d="m388 322.3 2 2z"/>
  <path id="path2821" fill="#fcf1e4" d="m406.3 322.3 2 2z"/>
  <path id="path2823" fill="#fdab33" d="m408.3 322.3 2 2z"/>
  <path id="path2825" fill="#fcb144" d="m420.6 322.3 2 2z"/>
  <path id="path2827" fill="#fef8f1" d="m422.6 322.3 2 2z"/>
  <path id="path2829" fill="#fbfaf2" d="m442.9 322.3 2 2z"/>
  <path id="path2831" fill="#8d8d5b" d="m448.9 322.3 2 2z"/>
  <path id="path2833" fill="#0e0e6e" d="m319 324.4 2 2z"/>
  <path id="path2835" fill="#a4a43d" d="m321 324.4 2 2z"/>
  <path id="path2837" fill="#d4d456" d="m325 324.4 2 2z"/>
  <path id="path2839" fill="#f9d6aa" d="m386 324.4 2 2z"/>
  <path id="path2841" fill="#f9d099" d="m404.3 324.4 2 2z"/>
  <path id="path2843" fill="#fe9f11" d="m406.3 324.4 2 2z"/>
  <path id="path2845" fill="#faca88" d="m418.5 324.4 2 2z"/>
  <path id="path2847" fill="#eeedc1" d="m442.9 324.4 2 2z"/>
  <path id="path2849" fill="#58587b" d="m448.9 324.4 2 2z"/>
  <path id="path2851" fill="#737370" d="m321 326.4 2 2z"/>
  <path id="path2853" fill="#f6f6e4" d="m327 326.4 2 2z"/>
  <path id="path2855" fill="#fbbe66" d="m349.5 326.4 2 2z"/>
  <path id="path2857" fill="#fcb144" d="m382 326.4 2 2z"/>
  <path id="path2859" fill="#f8dcbb" d="m384.6 327.8.7 1.3z"/>
  <path id="path2861" fill="#fbbe66" d="m400.2 326.4 2 2z"/>
  <path id="path2863" fill="#fe9f11" d="m402.2 326.4 2 2z"/>
  <path id="path2865" fill="#fbc477" d="m414.4 326.4 2 2z"/>
  <path id="path2867" fill="#fcf1e4" d="m416.5 326.4 2 2z"/>
  <path id="path2869" fill="#d3d079" d="m442.9 326.4 2 2z"/>
  <path id="path2871" fill="#a4a43d" d="m446.9 326.4 2 2z"/>
  <path id="path2873" fill="#262678" d="m448.9 326.4 2 2z"/>
  <path id="path2875" fill="#49497d" d="m321 328.4 2 2z"/>
  <path id="path2877" fill="#e0dea1" d="m327 328.4 2 2z"/>
  <path id="path2879" fill="#fae3c9" d="m347.4 328.4 2 2z"/>
  <path id="path2881" fill="#fdab33" d="m375.9 328.4 2 2z"/>
  <path id="path2883" fill="#fbc477" d="m377.9 328.4 2 2z"/>
  <path id="path2885" fill="#fbead6" d="m379.9 328.4 2 2z"/>
  <path id="path2887" fill="#fcb144" d="m386 328.4 2 2z"/>
  <path id="path2889" fill="#f9d6aa" d="m412.4 328.4 2 2z"/>
  <path id="path2891" fill="#99994e" d="m446.9 328.4 2 2z"/>
  <path id="path2893" fill="#0e0e6e" d="m321 330.5 2 2z"/>
  <path id="path2895" fill="#a4a43d" d="m323 330.5 2 2z"/>
  <path id="path2897" fill="#d4d456" d="m327 330.5 2 2z"/>
  <path id="path2899" fill="#f9d099" d="m345.4 330.5 2 2z"/>
  <path id="path2901" fill="#fe9f11" d="m347.4 330.5 2 2-2-2m10.2 0 2 2z"/>
  <path id="path2903" fill="#f9d6aa" d="m359.6 330.5 2 2z"/>
  <path id="path2905" fill="#f9d099" d="m361.6 330.5 2 2z"/>
  <path id="path2907" fill="#f9d6aa" d="m369.8 330.5 2 2z"/>
  <path id="path2909" fill="#fae3c9" d="m371.8 330.5 2 2z"/>
  <path id="path2911" fill="#fef8f1" d="m373.8 330.5 2 2z"/>
  <path id="path2913" fill="#fbead6" d="m390 330.5 2 2z"/>
  <path id="path2915" fill="#fae3c9" d="m392 330.5 2 2z"/>
  <path id="path2917" fill="#faca88" d="m394 330.5 2 2z"/>
  <path id="path2919" fill="#fbc477" d="m396.2 330.5 2 2z"/>
  <path id="path2921" fill="#fdab33" d="m398.2 330.5 2 2z"/>
  <path id="path2923" fill="#fe9f11" d="m408.3 330.5 2 2z"/>
  <path id="path2925" fill="#f9d6aa" d="m410.4 330.5 2 2z"/>
  <path id="path2927" fill="#e5e3af" d="m440.8 330.5 2 2z"/>
  <path id="path2929" fill="#667" d="m446.9 330.5 2 2z"/>
  <path id="path2931" fill="#737370" d="m323 332.5 2 2z"/>
  <path id="path2933" fill="#f2f1d7" d="m329.2 332.5 2 2z"/>
  <path id="path2935" fill="#fea522" d="m343.4 332.5 2 2z"/>
  <path id="path2937" fill="#fe9f11" d="m353.6 332.5 2 2z"/>
  <path id="path2939" fill="#fbbe66" d="m355.6 332.5 2 2z"/>
  <path id="path2941" fill="#fcf1e4" d="m357.6 332.5 2 2z"/>
  <path id="path2943" fill="#fea522" d="m406.3 332.5 2 2z"/>
  <path id="path2945" fill="#fbead6" d="m408.3 332.5 2 2z"/>
  <path id="path2947" fill="#dddc7a" d="m440.8 332.5 2 2z"/>
  <path id="path2949" fill="#a4a43d" d="m444.9 332.5 2 2z"/>
  <path id="path2951" fill="#262678" d="m446.9 332.5 2 2z"/>
  <path id="path2953" fill="#49497d" d="m323 334.5 2 2z"/>
  <path id="path2955" fill="#a4a43d" d="m325.8 335.9.7 1.3z"/>
  <path id="path2957" fill="#d3d079" d="m329.2 334.5 2 2z"/>
  <path id="path2959" fill="#f9d099" d="m345.4 334.5 2 2z"/>
  <path id="path2961" fill="#fcb144" d="m347.4 334.5 2 2z"/>
  <path id="path2963" fill="#faca88" d="m349.5 334.5 2 2z"/>
  <path id="path2965" fill="#f8dcbb" d="m351.5 334.5 2 2z"/>
  <path id="path2967" fill="#fef8f1" d="m353.6 334.5 2 2z"/>
  <path id="path2969" fill="#f8dcbb" d="m398.2 334.5 2 2z"/>
  <path id="path2971" fill="#fcf1e4" d="m406.3 334.5 2 2z"/>
  <path id="path2973" fill="#f6f6e4" d="m438.8 334.5 2 2z"/>
  <path id="path2975" fill="#8d8d5b" d="m444.9 334.5 2 2z"/>
  <path id="path2977" fill="#fbfaf2" d="m331.2 336.5 2 2z"/>
  <path id="path2979" fill="#fbbe66" d="m398.2 336.5 2 2z"/>
  <path id="path2981" fill="#faca88" d="m404.3 336.5 2 2z"/>
  <path id="path2983" fill="#e1e18c" d="m438.8 336.5 2 2z"/>
  <path id="path2985" fill="#49497d" d="m444.9 336.5 2 2z"/>
  <path id="path2987" fill="#58587b" d="m325 338.6 2 2z"/>
  <path id="path2989" fill="#e5e59d" d="m331.2 338.6 2 2z"/>
  <path id="path2991" fill="#fe9f11" d="m398.2 338.6 2 2z"/>
  <path id="path2993" fill="#fdab33" d="m402.2 338.6 2 2z"/>
  <path id="path2995" fill="#fbfaf2" d="m436.8 338.6 2 2z"/>
  <path id="path2997" fill="#a4a43d" d="m442.9 338.6 2 2z"/>
  <path id="path2999" fill="#0e0e6e" d="m444.9 338.6 2 2z"/>
  <path id="path3001" fill="#1b1b74" d="m325 340.6 2 2z"/>
  <path id="path3003" fill="#a4a43d" d="m327 340.6 2 2z"/>
  <path id="path3005" fill="#d0d045" d="m331.2 340.6 2 2z"/>
  <path id="path3007" fill="#fbead6" d="m396.2 340.6 2 2z"/>
  <path id="path3009" fill="#fe9f11" d="m400.2 340.6 2 2z"/>
  <path id="path3011" fill="#fbead6" d="m402.2 340.6 2 2z"/>
  <path id="path3013" fill="#e5e59d" d="m436.8 340.6 2 2z"/>
  <path id="path3015" fill="#667" d="m442.9 340.6 2 2z"/>
  <path id="path3017" fill="#6e6c70" d="m327 342.6 2 2z"/>
  <path id="path3019" fill="#e5e3af" d="m333.2 342.6 2 2z"/>
  <path id="path3021" fill="#faca88" d="m396.8 344 .7 1.4z"/>
  <path id="path3023" fill="#fae3c9" d="m400.2 342.6 2 2z"/>
  <path id="path3025" fill="#fbfaf2" d="m434.7 342.6 2 2z"/>
  <path id="path3027" fill="#a4a43d" d="m440.8 342.6 2 2z"/>
  <path id="path3029" fill="#1b1b74" d="m442.9 342.6 2 2-2-2m-115.8 2 2 2z"/>
  <path id="path3031" fill="#a4a43d" d="m329.2 344.7 2 2z"/>
  <path id="path3033" fill="#d0d045" d="m333.2 344.7 2 2z"/>
  <path id="path3035" fill="#fbfaf2" d="m335.2 344.7 2 2z"/>
  <path id="path3037" fill="#f9d6aa" d="m398.2 344.7 2 2z"/>
  <path id="path3039" fill="#e5e59d" d="m434.7 344.7 2 2z"/>
  <path id="path3041" fill="#6e6c70" d="m440.8 344.7 2 2-2-2m-111.6 2 2 2z"/>
  <path id="path3043" fill="#8cbf84" d="m335.2 346.7 2 2z"/>
  <path id="path3045" fill="#0cf" d="M336 346.7c7 14.8 32 49.8 51 49.2 18.7-.7 39.6-35 47.7-49.2z"/>
  <path id="path3047" fill="#a4a43d" d="m438.8 346.7 2 2z"/>
  <path id="path3049" fill="#1b1b74" d="m440.8 346.7 2 2-2-2m-111.6 2 2 2z"/>
  <path id="path3051" fill="#a4a43d" d="m331.2 348.7 2 2z"/>
  <path id="path3053" fill="#adb333" d="m335.2 348.7 2 2z"/>
  <path id="path3055" fill="#1ac5b5" d="m337.3 348.7 2 2z"/>
  <path id="path3057" fill="#68b070" d="m432.7 348.7 2 2z"/>
  <path id="path3059" fill="#667" d="m438.8 348.7 2 2z"/>
  <path id="path3061" fill="#58587b" d="m331.2 350.8 2 2z"/>
  <path id="path3063" fill="#7fb15c" d="m337.3 350.8 2 2z"/>
  <path id="path3065" fill="#27c2aa" d="m430.6 350.8 2 2-2-2z"/>
  <path id="path3067" fill="#a4a43d" d="m436.8 350.8-2 4z"/>
  <path id="path3069" fill="#0e0e6e" d="m438.8 350.8 2 2-2-2m-107.6 2 2 2z"/>
  <path id="path3071" fill="#a4a43d" d="m333.2 352.8 4 4z"/>
  <path id="path3073" fill="#34be9e" d="m339.3 352.8 2 2z"/>
  <path id="path3075" fill="#96b247" d="m430.6 352.8 2 2-2-2z"/>
  <path id="path3077" fill="#53527c" d="m436.8 352.8 2 2z"/>
  <path id="path3079" fill="#3a3a7c" d="m333.2 354.9 2 2z"/>
  <path id="path3081" fill="#a2b23d" d="m339.3 354.9 2 2z"/>
  <path id="path3083" fill="#0dc9c1" d="m341.3 354.9 2 2z"/>
  <path id="path3085" fill="#5bb47c" d="m428.6 354.9 2 2z"/>
  <path id="path3087" fill="#8d8d5b" d="m434.7 354.9 2 2z"/>
  <path id="path3089" fill="#737370" d="m335.2 356.9 2 2z"/>
  <path id="path3091" fill="#74b166" d="m341.3 356.9 2 2z"/>
  <path id="path3093" fill="#27c2aa" d="m426.6 356.9 2 2z"/>
  <path id="path3095" fill="#a4a43d" d="m432.7 356.9-2 4z"/>
  <path id="path3097" fill="#262678" d="m434.7 356.9 2 2z"/>
  <path id="path3099" fill="#0e0e6e" d="m335.2 358.9 2 2z"/>
  <path id="path3101" fill="#a4a43d" d="m337.3 358.9 4 4z"/>
  <path id="path3103" fill="#42bb92" d="m343.4 358.9 2 2z"/>
  <path id="path3105" fill="#0dc9c1" d="m424.6 358.9 2 2z"/>
  <path id="path3107" fill="#96b247" d="m426.6 358.9 2 2z"/>
  <path id="path3109" fill="#58587b" d="m432.7 358.9 2 2z"/>
  <path id="path3111" fill="#3a3a7c" d="m337.3 360.9 2 2z"/>
  <path id="path3113" fill="#adb333" d="m343.4 360.9 2 2z"/>
  <path id="path3115" fill="#27c2aa" d="m345.4 360.9 2 2z"/>
  <path id="path3117" fill="#74b166" d="m424.6 360.9 2 2z"/>
  <path id="path3119" fill="#8d8d5b" d="m430.6 360.9 2 2-2-2z"/>
  <path id="path3121" fill="#6e6c70" d="m339.3 362.9 2 2z"/>
  <path id="path3123" fill="#96b247" d="m345.4 362.9 2 2z"/>
  <path id="path3125" fill="#0dc9c1" d="m347.4 362.9 2 2z"/>
  <path id="path3127" fill="#42bb92" d="m422.6 362.9 2 2z"/>
  <path id="path3129" fill="#a4a43d" d="m428.6 362.9-4 6 4-6z"/>
  <path id="path3131" fill="#1b1b74" d="m430.6 362.9 2 2-2-2z"/>
  <path id="path3133" fill="#0e0e6e" d="m339.3 364.9 2 2-2-2z"/>
  <path id="path3135" fill="#8d8d5b" d="m341.3 364.9 2 2-2-2z"/>
  <path id="path3137" fill="#7fb15c" d="m347.4 364.9 2 2-2-2z"/>
  <path id="path3139" fill="#34be9e" d="m420.6 364.9 2 2-2-2z"/>
  <path id="path3141" fill="#3a3a7c" d="m428.6 364.9 2 2-2-2z"/>
  <path id="path3143" fill="#1b1b74" d="m341.3 367 2 2z"/>
  <path id="path3145" fill="#a4a43d" d="m343.4 367 22.3 22.3z"/>
  <path id="path3147" fill="#74b166" d="m349.5 367 2 2z"/>
  <path id="path3149" fill="#27c2aa" d="m418.5 367 2 2z"/>
  <path id="path3151" fill="#adb333" d="m420.6 367 2 2z"/>
  <path id="path3153" fill="#667" d="m426.6 367 2 2z"/>
  <path id="path3155" fill="#32327b" d="m343.4 369 2 2z"/>
  <path id="path3157" fill="#42bb92" d="m351.5 369 2 2z"/>
  <path id="path3159" fill="#0dc9c1" d="m416.5 369-8.2 10.2 8.3-10.3z"/>
  <path id="path3161" fill="#adb333" d="m418.5 369 2 2z"/>
  <path id="path3163" fill="#737370" d="m424.6 369 2 2z"/>
  <path id="path3165" fill="#49497d" d="m345.4 371 2 2z"/>
  <path id="path3167" fill="#42bb92" d="m353.6 371 2 2z"/>
  <path id="path3169" fill="#96b247" d="m416.5 371 2 2z"/>
  <path id="path3171" fill="#8d8d5b" d="m422.6 371-2 4z"/>
  <path id="path3173" fill="#0e0e6e" d="m424.6 371 2 2z"/>
  <path id="path3175" fill="#53527c" d="m347.4 373 2 2z"/>
  <path id="path3177" fill="#42bb92" d="m355.6 373 2 2z"/>
  <path id="path3179" fill="#96b247" d="m414.4 373 2 2z"/>
  <path id="path3181" fill="#0e0e6e" d="m422.6 373 2 2z"/>
  <path id="path3183" fill="#6e6c70" d="m349.5 375 2 2z"/>
  <path id="path3185" fill="#42bb92" d="m357.6 375 2 2z"/>
  <path id="path3187" fill="#96b247" d="m412.4 375 2 2z"/>
  <path id="path3189" fill="#a4a43d" d="m418.5 375-4 6.2 4-6z"/>
  <path id="path3191" fill="#262678" d="m420.6 375 2 2z"/>
  <path id="path3193" fill="#6e6c70" d="m351.5 377.2 2 2z"/>
  <path id="path3195" fill="#42bb92" d="m359.6 377.2 2 2z"/>
  <path id="path3197" fill="#96b247" d="m410.4 377.2 2 2z"/>
  <path id="path3199" fill="#262678" d="m418.5 377.2 2 2z"/>
  <path id="path3201" fill="#6e6c70" d="m353.6 379.2 2 2z"/>
  <path id="path3203" fill="#68b070" d="m361.6 379.2 2 2z"/>
  <path id="path3205" fill="#27c2aa" d="m406.3 379.2 2 2z"/>
  <path id="path3207" fill="#adb333" d="m408.3 379.2 2 2z"/>
  <path id="path3209" fill="#262678" d="m416.5 379.2 2 2z"/>
  <path id="path3211" fill="#667" d="m355.6 381.2 2 2z"/>
  <path id="path3213" fill="#74b166" d="m363.6 381.2 2 2-2-2z"/>
  <path id="path3215" fill="#34be9e" d="m404.3 381.2 2 2z"/>
  <path id="path3217" fill="#adb333" d="m406.3 381.2 2 2z"/>
  <path id="path3219" fill="#8d8d5b" d="m412.4 381.2-2 4z"/>
  <path id="path3221" fill="#262678" d="m414.4 381.2 2 2z"/>
  <path id="path3223" fill="#49497d" d="m357.6 383.2 2 2z"/>
  <path id="path3225" fill="#96b247" d="m365.7 383.2 2 2z"/>
  <path id="path3227" fill="#0dc9c1" d="m367.7 383.2 2 2z"/>
  <path id="path3229" fill="#42bb92" d="m402.2 383.2 2 2z"/>
  <path id="path3231" fill="#0e0e6e" d="m412.4 383.2 2 2z"/>
  <path id="path3233" fill="#49497d" d="m359.6 385.3 2 2z"/>
  <path id="path3235" fill="#a2b23d" d="m367.7 385.3 2 2z"/>
  <path id="path3237" fill="#27c2aa" d="m369.8 385.3 2 2z"/>
  <path id="path3239" fill="#74b166" d="m400.2 385.3 2 2z"/>
  <path id="path3241" fill="#a4a43d" d="m406.3 385.3-6 8z"/>
  <path id="path3243" fill="#808067" d="m408.3 385.3 2 2z"/>
  <path id="path3245" fill="#0e0e6e" d="m410.4 385.3 2 2z"/>
  <path id="path3247" fill="#262678" d="m361.6 387.3 2 2z"/>
  <path id="path3249" fill="#adb333" d="m369.8 387.3 2 2z"/>
  <path id="path3251" fill="#42bb92" d="m371.8 387.3 2 2z"/>
  <path id="path3253" fill="#0dc9c1" d="m396.2 387.3 2 2z"/>
  <path id="path3255" fill="#96b247" d="m398.2 387.3 2 2z"/>
  <path id="path3257" fill="#6e6c70" d="m406.3 387.3 2 2z"/>
  <path id="path3259" fill="#1b1b74" d="m363.6 389.3 2 2-2-2z"/>
  <path id="path3261" fill="#8d8d5b" d="m365.7 389.3 2 2z"/>
  <path id="path3263" fill="#74b166" d="m373.8 389.3 2 2z"/>
  <path id="path3265" fill="#0dc9c1" d="m375.9 389.3 2 2z"/>
  <path id="path3267" fill="#34be9e" d="m394 389.3 2 2z"/>
  <path id="path3269" fill="#adb333" d="m396.2 389.3 2 2z"/>
  <path id="path3271" fill="#49497d" d="m404.3 389.3 2 2z"/>
  <path id="path3273" fill="#0e0e6e" d="m365.7 391.4 2 2z"/>
  <path id="path3275" fill="#6e6c70" d="m367.7 391.4 2 2z"/>
  <path id="path3277" fill="#a4a43d" d="m369.8 391.4 4 4z"/>
  <path id="path3279" fill="#96b247" d="m375.9 391.4 2 2z"/>
  <path id="path3281" fill="#27c2aa" d="m377.9 391.4 2 2z"/>
  <path id="path3283" fill="#68b070" d="m392 391.4 2 2z"/>
  <path id="path3285" fill="#32327b" d="m402.2 391.4 2 2z"/>
  <path id="path3287" fill="#49497d" d="m369.8 393.4 2 2z"/>
  <path id="path3289" fill="#5bb47c" d="m379.9 393.4 2 2z"/>
  <path id="path3291" fill="#27c2aa" d="m388 393.4 2 2z"/>
  <path id="path3293" fill="#96b247" d="m390 393.4 2 2z"/>
  <path id="path3295" fill="#a4a43d" d="m396.2 393.4-2 4z"/>
  <path id="path3297" fill="#808067" d="m398.2 393.4 2 2z"/>
  <path id="path3299" fill="#0e0e6e" d="m400.2 393.4 2 2z"/>
  <path id="path3301" fill="#262678" d="m371.8 395.4 2 2z"/>
  <path id="path3303" fill="#8d8d5b" d="m373.8 395.4 2 2z"/>
  <path id="path3305" fill="#8bb252" d="m382 395.4 2 2z"/>
  <path id="path3307" fill="#1ac5b5" d="m384 395.4 2 2z"/>
  <path id="path3309" fill="#5bb47c" d="m386 395.4 2 2z"/>
  <path id="path3311" fill="#58587b" d="m396.2 395.4 2 2z"/>
  <path id="path3313" fill="#0e0e6e" d="m373.8 397.5 2 2z"/>
  <path id="path3315" fill="#667" d="m375.9 397.5 2 2z"/>
  <path id="path3317" fill="#a4a43d" d="m377.9 397.5 2 2z"/>
  <path id="path3319" fill="#99994e" d="m392 397.5 2 2z"/>
  <path id="path3321" fill="#32327b" d="m394 397.5 2 2-2-2m-16.1 2 2 2z"/>
  <path id="path3323" fill="#99994e" d="m379.9 399.5 2 2z"/>
  <path id="path3325" fill="#a4a43d" d="m388 399.5 2 2z"/>
  <path id="path3327" fill="#667" d="m390 399.5 2 2z"/>
  <path id="path3329" fill="#0e0e6e" d="m392 399.5 2 2-2-2m-12.1 2 2 2z"/>
  <path id="path3331" fill="#667" d="m382 401.5 2 2z"/>
  <path id="path3333" fill="#a4a43d" d="m384 401.5 2 2z"/>
  <path id="path3335" fill="#99994e" d="m386 401.5 2 2z"/>
  <path id="path3337" fill="#32327b" d="m388 401.5 2 2z"/>
  <path id="path3339" fill="#262678" d="m384 403.5 2 2z"/>
  <path id="path3341" fill="#0e0e6e" d="m386 403.5 2 2z"/>
  <path id="path3343" fill="#f90" d="M388 267.5c3.2 7.4 13.2 15.5 16 19.5-3.5 4-4.2 3.6-3.8 11 6-6.4 6.2-7 10.2-6.1 8.6 8.6 1.5 27-5.6 31-7.1 4.3-5.8-.1-16.5 5.2 4.9 4.2 10.6-.6 15.2.7 2.5 3-1.2 8.4.7 13.6 4-.4 3.6-8.7 4.6-11.7 3-11 21-18.6 21.9-28.7 3.8-1.7 7.5-.5 12 2-2.2-9.4-9.7-9.3-11.8-12.2-4.8-7.4-9.1-15.8-19.4-18-8-1.7-7.3.5-12.3-3-3.2-2.4-12.7-7-11.2-3.3z"/>
  <path id="path3345" fill="#fff" fill-rule="evenodd" d="M410.6 275.9a1.6 1.6 0 1 1-3.3 0 1.6 1.6 0 0 1 3.3 0z"/>
  <path id="path3347" fill="#f90" d="M362.9 298.8c5-6.2 7.6-19 9.8-23.2 5.2 1.2 5 2 11.5-1.8-8.5-2.4-9.2-2.2-10.2-6.1 3.6-11.7 23.2-14 30-9.6 7.2 4.3 2.7 5.2 12.4 12 1.4-6.2-5.5-9-6.5-13.6 1.5-3.7 8-3 11.6-7-2.2-3.5-9.3.8-12.4 1.4-11 2.5-26.3-9.8-35.6-6-3.3-2.5-4-6.4-4-11.7-7.1 6.5-3.5 13-5.2 16.3-4.2 7.7-9.7 15.5-6.8 25.6 2.2 7.8 3.8 6.2 3.2 12.3-.7 3.9-.4 14.5 2.2 11.4z"/>
  <path id="path3349" fill="#fff" fill-rule="evenodd" d="M359.8 274.9c.8-.4 1.8-.1 2.2.7a1.6 1.6 0 1 1-2.2-.7z"/>
  <path id="path3351" fill="#f90" d="M404 303c-8-1-20.1 3.4-25 3.8-1.5-5.1-.8-5.5-7.4-9 2.3 8.6 2.8 9 0 12-11.8 2.9-24-12.7-23.8-20.8 0-8.3 3.2-5 4-17-6 2-4.8 9.5-8.3 12.8-4 .6-6.6-5.3-12-6.3-1.8 3.7 5.5 7.5 7.6 9.9 7.9 8.2 5.2 27.5 13.3 33.5-.4 4.2-3.4 6.8-8 9.4 9.3 2.9 13-3.7 16.7-4 8.8-.2 18.3.4 25.5-7.3 5.4-6 3.3-6.5 8.8-9 3.7-1.4 12.6-7.2 8.6-8z"/>
  <path id="path3353" fill="#fff" fill-rule="evenodd" d="M385.2 318.2a1.6 1.6 0 1 1 1.7-2.8 1.6 1.6 0 0 1-1.7 2.8z"/>
  <path id="path6674" fill="#012169" stroke-width=".5" d="M0 0h256v256H0z"/>
  <path id="path6676" fill="#fff" stroke-width=".5" d="M256 0v32l-95 96 95 93.5V256h-33.5L127 162l-93 94H0v-34l93-93.5L0 37V0h31l96 94 93-94z"/>
  <path id="path6678" fill="#c8102e" stroke-width=".5" d="m92 162 5.5 17L21 256H0v-1.5zm62-6 27 4 75 73.5V256zM256 0l-96 98-2-22 75-76zM0 .5 96.5 95 67 91 0 24.5z"/>
  <path id="path6680" fill="#fff" stroke-width=".5" d="M88 0v256h80V0zM0 88v80h256V88z"/>
  <path id="path6682" fill="#c8102e" stroke-width=".5" d="M0 104v48h256v-48zM104 0v256h48V0z"/>
</svg>
