<svg xmlns="http://www.w3.org/2000/svg" id="flag-icon-css-aq" viewBox="0 0 512 512">
  <defs>
    <clipPath id="a">
      <path fill-opacity=".7" d="M0 0h512v512H0z"/>
    </clipPath>
  </defs>
  <g clip-path="url(#a)">
    <path fill="#3a7dce" fill-rule="evenodd" d="M0 0h512v512H0z"/>
    <path fill="#fff" d="M95.8 237.9c-3.7-7.6-3.7-7.6-3.7-15.1-1.8 0-2.2.3-3.2 0-1.1-.3-1.5 7-5 5.6-.6-.7 2.5-6-.8-8.2-1-.7.3-5-.2-6.9 0 0-4.2 2.2-7.4-5.7-1.6-2-3.7 2-3.7 2s.9 2.3-.8 3c-2.3-1.8-4-1-7-3.4s.6-5.2-5.2-7.3c3.7-9.4 3.7-7.5 13-11.3-5.6-3.8-5.6-3.8-9.3-9.5-5.5-1.9-7.4-3.8-13-7.5-7.3-9.5-11-28.4-11-41.7 4.7-4.4 11 15.2 20.3 20.8l13 5.7c7.4 3.8 9.2 7.6 14.8 11.4l16.6 5.6c7.4 5.7 11.1 13.3 16.7 15.2 6 0 7.2-3.6 9.1-3.8 10.9-.5 16.4-2 18.6-5.3 2.2-2.7 7.5 1.5 22.3-4.2l-1.9-7.5s4-3.3 9.3-2c-.2-3.4-.5-12.6 4.7-16.8-3.1-3.4-1-5.8-1-5.8s3-3 3.3-4.5c-1.6-8.3 1.3-8.4 2-10.9.6-2.4-2.5-1.6-1.6-5 .9-3.4 6.2-4.2 7-7 .7-2.7-1.6-4.1-1.5-4.8 1.2-2.7.2-9 0-11.4 10-2.7 13.2-11 16.7-7.5 1.8-11.4 3.7-15.2 14.8-15.2 1.6-3.5-4-6.4-1.8-7.5 3.6-.5 6.5-.3 10.8 5.5 1.4 1.8 1.6-2.7 3-3.2 1.4-.4 4.7-.5 5.2-2.7.6-2.3 1.3-5.3 3.2-9.1 1.5-3 2.7 1.2 4.1 7.2 7.8.3 25.5 2 32.9 4.2 5.5 1.4 9.2-1.5 14.5-2.1 4 4 7.7 1 9.8 9.6 3 4.6 7.7.4 8.8 1.7 6.2 17.5 27.4 5.7 29 6 2.8 0 6 7.8 8.2 7.6 3.5-.6 2.5-3 5.6-2-.8 6.5 6 14.1 6 19 0 0 1.6.8 3-.6 1.6-1.5 3-5.2 4.4-5.1 3.2.4 4.5.9 8.3 1.5 10 3.5 15.1 4.3 19 6.1 1.8 3.4 3.6 5.2 7.3 4.5 3 2.1.8 4.8 2.6 5 3.7-1.9 4.9-4 8.6-2 3.7 1.9 7.4 5.6 9.3 9.4 0 2-1.9 9.5 0 20.8.9 3.8 1.3 6.8 5.3 13.3-1 6.7 5 17.9 5 20.7 0 3.8-3 5.8-4.8 9.6 7.4 5.6 0 15-3.7 20.8 27.8 5.7 14.8 17 37 11.3-5.5 13.3-3.6 12.2 2 25.5-11.1 7.5-.2 9.8-7.6 19.3-.5.6 4.4 8.2 11.2 8.2-1.9 15.2-7.4 9.5-5.6 32.2-14.6-.3-8.7 17-18.5 15.1.6 10.8 5.6 11.8 3.7 22.7-7.4 2-7.4 2-11 7.6l-5.6-1.9c-1.9 9.5-5.6 11.4 0 20.8 0 0-7.2.3-9.3 0-.2 3.3 3.2 4.2 3.7 7.6-.3 1.4-10.5 7.3-18.5 7.6-2 4.6 5.5 9.6 5 12-8.6 1.7-12.4 12.6-12.4 12.6s4.4 1.8 3.7 3.8c-2.4-1.8-3.7-2-7.4-2-1.9.5-6.4 0-10.7 7.4-4.7 1.6-7 1-10.6 5.9-1.6-4.6-3.9 0-6.7 1.8-2.8 1.8-6.6 6.3-7 6.1a52 52 0 011.7-6l-9.3 1.9-1.1.1c-.7 0-.6-5.5-2.3-5.3-1.8.2-6.8 7-8.5 7.2-1.7.3-2.2-2.1-3.7-2-1.5.3-4.3 7.3-5.4 7.5-1 .2-5.2-4.3-8.7-3.7-18.2 6.6-21.1-13-24-2-3.8-2-3.1-.8-7 .3-2.5.6-2.7-3.4-4.9-3.3-4.4.1-4.2 4.4-6.6 3-2-8.8-13.8-7.2-15-11-.9-4 5.2-3.9 7.2-6.6 1.5-3.8-1.6-5.3 4.5-9 8-5.5 3.4-7.6 4.8-11.7 2.5-6 2.5-7.4.4-12.7 0 0-6.2-17-7.4-17-3.7-1.1-3.7 6.2-9.2 8.2-11 3.8-30.7-9.5-34-9.5-3.2 0-17.7 3.5-17.1-4-2.2 7.3-10.1 1.8-10.6 1.8-7.4 0-4.6 5.8-9.6 5.6-2.2-.8-25-2.1-25-2.1v3.7l-14.8-7.5-13-3.8c-11-3.8-5.5-13.3-24-7.6V344h-9.3c3.7-22.7 0-11.4-1.8-32.2l-7.4 1.9c-7.4-10.2 10.2-8.3-5.6-15.1 0 0 .3-11.3-3.7-7.6-.8.5 1.8 5.7 1.8 5.7-14.8-2-18.5-5.7-18.5-20.9 0 0 12.2 1.8 11.1 0-1.7-2.8-4-21.3-3.5-22.5-.2-2.5 11.3-8.7 9-14.7 1.5-.5 5.6-.6 5.6-.6"/>
    <path fill="none" stroke="#fff" stroke-linecap="round" stroke-linejoin="round" stroke-width="2.7" d="M595.5 313.5a3.8 3.8 0 00.1 3.6c1.1-1.6.2-2.4 0-3.6z"/>
    <path fill="none" stroke="#fff" stroke-linejoin="round" stroke-width="2.5" d="M119.5 164s-3-.3-2.4 2.4c1-2 2.4-2.2 2.4-2.3zm.7-6.2c-1.7 0-3.8-.3-3 2.4 1-2 3-2.3 3-2.4zM132 194s2.7-.1 2 2.6c-1-2.1-2-2.4-2-2.6z"/>
  </g>
</svg>
