<svg xmlns="http://www.w3.org/2000/svg" id="flag-icon-css-au" viewBox="0 0 512 512">
  <g stroke-width="1pt">
    <path fill="#006" d="M0 0h512v512H0z"/>
    <path fill="#fff" d="M0 0v28l307 222h38.7v-28L38.7 0H0zm345.7 0v28l-307 222H0v-28L307 0h38.7z"/>
    <path fill="#fff" d="M144 0v250h57.6V0H144zM0 83.3v83.4h345.7V83.3H0z"/>
    <path fill="#c00" d="M0 100v50h345.7v-50H0zM155.6 0v250H190V0h-34.5zM0 250l115.2-83.3H141L25.8 250H0zM0 0l115.2 83.3H89.5L0 18.6V0zm204.7 83.3L319.9 0h25.8L230.5 83.3h-25.8zm141 166.7l-115.2-83.3h25.7l89.5 64.7V250z"/>
    <path fill="#fff" fill-rule="evenodd" d="M54.9 368.6L95.5 384l13.4-41.4 13.3 41.4 40.7-15.4-24.1 36.3 37.4 22.2-43.3 3.7 6 43.1-30-31.5-30 31.5 6-43-43.4-3.8L79 404.9m325 71.5l-19 1.6 2.7 18.8-13-13.7-13 13.7L364 478l-18.8-1.6 16.3-9.6L351 451l17.7 6.7 5.8-18 5.7 18L398 451l-10.4 15.8m16.2-270.4L385 198l2.6 18.8-13-13.7-13 13.7L364 198l-18.8-1.6 16.3-9.6L351 171l17.7 6.7 5.8-18 5.7 18L398 171l-10.4 15.8m-88.8 123.4l-18.8 1.6 2.6 18.7-13-13.7-13 13.7 2.5-18.7-18.8-1.6 16.3-9.7-10.5-15.7 17.7 6.7 5.8-18 5.7 18 17.7-6.7-10.4 15.7M497 282.2l-18.8 1.6 2.6 18.7-13-13.7-13 13.7 2.5-18.7-18.8-1.6 16.3-9.7-10.5-15.7 17.7 6.7 5.8-18 5.8 18 17.6-6.7-10.4 15.7M416.6 355l-10.3 6.4 2.9-11.8-9.3-7.8 12-.9 4.7-11.2L421 341l12.1 1-9.2 7.7 2.9 11.8"/>
  </g>
</svg>
