<svg xmlns="http://www.w3.org/2000/svg" xmlns:xlink="http://www.w3.org/1999/xlink" id="flag-icons-gs" viewBox="0 0 512 512">
  <defs id="defs11071">
    <linearGradient id="b">
      <stop id="stop11048" offset="0" stop-color="#d5dfff"/>
      <stop id="stop11050" offset="1" stop-color="#fff"/>
    </linearGradient>
    <linearGradient id="a">
      <stop id="stop11053" offset="0" stop-color="#474747"/>
      <stop id="stop11055" offset="1" stop-color="#f50"/>
    </linearGradient>
    <linearGradient xlink:href="#a" id="d" x1="109.3" x2="110.9" y1="218.5" y2="173.4" gradientTransform="matrix(1.2986 0 0 .56072 242.1 41.7)" gradientUnits="userSpaceOnUse"/>
    <linearGradient id="e" x1="125.9" x2="126" y1="316.4" y2="337.2" gradientTransform="matrix(1.05952 0 0 .688 242.1 41.7)" gradientUnits="userSpaceOnUse">
      <stop id="stop11059" offset="0" stop-color="#b50000"/>
      <stop id="stop11061" offset="1" stop-color="#ffc500"/>
    </linearGradient>
    <linearGradient xlink:href="#b" id="f" x1="407.9" x2="456.4" y1="149.4" y2="147.3" gradientTransform="matrix(.4816 0 0 1.5136 242.1 41.7)" gradientUnits="userSpaceOnUse"/>
    <linearGradient xlink:href="#a" id="g" x1="215.8" x2="229" y1="103" y2="103" gradientTransform="matrix(.6364 0 0 1.1438 242.1 41.7)" gradientUnits="userSpaceOnUse"/>
    <linearGradient xlink:href="#b" id="h" x1="117.6" x2="78.2" y1="1040.4" y2="1003.7" gradientTransform="matrix(2.20418 0 0 .33024 242.1 41.7)" gradientUnits="userSpaceOnUse"/>
    <linearGradient xlink:href="#b" id="i" x1="264.7" x2="255" y1="246" y2="226.4" gradientTransform="matrix(.76196 0 0 .9546 242.1 41.7)" gradientUnits="userSpaceOnUse"/>
    <linearGradient xlink:href="#a" id="linearGradient747" x1="109.3" x2="110.9" y1="218.5" y2="173.4" gradientTransform="matrix(1.03296 0 0 .44588 300.5 79.8)" gradientUnits="userSpaceOnUse"/>
    <linearGradient id="linearGradient748" x1="125.9" x2="126" y1="316.4" y2="337.2" gradientTransform="matrix(.84238 0 0 .54673 300.5 79.8)" gradientUnits="userSpaceOnUse">
      <stop id="stop4140" offset="0" stop-color="#b50000"/>
      <stop id="stop4142" offset="1" stop-color="#ffc500"/>
    </linearGradient>
    <linearGradient xlink:href="#b" id="linearGradient801" x1="407.9" x2="456.4" y1="149.4" y2="147.4" gradientTransform="matrix(.3824 0 0 1.20437 300.5 79.8)" gradientUnits="userSpaceOnUse"/>
    <linearGradient xlink:href="#a" id="linearGradient746" x1="215.8" x2="229" y1="103" y2="103" gradientTransform="matrix(.50678 0 0 .9088 300.5 79.8)" gradientUnits="userSpaceOnUse"/>
    <linearGradient xlink:href="#b" id="linearGradient794" x1="117.6" x2="78.2" y1="1040.4" y2="1003.7" gradientTransform="matrix(1.75297 0 0 .26273 300.5 79.8)" gradientUnits="userSpaceOnUse"/>
    <linearGradient xlink:href="#b" id="linearGradient800" x1="264.7" x2="255" y1="246" y2="226.4" gradientTransform="matrix(.60628 0 0 .75962 300.5 79.8)" gradientUnits="userSpaceOnUse"/>
    <clipPath id="gs-c">
      <path id="path11068" fill-opacity=".7" d="M0 0h512v512H0z"/>
    </clipPath>
  </defs>
  <path id="path11073" fill="#006" d="M0 0h512v512H0Z" style="stroke-width:.707107pt"/>
  <path id="path4164" fill="#6a4c2d" stroke="#000" stroke-width=".9" d="M373.4 348.6s-2.3 6-3.6 6c-1.3 0-6-2.5-6-2.5s-3.5 5.5-5.3 5.8c-1.8.4-6.6-.8-6.6-.8s-4.5 0-4.7-.6c-.2-.7.2-2 .2-2s-6.6 5.2-8 4.9c-1.5-.3-6.4-6.5-6.4-6.5l-.8 3.2-9.3-.3-8.2-5.2s-4.6 7.5-4.8 7.3c-.1-.1-8 1.8-8 1.8l-.5-1.4-5.2-3.1s4-5.8 4-6l-1.9-.7-3 2.4-6 4-6-2.8 2.6-5 .3-3.6 4.8-7.1 58-56.4 28.6 52.8z"/>
  <path id="path4166" fill="#fff" stroke="#000" stroke-width=".9" d="m414.6 352 15-.5-6.3-3.2 57.5-2.2-8.1-3-7.2-9.8-29.8-2.3s-2.3-1.7-6-.8c0-2.3-2.9-5.4-2.9-5.4l-18.3-1.3-11.5 7.8 7.7 19.8z"/>
  <path id="path4168" fill="url(#linearGradient747)" stroke="#000" stroke-width=".9" d="m355.8 182.9 1.5-5.2s2.7-4.5 2.7-6.5 2-4.3 2-4.3 6-1.7 7.4 2c6.5-9.9 14.2-.5 14.2-.5l2.1-2.5 4.3-5.3s6.2 5.8 6.3 6.8c0 1 1 .3 1 .3l6.7-.6a8 8 0 0 0 2.6 7.3c2.3 1.4 4.4 9.6 4.4 9.6z" style="fill:url(#linearGradient747)"/>
  <path id="path4170" fill="#656263" stroke="#000" stroke-width=".9" d="M414.6 244.4c1.2-.7 4.8-1.8 4.3-7.2-.4-5.3-5-5.9-7.6-5.7a9.2 9.2 0 0 0-4.9 2.4l-8.5-5.4s4.3-27 8.8-28.6c4.3-3.1 5-4.4 5-5.1 0-.8-1.5-2.5-1.5-2.5l-27.8-3.3-26.3 3s-2 3.2-1.7 4.4c.2 1.3.3 2.6 5 6.2 5.2 4 8.8 27 8.8 27s-7.4 3.6-7.8 3.2c-.5-.4-2.7-.9-3.8-.7-1.2.2-5 2.1-5 7.2 0 5 3.8 8 3.8 8s25.1-3 28.9 4c3.6-8.4 27.5-5.5 30.3-6.9z"/>
  <path id="path4172" stroke="#000" stroke-linejoin="round" stroke-opacity="1" stroke-width=".9" d="M441.6 216.5s.3-3 2.4-4.3c2-1.4 16-2.1 19.3 0 3.4 2 4.6 12.3 4.6 12.3s2 3.7 2.2 6.3l.4 4.4s11.2 14.5 11.3 27.6c1.2 8.8 1 32.6-2.5 41.6a38 38 0 0 1-4.9 18.6s1.1 2 1 4c-.1 2.2-1.2 4.1-1.2 4.1l16.2 8-6-2.2 6 5-6.8-3.2 4 4-9.8-4.4 4.3 4.2-7.4-3.5 4.3 4.5c-.1-.3-6.4-2.8-6.4-2.8l.3 2.4s-5-.3-5-4c-2.5-1.5-4.2-3.4-4.2-3.4l-11.5-2-13-39 3-66 .8-3.3z"/>
  <path id="path4174" fill="#fb0" stroke="#000" stroke-width=".9" d="M433 427.4s-6.8-14-10.1-14.3c-3-5.7 10.5-52.6 36.5-55.3 14.3 1.2 1.2 16.5-8.2 11.8 1.1 4.1 5.8 10 5.8 10s-18.6 8-24 47.8z"/>
  <path id="path4176" fill="#fb0" stroke="#000" stroke-width=".9" d="M343.2 429.4s5.6-16 9-16.2c3.3-.2-9-53.4-35.7-53.8-14.4 1.2-1.2 16.6 8.3 11.9-1.1 4.2-5.9 10-5.9 10s18.8 8.2 24.3 48.1z"/>
  <path id="path4178" fill="#00713d" stroke="#000" stroke-width=".9" d="M367.7 329.4c0-.1-6.6 2-2.4 9.2.4-2.8 3.3-4.5 3.3-4.5s-4.5 5.4.3 9.9c.6-4.3 3.3-5.6 3.3-5.6s-3.4 9.8 0 11.8c.4-3.9 3-5.6 3-5.6s-3.1 8.8-.4 10.8c.3-3.4 2.6-4.8 2.6-4.8s-1.4 9 2.1 9.7c.1-3.2 2.7-6.3 2.7-6.3s-1.2 7.4 4.4 7.8c0-2.9 1-6.1 1-6.1s2.6 8 6.2 6.6v-6.7s2.3 7.6 6.7 6.2c-.6-2.2.3-4.7.3-4.7s2.3 4.7 6.5 3.2c.7-1.4-.2-4.2-.2-4.2s6 6.3 8 2.5c1.8-3.8-5-5-5-5h4.6s-1.4-4-7.6-4.8c2.1-1 4.3-.2 4.3-.2s-1.3-4.9-7.6-5.4c2.4-.8 5.1-.2 5.1-.2s-.8-4.6-7.7-5.9c1-1.2 4-.8 4-.8s-2.8-4.3-6-4c-3 .2-31.6-3-31.5-3z"/>
  <path id="path4180" d="M395.8 352.6s2.5 1.2 2.5 2.3" style="fill:none;stroke:#3ec26d;stroke-width:.855039;stroke-linecap:round"/>
  <path id="path4182" d="M397.3 350.6s3.2 2.3 3.2 4" style="fill:none;stroke:#3ec26d;stroke-width:.855039;stroke-linecap:round"/>
  <path id="path4184" d="M400.1 349.5s2.6 1.6 2.7 4" style="fill:none;stroke:#3ec26d;stroke-width:.855039;stroke-linecap:round"/>
  <path id="path4186" d="M404.4 350.5s1.3 2.8.9 3.3" style="fill:none;stroke:#3ec26d;stroke-width:.855039;stroke-linecap:round"/>
  <path id="path4188" d="M407 352c.2 2.2-.2 2.3-.2 2.3" style="fill:none;stroke:#3ec26d;stroke-width:.855039;stroke-linecap:round"/>
  <path id="path4192" d="M375.3 338.1s3 2 2.8 4.7" style="fill:none;stroke:#3ec26d;stroke-width:.855039;stroke-linecap:round"/>
  <path id="path4194" d="M375.1 340.5s1.4 1.3 1.1 2.2" style="fill:none;stroke:#3ec26d;stroke-width:.855039;stroke-linecap:round"/>
  <path id="path4196" d="M378.8 338.2s2 2.8 1.4 4.7" style="fill:none;stroke:#3ec26d;stroke-width:.855039;stroke-linecap:round"/>
  <path id="path4198" d="M382.2 340s1 1.7.1 2.7" style="fill:none;stroke:#3ec26d;stroke-width:.855039;stroke-linecap:round"/>
  <path id="path4200" d="M383.9 340.8s1 1.8 0 2.4" style="fill:none;stroke:#3ec26d;stroke-width:.855039;stroke-linecap:round"/>
  <path id="path4202" d="M382.6 346.6s2.9.6 3.3 2.7" style="fill:none;stroke:#3ec26d;stroke-width:.855039;stroke-linecap:round"/>
  <path id="path4204" d="M384.3 344.6s3 .2 3.3 3.4" style="fill:none;stroke:#3ec26d;stroke-width:.855039;stroke-linecap:round"/>
  <path id="path4206" d="M388.2 343.5c.1 0 2 3.5 1.7 4.5" style="fill:none;stroke:#3ec26d;stroke-width:.855039;stroke-linecap:round"/>
  <path id="path4208" d="M392 343.9s.8 3.2.2 4.3" style="fill:none;stroke:#3ec26d;stroke-width:.855039;stroke-linecap:round"/>
  <path id="path4210" d="M394.5 345.1v3.8" style="fill:none;stroke:#3ec26d;stroke-width:.855039;stroke-linecap:round"/>
  <path id="path4212" d="M390.7 340s1.9.7 1.8 2.5" style="fill:none;stroke:#3ec26d;stroke-width:.855039;stroke-linecap:round"/>
  <path id="path4214" d="M392.5 338.3s2.4 1.4 2.1 4" style="fill:none;stroke:#3ec26d;stroke-width:.855039;stroke-linecap:round"/>
  <path id="path4216" d="M395.2 337.2s2.1 2.5 1.3 5.2" style="fill:none;stroke:#3ec26d;stroke-width:.855039;stroke-linecap:round"/>
  <path id="path4218" d="M398.8 337.8s-.7 3-.4 4.3" style="fill:none;stroke:#3ec26d;stroke-width:.855039;stroke-linecap:round"/>
  <path id="path4220" d="M401 339.9s-1.3 1-.6 2.3" style="fill:none;stroke:#3ec26d;stroke-width:.855039;stroke-linecap:round"/>
  <path id="path4222" d="M389.3 351.6s.5 2.4 0 2.7" style="fill:none;stroke:#3ec26d;stroke-width:.855039;stroke-linecap:round"/>
  <path id="path4224" d="M386.4 350.3s1.4 2.6 1 3.9" style="fill:none;stroke:#3ec26d;stroke-width:.855039;stroke-linecap:round"/>
  <path id="path4226" d="M383.2 350.2s1.7 1.9 1.6 3.4" style="fill:none;stroke:#3ec26d;stroke-width:.855039;stroke-linecap:round"/>
  <path id="path4228" d="M380.6 350.6s1.6 1.4 1.5 2.3" style="fill:none;stroke:#3ec26d;stroke-width:.855039;stroke-linecap:round"/>
  <path id="path4230" d="M379.3 352.8s1.5 1.5 1.4 1.9" style="fill:none;stroke:#3ec26d;stroke-width:.855039;stroke-linecap:round"/>
  <path id="path4234" fill="#fff" stroke="#000" stroke-width=".9" d="m347.3 247.2 21.3-.4s14 0 15.5 4.6c2.7-6.1 14.9-5.7 14.9-5.7l22-.8.4 53.2a56.9 56.9 0 0 1-35.7 41.4 54.5 54.5 0 0 1-36.1-41.8l-2.3-50.5z"/>
  <path id="path4236" fill="#006b00" stroke="#000" stroke-width=".9" d="m354.9 247 31 82.6 28-84.4c-8.7.6-27.4-1.4-29.7 6.6-3.6-7.1-23.2-4.3-29.3-4.8z"/>
  <path id="path4238" fill="#ffc900" stroke="#006b00" stroke-linecap="round" stroke-width=".5" d="M376 291.7c1.2.6 1.1-22.4 2.7-23.1l1.2-4.8c-1.3-2.4-7.4-2.2-9.6-.2a61 61 0 0 0 1.5 4.3c3 4.9 2.4 24.3 4.2 23.8z"/>
  <path id="path4240" fill="#cdad56" stroke="#000" stroke-linejoin="round" stroke-width=".9" d="M367.7 113.7s2.2-2.5 2.3-3.1c0-.6 10-1 15.8-12 3.3-5.7 0-2.4 0-2.4l-.2-2.7s4-4 2.6-6c-1.5-2.1-1 2.7-3.4 2.6-2.4-.1-1.1-5.2-1.1-5.2s-.2-.6-.9-.9c-1 .1-.7 1.9-1.6 2-.9.3-1.7-4-1.7-4s-1.5-2-2.8 4.2c.7 6.7 5 5.4 5 9.7 0 4.4-3.8 7.8-4.9 8-1 0-.7-3.8-.7-3.8s-.6-1.8-1-1.8 2.2-.4 1.8-5.3c-.9-6-1.6 1.4-3.2 1-1.6-.2-.4-5.4.2-6 .6-.6-.7-3.1-4.1 3.3-.3 3-.7-.8-1.4-.6-1.2 2.5-1 4.2.7 6.5 2.5 2.3 4 4.6 4 5.8-.2 1.2-1.5 3.9-3.2 3.9-1.8 0 0-3.3 0-4.4-.1-1-3.1-5-3.1-5s-2.1-3.4-2-3.5c.3-.1-.1-.6-1.1 2.8-1 3.5-2.2-2.2-2.2-2.2s-1.4 4.2 1.6 6.8c-2.3-.3-2.5.6-2.5.6 0 1.2 3 1.7 3.5 3.8.4 2-3.2 3.3-3.2 3.3s1.5 2 5.7-2a6.5 6.5 0 0 1-1.6 4.4c1.4.6 2.5.5 2.7 2.2z"/>
  <path id="path4242" fill="#cdad56" stroke="#000" stroke-linejoin="round" stroke-width=".8" d="m354 113.7-2-3.3c0-.6-9 .6-13.4-10.4-2.8-5.3 0-2.2 0-2.2l.2-2.5s-3-3.7-1.7-5.6c1.3-1.9.7 2.5 2.4 2.5 2 0 .9-4.7.9-4.7s.2-.6.8-.8c.8 0 1.2 2.8 2 3 .7.2 2.2-3.2 2.7-4 .7 0 .7-2.7 1.8 3-.6 6-5.6 4.9-5.6 8.8 0 4 3.2 7.1 4.1 7.2 1 0 .6-3.4.6-3.4s.5-1.6.9-1.6c.3 0-3 .6-2.6-3.9.7-4.2 2.4.3 3.8 0 1.3-.3-.2-4.5.2-5.1 0-.6 2-3.4 2.8 2.7.3 2.8 1.8-2.4 2.4-2.3 1 2.3-.4 5.3-1.9 7.4-2 2.1-3 4.4-3 5.5.1 1 .6 2.4 2.2 2.4 1.5 0 .5-1.9.6-2.9 0-1 2.6-4.2 2.6-4.2.5-.8 0-2.3.6-3 .8 0 1.1-1.1 2 2 .8 3.2 1.9-2 1.9-2s1.1 3.9-1.4 6.2c2-.3 2.1.6 2.1.6 0 1-1 1.5-1.3 3.4-.3 2 1 3 1 3s-1.2 1.9-4.8-1.8a7 7 0 0 0 1.4 4c-1.2.5-2.1.5-2.3 2z"/>
  <path id="path4244" fill="#ffc900" stroke-width=".9" d="M408.7 259.3c-1.9-1.7-2-.2-3-.6-.4-.1-.8-.6-1.2-1-.3-.3-.7-.4-1.2-.6l-.5 1.5c-.1.5.5 1.3.5 2-.1 1.1-.6 2-2 2.4.4-.7.6-.8.5-1.7 0-.5-1.4-1.4-1.2-1.8.2-.8.6-1.6.3-2.3-.5.4-1.3.2-1.9.4-.4.2-.5 1.1-1.1 1.5-.7.3-2.2.1-3.5-.6.8-.6 1.4-.2 2.2-.8.4-.3.3-1.5.7-1.8l1.7-.9c-.3-.4-.3-1-.6-1.4-.4-.4-2-.3-2.3-.7-.7-.8-.5-1.8-1.2-2.6 1.8.6 1.5 1.5 2 1.4.8-.4 1.6-.5 2-.3.5.2 1.4 1.3 1.8 1.5l.6-1.6c.2-.5-.7-1.4-.6-1.9.4-1 1.2-1.9 1.5-2.9l.4 2.8c.1.4 1 .7 1.1 1.2 0 .5-.5 1.6-.4 2h1.8c.5-.2.8-1.4 1.3-1.5 1-.2 1.8-.1 2.9 0-.8.8-1.4.7-1.9 1.4-.4.3.2 1.3-1 2-.4.2-1.5-.1-1.9.2l1 1.2c.4.4 2 .5 2.3 1 .7.7 1 1.7.9 2.5z"/>
  <path id="path4246" fill="#ffc900" stroke-width=".9" d="M361 260.1c1.9-1.6 2.1-.2 3-.6.5-.1.8-.6 1.2-1 .3-.3.7-.4 1.2-.6l.5 1.5c.2.5-.5 1.3-.5 2 .2 1.2.6 2 2 2.5-.4-.8-.6-.9-.5-1.8 0-.5 1.4-1.4 1.3-1.8-.3-.7-.7-1.6-.4-2.3.6.4 1.3.2 1.9.4.5.2.5 1.1 1.2 1.5.7.3 2.2.1 3.4-.6-.7-.6-1.4-.2-2.1-.7-.4-.3-.4-1.6-.8-1.9l-1.7-.9c.4-.4.3-1 .7-1.4.3-.4 1.9-.3 2.2-.7.7-.8.6-1.8 1.3-2.6-1.8.6-1.6 1.5-2 1.4-.9-.4-1.7-.5-2.2-.3-.4.2-1.3 1.3-1.7 1.5l-.6-1.6c-.2-.5.8-1.4.6-1.9-.3-1-1.2-1.8-1.5-2.8l-.4 2.7c0 .5-1 .7-1 1.2-.1.5.4 1.6.4 2h-1.8c-.5-.2-.9-1.4-1.4-1.5-1-.2-1.8-.1-2.8 0 .7.8 1.3.8 1.8 1.4.4.3-.1 1.3 1 2 .4.2 1.5-.1 1.9.2l-1 1.2c-.4.4-2 .6-2.3 1-.7.7-1 1.7-.9 2.5z"/>
  <path id="path4248" fill="#ffc900" stroke="#006b00" stroke-linecap="round" stroke-linejoin="round" stroke-width=".5" d="M407 264.6c-1.7 1.4-12.5 4.1-12.6 13.5-.1 9.4 1.9 11.6-.1 11.8-4 0-4.5-10.5-4.4-15.1.1-4.7.2-4 .2-4s2.7.8 2.5 3c-.2 2.3 2.7-5.6 1.7-7.7 1.8 1.8 4.1 1 4.1 1 0-.2-1.3-1.6-1.9-2.7-.5-1 2 .6 2 .6s.1-1.8-2.1-1.7c-3 0 .5-1 .5-1s1.6 1.6 2.8 0c-1.3-1.4-3-2-3-2s-1.6-3-3.8-3.6c-2.4-.6-2 1-4.9.8-.5 1-.5 1.2.6 1.5-2 1.3-1 4-1 4s3.1-1.3 3 .8c-.1 2.2-1.8 1.8-3 .5-1-.6-1.3.6-1.3.6l1.6 1.6s-3 0-3.8 2a5 5 0 0 1 2.6.3s-3.5 1.6-3.8 2.4c-.4.8-.5-1-.6-1l-3.3-1.1-1.2 5.1s2.3 2.2 3.5 1.5c1.2-.7 3.5-2.8 4.8-2.2-3.9 3-7.8 7.2-10 7.8-.5-.4-2.4-2.4-3.2-1.4-.8 1-.2 2.1.8 2 1 0-3.2 1-2.3 2.8.8 1.8.7 1.6 1.5 1.2.8-.5-.7-.6 2.3-1.5 2.9-.8 2.8-1.6 2.8-1.6s-.6 1.3-2.2 1.6c-1.5.4-2.8.4-2.4.9.3.4 1 1.3.7 1.8-.2.4 3.3-2.5 4.2-.2 2.3 0 3.9-3 2.8-4.6 0 1.8 1.2 2.4.5 3.2-.6.8 5.3-2.7 2.4-4.9.8 1.8.9 3.2.9 3.2s1.3 0 1.7-.6c.3-.4-.7 1.4-.3 1.7.5.4 2.6 2.4 1.7 3.8-.5-.8-.7-2.1-1.3-2-.7.1-3.5 2.1-5.2 2.3-1.6 0 2 6.2 2 6.2s-2.5-.4-2.9-.2c-.3.3-2-2.1-2.3-.7-.6 1.8.5 1.1.5 1.1s-1.4-.7-2.2.1c-.8.9-1.6 1.7-1 2 .6.4 3 .4 3.4.3.3-.1-2.8.2-3 .6-.3.3-.7 1.7 0 2.1.6.5 2.3-.2 2.4-.6.1-.3.2 1.3.2 1.3s3 .3 3-2.7.2 2.1.2 2.1 2.9.5 3-2.5c0-3 .3 2 .3 2s2-.5 2-1-.2 6-1.5 7.8c-2.2-1.5-3.5.9-3.5.9s.1 3.5-.1 4.3c-.2.8 1.4-.5 1.5-.8.2-.4 2.2-1.4 2.3-1.6l.6-1.4s-.4 1.6-1.2 1.9c-.8.2-1.5 1-1.2 1.8.3.7 1.6 1.2 2 1.9.4.7 2-4.2 2-4.2l.1 1s2-.4 2.3-1.3c.2-1-2.2-1.8-.3-3.4 2-1.5 0 1.4 0 1.4s.7 2.3 1.2 2.3c.4 0 1.5-4.3.4-5.4l1.7 1.4s1.6-4.5-.1-5l-2.5-.9s1-1.2.5-1.3c-.5-.1 2.3 2.6 2.8 2 .4-.8 1-3-2.2-4.1-3.2-1.2 0-4.6 0-4.6s2 2.4 3.4 1.1c1.4-1.3-.1-1.3-.1-1.3s4.1-2.6 4.2-4l-2.1.2s2.3-1.6 1.8-4c-1 1.2-2.1 1.2-2.1 1.2s2-2 1.6-3.9c-1.2 1-1 1.7-1.9 1.4-.7-.2-2-7.7 1-8.2 3.2-.5 1.5 3.7 1.6 3.7.1 0 4.7-2 0-5 1.1-.4 3.5 1.8 3.5 1.8s-1-5.3-6-2c1.2-1.4 2-2.2 3-2 1 .3 4.5 0 4.5-1.1-.8-.8-2.7.3-3.8 0-1-.4 7.2-1 6.5-5z"/>
  <path id="path4250" fill="none" stroke="#006b00" stroke-linecap="round" stroke-width=".5" d="M371.6 267.7s4.5-2.5 6.7.6"/>
  <path id="path4252" fill="none" stroke="#006b00" stroke-linecap="round" stroke-width=".5" d="M380 273.1s-1.5 1.6-1.8 1.6"/>
  <path id="path4254" fill="none" stroke="#006b00" stroke-linecap="round" stroke-width=".5" d="M383.1 278.1s4.1.4 6.8-4"/>
  <path id="path4256" fill="none" stroke="#006b00" stroke-linecap="round" stroke-width=".5" d="M387.6 276.8s.3 2.4 1 2.4c.6 0-1.1.6-1.8.1.8 1 1.2 3 0 3.7"/>
  <path id="path4258" fill="#e80000" stroke="#006b00" stroke-linecap="round" stroke-width=".5" d="M385.4 306.8s-1.4 1.7-3.2 1.8"/>
  <path id="path4260" fill="none" stroke="#006b00" stroke-linecap="round" stroke-width=".5" d="M387.1 299.2s-.9-4.8-.3-6c.3-1.5 1.8-2 2.9-4.1"/>
  <path id="path4262" fill="none" stroke="#006b00" stroke-linecap="round" stroke-width=".5" d="M386.7 295.8s-1.1 2.8-6 1.9"/>
  <path id="path4264" fill="none" stroke="#006b00" stroke-linecap="round" stroke-width=".5" d="M388 288.6s.3 3.8-4.1 2.4"/>
  <path id="path4266" fill="none" stroke="#006b00" stroke-linecap="round" stroke-width=".5" d="M382.5 271.4s-1.8 1.7-1 4"/>
  <path id="path4268" fill="#006b00" stroke-linecap="round" stroke-width=".5" d="M389.2 267.3s2.4-1 2.8-1.5a7 7 0 0 0 1.5-2.1c.2-.7-1.6-1.8-.7-3.4.6-.7 1.4-.8 2.7 0 1.3.9-1.2-2.6-2.6-2.7-1.3-.1-2.2 1-2.5.7-.4-.2 0 1-.5 1s1.1 1 1 1.5c0 .6 1.8 2.6 1.7 3.1-.1.5-2.8 3.2-3.4 3.4z"/>
  <path id="path4270" fill="#ffc900" stroke="#ffc900" stroke-linecap="round" stroke-linejoin="round" stroke-width=".5" d="M391 259.4c1-.3 1.1 0 1 1-.5-.3-.7-.5-1-1z"/>
  <path id="path4272" fill="#e80000" stroke="#006b00" stroke-linejoin="round" stroke-width=".5" d="M383.8 312.5s-.4 2.5.5 2.7c0-1 .2-1.6.4-1.9l-1-.8z"/>
  <path id="path4274" fill="#e80000" stroke="#006b00" stroke-linejoin="round" stroke-width=".5" d="M381.7 309.4c-.8 0-2.3.7-1.9 1.6.7-.7 1.4 0 1.8-.6.2-.2.2-.7.1-1z"/>
  <path id="path4276" fill="#e80000" stroke="#006b00" stroke-linejoin="round" stroke-width=".5" d="M381.7 307.7s-1.3-.3-1.5.7c.9-.1 1.2-.2 1.5 0v-.7z"/>
  <path id="path4278" fill="#e80000" stroke="#006b00" stroke-linejoin="round" stroke-width=".5" d="M376 293.6s.8.3 1 1.2c.7-.4 1-2.3-1-1.2z"/>
  <path id="path4280" fill="#e80000" stroke="#006b00" stroke-linejoin="round" stroke-width=".5" d="M374 295.7c.1 0 1.7-1 2 0-.4.3-.6.6-.9.6-.2 0-.6-.6-1-.6z"/>
  <path id="path4282" fill="#e80000" stroke="#006b00" stroke-linejoin="round" stroke-width=".5" d="M373.9 299.2s1-1 1.5-.4c.3.7-.4.6-.4.6l-1.1-.2z"/>
  <path id="path4284" fill="#e80000" stroke="#006b00" stroke-linejoin="round" stroke-width=".5" d="M372.5 280s-1.4-.6-2 .4c1 .1 1.3.4 1.7.8-.2-.4-.3-1 .3-1.2z"/>
  <path id="path4286" fill="#e80000" stroke="#006b00" stroke-linejoin="round" stroke-width=".5" d="M370 287.2s0-1.6.7-2.3c.4.3.5.6.8 1.1-.5.2-1.3.2-1.6 1.2z"/>
  <path id="path4288" fill="#e80000" stroke="#006b00" stroke-linejoin="round" stroke-width=".5" d="M373.4 286s-1.4.7-1 1.5c.5-.5 1-.3 1-.4v-1z"/>
  <path id="path4290" fill="#ffc900" stroke="#006b00" stroke-linejoin="round" stroke-width=".5" d="M371.3 270.5c-.5.6.7 2 1.9 1.7.3-1.4-1.6-2.2-1.9-1.7z"/>
  <path id="path4292" fill="none" stroke-linejoin="round" stroke-width=".5" d="M371.3 267.7c-.2.7.8 1.6 1.4 1.4.2-.7-1.1-2-1.4-1.4z"/>
  <path id="path4294" fill="#e80000" stroke="#006b00" stroke-linejoin="round" stroke-width=".5" d="M372.7 269.4s.2 1.1 1.2.8c-.1-.9-.9-1.5-.9-1.5 0 .2.2.6-.3.7z"/>
  <path id="path4296" fill="#e80000" stroke="#006b00" stroke-linejoin="round" stroke-width=".5" d="M373.4 272.7s.5.7 1.7-.7c-.5.2-1.5-.3-1.5-.3s0 1-.2 1z"/>
  <path id="path4298" fill="#ffc900" stroke="#006b00" stroke-linejoin="round" stroke-width=".5" d="M371.3 267.9c-.5.6.2 1.4 1.4 1.2.3-1.4-1.1-1.7-1.4-1.2z"/>
  <path id="path4300" fill="url(#linearGradient748)" d="M371.8 262.1s4.8-1.3 7.3.7c2.6 2 2.6.2 2.6.2s3.7 1.4 4.8 1.1c1-.3-.8.1.7-.8s-3 .2-3.4-1.7c-.6-1.1.1-2.6-1.4-2.1-1.1-1.4.7-2.4.3-3.8-1.1.7-1.7-.3-2.6 1.6-2-.4-.3-3.2-2.5-3.5 0 2-1.7 2.2-1.8 3.3-1 .7-5.3 3.3-4 5z" style="fill:url(#linearGradient748);stroke-width:.684031"/>
  <path id="path4302" fill="#c01500" stroke="#000" stroke-width=".9" d="M316.4 418.8c3-.8 20 3.7 26.5 10.7-1.4-12.5-4.8-22-4.8-22s-10.1-2.9-11.5-1.5c-2 2.1-8.1 8.5-10.2 12.8z"/>
  <path id="path4304" fill="#c01500" stroke="#000" stroke-width=".9" d="M311.2 361.2c-1.2.2-2.4 1-3.6 3-1.4 3.3-2.3 11.8-4.3 13.8s-3.8 2.2-3.8 4c0 1.8.2 6 5.6 7.5 5.3.2 13.8-8.5 13.8-8.5s4.4-4.8 6.1-9.9c-10.2 3.6-17.6-6-13.8-9.9z"/>
  <path id="path4306" fill="#c01500" stroke="#000" stroke-width=".9" d="M460 416.8a46.8 46.8 0 0 0-26.8 10.6 108 108 0 0 1 4.8-21.8c1.2-.4 10-2.9 11.3-1.5 2 2.1 8.5 8.5 10.6 12.7z"/>
  <path id="path4308" fill="#c01500" stroke="#000" stroke-width=".9" d="M464.7 359.6c1.2.2 1.6 1.7 2.6 3.7 1.3 3.3 2.7 8.2 4.7 10.2s3.7 4.8 3.7 6.6c0 1.8-.4 4.2-5.7 5.7-5.3.2-13-6.6-13-6.6s-4.3-4.7-6-9.8c10.2 3.5 16.8-5.6 13.7-9.8z"/>
  <path id="path4310" fill="#fb0" stroke="#000" stroke-width=".9" d="M305.3 407.9s10.6 7.3 10.8 10.7c28.7-42.6 101.9-55.8 143.6-3a30.7 30.7 0 0 1 11.3-9.7c-44-57.3-131.3-50.2-165.7 2z"/>
  <path id="path4312" d="M414 245.2h4.2l-7.4 9.4 9 10.4-17.7 22.2 16.6 20c-1.8 4.5-4 8.6-6.8 12.3l-9.5-10.6 17.3-21.6-14.2-16.1z" style="fill:#1e5aa6;stroke:#000;stroke-width:.684031pt"/>
  <path id="path4314" d="m354.3 247.1-4.4.1 8.3 9-8.8 11.1 18.4 20-15.3 20.4a60 60 0 0 0 7.3 13.1l9-11.4-18.5-20.7 13.6-17.3z" style="fill:#1e5aa6;stroke:#000;stroke-width:.684031pt"/>
  <path id="path4316" d="m375 300.8-6.5 8.8 23.4 27.2c4.2-2.1 7.4-4.5 11-7.4l-12.2-14.1 5-14.7 7.1 8.3-22.4 28.6a48.9 48.9 0 0 1-11.6-7.2l11.8-15z" style="fill:#1e5aa6;stroke:#000;stroke-width:.684031pt"/>
  <path id="path4318" d="m367.8 287.2 4.2 5.4-2.7-7.3z" style="fill:#1e5aa6;stroke:#000;stroke-width:.684031pt"/>
  <path id="path4320" stroke-width=".9" d="m398.4 292 3.5-4.6-1.3-1.8z" style="fill:#1e5aa6;stroke:#000"/>
  <path id="path4324" d="M447.9 217.2s4.1-3.5 7-3.6" style="fill:none;stroke:#fff700;stroke-width:.684031pt;stroke-linecap:round"/>
  <path id="path4326" d="M448.5 216.7s24.7-3.5 25.4-4.3" style="fill:none;stroke:#fff700;stroke-width:.684031pt;stroke-linecap:round"/>
  <path id="path4328" d="M448.6 217c0-.2 27.5-2.4 27.5-2.4" style="fill:none;stroke:#fff700;stroke-width:.684031pt;stroke-linecap:round"/>
  <path id="path4330" d="M448.5 217s29.2-1.4 31 .1" style="fill:none;stroke:#fff700;stroke-width:.684031pt;stroke-linecap:round"/>
  <path id="path4332" d="M448.4 217s28.6.1 29 .8" style="fill:none;stroke:#fff700;stroke-width:.684031pt;stroke-linecap:round"/>
  <path id="path4334" d="m448.5 217 27.5 2.2" style="fill:none;stroke:#fff700;stroke-width:.684031pt;stroke-linecap:round"/>
  <path id="path4336" d="M448.2 217.1c.1 0 28 2.5 30.7 6" style="fill:none;stroke:#fff700;stroke-width:.684031pt;stroke-linecap:round"/>
  <path id="path4338" d="M480.4 228.1s-9.5-11.3-32.3-11" style="fill:none;stroke:#fff700;stroke-width:.684031pt;stroke-linecap:round"/>
  <path id="path4340" d="M448.2 217.2s15.8 1.1 20.8 6.6" style="fill:none;stroke:#fff700;stroke-width:.684031pt;stroke-linecap:round"/>
  <path id="path4342" d="M448.5 217s10.2-2 21 11" style="fill:none;stroke:#fff700;stroke-width:.684031pt;stroke-linecap:round"/>
  <path id="path4346" fill="url(#linearGradient801)" stroke="#000" stroke-width=".9" d="M442 228.7s14.2.6 14.2 2c0 1.3-10.5 4-10.7 9.8-.1 5.9 8 6.3 8.6 13.6.6 7.4-6.3 8.5-7.7 10.5-1.4 1-4.8 11.3-4.3 17.5.4 6 2.2 26.8 5.4 31 2.5 1.9 6.2 8.1 10.3 6.2 4-2 1.2-9 .8-11-.4-2 1.7-5.1 1.7-8 0-3-1.6-5.3-1.4-6 .1-.7 11.2 2.6 10.5 13.6-.7 11-5.1 7.6-5.1 7.6s1.4 13.5-2.1 15.3c-6.2 3.4-10.8-.7-10.8-.7l.6 2.8-4.8-2.5s-6.1-8.7-7.5-12.6a110 110 0 0 1-2.5-25c.6-3.8 1-25.7.7-26.9-.3-1-1.4-19.4-.7-22.2.7-2.8 5-15 4.9-15z" style="fill:url(#linearGradient801)"/>
  <path id="path4348" fill="#ff7000" stroke="#000" stroke-width=".9" d="M426.8 225s9.8-9.5 15.5-8.4c3 0 .2 2.1.2 2.1s5 .4 5.7 2.6c.1 1-2.4 1.3-2.4 1.3s2 .4 2.2 2.2c.2 1.8-21 .4-21.2.3z"/>
  <path id="path4350" fill="none" stroke="#000" stroke-width=".9" d="M427.3 224.7s10.6-1.4 15-5.9"/>
  <path id="path4352" fill="none" stroke="#000" stroke-width=".9" d="M438 221.8s7.8-.3 7.8.8"/>
  <path id="path4354" fill="#fff" stroke="#000" stroke-linejoin="round" stroke-width=".9" d="M465.7 335.4s6.6-1.5 8.5-3.9c1-.8 6.9 8.8-8.5 4z"/>
  <path id="path4356" fill="none" stroke="#fff" stroke-linecap="round" stroke-width=".9" d="M463.9 280.3s.8 5.1-1.6 8.6c-1.2 1.4-5 3.7-5 5.4 0 1.7 1.4 3.9 1.2 5.8-.3 2-2.4 4-2.3 5.6 0 1.6 2.4 10.5 2.1 10.7"/>
  <path id="path4358" fill="none" stroke="#fff" stroke-linecap="round" stroke-width=".9" d="M451.7 263.6s-5.3 1.8-6.4 7"/>
  <path id="path4360" fill="#c75b00" stroke="#000" stroke-width=".9" d="M449.4 221.8s1.8 5 7.7.2c-3.8-5.1-7.7-.1-7.7-.2z"/>
  <path id="path4362" d="M453.7 221.6c0 .2-.2.4-.6.4-.3 0-.6-.2-.6-.4 0-.3.3-.5.6-.5.4 0 .6.2.6.5z" style="stroke-width:.684031"/>
  <path id="path4364" fill="#fff" stroke="#000" stroke-width=".9" d="M401.7 210.2s11 12 18.2 11.8c1.3 3.5-3.2 6.8-5 8.3-3.7-1.1-7 .3-15.4-10.2.5-6.6 2.3-9.7 2.2-10z"/>
  <path id="path4366" fill="#fff" stroke="#000" stroke-width=".9" d="M416.7 182.3c1.4-4.4 4.3-8 6.7-8.3-.6-3.4 5.3-18.4 22.3-24.1 1 7.7-7.3 15.2-7.3 15.2s25.1-4.3 30.2-10.7c-.5 2.9-5.6 20.7-32.4 20.6 10.2 9.6-3.2 17.3-9 15 10.6-8-3-13-10.5-7.7z"/>
  <path id="path4368" fill="#cccccd" stroke="#ccc" stroke-width=".9" d="M425.3 176c5-3.2 6.9-3.2 11-2.6-3 .4-3 .6-3 .6s-.2.4 1.6 2c-2-.5-3.9-1.6-9.6 0z"/>
  <path id="path4370" fill="none" stroke="#000" stroke-width=".9" d="M423.3 174s10-5.4 15.6-9"/>
  <path id="path4372" fill="#00f" stroke="#000" stroke-width=".9" d="M414.7 230.3s13.8 3.8 15.4-16c-3-8.6-7.2-27-.8-32.4-5.9-4-12.2.1-12.2.1-.4 1-5.6 8.4 1.4 21.4-16.7-4.4-9.9 11.3-9.9 11.3.7-2.5 9.5-4.8 11.7 7.8 1 3.1-6 8-5.6 7.8z"/>
  <path id="path4374" fill="#00f" stroke="#000" stroke-width=".9" d="M430.2 214.5s14.6-7.9 14.2-26.2c-12.4.2-16.8 16.3-16.8 16.3z"/>
  <path id="path4376" fill="#fff" stroke="#000" stroke-width=".9" d="M364.9 213.5s-10.8 9.4-17 6.4c-4.5 2.8-9.8-2-9.8-2s6.2 23 28.6 6.3a53 53 0 0 0-1.8-10.7z"/>
  <path id="path4378" fill="#00f" stroke="#000" stroke-width=".9" d="M347.8 219.5c1-4.8 4.7-7.1 7.7-2.6 4 .8 8-15.7-6.3-13 4-21.6-8-29.7-8-29.7s-4.3 24-2.4 28.4c2 4.4-2.8-8.2-18.3-11.7-.3 18 17.3 26.5 17.3 26.5s5 4.6 10 2.1z"/>
  <path id="path4380" fill="none" stroke="#000" stroke-width=".9" d="M349.2 203.8s-6.7 5.7-5.2 13.5"/>
  <path id="path4382" fill="none" stroke="#000" stroke-width=".9" d="M339 203s-1.6 5.6 1.8 13.5"/>
  <path id="path4384" fill="none" stroke="#000" stroke-width=".9" d="M338 218.4s3-5.1 9.8 1.4"/>
  <path id="path4386" fill="#fff" stroke="#000" stroke-width=".9" d="M339.2 183.2c0-.1-10.3 0-4.1 10.4-4.6 1.5-14.8-5.2-7.7-14-23-.6-32.4-11.6-32.4-21.8 6.7 7 22.9 4.2 28.6 8.5-7-6.5-5.6-15.5-5.6-15.5s19.7 5.9 23.2 23.3c-1.2 3.4-1.7 9.4-2 9.1z"/>
  <path id="path4388" fill="none" stroke="#000" stroke-width=".9" d="M323.4 165.8c3.8 3.9 13.5 5 18.5 9.3"/>
  <path id="path4390" fill="#cccccd" stroke="#ccc" stroke-width=".6" d="M327.9 177.2s8-1 10.4 1.8c-3.2 0-4.2-.7-8.8 1 1.3-.7 1-1.9 1.7-1.9s-3-.9-3.3-.9z"/>
  <path id="path4392" fill="#923f00" stroke="#000" stroke-width=".9" d="M368.1 114s4.4-3.8 9.3-.3c-2.2 6.5-10 4-10 4s.2 3.3-.6 4.8c1.6 1.2 2.9 5.1 2.9 5.1s8-2 9.8 1.6c3-.4 5.3 0 5.3 0s6.2-1.6 8.4-1.6c2.3 0 9.3 1.8 10 3.1.6 1.3 3 10 4.5 10 1.6-.2-3.8 2-5.2-.2-1.4-2.2-1 2.9-1 2.9s4.4 4.7 4.9 5.7-2.7 9.5-.3 15.4c-2.1.2-2.3 2.4-2.3 2.4-.1 2.6-3.4 3.3-3.4 3.3l-.8-3.5-2.2 1.3 1-2.8s3-7.2 3.2-9.6c.2-2.3-2.8-6.5-5.1-6.5s-4 7.4-4 7.4-1.2 5.6-.8 6.1l-1.6-1.8s-1 3.4-1.8 4.4c-.8 1-2.5 1.5-2.5 1.5s-1.1-3.4-.8-4.7c.4-1.3 6.4-6.4 6-10-.6-3.7 0-2.8-.2-2.9-.2-.1-3.1-2.7-3.3-4.2-.1-1.4-3.9 1.9-8.8.8-1.5 2.7-1.7 9.3-1.7 9.3s-.5 7.9.5 8.8c1 1-2.6 2.9-2.6 2.9l-2.6 3.5-1-2-1.7 1.2 1-2.6c0-2 2.5-7.4 2.5-12 0-4.5.4-9.3.4-9.3s-4.9-.3-4.7 4.6c.1 5-1.2 5.3-1 6.7.3 1.4 1.6 5.4 1.2 6.6-.4 1.2-2 1.6-2 1.6l-.3.6s-4.8 2.2-4.7 3.2l-.1-2.6-.3-3.8s2.9-1.8 2.9-6.4c0-4.6-.7-5.2-.5-6.2 0-1 .7-4.9.6-5.3-.1-.3-2.7 1-3.5 1-.8 0 1.4-2.6 1.7-4.6.2-2-2.6 1.8-5-.4 1.1-2.4 2.8-3.1 3-5 .3-1.8-1.8 1.6-3.6.3.1-1.7 2-3.2 2-3.2s-1.5-.2-2.1 0c-1.2-.4 1.3-2.2 1.4-4.9.1-2.6-1.4-3.6-1.4-3.7 0-.2-2.6-2.4-3-3.3-.4-.9-.4-2-.4-2s-4.3 3.2-9.4-3.4c4.6-4 9.6-1 9.6-1s1.3-3.7 7.3-3.5c6 .3 7.2 3.7 7 3.3z"/>
  <path id="path4394" fill="#00f" stroke="#000" stroke-width=".9" d="M400.9 181.4s11 .3 11.1 6.2c.1 5.9-3.3 4.3-3.4 4.3l-8-1z"/>
  <path id="path4396" fill="#fffeff" stroke="#000" stroke-width=".9" d="M390.2 179.8s13.7-.1 13 5.8c-.8 6-4.3 4.8-4.3 4.8l-6.6-.5z"/>
  <path id="path4398" fill="#00f" stroke="#000" stroke-width=".9" d="m382.5 179.1 8 .7s4.7.6 4.5 5.2c-.2 4.6-4.9 4.7-4.9 4.7l-7.7-.5z"/>
  <path id="path4400" fill="#fff" stroke="#000" stroke-width=".9" d="M364 181.4c-.1 0-11 .3-11.2 6.2 0 5.9 3.4 4.3 3.5 4.3l8-1z"/>
  <path id="path4402" fill="#00f" stroke="#000" stroke-width=".9" d="M374.6 179.8s-13.6-.1-12.9 5.8c.8 6 4.3 4.8 4.3 4.8l6.6-.5z"/>
  <path id="path4404" fill="#fff" stroke="#000" stroke-width=".9" d="m382.3 179.1-7.9.7s-4.8.6-4.5 5.2c.2 4.6 4.8 4.7 4.8 4.7l7.7-.5z"/>
  <path id="path4406" fill="#5e0043" stroke="#000" stroke-width=".9" d="M403.5 245s5.7-8.4 8.1-7.5c2.1.7.5 7.2-.5 7.8z"/>
  <path id="path4408" fill="#5e0043" stroke="#000" stroke-width=".9" d="M364.5 246.5c-1.8-2.5-4.4-9.4-6.8-7.5-2 .7-.5 7.2.5 7.8z"/>
  <path id="path4410" fill="none" stroke="#000" stroke-width=".9" d="M368.3 229.9s11 6.8 14.7 7c3.7.2 15.2-8.9 15.2-8.9"/>
  <path id="path4412" fill="#5e0043" stroke="#000" stroke-width=".9" d="m369.4 203 2-2.6 10.7 5.4L393 201l2 2.3-12 8.5z"/>
  <path id="path4414" fill="#474747" stroke="#474747" stroke-linejoin="round" stroke-width=".9" d="M360.9 203c.9 1 7.7 9.4 9 16.3 1.2 7-.7-9.5-.7-9.5s8.5 4.2 8.8 6.9c.2 2.6 4-.2 4.2-.7l-24.6-16z"/>
  <path id="path4416" fill="#474747" stroke="#474747" stroke-linejoin="round" stroke-width=".9" d="M403 202.5s-9 11.8-8 24.6c-1.8-6.1-.3-16.3-.3-16.3l-2 1.3s-2 8.6-4.5 10c-.5-1-.4-1.4-.4-1.4s-2.7 3.5-3.3 3.9c-.5.3.2 12 .2 12s1 8.4 2 8.3a36 36 0 0 0-2.7 1.5l-1.1-22.5 2.5-2.5s3.4-4.1 3.6-8.1a8 8 0 0 1-3 1.6s-.5 5.7-1.8 6.5c-1.4.8-1.4 2.2-1.4 2.2l-.3-7.4z"/>
  <path id="path4418" fill="none" stroke="#000" stroke-linecap="round" stroke-width=".9" d="m382.5 216.1 1.7 35.5"/>
  <path id="path4420" fill="none" stroke="#000" stroke-width=".9" d="M360.7 233s4 2.5 5.5 9.7c13.4-1 17.5 3.8 17.5 3.8s11-5.3 16-4.3a39 39 0 0 1 6.8-8.5"/>
  <path id="path4422" fill="#b4b6b9" stroke="#000" stroke-width=".9" d="m355 198.3 27.5 18 24.6-16.7s5.2-2.8 4.7-4.8c-.4-2-2.2-1.3-3-1-1 .4-25.9 18-25.9 18l-26.5-16.7s-2-.6-2.3.6c-.4 1.3.7 2 1 2.6z"/>
  <path id="path4424" fill="#474747" stroke="#474747" stroke-linejoin="round" stroke-width=".9" d="M404 193.6s-7-3-7-.4.3 2.9 1.4 4.5c1.1 1.7-.9 2.7-.9 2.7l-.6-1.8c-.4-1.1-4.2-2-4.5-3.2-.4-1.4.8-3.5-1.5-3.7-2.2-.3-4.4.9-4.9 3.5-.4 2.5-3.3 8.6-3.3 8.6l.3-13.7c5 .3 14.2 1.4 21.2 2.2-2.1-.3.8.2.7.9-.2.6-.9.6-.8.4z"/>
  <path id="path4426" fill="#474747" stroke="#474747" stroke-linejoin="round" stroke-width=".9" d="M379.3 190.2c-1.3 0-7.6.7-9.1 1.7-1.6.9 2.5 2.3 2 3.6-.5 1.2-.6 3.8-2.6 3.2-2-.5-8.6-3.8-8.8-5-.2-1-1.6-1.1-1.6-1.1s19.2-2.6 20-2.4z"/>
  <path id="path4428" fill="none" stroke="#000" stroke-width=".9" d="M382.3 188.6v16.8"/>
  <path id="path4430" fill="none" stroke="#000" stroke-width=".9" d="m369.4 168.8-7.9 12.9"/>
  <path id="path4432" fill="url(#linearGradient746)" stroke="#000" stroke-width=".9" d="M383.5 168.5s3.4 4.6 3 5.9a18 18 0 0 1 2.9 5.3" style="fill:url(#linearGradient746)"/>
  <path id="path4434" fill="none" stroke="#000" stroke-width=".9" d="M396.4 167.8s-7.2 10.1-7 10.9"/>
  <path id="path4436" d="M359.4 119.3c-.1.6-1 .8-2 .5-1-.3-1.7-1-1.5-1.6.2-.6 1-.8 2-.5 1 .3 1.7 1 1.5 1.6z" style="stroke-width:.736769"/>
  <path id="path4438" d="M362.3 119c.2.7 1.1.9 2.1.6 1-.3 1.6-1 1.5-1.6-.2-.6-1.1-.8-2-.5-1 .3-1.7 1-1.6 1.6z" style="stroke-width:.736769"/>
  <path id="path4440" fill="#ff7000" stroke="#000" stroke-linejoin="round" stroke-width=".9" d="M447 330.2s-2.8.5-2.7.8c.1.2-7.8.5-8 .2-.1-.2-1.1 1.4-1.1 1.4l1.2-.8s2 2 2.6 1.8c.5-.1-.3.8-.1 1 .1.1.7-.4.7-.4l13-.2z"/>
  <path id="path4442" fill="#ff7000" stroke="#000" stroke-linejoin="round" stroke-width=".9" d="m451.8 334.3-10.7.3s-2.6 2.4-2.8 3c-.2.6 1.7.7 1.7.7l.6 2 1.4-.5s9 1.4 17.3-.5c4.2-1.4 5-3.2 2-4.3-3-1-9.5-.7-9.5-.7z"/>
  <path id="path4444" fill="url(#linearGradient794)" stroke="#000" stroke-width=".9" d="m415.4 356 19-.8-3.5-3 51.8-2.1-1.8-4.1-58 2.3 7 3.3-15.6.4.4 1.7-4-.2s4.5 1.8 4.7 2.6z" style="fill:url(#linearGradient794)"/>
  <path id="path4446" fill="url(#linearGradient800)" stroke="#000" stroke-width=".9" d="M436.8 250.4c-1.5-.8-8.2-1.7-15.6 3.2l.3 17.1s10.9-5.9 16.2-4.5c-.3-5.3-.3-12.2-.9-15.8z" style="fill:url(#linearGradient800)"/>
  <path id="path4448" d="m331 302.5-45 44.8" style="fill:none;stroke:#000;stroke-width:.684031pt"/>
  <path id="path4450" d="m351.1 302.8-36.6 48.3" style="fill:none;stroke:#000;stroke-width:.684031pt"/>
  <path id="path4452" d="m349.5 290.3-48.9 59.1" style="fill:none;stroke:#000;stroke-width:.684031pt"/>
  <path id="path4454" d="m299.1 348.6 4.8-5.5" style="fill:none;stroke:#000;stroke-width:.684031pt"/>
  <path id="path4456" d="m358.8 320-19 26.2" style="fill:none;stroke:#000;stroke-width:.684031pt"/>
  <path id="path4458" d="m339 349.6.5 10" style="fill:none;stroke:#000;stroke-width:.684031pt"/>
  <path id="path4460" d="m367.5 329.2-20.1 25.1" style="fill:none;stroke:#000;stroke-width:.684031pt"/>
  <path id="path4462" d="M363.9 352.4 372 339" style="fill:none;stroke:#000;stroke-width:.684031pt"/>
  <path id="path4464" d="m367 336.4-9.8 11" style="fill:none;stroke:#000;stroke-width:.684031pt"/>
  <path id="path4466" d="m364 325.9-6.7 8.2" style="fill:none;stroke:#000;stroke-width:.684031pt"/>
  <path id="path4468" d="M355.4 314s-20.5 29.9-20.1 32.3" style="fill:none;stroke:#000;stroke-width:.684031pt"/>
  <path id="path4470" d="M353.3 310c-.5.4-17.7 23-17.7 23" style="fill:none;stroke:#000;stroke-width:.684031pt"/>
  <path id="path4472" d="m334.6 340.3-3 3.7" style="fill:none;stroke:#000;stroke-width:.684031pt"/>
  <path id="path4474" d="m327.6 349.8-4.7 6.2" style="fill:none;stroke:#000;stroke-width:.684031pt"/>
  <path id="path4478" fill="#8a9396" stroke="#2b2b2b" stroke-width=".9" d="M328.8 233.7s-1.4 4.3 0 6.5 10 19.8 10 19.8 6-7.3 8.2-7.5c2.2-.2 1.2 19 1.2 19s-3.6 3.3-5.8 3.1c-2.1-.2 5.4 7.5 5.2 14-.2 6.6-10 39-13.5 39.6-3.5.6 1.6-6 1.4-7.7-.2-1.8-1.2-.6-2-2.6s1.2-5 .8-7c-.4-1.9-2.1-1.5-2.3-2.9-.2-1.4 1.1-1.8 1-3.3-.3-1.6-2.4-1.2-2.2-2.6.2-1.4.4-.8.2-3.4-.2-2.5-.6 1.8-2.8 2-2.2.2-4 5.2-4 5.2s-4.3 6-8.7 3.3c2.6 5.6.6 8-.4 8.1-1 .2.8 4.4-1.5 4.6-2.4.2 1.7 9.3-1 10 3 1.4.6 3.2.6 3.2s-6.9.6-5.4 9.5c-20.1-7.1-30-19.4-29.8-31.8.2-12.5 4.1-23.8 13.8-28 2.8-10.2 7.5-21.3 7.5-21.3s-.8-4.5-.2-7.5c.6-3 3.4-6 3.4-6s-.4-7-.2-10.6c.2-3.6 1.6-5.1 1.8-7.1.2-2-.6-12 1.4-13.9 2-1.7 5.7-1.5 7.7-2.7 2-1.2 4.5-3.4 7-3.2 2.7.2 4.8 2 4.8 2s9.7 0 10.3 3.7c.6 3.8-2 5.2-2 5.2s1.4 5.3-4.5 10.3z"/>
  <path id="path4480" fill="#cecfcf" stroke="#2b2b2b" stroke-width=".9" d="M320.2 220c.3.5-.4 1.5-1.6 2.2-1.2.6-2.4.7-2.7 0-.3-.5.4-1.5 1.6-2.1 1.2-.6 2.4-.7 2.7-.1z"/>
  <path id="path4482" d="M318.5 221c0 .3-.3.6-.7.6-.4 0-.7-.3-.7-.6 0-.4.3-.7.7-.7.4 0 .7.3.7.7z" style="stroke-width:.865565"/>
  <path id="path4484" fill="none" stroke="#2b2b2b" stroke-width=".4" d="M333 227.5s2.4 10.7-.5 18.1"/>
  <path id="path4486" fill="none" stroke="#2b2b2b" stroke-width=".4" d="M333.7 222.8s4.7 6.2 4.1 14"/>
  <path id="path4488" fill="none" stroke="#2b2b2b" stroke-width=".4" d="M334.2 221.5c.1 0 4 3.3 3.8 5.6"/>
  <path id="path4490" fill="none" stroke="#2b2b2b" stroke-width=".4" d="M335.1 220.1s2.6 1.8 3.2 3.6"/>
  <path id="path4492" fill="none" stroke="#000" stroke-width=".9" d="M333.9 219s-9.2 15-8 24.4"/>
  <path id="path4494" fill="none" stroke="#2b2b2b" stroke-width=".4" d="M334.5 218.6s-12.2 7.2-14.5 31"/>
  <path id="path4496" fill="none" stroke="#000" stroke-width=".9" d="m333.1 223-4.8 3.6"/>
  <path id="path4498" fill="none" stroke="#2b2b2b" stroke-width=".4" d="M315.5 251s6.8-28.3 18.8-32.4"/>
  <path id="path4500" fill="#2b2b2b" stroke="#2b2b2b" stroke-width=".9" d="M339 260.5s6.5-8.2 8-7.9c1.6.3 1.1 18.9 1.1 18.9s-4.8 3.6-5.9 3.5c-1-.2 5.4 8.7 5.3 12l-.3 3.4s0-2-1.5-5.2c-1.5-3.1-.6-6.8-10.4-14.8-2.5-5 4.8 3 6.3 1.8s-2.7-11.6-2.6-11.7z"/>
  <path id="path4502" fill="none" stroke="#2b2b2b" stroke-width=".9" d="M327.5 214.5s-2.8.7-3.1 1.9c-.4 1-2 2.2-2.9 1.8-.9-.4-2.5-1.7-2.5-1.7"/>
  <path id="path4504" fill="#2b2b2b" stroke="#2b2b2b" stroke-linejoin="round" stroke-width=".9" d="M312 224s-4.1 4.2-2.2 4.7c2 .4 4.1-3.3 4.1-3.3s0 6.4 1.8 5.4c1.7-1 6.8-4.6 6.8-4.6s1.8-.2 2.1 0c.4 0 4.7 3.8 7.6 2.5-1.6 4.2-3.5 4.7-3.5 4.7s-3 3.8-6.8 3c-3.9-1-4.9-2.5-4.9-2.5s-3.2.2-4.2-1.3-1.3-2.3-1.3-2.3-1.9 1.8-2.4 1c-.5-1 0-6 2.9-7.2z"/>
  <path id="path4506" fill="none" stroke="#2b2b2b" stroke-width=".9" d="M335.2 218.3s-7.6-2.2-10.2 1.5c-2.6 3.8-2 5.9-.6 6.2"/>
  <path id="path4508" d="M336.3 218.1c0 1-.6 1.6-1.4 1.6-.8 0-1.4-.7-1.4-1.6 0-.9.6-1.6 1.4-1.6.8 0 1.4.7 1.4 1.6z" style="stroke-width:.684031"/>
  <path id="path4510" fill="#2b2b2b" stroke="#2b2b2b" stroke-width=".9" d="M314.3 237.5s3 4.7 6.8 6c3.7 1.3-2.6 2.5-6.3 0-2.6-3.7-2-6.3-2-6.3s.8-.7 1.5.3z"/>
  <path id="path4512" fill="#2b2b2b" stroke="#2b2b2b" stroke-width=".9" d="M340.7 265.5s-8.6-12-11.1-12.7c-2.5-.7 1.9-1.2 4.5 1.4 2.7 2.5-.7-4.2-.7-4.2z"/>
  <path id="path4514" fill="#2b2b2b" stroke="#2b2b2b" stroke-linejoin="round" stroke-width=".9" d="M313.5 335.2c3.3-.9 17.8 8.3 21 10.6 3.3 2.3 10.2.9 10.2.9s-3.2 1.9-5.2 2.3c-2 .5 5.9.5 5.9.5s-18.6 5.1-37.4-4.8c-1.7-7.7 4-9.4 5.5-9.5z"/>
  <path id="path4516" fill="#2b2b2b" stroke="#2b2b2b" stroke-width=".9" d="M334.7 268.5s-2.5-.5-3.7-2c-1.3-1.3-3-4.9-4.9-6.3-1.8-1.5-11-6.6-14.4-6.2-3.3.3-4.3-.4-4.7-.8-.4-.4-1.8.2-1.6 2 .3 1.6-2.5 5.4-1.5 7.2 1 1.8 5.8 9 6.7 9.3 1 .2.4 4.2.4 4.2s4.2 4.3 5.3 4.5c1 .3 2.1 1 2 2-.1 1-4.7 6.6-4.7 6.6s-4.8 2.5-4.9 4c0 1.4 1.2 4.3 5 5.3a36 36 0 0 0 14.9-.7 19 19 0 0 0 1-6.8c-.4-.5-3-2.1-4.3-1.9-1.3.3-2.4 1.3-2.3 1.6 0 .2-1.9 1.2-1.9.3 0-1 3.9-5.3 4.2-5 .4.4 5.9 1 6.9 3.7s1 4.7 3.8 4.4c2.9-.3 6.9-3 7.2-8.4.4-5.4-3.2-9.1-4-9.7-1-.5-4-2.3-4.2-3.1-.2-.8-.8-3.6-.3-4.2z"/>
  <path id="path4518" fill="#2b2b2b" stroke="#2b2b2b" stroke-width=".9" d="M283.3 292.6s9.2-2.4 11.6-2.3c2.3 0 11.3 4.2 14 6.8 2.5 2.5 7.9 8.6 11.4 8 3.5-.5 4.5-1.2 4.5-1.2l-1.4 2.6s-2.8.8-4.2.4c-1.5-.3-4.2-1.2-7-4-2.8-2.7-11.4-10-18.8-9.5-7.3.5-11.5 7.7-11.5 7.7s0-3.5.4-4.3c.3-.8-1.6 1.7-1.6 1.7z"/>
  <path id="path4520" fill="#2b2b2b" stroke="#2b2b2b" stroke-width=".9" d="M317.2 299.7s2.3.7 6.1.7 5.9-1.7 5.9-1.7l-.3-1.5.6-2s3 3 2.9 3.5c-.1.6-1.2.9-1.2.9l-.4-1.5-1 1.3s-5.6 4.4-8.6 3.7c-3-.6-5.8-2.6-5-3 .7-.5 1.1-.4 1-.4z"/>
  <path id="path4522" fill="#2b2b2b" stroke="#2b2b2b" stroke-width=".9" d="M303.8 307.5s-3.3 0-4.8.7-2 1.6-3 1.4c-1 0-1.8-1.4-1.5-2 .4-.7 2.3-1.8 6-1.5 3.8.3 3.3 1.4 3.3 1.4z"/>
  <path id="path4524" fill="#2b2b2b" stroke="#2b2b2b" stroke-width=".9" d="M315.4 316.5c0-.1-.2-4.8-2-6.7a5.6 5.6 0 0 0-5.2-1.7c-1 .2 3.8 2.3 4.3 3.7.4 1.4 2 5.2 1.6 6.1-.5 1-1.2-2.7-4.1-3.7-3-1-7-.4-6.2.9.9 1.3 4.1 0 5.8 2.9 1.7 2.8 3 5.7 3 5.7l.5-2 1.4-.4.2-3.9z"/>
  <path id="path4526" fill="#2b2b2b" stroke="#2b2b2b" stroke-linejoin="round" stroke-width=".9" d="m313 331.7-3-6s-1-3.9-3.5-5c-2.5-1-6-.8-6 .5s5.5 3 5.8 3.7c.4.7.2 1.9-.3 2-.4 0-2.9-1-4.1-.7-1.3.3-2 2-3.8 1.5-1.9-.5-3.4-6.4-2.7-7 .7-.6-1.4 1-1.8-.5-.4-1.5.6-6.3 0-7-.8-.5-4.3-2.6-4.3-3 0-.4.2-23.7 19.6-4.4-8.3-9.9-11.6-8.8-13.1-8.9-1.2 0-8.7.7-10.6 10.3-2 9.6-4.2 3.6-4.2 3.6s-.4 4.2 1.6 5.4c2 1.2-1 4.6-1 4.6s-3.5-8.8-3-12.7a30 30 0 0 0 4 19.1 62.4 62.4 0 0 0 23.7 16.8c7.1-10.8 6.8-12.1 6.8-12.3z"/>
  <path id="path4528" fill="#8a9396" stroke="#2b2b2b" stroke-linejoin="round" stroke-width=".9" d="M300.3 331.8s4 .5 5 2.5c1.1 2 1.6 5.1 1.6 5.1.6-1.3 1-2.4 2.2-3.4 1.3-1 2.3-1 2.2-1.8 0-.7-4.1-5-6.2-5.2-2-.3-5.7 2.2-5.7 2.2s-.7 1 1 .6z"/>
  <path id="path4530" stroke="#8a9396" d="M309.3 342s10.2 4.7 26.9 5" style="fill:none;stroke-width:.855039;stroke-linecap:round"/>
  <path id="path4532" stroke="#2b2b2b" d="M343.2 294.9s-.9 8.5-7.4 25.3" style="fill:none;stroke-width:.855039;stroke-linecap:round"/>
  <path id="path4534" stroke="#2b2b2b" stroke-linecap="butt" stroke-width=".9" d="M342 300.1s-2 6.1-7.5 10.7" style="fill:none"/>
  <path id="path4540" d="m312.2 406 1.8-2 .5.5-.1.2-.2.2v.1l.2.2 2.3 2 .2.2h.1l.2-.1.4-.7q.1-.4 0-.8 0-.3-.3-.8l.7-.4 1 1.9-2.7 3-.6-.4.2-.2.1-.2v-.2l-.2-.2-2.3-2-.2-.2h-.2l-.1.2-.2.2-.6-.5z" style="stroke-width:.693944"/>
  <path id="path4542" d="m316 401.7 3.3-3.2 1.6.8-.3.6-.8-.1h-.6l-.5.5-.6.6 1 1 .1-.2.3-.4v-.2l-.2-.3-.2-.1.5-.5 1.6 1.6-.4.5-.2-.2-.3-.2h-.2l-.3.3-.2.2.9.9.1.1h.1l.2-.1.4-.4.5-.7v-.7q0-.5-.2-.9l.7-.3 1 2-3.4 3.2-.5-.5v-.1l.3-.3v-.2l-.2-.2-2.1-2.1-.3-.2h-.1l-.2.1-.2.2-.5-.5z" style="stroke-width:.693944"/>
  <path id="path4544" d="M322.9 395.2q1-.9 2-.8 1.2 0 2 1 .5.6.7 1.4.1.7-.2 1.4-.2.7-1 1.3-.8.7-1.8.7-1.3 0-2.1-1t-.7-2q0-1.2 1-2zm.5.6q-.4.4-.4 1 0 .7.6 1.4t1.3.9q.6 0 1-.3.5-.4.5-1 0-.7-.6-1.4l-.9-.7-.8-.2q-.4 0-.7.3z" style="stroke-width:.693944"/>
  <path id="path4546" d="m328.8 390.4.4-.3h.1l2.6-1.7-.1-.2.4-.3 1.7 1.2-.5.6-.6-.3h-1.1v.4l1.8 2.5.2.3h.3l.4-.2.4.6-2.2 1.5-.4-.6h.1l.3-.3v-.2l-.2-.3-1.8-2.6-.1-.1h-.1q-.2.1-.3.4l-.1.6v.7l-.7.2-.5-2z" style="stroke-width:.693944"/>
  <path id="path4548" d="m333.7 387.2 3.9-2.4 1.4 1.2-.5.6q-.3-.3-.7-.4h-.6q-.3 0-.6.3l-.7.4.7 1.2.2-.2.3-.2q.1-.1 0-.2v-.4l-.2-.2.6-.3 1.2 2-.6.3-.1-.2-.2-.3h-.2l-.4.2-.2.1.6 1 .1.3h.1l.3-.1.4-.3q.4-.2.6-.5l.3-.7v-1h.7l.4 2-4 2.4-.4-.6h.2l.2-.3q.1 0 0-.2v-.3l-1.6-2.5-.2-.3h-.1l-.3.1-.2.1-.4-.6z" style="stroke-width:.693944"/>
  <path id="path4550" d="m339.2 383.9 3-1.5.6-.3.8-.1.6.2.5.5q.3.6 0 1.1-.2.6-.6 1l1.6.6.3.1h.4l.2-.2.4.7-1.6.8-2.6-1.3-.4.2.5 1 .2.3h.4l.2-.2.4.7-2.4 1.2-.3-.6.2-.2.2-.1v-.4l-1.5-2.8-.1-.2h-.4l-.2.2-.4-.7zm2.2-.1.6 1.2.8-.4.5-.4q.2-.1.2-.3v-.5l-.3-.2q-.2-.1-.4 0l-.6.2-.8.4z" style="stroke-width:.693944"/>
  <path id="path4552" d="m345.3 380.8 3.1-1.4.7-.2h.7q.4 0 .7.2l.4.6q.2.5 0 1-.3.6-.8 1l1.6.7.3.1h.5l.2-.1.3.6-1.6.7-2.6-1.4-.4.2.5 1 .1.3h.4l.3-.1.3.7-2.5 1-.3-.7h.2l.3-.2v-.4l-1.3-2.8-.1-.3h-.4l-.2.2-.4-.7zm2.2 0 .6 1.3.7-.4.7-.3.2-.4v-.4l-.3-.3q-.2-.1-.4 0l-.6.1-.9.4z" style="stroke-width:.693944"/>
  <path id="path4554" d="m353.5 377.4 1.2-.5 3 3.4.3.3h.4l.2.7-2.4.9-.2-.8h.1q.2 0 .3-.2v-.1l-.2-.3-.3-.4-1.5.6v.9h.6l.2.6-2 .7-.2-.7.3-.1v-.2l.1-.2.1-4.6zm.9 2.8 1-.4-1-1.2v1.6z" style="stroke-width:.693944"/>
  <path id="path4556" d="m357.8 375.8 2.3-.7 1.8 3v-3.5l2.5-.7.2.7-.3.1q-.2 0-.2.2v.3l.8 3 .1.3h.7l.2.6-2.5.8-.2-.8h.2l.2-.1.1-.2v-.2l-1-3.2v4.7l-.7.2-2.4-3.9.9 3.2v.2h.7l.2.6-2.1.7-.2-.8h.2l.2-.1.1-.2v-.3l-.9-3v-.2h-.7l-.2-.7z" style="stroke-width:.693944"/>
  <path id="path4558" d="m368.6 373 2.8-.5 1-.1.6.2.5.5.3.6q.1.7-.3 1.2-.5.6-1.4.8l-1 .1.3 1v.3h.7l.1.7-2.6.5-.1-.7h.2l.3-.1v-.5l-.5-3-.1-.2-.1-.1h-.5l-.2-.7zm2.1.5.3 1.5h.5l.6-.3q.2-.1.2-.3v-.5q0-.3-.3-.5h-1.3z" style="stroke-width:.693944"/>
  <path id="path4560" d="m374.4 372 3.3-.5h.7l.7.1q.4.2.6.5l.2.6q.1.7-.3 1.1-.4.4-1 .6l1.3 1.2.3.2h.7v.8l-1.7.2-2-2.1h-.4v1.1l.2.4q.2.1.4 0h.2l.1.8-2.6.3-.1-.7h.2l.3-.1v-.5l-.3-3v-.2l-.2-.1h-.5l-.1-.8zm2 .6.3 1.4.8-.1.7-.2.3-.3v-.4l-.1-.4-.4-.2h-.6l-1 .2z" style="stroke-width:.693944"/>
  <path id="path4562" d="M384.2 370.8q1.3 0 2.1.7.8.8 1 2 0 .8-.4 1.5-.3.6-1 1-.5.4-1.5.5-1.2 0-2-.6-1-.7-1-2t.7-2.1q.8-.9 2-1zm0 1q-.6 0-1 .4-.4.6-.3 1.6 0 .9.5 1.4.4.4 1 .4t1-.5q.4-.6.3-1.5 0-.7-.2-1-.2-.5-.6-.7-.3-.2-.7-.2z" style="stroke-width:.693944"/>
  <path id="path4564" d="M388.3 370.8h3.8l.6.4.4.6.1.6q0 .7-.5 1.2t-1.5.5h-1v1l.1.2.1.1h.5v.8h-2.6v-.8h.5l.1-.1v-3.8h-.6v-.7zm2 .9v1.5h1.1l.3-.3.1-.5q0-.4-.3-.6l-.6-.1h-.6z" style="stroke-width:.693944"/>
  <path id="path4566" d="m394.2 370.8 3.3.2q.4 0 .7.2.4 0 .7.3l.5.5v.7q0 .6-.4 1-.5.3-1.1.4l1 1.4.2.2.2.1h.3l.2.1v.7H398l-1.6-2.5h-.4l-.1 1v.4l.1.1h.5v.8l-2.7-.2v-.7h.6l.1-.1v-.3l.3-3v-.3l-.1-.1h-.4l-.2-.1v-.8zm2 1-.2 1.5h1.6l.3-.3q.2-.1.2-.3l-.1-.4-.3-.3h-.7l-.9-.2z" style="stroke-width:.693944"/>
  <path id="path4568" d="m401 371.3 2.5.4v.7h-.6l-.2.4-.3 3v.4h.3l.3.1-.1.8-2.6-.4v-.7h.6l.1-.3.4-3v-.5h-.3l-.3-.1.1-.8z" style="stroke-width:.693944"/>
  <path id="path4570" d="m406.6 372.1 1.2.2.9 4.5.1.4.4.1-.1.8-2.6-.5.1-.7h.5l.1-.1v-.8l-1.7-.3-.3.5-.1.2v.1l.1.1.4.1-.1.8-2.1-.4.1-.7h.3l.2-.1.2-.2 2.4-4zm-.7 2.9 1 .2-.2-1.6-.8 1.4z" style="stroke-width:.693944"/>
  <path id="path4572" d="m411 373 2.4.5.1 3.5 1.8-3 2.4.6-.2.7h-.5l-.2.3-.7 3q-.1.2 0 .2v.2h.2l.3.1-.2.8-2.5-.7.2-.7h.6v-.2l.9-3.3-2.4 4-.7-.1-.2-4.6-.8 3.2v.4h.3l.3.1-.2.7-2.2-.5.2-.7h.6l.2-.3.7-3v-.4h-.2l-.3-.1.2-.8z" style="stroke-width:.693944"/>
  <path id="path4574" d="m422 376 2.7 1q.5.1.8.4.3.2.4.5l.2.6v.7q-.3.7-1 1-.6.2-1.5-.2l-.9-.3-.3 1-.1.2v.2h.3l.2.2-.2.7-2.5-1 .3-.6h.1l.3.1h.2l.1-.3 1-2.9.1-.3v-.1l-.3-.1-.2-.1.3-.7zm1.5 1.5-.5 1.4.4.2.6.1.4-.1.3-.4v-.6q-.2-.3-.6-.4l-.6-.2z" style="stroke-width:.693944"/>
  <path id="path4576" d="m427.5 378 3 1.4.7.3.5.5.3.7-.2.7q-.2.5-.8.7-.5.2-1.1 0l.5 1.7v.3l.2.2.2.1.2.1-.3.7-1.5-.7-.7-2.9-.4-.1-.4 1-.2.3v.1l.3.2h.2l-.3.8-2.4-1.1.3-.7.2.1h.5v-.3l1.3-2.8.1-.2v-.1l-.2-.2h-.3l.3-.8zm1.5 1.6-.6 1.3.7.4.7.2.5-.1.2-.3q.1-.2 0-.4l-.1-.4-.6-.3-.8-.4z" style="stroke-width:.693944"/>
  <path id="path4578" d="M436.5 382.2q1.1.6 1.5 1.6.3 1.1-.3 2.2-.4.7-1 1.1-.6.4-1.4.4-.7 0-1.5-.4-1-.6-1.4-1.5-.5-1.1.2-2.3.6-1.1 1.6-1.4 1.1-.4 2.3.3zm-.4.7q-.6-.3-1 0-.8.3-1.2 1.1-.4.8-.3 1.5.1.6.6.9.6.2 1.1 0 .7-.3 1-1 .4-.7.4-1.1l-.1-.8q-.2-.4-.5-.6z" style="stroke-width:.693944"/>
  <path id="path4580" d="m440.5 384.3.5.3v.2l2.5 1.6.2-.1.4.2-.4 2-.8-.2v-.7l-.1-.6-.3-.3h-.1l-.2.1-1.6 2.7-.2.3v.1l.1.1.4.3-.4.6-2.3-1.4.4-.6h.2l.3.2h.1l.2-.3 1.7-2.7q.1-.2 0-.2v-.1l-.5-.1-.6.1-.6.4-.4-.6 1.5-1.3z" style="stroke-width:.693944"/>
  <path id="path4582" d="m445.4 387.6 3.7 2.6-.5 1.8-.7-.2v-.8l-.2-.6-.5-.4-.7-.5-.8 1 .2.2.4.2h.2l.3-.3v-.1l.7.4-1.4 1.8-.5-.4v-.2q.2-.1.2-.3v-.2l-.3-.3-.2-.1-.7 1-.2.2v.1l.2.2.4.2.8.4q.4.1.8 0l.8-.4.4.6-1.7 1.3-3.9-2.8.5-.6.4.3h.2l.2-.3 1.7-2.4.2-.3v-.1l-.2-.2-.2-.2.4-.6z" style="stroke-width:.693944"/>
  <path id="path4584" d="m451.5 395.4 2 1.6-.5.6h-.1l-.3-.2h-.1l-.2.2-1 1.3-.7-.5v-.4q-.4 0-.7-.2l-.7-.5q-.6-.4-.9-1.1-.2-.7 0-1.4 0-.7.6-1.4.5-.6 1.2-.8.6-.3 1.3-.2.8.1 1.3.6l.5.5.4.6h.2l.4.3-.7 1.7-.7-.3v-1l-.1-.6-.4-.4-.6-.3-.8.2-.8.6q-.4.5-.5 1-.2.5 0 1 0 .3.3.5l.5.3h.5l.3-.2v-.2l.2-.2v-.1l-.2-.3-.2-.1.5-.6z" style="stroke-width:.693944"/>
  <path id="path4586" d="m457.3 397.1 1 .9-1.8 4.1v.5l.2.3-.5.6-2-1.8.6-.5h.1l.3.2h.1l.2-.3.2-.5-1.2-1-.6.2-.2.1v.3l.3.2-.5.6-1.5-1.5.5-.5.2.2h.2l.3-.1 4.1-2zm-2 2 .7.8.6-1.5-1.4.7z" style="stroke-width:.693944"/>
  <path id="path4588" d="m460.9 400.3.4.4-.1.1 2 2.3.3-.1.3.3-.9 1.8-.7-.3.2-.7v-.6q0-.3-.2-.4h-.3l-2.2 2.2-.3.3v.2l.3.3-.5.6-1.8-2 .5-.5.1.1.3.3h.1l.3-.3 2.3-2.2.1-.1v-.1l-.4-.2h-.7l-.6.1-.3-.7 1.8-.8z" style="stroke-width:.693944"/>
  <path id="path3362" fill="#012169" d="M0 0h256v256H0Z" style="stroke-width:.5"/>
  <path id="path3364" fill="#fff" d="M256 0v32l-95 96 95 93.5V256h-33.5L127 162l-93 94H0v-34l93-93.5L0 37V0h31l96 94 93-94Z" style="stroke-width:.5"/>
  <path id="path3366" fill="#c8102e" d="m92 162 5.5 17L21 256H0v-1.5zm62-6 27 4 75 73.5V256zM256 0l-96 98-2-22 75-76ZM0 .5 96.5 95 67 91 0 24.5Z" style="stroke-width:.5"/>
  <path id="path3368" fill="#fff" d="M88 0v256h80V0ZM0 88v80h256V88Z" style="stroke-width:.5"/>
  <path id="path3370" fill="#c8102e" d="M0 104v48h256v-48zM104 0v256h48V0Z" style="stroke-width:.5"/>
</svg>
