<svg xmlns="http://www.w3.org/2000/svg" id="flag-icon-css-je" viewBox="0 0 512 512">
  <defs>
    <clipPath id="je-a">
      <path fill-opacity=".7" d="M6.2 0h18v18h-18z"/>
    </clipPath>
  </defs>
  <g clip-path="url(#je-a)" transform="translate(-176.4) scale(28.44445)">
    <path fill="#fff" d="M0 0h30v18H0z"/>
    <path fill="#df112d" fill-rule="evenodd" d="M0 0v1.2L13 9 0 16.8V18h2l13-7.8L28 18h2v-1.2L17 9l13-7.8V0h-2L15 7.8 2 0H0z"/>
    <g stroke="#000" transform="translate(.4) scale(.12217)">
      <path fill="#e8112d" stroke-width=".1" d="M132.7 22.2c3.1 12.8 1.4 28.6-12.9 37.4-14.2-8.8-16-24.6-12.8-37.4 3.4-3 18.6-4.9 25.7 0z"/>
      <path fill="#f9dd16" stroke-width=".1" d="M119.9 19.6c4.5-.1 9 1 12.9 3.2a28 28 0 0 1 4.9-12.1c-2.5 0-3.6 1.3-3.6 2.6-.6-1.7-3-1.6-3.8-.7 2.7 1.8.6 5-1.8 4.4-1.1-.3-1.7-1.1-2-2.3a1.3 1.3 0 1 0-.5 0c-.7 1-1.9 1.6-3.1 1.3-1.3-.3-1.9-1.5-1.9-2.5 0-2.7 2.6-3.1 3.4-2.6 0-1.8-2.9-3.3-3.8-1.8 1-1.9.8-4.3-.8-5.8A4.8 4.8 0 0 0 119 9c-.9-1.5-3.7 0-3.7 1.8.7-.5 3.3-.1 3.3 2.6 0 1-.6 2.2-1.8 2.5a3 3 0 0 1-3.2-1.3c.2 0 .4-.2.6-.4a1.3 1.3 0 1 0-1.1.4c-.2 1.2-.9 2-2 2.3a2.4 2.4 0 0 1-1.8-4.4c-.8-1-3.2-1-3.8.7 0-1.3-1.1-2.6-3.6-2.6a28 28 0 0 1 5 12.1 26 26 0 0 1 13-3.1z"/>
      <g id="b">
        <g fill="#f9dd16" stroke-width=".1">
          <path d="M130.7 32.2c-.4 0-.4.5-.5.5.8 0 1.2-.3 1.4-.7v.6c.6-.2.8-.7.6-1l.7.2c-.4-.3-.1-1-.8-1.4.2 0 .6.2.8.5-.1-.7-.2-1.1-.8-1.5h.5a.9.9 0 0 1-.4-.8c0-.4-.2-.4-.6-.3l-1.8.1c-1 0-2 0-2.8-.6 1.3.6 3-.6 3-1.5 0-1-1.4-2-4-1.4-2.6.6-5.8.4-5.8-.5s2.3-1 3.5-.8c1.2.2 2 .3 4.2-.5-.5.2-2.3.3-3.7-.1s-4.8-.4-4.8 1.4c0 1.9 3.6 1.7 6.8 1.2 1.8-.2 2.8 0 2.8.5 0 .6-1.7.8-3 .7a10 10 0 0 0-4.1.3c-1.3.4-2.2 0-3.6.3-.7 0-2.4 0-3.2-1.4-.5.4-2 1.1-2.3 1.9-.3.6 0 1.3.4 2 .6.8-.3.7-1 .7-.8 0-2 0-2.6-.8-.6-.6-1.3-1.1-1.9-.7-.3.3 0 .6.2.5l.8.2a1 1 0 0 0-1 .1c-.3.2 0 .6.3.5.2-.1.7-.2 1 0-.3 0-.7 0-.8.2s0 .4.3.4c.6 0 .7.4 1.3.3a.9.9 0 0 0-.7.4c.6-.3 1.1.4 1.8.2-.2.1-.7.4-.7.6.4-.5 3.2.4 3.2-.7l-.1.8c.3-.2 1.4-.3 1.8-1 0 .2 0 .5-.2.6.3 0 .8-.2 1.3-.9.2-.3.2-.5.2-.7.5 0 .8-.1 1.2-.4.4-.3.8.3 1.5-.2.6-.4 1.2 0 1.6-.2.3-.2.8 0 1.2-.2s1 .1 1.6-.4c1 .4 2.3 1 5.2.5 1.6-.3 2.2.3 2.2 1 0 .6-.4.6-.6.6-1 .1-1.3-.3-1.7-.2-.2.1-.4.5 0 .7-.3.1-.3.4-.1.5s.5 0 .8-.1c-.4.1-.7.4-.5.7.1.2.4.3.7 0 .3-.4.8-.7 1.2-.7zm-18.6-8c-.8-.3-1-.3-.9.4 0 .3.3.7.5.9 0-.3.1-1 .4-1.2z"/>
          <path d="M114.8 24.3c.8-.4 1.1-.4.9.3 0 .3-.3.7-.5.9 0-.3 0-1-.4-1.2z"/>
          <path d="M113.5 23.8c1.6 0 1.8.8 1.7 1.7 0 1-.5.6-.8 2-.1.4-.5.5-1 .5-.3 0-.7 0-.9-.6-.3-1.3-.8-1-.8-2 0-.8.2-1.6 1.8-1.6z"/>
          <path d="M109.4 27.5c-.4-.2-.7 0-.9 0 .6.1.6.8 1.8 1-.3 0-.4.2-.7 0 .5.4 1 .9 2.2.9.7 0 .2.3-.2.1.4.5 1.3.1 1.9 1 0-.7-1-1.7-.5-2.4-1.7-.1-1.8-1-2.7-1.7-.8-.6-.9-1.2-1.2-2.3-.1-.5-.7-.8-1-.7-.3 0-.5.3-.2.5.2.2.6.2.6.7-.3-.4-.8-.5-1-.3-.1.2 0 .5.2.5.5 0 .2.6.7 1-.5-.5-.9-.6-1.2-.3-.1.2 0 .5.4.5.5 0 1 1.2 1.8 1.5zm13 4.6c-.2 0-.1.5-.5.5.8 0 1.3-.2 1.6-.5l-.2.5c.4-.3 1.5-.4 2-.3s.6-.1.8-.4c.2-.4 0-.6-.3-.8-.3-.3-.4-.7-.3-1.3-1.4-2-4-1-4-.2.9 1.1 1 1 1.8 1.1.7.2 1.2.2.7.6-.2.2-1 0-1.5.1-1.3 0-2-.9-2.3-.4-.3.4 0 .6.6.6-.4 0-1 0-.9.4.2.7.8-.1 1.1.1-.2 0-.6.1-.6.3 0 .2.5.5 1 0a1.6 1.6 0 0 1 1-.3z"/>
        </g>
        <path fill="none" stroke-width=".1" d="M123.5 29.2c-.4-.2-.9-.3-1.4-.2m-5.6 0c-.4.8-.2 1.2-.1 1.6m-4-5.6c.2.2.4-.2.8.2-.1-.1-.3.3-.6 0m2-.1c-.3 0-.5-.3-.9.1.1-.1.3.3.6 0m-.6 0v.3c.1.7.3 1-.3 1-.5 0-.3-.3-.2-1v-.3"/>
        <path fill="#ff0016" stroke-width=".1" d="M113.5 27.7c.4 0 .6 0 .6-.6 0-.2.3-.3.1-.7.2.4-.7.4-.7.2 0 .2-1 .2-.8-.2-.1.4.2.5.1.7 0 .6.2.6.7.6z"/>
        <path stroke-width=".1" d="m113 26.5-1-.3m1 .3h-1m1 .1-.9.3m1.7-.4 1-.3m-1 .3h1.2m-1.2.1 1 .3"/>
        <path fill="#0051ba" stroke-width="0" d="M108.1 23.4c-.3-.4-1 0-1 .4.2-.3.6.1.9 0 .1 0 .3-.2.1-.4zm-.3.9c-.3-.4-1.1 0-1.1.4.2-.3.6.1.9 0 .1 0 .3-.3.2-.4zm-.2 1.2c-.4-.4-1.1 0-1 .5.2-.3.6 0 .8 0 .2-.1.3-.4.1-.5zm.3 3.7c-.4-.4-1 .1-1 .6.2-.4.7 0 1-.2 0 0 .2-.3 0-.5zm0 .7c-.5-.1-1 .6-.7 1 0-.5.6-.3.8-.5l-.1-.5zm.6.7c-.5-.2-1 .4-.7.8 0-.3.6-.2.7-.4v-.5zm11.7 1.1c-.5-.1-1 .5-.7 1 0-.5.6-.3.8-.5l-.1-.5zm.6.6c-.5-.1-.9.6-.6 1 0-.5.6-.4.7-.6.1-.1.1-.4 0-.4zm-.4-1.4c-.4-.2-1 .4-.9.8.2-.4.7-.1.9-.3V31zm8.3 1c-.4-.1-.8.6-.6 1 0-.4.6-.3.8-.5 0-.2 0-.5-.2-.5zm0-.7c-.4-.3-1 .3-.8.7.2-.3.7-.1.9-.3v-.5zm.4 1.3c-.5 0-.9.7-.6 1 0-.4.6-.3.7-.5.1-.2 0-.4-.1-.5zm-15.6-5.2c.3 0 .4.1.4.7 0 1 0 1.6-.4 1.6-.3 0-.3-.5-.3-1.3 0-.4 0-.7-.1-.6 0-.3.1-.4.4-.4z"/>
      </g>
      <g fill="#f9dd16" stroke-width=".1">
        <path d="M129.2 42.7c-.3 0-.3.4-.4.4.7 0 1-.2 1.2-.6v.5c.6-.1.8-.6.6-.9l.6.2c-.3-.2 0-.9-.7-1.2.2 0 .5.1.7.4 0-.6-.2-1-.7-1.3h.4a.8.8 0 0 1-.3-.8c0-.3-.2-.3-.6-.2h-1.6c-.9 0-1.8 0-2.5-.5 1.2.6 2.7-.5 2.7-1.3 0-1-1.3-1.8-3.6-1.3-2.3.6-5.2.4-5.2-.4s2-1 3.1-.8c1.1.2 1.8.3 3.8-.4-.4.2-2 .3-3.3-.1s-4.3-.4-4.3 1.3c0 1.7 3.2 1.5 6 1 1.7-.1 2.6 0 2.6.5s-1.5.7-2.7.6a9 9 0 0 0-3.7.3c-1.2.4-2 0-3.2.3-.7 0-2.2 0-3-1.3-.4.4-1.7 1-2 1.7-.2.6 0 1.2.4 1.8.5.7-.3.6-1 .6-.6 0-1.7 0-2.3-.7-.5-.5-1.1-1-1.7-.6-.2.3 0 .5.2.4l.7.2a.9.9 0 0 0-.9.1c-.2.2 0 .6.3.5.2-.1.6-.2.9 0l-.7.1c-.1.1 0 .4.3.4.5 0 .6.4 1.1.3a.8.8 0 0 0-.6.3c.5-.2 1 .4 1.6.2-.2.1-.6.4-.6.6.3-.5 2.9.3 2.9-.7l-.1.7c.2-.1 1.2-.2 1.6-.9 0 .2 0 .5-.2.6.3 0 .7-.2 1.2-.8.2-.3.2-.5.2-.7.4 0 .7 0 1-.3.4-.3.8.3 1.4-.2.5-.4 1 0 1.4-.2.3-.2.8 0 1.1-.2s1 .1 1.5-.3c.9.3 2 .9 4.6.4 1.5-.2 2 .3 2 1 0 .5-.3.5-.5.5-1 0-1.2-.3-1.6-.2-.1 0-.3.4 0 .6-.2.1-.2.4 0 .5s.4 0 .7-.1c-.4 0-.7.3-.5.6.1.2.4.3.7 0 .2-.3.7-.6 1-.6zm-16.7-7.2c-.7-.3-1-.3-.8.3 0 .3.3.7.4.9 0-.3.1-1 .4-1.1z"/>
        <path d="M115 35.6c.6-.4 1-.4.7.2 0 .3-.2.7-.4.9 0-.3 0-1-.4-1.1z"/>
        <path d="M113.8 35.1c1.4 0 1.6.7 1.5 1.6 0 .9-.5.5-.7 1.8-.1.3-.5.4-1 .4-.2 0-.6 0-.7-.5-.3-1.2-.8-1-.8-1.8s.2-1.5 1.7-1.5z"/>
        <path d="M110 38.5c-.3-.2-.6 0-.7 0 .5 0 .5.7 1.6.9h-.7c.5.3 1 .8 2 .8.7 0 .2.2-.2 0 .4.5 1.2.1 1.8 1 0-.7-1-1.6-.5-2.2-1.5-.1-1.6-1-2.4-1.5-.7-.6-.8-1.1-1.1-2.1-.1-.5-.6-.7-1-.6-.2 0-.4.2 0 .4 0 .2.5.2.5.6-.3-.3-.8-.4-1-.2 0 .2 0 .4.2.4.5 0 .2.6.7 1-.5-.5-.8-.6-1.1-.3-.1.1 0 .4.3.4.5 0 1 1 1.7 1.4zm11.8 4c-.2 0-.1.5-.5.5.7 0 1.2-.1 1.5-.4l-.2.4c.3-.2 1.3-.3 1.8-.2s.5-.1.7-.4c.2-.3 0-.5-.3-.7-.2-.3-.3-.6-.2-1.2-1.3-1.8-3.6-.9-3.6-.2.8 1 .9 1 1.6 1 .6.2 1 .2.6.6-.2.2-.9 0-1.3 0-1.2 0-1.8-.7-2.1-.3-.3.4 0 .5.5.5-.3 0-.9 0-.8.4.2.6.7 0 1 0-.2 0-.5.2-.5.4 0 .1.4.4.9 0a1.4 1.4 0 0 1 .9-.3z"/>
      </g>
      <path fill="none" stroke-width=".1" d="M122.8 40a2 2 0 0 0-1.3-.2m-5 0c-.4.7-.2 1-.1 1.4m-3.6-5c.1.2.3-.2.7.2-.1-.1-.3.3-.6 0m1.8-.1c-.2 0-.4-.3-.8 0 .1 0 .3.4.6 0m-.6 0v.4c.1.6.3.9-.2.9s-.3-.3-.2-1v-.2"/>
      <path fill="#ff0016" stroke-width=".1" d="M113.8 38.6c.3 0 .5 0 .5-.5 0-.2.3-.3 0-.6.3.3-.5.3-.5.1 0 .2-1 .2-.8-.1 0 .3.2.4.1.6 0 .5.2.5.7.5z"/>
      <path stroke-width=".1" d="m113.3 37.6-.9-.3m.9.3h-.9m.9 0-.8.3m1.5-.3 1-.3m-1 .3h1.1m-1 0 .8.3"/>
      <path fill="#0051ba" stroke-width="0" d="M108.9 34.8c-.3-.4-1 0-1 .3.3-.2.6.1.9 0 0 0 .3-.2 0-.3zm-.3.8c-.2-.4-1 0-1 .3.2-.2.6.1.8 0 .1 0 .3-.2.2-.3zm-.2 1c-.3-.3-1 0-.9.5.2-.3.6 0 .8 0 .1 0 .2-.4 0-.4zm.3 3.4c-.3-.4-.9 0-.9.5.2-.3.6 0 1-.2V40zm0 .6c-.4 0-.9.6-.6 1 0-.5.5-.4.7-.5v-.5zm.6.6c-.5-.1-1 .4-.7.8 0-.3.6-.2.7-.4v-.4zm10.5 1c-.5 0-1 .5-.6 1 0-.5.5-.3.7-.5l-.1-.5zm.5.6c-.4-.1-.8.5-.5.9 0-.5.5-.4.6-.6v-.3zm-.3-1.3c-.4-.2-1 .4-.8.7.1-.3.6 0 .8-.2v-.4zm7.4 1c-.3-.2-.7.5-.5.8 0-.3.5-.3.7-.4 0-.2 0-.5-.2-.5zm0-.7c-.3-.3-.9.3-.7.6.2-.3.6 0 .8-.3v-.4zm.4 1.2c-.5 0-.8.6-.5.9 0-.4.5-.3.6-.5l-.1-.4zm-14-4.7c.2 0 .3 0 .3.6 0 .9 0 1.4-.3 1.4s-.3-.4-.3-1.1c0-.4 0-.7-.1-.6 0-.2 0-.3.4-.3z"/>
      <g fill="#f9dd16" stroke-width=".1">
        <path d="M130.7 32.2c-.4 0-.4.5-.5.5.8 0 1.2-.3 1.4-.7v.6c.6-.2.8-.7.6-1l.7.2c-.4-.3-.1-1-.8-1.4.2 0 .6.2.8.5-.1-.7-.2-1.1-.8-1.5h.5a.9.9 0 0 1-.4-.8c0-.4-.2-.4-.6-.3l-1.8.1c-1 0-2 0-2.8-.6 1.3.6 3-.6 3-1.5 0-1-1.4-2-4-1.4-2.6.6-5.8.4-5.8-.5s2.3-1 3.5-.8c1.2.2 2 .3 4.2-.5-.5.2-2.3.3-3.7-.1s-4.8-.4-4.8 1.4c0 1.9 3.6 1.7 6.8 1.2 1.8-.2 2.8 0 2.8.5 0 .6-1.7.8-3 .7a10 10 0 0 0-4.1.3c-1.3.4-2.2 0-3.6.3-.7 0-2.4 0-3.2-1.4-.5.4-2 1.1-2.3 1.9-.3.6 0 1.3.4 2 .6.8-.3.7-1 .7-.8 0-2 0-2.6-.8-.6-.6-1.3-1.1-1.9-.7-.3.3 0 .6.2.5l.8.2a1 1 0 0 0-1 .1c-.3.2 0 .6.3.5.2-.1.7-.2 1 0-.3 0-.7 0-.8.2s0 .4.3.4c.6 0 .7.4 1.3.3a.9.9 0 0 0-.7.4c.6-.3 1.1.4 1.8.2-.2.1-.7.4-.7.6.4-.5 3.2.4 3.2-.7l-.1.8c.3-.2 1.4-.3 1.8-1 0 .2 0 .5-.2.6.3 0 .8-.2 1.3-.9.2-.3.2-.5.2-.7.5 0 .8-.1 1.2-.4.4-.3.8.3 1.5-.2.6-.4 1.2 0 1.6-.2.3-.2.8 0 1.2-.2s1 .1 1.6-.4c1 .4 2.3 1 5.2.5 1.6-.3 2.2.3 2.2 1 0 .6-.4.6-.6.6-1 .1-1.3-.3-1.7-.2-.2.1-.4.5 0 .7-.3.1-.3.4-.1.5s.5 0 .8-.1c-.4.1-.7.4-.5.7.1.2.4.3.7 0 .3-.4.8-.7 1.2-.7zm-18.6-8c-.8-.3-1-.3-.9.4 0 .3.3.7.5.9 0-.3.1-1 .4-1.2z" transform="matrix(.67 0 0 .75 39.2 27.5)"/>
        <path d="M114.8 24.3c.8-.4 1.1-.4.9.3 0 .3-.3.7-.5.9 0-.3 0-1-.4-1.2z" transform="matrix(.67 0 0 .75 39.2 27.5)"/>
        <path d="M113.5 23.8c1.6 0 1.8.8 1.7 1.7 0 1-.5.6-.8 2-.1.4-.5.5-1 .5-.3 0-.7 0-.9-.6-.3-1.3-.8-1-.8-2 0-.8.2-1.6 1.8-1.6z" transform="matrix(.67 0 0 .75 39.2 27.5)"/>
        <path d="M109.4 27.5c-.4-.2-.7 0-.9 0 .6.1.6.8 1.8 1-.3 0-.4.2-.7 0 .5.4 1 .9 2.2.9.7 0 .2.3-.2.1.4.5 1.3.1 1.9 1 0-.7-1-1.7-.5-2.4-1.7-.1-1.8-1-2.7-1.7-.8-.6-.9-1.2-1.2-2.3-.1-.5-.7-.8-1-.7-.3 0-.5.3-.2.5.2.2.6.2.6.7-.3-.4-.8-.5-1-.3-.1.2 0 .5.2.5.5 0 .2.6.7 1-.5-.5-.9-.6-1.2-.3-.1.2 0 .5.4.5.5 0 1 1.2 1.8 1.5zm13 4.6c-.2 0-.1.5-.5.5.8 0 1.3-.2 1.6-.5l-.2.5c.4-.3 1.5-.4 2-.3s.6-.1.8-.4c.2-.4 0-.6-.3-.8-.3-.3-.4-.7-.3-1.3-1.4-2-4-1-4-.2.9 1.1 1 1 1.8 1.1.7.2 1.2.2.7.6-.2.2-1 0-1.5.1-1.3 0-2-.9-2.3-.4-.3.4 0 .6.6.6-.4 0-1 0-.9.4.2.7.8-.1 1.1.1-.2 0-.6.1-.6.3 0 .2.5.5 1 0a1.6 1.6 0 0 1 1-.3z" transform="matrix(.67 0 0 .75 39.2 27.5)"/>
      </g>
      <path fill="none" stroke-width=".1" d="M123.5 29.2c-.4-.2-.9-.3-1.4-.2m-5.6 0c-.4.8-.2 1.2-.1 1.6m-4-5.6c.2.2.4-.2.8.2-.1-.1-.3.3-.6 0m2-.1c-.3 0-.5-.3-.9.1.1-.1.3.3.6 0m-.6 0v.3c.1.7.3 1-.3 1-.5 0-.3-.3-.2-1v-.3" transform="matrix(.67 0 0 .75 39.2 27.5)"/>
      <path fill="#ff0016" stroke-width=".1" d="M113.5 27.7c.4 0 .6 0 .6-.6 0-.2.3-.3.1-.7.2.4-.7.4-.7.2 0 .2-1 .2-.8-.2-.1.4.2.5.1.7 0 .6.2.6.7.6z" transform="matrix(.67 0 0 .75 39.2 27.5)"/>
      <path stroke-width=".1" d="m113 26.5-1-.3m1 .3h-1m1 .1-.9.3m1.7-.4 1-.3m-1 .3h1.2m-1.2.1 1 .3" transform="matrix(.67 0 0 .75 39.2 27.5)"/>
      <path fill="#0051ba" stroke-width="0" d="M108.1 23.4c-.3-.4-1 0-1 .4.2-.3.6.1.9 0 .1 0 .3-.2.1-.4zm-.3.9c-.3-.4-1.1 0-1.1.4.2-.3.6.1.9 0 .1 0 .3-.3.2-.4zm-.2 1.2c-.4-.4-1.1 0-1 .5.2-.3.6 0 .8 0 .2-.1.3-.4.1-.5zm.3 3.7c-.4-.4-1 .1-1 .6.2-.4.7 0 1-.2 0 0 .2-.3 0-.5zm0 .7c-.5-.1-1 .6-.7 1 0-.5.6-.3.8-.5l-.1-.5zm.6.7c-.5-.2-1 .4-.7.8 0-.3.6-.2.7-.4v-.5zm11.7 1.1c-.5-.1-1 .5-.7 1 0-.5.6-.3.8-.5l-.1-.5zm.6.6c-.5-.1-.9.6-.6 1 0-.5.6-.4.7-.6.1-.1.1-.4 0-.4zm-.4-1.4c-.4-.2-1 .4-.9.8.2-.4.7-.1.9-.3V31zm8.3 1c-.4-.1-.8.6-.6 1 0-.4.6-.3.8-.5 0-.2 0-.5-.2-.5zm0-.7c-.4-.3-1 .3-.8.7.2-.3.7-.1.9-.3v-.5zm.4 1.3c-.5 0-.9.7-.6 1 0-.4.6-.3.7-.5.1-.2 0-.4-.1-.5zm-15.6-5.2c.3 0 .4.1.4.7 0 1 0 1.6-.4 1.6-.3 0-.3-.5-.3-1.3 0-.4 0-.7-.1-.6 0-.3.1-.4.4-.4z" transform="matrix(.67 0 0 .75 39.2 27.5)"/>
    </g>
  </g>
</svg>
