<svg xmlns="http://www.w3.org/2000/svg" id="flag-icon-css-ms" viewBox="0 0 512 512">
  <path fill="#006" d="M0 0h512v512H0z"/>
  <g fill-rule="evenodd">
    <path fill="#fff" d="M281.5 231h201l-.2 144c1.7 57.8-34.1 93.7-100 109.9-47-11.7-101-36-101-108.3l.2-145.7z"/>
    <path fill="#00a2bd" stroke="#000" stroke-width="1pt" d="M44 22.7h169.4l-.2 120.8c1.4 48.6-28.8 78.7-84.3 92.3-39.5-9.8-85-30.2-85-91l.2-122z" transform="matrix(1.135 0 0 1.1421 236 209.3)"/>
    <path fill="#a53d08" d="M476.6 389.6c-7 53-47.5 76-94.4 88.3-41.5-11.2-86.3-29-94.9-88l189.3-.3z"/>
  </g>
  <g fill-rule="evenodd" stroke="#000">
    <path fill="#ffc6b5" stroke-linejoin="round" stroke-width="1.3" d="M155.8 197.2s.6 9.3-4.4 14.9c4.5 1.4 7.5-.3 8.9-2 1.4-1.8 1.9-4.1 1.9-4.1s1.2-.8 1.4-2.5c0-2.3-1-2.3-1.8-2.8l.2-5.2s-5.1-3.1-6.2 1.7z" transform="matrix(1.135 0 0 1.1421 236 209.3)"/>
    <path fill="#ff9a08" stroke-linecap="round" stroke-width="1pt" d="M155.5 210.3l-1.5-1.2" transform="matrix(1.135 0 0 1.1421 236 209.3)"/>
  </g>
  <path fill="#ffc6b5" fill-rule="evenodd" stroke="#000" stroke-width="1pt" d="M141.6 69.4s.2 5.6-.2 6.2c-.4.6-3.6 2-3.6 2l2.8 5.9 7.7-1.1 3.3-8.7s-1.7-2.9-1.3-6c-2.5-8-8.6 1.7-8.7 1.7z" transform="matrix(1.135 0 0 1.1421 236 209.3)"/>
  <path fill="#005121" fill-rule="evenodd" stroke="#000" stroke-linejoin="round" stroke-width="1.3" d="M131.4 203s4.4 4.4 9.3 3.9c11.3-1.3 14.6-11.3 18-11.4s5.7 6 9 5.3a56.2 56.2 0 01-5.4-24.7c.5-8 .5-42 .5-42s-5.6-17.6-8.3-20.5a19 19 0 004.4-13.2V88.9s1.3-1.5 1.2-5.7c-.1-4.2-7.1-10.3-8-10-1 .2-9.9 7.8-10.6 9.6-.8 1.8-1.8-6.5-.1-7.2 1.7-.8-4-1.2-7.5 3-3.6 4.2-2.5 124.7-2.5 124.5z" transform="matrix(1.135 0 0 1.1421 236 209.3)"/>
  <path fill-rule="evenodd" d="M337 260.9h37.6l-.3-17.3 13.7.1.1 17.3h37.4l.1 13.5h-37.5l-.3 159-13.3.1-.2-159.1-37.2.1v-13.8z"/>
  <path fill="#ffc6b5" fill-rule="evenodd" stroke="#000" stroke-width="1pt" d="M122 82s-2.2-.4-4 0 2.7-19.5 2.7-21.2c1.5-.7 9.2-2 9-7.5-.6-3.2-11.8.2-11.6 4.3-.8 2.1-8.1 23.1-6.7 30 2.6 2 7.4 1.7 10.6 1.1V82z" transform="matrix(1.135 0 0 1.1421 236 209.3)"/>
  <path fill="none" stroke="#000" stroke-linecap="round" stroke-width=".6" d="M124.2 53.2s-.6 3.7 2.7 4.3" transform="matrix(1.135 0 0 1.1421 236 209.3)"/>
  <path fill="none" stroke="#000" stroke-width=".4" d="M129.2 53.1l-4.4 2.8m4.1-1.1l-3 2.2m2-4.7l-3.4 2" transform="matrix(1.135 0 0 1.1421 236 209.3)"/>
  <path fill="#ff9a08" fill-rule="evenodd" stroke="#000" stroke-width="1pt" d="M95.5 163.6l30.1 31.2c10.5-11.4 3.2-54.3-10.5-62.1-1.6 5-4.4 11.1-7.4 13-6.5 4.5-22.5 9.7-17.2 13 1.2-1.6 4.4-3.2 6 .5 1.7 6-6.7 6.3-6.7 6.3s-5.4-.6-6.3-6c-1-5.5 8-10.5 8.7-10.9.8-.2 12.4-3.3 14.4-13.7 2.4-10.1 5-8.6 5.4-8.8 15.2 1.5 25.2 28.7 25.7 47.9.6 19.1-7.7 31.8-9.3 32.7-1.5.8-36.2-41.3-36.2-41.3l3.3-1.8z" transform="matrix(1.135 0 0 1.1421 236 209.3)"/>
  <path fill="none" stroke="#000" stroke-width="1pt" d="M117.5 134.4l.1 56.5m-3.5-55.4l.2 51.2m-3.9-43.8l.2 40.8m-3.2-37.9l.2 33.7m-3.4-32.2v28.5m-3.5-26.2V172m-3-20.8v17.3" transform="matrix(1.135 0 0 1.1421 236 209.3)"/>
  <path fill="none" stroke="#ffdf00" stroke-linecap="round" stroke-width="1.3" d="M95 167.1l31.1 35.6m1.5-58s14 30.8 1 56.1m-37.2-40.2s1-2.7 2.3-1.6m-4.8-6.2s-5.6 5-2.5 8.1" transform="matrix(1.135 0 0 1.1421 236 209.3)"/>
  <path fill="none" stroke="#000" stroke-width="1pt" d="M141 83s.5 4.3-.4 7.6 3.5 12.4 1.8 14.3m.5 8.8l11.8-.1" transform="matrix(1.135 0 0 1.1421 236 209.3)"/>
  <path fill="none" stroke="#000" stroke-linecap="round" stroke-width="1pt" d="M138.6 118.5c0 .2 1.4 6.2 1 10.3m2.8-8.2c-.3 1.3-5.2 15.2-5 15.7m8-22c0 .3-.4 8.9-1.7 10.1m7.7-10.7s7.7 17.8 7.6 24.9 2.6 21.3.8 27.6m-6-27.8s-.6 13.2-6.1 18.4c-5.5 5.2 13.2 19.9 13.2 19.9" transform="matrix(1.135 0 0 1.1421 236 209.3)"/>
  <path fill="none" stroke="#000" stroke-linecap="round" stroke-width="1.3" d="M153.6 175.9s2 18.2 5.6 19.5m-22.6-50c.1.1-1.9 12.2-.3 14.2 1.6 2 14.9 20.5 14.3 39.6m-3.7-5.7s-.4 11.6-11.1 12.5m7.9-20s3.2 12-7.7 19.5" transform="matrix(1.135 0 0 1.1421 236 209.3)"/>
  <path fill="none" stroke="#000" stroke-linecap="round" stroke-width="1pt" d="M147.9 156.9s12.3 12.8 12.8 18.4m-9.2-61.3s2.1 9 1.3 10.7" transform="matrix(1.135 0 0 1.1421 236 209.3)"/>
  <path fill="#ffc6b5" fill-rule="evenodd" stroke="#000" stroke-width="1pt" d="M113.5 132.7s-1.3-2.3-1.1-4.9-.5-6.5 7.8-9.7c5-5 10.6-8.1 13.6-9.7 4.5-2.9 7.4-2.2 10-3.2 1.7-2 1.6-6.3 3.5-10.2 1.8-3.9 5-11.9 8.4-10.6 3.5 1.2.8 11.6-.5 15.2s-2.5 7.4-4.8 9.6c-2.3 2.3-12.8 6.3-14.8 7s-11.5 3-13.9 6.2c-2.4 3.3-2.2 8.2-8.2 10.3z" transform="matrix(1.135 0 0 1.1421 236 209.3)"/>
  <path fill="none" stroke="#000" stroke-width="1pt" d="M112.8 125.8c.3-.1 4.2-1.3 6 2.1" transform="matrix(1.135 0 0 1.1421 236 209.3)"/>
  <path fill="#ffc6b5" fill-rule="evenodd" stroke="#000" stroke-linejoin="round" stroke-width="1.3" d="M142 55.2s-1.8 2.8-2.3 4.6c-.4 1.3-1.6-.1-2.2 2.7l1 .2c-.4.8-.5 2.2-.6 2.5-.1.3-.7 1.8-.6 3 0 .5 1.1 3 10.1-.8s-2.9-14.8-5.5-12.2z" transform="matrix(1.135 0 0 1.1421 236 209.3)"/>
  <path fill="#c59200" fill-rule="evenodd" stroke="#000" stroke-linecap="round" stroke-linejoin="round" stroke-width="1.3" d="M140.9 55.6c1-.5 7.5-1.1 6.4 11.7 1.2-.2 2-.4 2.7.9.8 1.2.7 2.7 2 2.7 1.4 0 1.5-.3 1.9-1.3.3-1 5.5 1.2 6.9-3.4-.3-1-3.2-2.3-3.6-4 .8-2.3-.3-9.8-9.9-10.2-4.9 0-5.9 2-6.4 3.6z" transform="matrix(1.135 0 0 1.1421 236 209.3)"/>
  <path fill="none" stroke="#000" stroke-linecap="round" stroke-width="1pt" d="M140.4 58.1c.1.1 3 1 3.3 2.3" transform="matrix(1.135 0 0 1.1421 236 209.3)"/>
  <path fill-rule="evenodd" d="M397.3 279.6c0 .5-.3.9-.8.9s-.9-.4-.9-1 .4-.8.9-.8.8.4.8.9z"/>
  <path fill="none" stroke="#000" stroke-linecap="round" stroke-linejoin="round" stroke-width="1.3" d="M154.4 61.5s-1 5.1 3.6 7.1m-7-6.4s1.7 0 1.7 1.6c0 1.7-1.4 1.9-1.3 3.1 0 1.3 2.4 1.8 2.5 2.8m-10.5-16.9s8.2 1 7.8 3c-.5 2-1.8 1.2-1.7 3s3.2.6 3.2.6.2-1.4 1.6-1.3.7 1.6 2.6 1.6" transform="matrix(1.135 0 0 1.1421 236 209.3)"/>
  <path fill="none" stroke="#000" stroke-linecap="round" stroke-width="1.3" d="M138.4 65.5l2-.1" transform="matrix(1.135 0 0 1.1421 236 209.3)"/>
  <path fill="none" stroke="#000" stroke-linecap="round" stroke-width="1pt" d="M143.4 73.7s.8 3.4-2 3" transform="matrix(1.135 0 0 1.1421 236 209.3)"/>
  <g stroke-width="1pt">
    <path fill="#fff" d="M0 0v21.2l256 168.3h32.2v-21.2L32.2.1H0zm288.2 0v21.2l-256 168.3H0v-21.2L256 .1h32.2z"/>
    <path fill="#fff" d="M120 0v189.5h48.1V.1h-48zM0 63.3v63.2h288.2V63.2H0z"/>
    <path fill="#c00" d="M0 75.8v38h288.2v-38H0zM129.7.1v189.4h28.8V.1h-28.8zM0 189.5l96-63.1h21.5l-96 63.1H0zM0 .1l96 63.1H74.7L0 14.2V.1zm170.6 63.1L266.7.1h21.5L192 63.2h-21.5zm117.6 126.3l-96-63.1h21.4l74.6 49v14.1z"/>
  </g>
</svg>
