<svg xmlns="http://www.w3.org/2000/svg" id="flag-icons-my" viewBox="0 0 512 512">
  <path id="rect2186" d="M0 0h512v512H0z" style="fill:#c00;fill-opacity:1;stroke:none;stroke-width:.92376"/>
  <path id="rect2188-1" d="M.4 42.5h511.2v41H.4z" style="fill:#fff;fill-opacity:1;stroke:none;stroke-width:.904416"/>
  <path id="rect2188-1-9" d="M.4 126.5h511.2v41H.4z" style="fill:#fff;fill-opacity:1;stroke:none;stroke-width:.904416"/>
  <path id="rect2188-1-9-1" d="M.4 210.6h511.2v41H.4z" style="fill:#fff;fill-opacity:1;stroke:none;stroke-width:.904416"/>
  <path id="path837" fill="#006" d="M0 0h256v298.7H0Z" style="stroke-width:.0528079"/>
  <path id="path841" fill="#fc0" d="m172.5 86.8 5.6 38.2 21.6-32-11.6 36.8 33.3-19.4-26.4 28.1 38.5-3-36 13.8 36 14-38.5-3.1 26.4 28L188 169l11.6 36.7-21.6-31.9-5.6 38.1-5.6-38-21.5 31.8 11.5-36.7-33.2 19.4 26.3-28.1-38.4 3 36-13.9-36-13.9 38.4 3.1-26.3-28.1 33.2 19.4L145.4 93l21.5 32zm-31.2 1.6a66.7 66.7 0 1 0 0 121.9 75 75 0 1 1 0-121.9z" style="stroke-width:.0520834"/>
  <path id="rect2188-1-9-1-4" d="M.4 294.6h511.2v41H.4z" style="fill:#fff;fill-opacity:1;stroke:none;stroke-width:.904416"/>
  <path id="rect2188-1-9-1-4-4" d="M.4 378.1h511.2v41H.4z" style="fill:#fff;fill-opacity:1;stroke:none;stroke-width:.904416"/>
  <path id="rect2188-1-9-1-4-4-6" d="M0 471h511.2v41H0z" style="fill:#fff;fill-opacity:1;stroke:none;stroke-width:.904416"/>
</svg>
