<svg xmlns="http://www.w3.org/2000/svg" id="flag-icon-css-tv" viewBox="0 0 512 512">
  <defs>
    <clipPath id="a">
      <path fill-opacity=".7" d="M0 0h512v512H0z"/>
    </clipPath>
  </defs>
  <g clip-path="url(#a)">
    <path fill="#fff" fill-rule="evenodd" d="M0-2.2h257.8v128H0z"/>
    <path fill="#c00" d="M0-2.2v9.6L61.5 39l23.2.7L0-2.3z"/>
    <path fill="#006" d="M26.3-2.2l74.6 39v-39H26.3z"/>
    <path fill="#c00" d="M110.9-2.2v49.7H0v28.4h110.9v49.7H145V76h110.9V47.5H145V-2.2h-34.1z"/>
    <path fill="#006" d="M155-2.2v36.7L227.8-2l-73-.3z"/>
    <path fill="#c00" d="M157.2 38.5l20.6-.2L257.5-2l-21.2.4-79 40z"/>
    <path fill="#006" d="M0 84.2v27.2l51.2-26.9L0 84.2z"/>
    <path fill="#c00" d="M197 85.3l-21.3-.1 80.4 40-.5-9.2L197 85.3zM20 126l75.4-39.6-19.8.1L0 125.8"/>
    <path fill="#006" d="M257 9l-61 30.2 60.1.2v45H205l50.7 27.5.8 14-27-.3-74.2-36.4v36.7h-54V89.2l-69.5 36.6H.3v128H512V-2l-254.5-.2M.3 12.2L0 38.8l53.9.7L.3 12.2z"/>
    <g fill="#009fca" fill-rule="evenodd" stroke-width="1pt">
      <path d="M256-2.2h256v256H256z"/>
      <path d="M0 125.8h270.1v128H0z"/>
    </g>
    <g fill="#009fca" fill-rule="evenodd" stroke-width="1pt" transform="translate(0 258.9) scale(.51604)">
      <path d="M506-19.8h486V496H506z"/>
      <rect width="523.5" height="521.4" y="-25.3" ry="0"/>
    </g>
    <path fill="#fff40d" fill-rule="evenodd" stroke-width="1pt" d="M478 226.3l7.1 20.4-18.4-12.6-18.5 12.6 7.1-20.4-18.5-12.6h22.9l7-20.4 7 20.4h22.8zm-57.2 162.8l7 20.4-18.4-12.7-18.4 12.7 7-20.4-18.4-12.7h22.8l7-20.4 7 20.5h22.9zm57.3-36.9l7 20.4-18.4-12.6-18.5 12.6 7.1-20.4-18.5-12.6h22.9l7-20.4 7 20.4h22.8zm-246.2 118l7.1 20.5-18.4-12.7-18.5 12.7 7.1-20.4-18.5-12.6h22.8l7-20.4 7.1 20.4h22.8zm43.1-88.4l-7-20.4 18.4 12.6 18.4-12.6-7 20.4 18.4 12.6h-22.8l-7 20.4-7-20.4h-22.8zm67.3-93l-7.1-20.4 18.4 12.6 18.5-12.6-7 20.4 18.4 12.6h-22.8l-7 20.4-7-20.4h-22.9zm56.5-19.3l-7-20.4 18.4 12.6 18.4-12.6-7 20.4 18.4 12.6h-22.8l-7 20.4-7-20.4h-22.9zm-56.5 161l-7.1-20.4 18.4 12.6 18.5-12.6-7 20.4 18.4 12.6h-22.8l-7 20.4-7-20.4h-22.9zM275 446.9l-7-20.4 18.4 12.6 18.4-12.6-7 20.4 18.4 12.6h-22.8l-7 20.4-7-20.4h-22.8z"/>
  </g>
</svg>
