<?xml version="1.0"?>
<svg xmlns="http://www.w3.org/2000/svg" height="512px" viewBox="1 1 1102.97 1102.97" width="512px" class=""><g><path d="m386.050781 147.066406c0-40.609375 32.921875-73.53125 73.53125-73.53125h183.832031c40.613282 0 73.535157 32.921875 73.535157 73.53125v91.917969h55.148437v-110.300781c0-60.917969-49.382812-110.300782-110.300781-110.300782h-220.597656c-60.914063 0-110.300781 49.382813-110.300781 110.300782v110.300781h55.152343zm0 0" fill="#ffd6a0" data-original="#FFD6A0" class="active-path" data-old_color="#ffd6a0" style="fill:#F13752"/><path d="m643.417969 73.53125h-183.835938c-40.609375 0-73.53125 32.921875-73.53125 73.535156v91.917969h330.898438v-91.917969c0-40.613281-32.921875-73.535156-73.53125-73.535156zm0 0" fill="#fff" data-original="#FFF" class="" data-old_color="#fff" style="fill:#FFFFFF"/><path d="m790.484375 238.984375h-477.96875c-162.445313 0-294.132813 131.6875-294.132813 294.132813v551.5h1066.234376v-551.5c0-162.445313-131.6875-294.132813-294.132813-294.132813zm-238.984375 735.332031c-142.140625 0-257.367188-115.226562-257.367188-257.367187s115.226563-257.367188 257.367188-257.367188 257.367188 115.226563 257.367188 257.367188-115.226563 257.367187-257.367188 257.367187zm0 0" fill="#ffd6a0" data-original="#FFD6A0" class="active-path" data-old_color="#ffd6a0" style="fill:#F13752"/><path d="m551.5 459.582031c-142.140625 0-257.367188 115.230469-257.367188 257.367188 0 142.140625 115.226563 257.367187 257.367188 257.367187s257.367188-115.226562 257.367188-257.367187c0-142.136719-115.226563-257.367188-257.367188-257.367188zm147.066406 294.132813h-110.300781v110.300781h-73.53125v-110.300781h-110.300781v-73.53125h110.300781v-110.300782h73.53125v110.300782h110.300781zm0 0" fill="#ffc170" data-original="#FFC170" class="" data-old_color="#ffc170" style="fill:#FFFFFF"/><path d="m588.265625 569.882812h-73.53125v110.300782h-110.300781v73.53125h110.300781v110.300781h73.53125v-110.300781h110.300781v-73.53125h-110.300781zm0 0" fill="#ff734f" data-original="#FF734F" class="" data-old_color="#ff734f" style="fill:#F70101"/><g fill="#231f20"><path d="m790.484375 220.601562v-91.917968c-.082031-71.035156-57.648437-128.6015628-128.683594-128.683594h-220.601562c-71.035157.0820312-128.601563 57.648438-128.683594 128.683594v91.917968c-172.519531.191407-312.324219 139.996094-312.515625 312.515626v551.5c0 10.152343 8.230469 18.382812 18.382812 18.382812h1066.234376c10.152343 0 18.382812-8.230469 18.382812-18.382812v-551.5c-.191406-172.519532-140-312.324219-312.515625-312.515626zm-441.199219-91.917968c.058594-50.738282 41.175782-91.855469 91.914063-91.917969h220.601562c50.738281.0625 91.855469 41.179687 91.914063 91.917969v91.917968h-18.382813v-73.535156c-.058593-50.738281-41.175781-91.855468-91.914062-91.914062h-183.835938c-50.738281.058594-91.855469 41.175781-91.914062 91.914062v73.535156h-18.382813zm55.148438 91.917968v-73.535156c0-30.457031 24.691406-55.148437 55.148437-55.148437h183.832031c30.460938 0 55.152344 24.691406 55.152344 55.148437v73.535156zm661.800781 845.632813h-1029.46875v-533.117187c.171875-152.222657 123.53125-275.578126 275.75-275.75h477.96875c152.21875.171874 275.578125 123.527343 275.75 275.75zm0 0" data-original="#231F20" class="" style="fill:#231F20"/><path d="m698.566406 661.800781h-91.917968v-91.917969c0-10.152343-8.230469-18.382812-18.382813-18.382812h-73.53125c-10.15625 0-18.386719 8.230469-18.386719 18.382812v91.917969h-91.914062c-10.152344 0-18.382813 8.230469-18.382813 18.382813v73.53125c0 10.15625 8.230469 18.386718 18.382813 18.386718h91.914062v91.914063c0 10.152344 8.230469 18.382813 18.386719 18.382813h73.53125c10.152344 0 18.382813-8.230469 18.382813-18.382813v-91.914063h91.917968c10.152344 0 18.382813-8.230468 18.382813-18.386718v-73.53125c0-10.152344-8.230469-18.382813-18.382813-18.382813zm-18.382812 73.53125h-91.917969c-10.152344 0-18.382813 8.230469-18.382813 18.382813v91.917968h-36.765624v-91.917968c0-10.152344-8.230469-18.382813-18.386719-18.382813h-91.914063v-36.765625h91.914063c10.15625 0 18.386719-8.230468 18.386719-18.382812v-91.917969h36.765624v91.917969c0 10.152344 8.230469 18.382812 18.382813 18.382812h91.917969zm0 0" data-original="#231F20" class="" style="fill:#231F20"/><path d="m551.5 441.199219c-152.292969 0-275.75 123.457031-275.75 275.75s123.457031 275.75 275.75 275.75 275.75-123.457031 275.75-275.75c-.171875-152.222657-123.527344-275.578125-275.75-275.75zm0 514.734375c-131.988281 0-238.984375-106.996094-238.984375-238.984375 0-131.984375 106.996094-238.984375 238.984375-238.984375s238.984375 107 238.984375 238.984375c-.152344 131.925781-107.0625 238.832031-238.984375 238.984375zm0 0" data-original="#231F20" class="" style="fill:#231F20"/></g></g> </svg>
