<svg height="512pt" viewBox="-23 0 512 512" width="512pt" xmlns="http://www.w3.org/2000/svg"><path d="m384.222656 411.625c-3.859375-7.601562-.824218-16.894531 6.777344-20.753906l27.125-13.769532 13.976562 27.53125-27.125 13.769532c-7.601562 3.859375-16.894531.824218-20.753906-6.777344zm0 0" fill="#dae5ea"/><path d="m423.59375 408.414062c11.300781 1.113282 21.367188-7.148437 22.476562-18.453124l9.242188-93.996094-40.933594-4.023438-9.242187 93.996094c-1.109375 11.300781 7.152343 21.367188 18.457031 22.476562zm0 0" fill="#c9d1d3"/><path d="m448.195312 319.402344c10.667969-7.949219 12.875-23.039063 4.925782-33.707032l-60.046875-80.460937-38.632813 28.78125 60.046875 80.460937c7.949219 10.667969 23.039063 12.871094 33.707031 4.925782zm0 0" fill="#dae5ea"/><path d="m413.652344 197.320312-135.378906.613282v81.933594l111.589843-22.710938c26.621094-8.472656 37.324219-35.398438 23.789063-59.835938zm0 0" fill="#465058"/><path d="m81.171875 411.625c3.863281-7.601562.828125-16.894531-6.777344-20.753906l-27.121093-13.769532-13.976563 27.53125 27.121094 13.769532c7.601562 3.859375 16.894531.824218 20.753906-6.777344zm0 0" fill="#dae5ea"/><path d="m41.804688 408.414062c-11.304688 1.113282-21.367188-7.148437-22.476563-18.453124l-9.242187-93.996094 40.929687-4.023438 9.242187 93.996094c1.113282 11.300781-7.148437 21.367188-18.453124 22.476562zm0 0" fill="#c9d1d3"/><path d="m17.203125 319.402344c-10.667969-7.949219-12.875-23.039063-4.925781-33.707032l60.046875-80.460937 38.632812 28.78125-60.046875 80.460937c-7.949218 10.667969-23.039062 12.871094-33.707031 4.925782zm0 0" fill="#dae5ea"/><path d="m51.746094 197.320312 135.378906.613282v81.933594l-111.589844-22.710938c-26.621094-8.472656-37.328125-35.398438-23.789062-59.835938zm0 0" fill="#465058"/><path d="m232.699219 504.5c-25.640625 0-46.425781-20.785156-46.425781-46.425781v-88.65625h92.851562v88.65625c0 25.640625-20.785156 46.425781-46.425781 46.425781zm0 0" fill="#465058"/><path d="m221.269531 369.414062v127.757813c0 1.972656-.121093 3.914063-.359375 5.816406 3.765625.988281 7.714844 1.511719 11.789063 1.511719 25.640625 0 46.425781-20.785156 46.425781-46.425781v-88.65625h-57.855469zm0 0" fill="#323e44"/><path d="m208.238281 135.101562h48.921875v95.445313h-48.921875zm0 0" fill="#64717a"/><path d="m300.199219 164.128906h-135.003907c-23.382812 0-42.34375-18.957031-42.34375-42.347656v-71.9375c0-23.382812 18.957032-42.34375 42.34375-42.34375h135.003907c23.386719 0 42.347656 18.957031 42.347656 42.34375v71.9375c-.003906 23.386719-18.960937 42.347656-42.347656 42.347656zm0 0" fill="#dae5ea"/><path d="m300.199219 7.5h-15.511719v156.628906h15.511719c23.386719 0 42.34375-18.957031 42.34375-42.347656v-71.9375c0-23.386719-18.957031-42.34375-42.34375-42.34375zm0 0" fill="#c9d1d3"/><path d="m300.859375 38.832031h-136.320313c-8.324218 0-15.070312 6.746094-15.070312 15.066407v107.199218c4.863281 1.949219 10.167969 3.03125 15.726562 3.03125h135.003907c5.5625 0 10.863281-1.082031 15.730469-3.03125v-107.199218c0-8.320313-6.75-15.066407-15.070313-15.066407zm0 0" fill="#59c7d3"/><path d="m300.859375 38.832031h-42.785156v125.296875h42.125c5.5625 0 10.863281-1.082031 15.730469-3.03125v-107.199218c0-8.320313-6.75-15.066407-15.070313-15.066407zm0 0" fill="#44b6bc"/><path d="m306.015625 414.019531h-146.632813c-10.203124 0-18.835937-7.539062-20.203124-17.648437l-23.761719-175.355469c-1.660157-12.238281 7.855469-23.125 20.203125-23.125h194.152344c12.351562 0 21.863281 10.886719 20.207031 23.125l-23.761719 175.355469c-1.371094 10.109375-10 17.648437-20.203125 17.648437zm0 0" fill="#dae5ea"/><path d="m329.777344 197.890625h-35.40625l-29.289063 216.132813h40.933594c10.203125 0 18.832031-7.542969 20.203125-17.652344l23.761719-175.355469c1.65625-12.234375-7.855469-23.125-20.203125-23.125zm0 0" fill="#c9d1d3"/><path d="m282.515625 317.820312h-99.632813c-5.945312 0-10.765624-4.820312-10.765624-10.765624v-54.378907c0-5.945312 4.820312-10.765625 10.765624-10.765625h99.632813c5.945313 0 10.765625 4.820313 10.765625 10.765625v54.378907c0 5.945312-4.820312 10.765624-10.765625 10.765624zm0 0" fill="#e3f6ff"/><path d="m282.515625 241.910156h-47.089844v75.910156h47.089844c5.945313 0 10.765625-4.820312 10.765625-10.765624v-54.378907c0-5.945312-4.820312-10.765625-10.765625-10.765625zm0 0" fill="#cee8f2"/><path d="m263.070312 258.992188h-60.746093c-4.140625 0-7.5 3.359374-7.5 7.5 0 4.140624 3.359375 7.5 7.5 7.5h60.746093c4.144532 0 7.5-3.359376 7.5-7.5 0-4.140626-3.355468-7.5-7.5-7.5zm0 0"/><path d="m263.070312 285.738281h-60.746093c-4.140625 0-7.5 3.359375-7.5 7.5 0 4.144531 3.359375 7.5 7.5 7.5h60.746093c4.144532 0 7.5-3.355469 7.5-7.5 0-4.140625-3.355468-7.5-7.5-7.5zm0 0"/><path d="m279.027344 74.898438h-46.328125c-4.140625 0-7.5 3.359374-7.5 7.5 0 4.144531 3.359375 7.5 7.5 7.5h46.328125c4.144531 0 7.5-3.355469 7.5-7.5 0-4.140626-3.355469-7.5-7.5-7.5zm0 0"/><path d="m197.714844 74.898438h-11.34375c-4.144532 0-7.5 3.359374-7.5 7.5 0 4.144531 3.355468 7.5 7.5 7.5h11.34375c4.140625 0 7.5-3.355469 7.5-7.5 0-4.140626-3.359375-7.5-7.5-7.5zm0 0"/><path d="m182.882812 234.410156c-10.074218 0-18.265624 8.195313-18.265624 18.269532v54.375c0 10.074218 8.191406 18.265624 18.265624 18.265624h99.632813c10.070313 0 18.265625-8.191406 18.265625-18.265624v-54.375c0-10.074219-8.191406-18.269532-18.265625-18.269532zm102.898438 18.265625v54.378907c0 1.800781-1.464844 3.265624-3.265625 3.265624h-99.632813c-1.800781 0-3.269531-1.464843-3.269531-3.265624v-54.378907c0-1.800781 1.464844-3.265625 3.269531-3.265625h99.632813c1.800781 0 3.265625 1.464844 3.265625 3.265625zm0 0"/><path d="m459.132812 281.210938-34.804687-46.640626c4.714844-13.09375 3.273437-27.550781-4.113281-40.886718-1.332032-2.402344-3.875-3.898438-6.613282-3.863282l-83.875.570313h-65.066406v-18.761719h35.539063c6.507812 0 12.730469-1.257812 18.4375-3.535156.058593-.023438.121093-.050781.183593-.074219 18.285157-7.390625 31.222657-25.332031 31.222657-46.238281v-71.9375c0-27.484375-22.359375-49.84375-49.84375-49.84375h-135.003907c-27.480468 0-49.84375 22.359375-49.84375 49.84375v71.9375c0 20.933594 12.96875 38.890625 31.292969 46.265625.035157.011719.066407.027344.097657.039063 5.710937 2.285156 11.9375 3.542968 18.453124 3.542968h35.542969v18.761719h-65.066406l-83.875-.570313c-2.757813 0-5.28125 1.464844-6.613281 3.867188-7.386719 13.335938-8.828125 27.792969-4.113282 40.882812l-34.808593 46.644532c-5.039063 6.765625-7.144531 15.089844-5.921875 23.4375.621094 4.25 2.0625 8.246094 4.226562 11.8125l7.296875 74.230468c.734375 7.457032 4.328125 14.1875 10.121094 18.945313 4.910156 4.03125 10.902344 6.238281 17.15625 6.371094l17.882813 9.078125c3.320312 1.683594 6.859374 2.480468 10.347656 2.480468.261718 0 .523437-.003906.789062-.011718l6.148438 13.953125c2.050781 4.660156 6.679687 7.5625 11.617187 7.5625.894531 0 1.800781-.09375 2.703125-.292969l16.359375-3.59375c4.046875-.886719 6.605469-4.886719 5.714844-8.933594-.886719-4.042968-4.886719-6.605468-8.933594-5.714844l-14.503906 3.183594-5.085937-11.539062c2.292968-1.925782 4.246093-4.332032 5.683593-7.164063 1.332031-2.625 2.109375-5.390625 2.378907-8.15625l12-2.636719 5.988281 13.585938c1.238281 2.808594 3.984375 4.480469 6.867187 4.480469 1.007813 0 2.035156-.207031 3.019532-.640625 3.792968-1.667969 5.511718-6.097656 3.839843-9.886719l-6.753906-15.328125c-2.425781-5.503906-8.449219-8.558594-14.320313-7.269531l-14.15625 3.109375c-2.128906-3.34375-5.152343-6.175782-8.933593-8.097656l-10.703125-5.429688-6.378906-64.871094 33.746093-45.21875 20.410157 4.152344 16.878906 124.566406c1.863281 13.761719 13.746094 24.144532 27.636718 24.144532h19.390626v36.550781c0 29.734375 24.191406 53.925781 53.925781 53.925781s53.925781-24.191406 53.925781-53.925781v-36.550781h19.390625c13.890625 0 25.769531-10.382813 27.636719-24.144532l3.226562-23.808594c.554688-4.101562-2.320312-7.882812-6.425781-8.4375-4.101563-.5625-7.882813 2.316407-8.4375 6.425782l-3.226563 23.804687c-.863281 6.363281-6.355468 11.160157-12.773437 11.160157h-146.632813c-6.417968 0-11.910156-4.796876-12.773437-11.160157l-23.761719-175.355469c-.503906-3.738281.582032-7.367187 3.066406-10.207031 2.484376-2.84375 5.933594-4.410156 9.707032-4.410156h194.152344c3.777343 0 7.226562 1.566406 9.707031 4.410156 2.484375 2.839844 3.574219 6.46875 3.066406 10.210938l-15.828125 116.824219c-.558594 4.105468 2.320312 7.882812 6.421875 8.441406 4.101563.550781 7.882813-2.320313 8.441406-6.425782l8.945313-66.035156 20.410156-4.15625 33.75 45.222656-6.378906 64.867188-10.703125 5.433594c-3.710938 1.882812-6.769531 4.671875-8.949219 8.09375l-14.140625-3.105469c-5.871094-1.289063-11.894531 1.765625-14.320313 7.269531l-6.753906 15.328125c-1.667968 3.789063.050782 8.214844 3.839844 9.886719.984375.433594 2.011719.640625 3.019531.640625 2.882813 0 5.632813-1.671875 6.867188-4.480469l5.988281-13.585937 11.992188 2.632812c.273437 2.808594 1.074218 5.566407 2.390624 8.160157 1.4375 2.832031 3.386719 5.238281 5.679688 7.164062l-5.085938 11.539062-14.503906-3.183593c-4.058594-.890625-8.042968 1.671875-8.933594 5.714843-.890624 4.046876 1.671876 8.046876 5.714844 8.933594l16.359375 3.59375c.902344.199219 1.808594.292969 2.703125.292969 4.9375 0 9.566406-2.902344 11.617188-7.5625l6.152344-13.953125c.261718.007812.523437.011719.785156.011719 3.488281 0 7.027344-.796875 10.347656-2.480469l17.886719-9.082031c13.976562-.320313 25.871093-11.058594 27.273437-25.316407l7.300782-74.265624c6.429687-10.667969 6.1875-24.628907-1.703126-35.21875zm-409.242187 115.027343c-2.214844 2.699219-5.347656 4.371094-8.820313 4.710938-.1875.019531-.375.035156-.5625.042969-.011718 0-.019531 0-.03125.003906-3.265624.171875-6.429687-.859375-8.972656-2.949219-2.699218-2.214844-4.371094-5.347656-4.714844-8.820313l-5.835937-59.382812c3.378906 1.210938 6.945313 1.835938 10.570313 1.835938 1.539062 0 3.085937-.113282 4.636718-.339844 3.863282-.5625 7.523438-1.8125 10.835938-3.660156l5.558594 56.515624c.003906.070313.011718.140626.019531.207032l.222656 2.269531c.339844 3.472656-.691406 6.871094-2.90625 9.566406zm11.59375 9.519531c2.527344-3.078124 4.335937-6.582031 5.367187-10.304687l4.148438 2.105469c.320312.160156.621094.339844.90625.539062-.871094 1.546875-1.199219 3.414063-.789062 5.289063.453124 2.070312 1.726562 3.753906 3.398437 4.78125-.007813.019531-.019531.042969-.03125.0625-.132813.265625-.285156.523437-.445313.769531-1.808593-.726562-3.898437-.753906-5.820312.097656-1.488281.65625-2.65625 1.734375-3.425781 3.035156-.332031-.117187-.65625-.253906-.976563-.417968l-5.414062-2.75c1.097656-.976563 2.128906-2.046875 3.082031-3.207032zm-16.589844-95.761718c-2.648437 3.554687-6.519531 5.863281-10.902343 6.503906-4.386719.636719-8.757813-.464844-12.308594-3.113281-1.390625-1.035157-2.589844-2.253907-3.570313-3.621094-.078125-.117187-.160156-.234375-.242187-.347656-1.398438-2.050781-2.320313-4.40625-2.691406-6.933594-.640626-4.382813.464843-8.753906 3.109374-12.300781l30.945313-41.46875c6 7.09375 14.199219 12.460937 24.023437 15.589844.257813.082031.515626.148437.78125.203124l4.171876.847657zm48.050781-56.949219c-.097656-.023437-.195312-.042969-.292968-.0625l-15.210938-3.09375c-9.6875-3.175781-17.042968-9.28125-20.96875-17.34375-.042968-.101563-.089844-.199219-.140625-.296875-.277343-.589844-.539062-1.1875-.78125-1.796875-3.179687-7.996094-2.859375-16.953125.84375-25.601563l54.582031.371094c-2.703124 5.105469-3.78125 10.972656-2.992187 16.800782l4.75 35.050781zm100.828126 168.472656h77.851562v36.554688c0 21.460937-17.460938 38.925781-38.925781 38.925781-21.464844 0-38.925781-17.464844-38.925781-38.925781zm-51.804688-367.621093v93.835937c-7.125-6.382813-11.617188-15.652344-11.617188-25.949219v-71.941406c0-19.210938 15.632813-34.84375 34.84375-34.84375h135.003907c19.214843 0 34.84375 15.632812 34.84375 34.84375v71.9375c0 10.300781-4.488281 19.566406-11.613281 25.953125v-93.835937c0-12.445313-10.125-22.566407-22.570313-22.566407h-136.320313c-12.445312 0-22.570312 10.121094-22.570312 22.566407zm23.226562 102.730468c-2.832031 0-5.585937-.34375-8.226562-.984375v-101.746093c0-4.171876 3.394531-7.566407 7.570312-7.566407h136.320313c4.171875 0 7.566406 3.394531 7.566406 7.566407v101.746093c-2.636719.640625-5.394531.984375-8.226562.984375zm84.464844 33.761719h-33.921875v-18.761719h33.921875zm122.777344 62.65625-19.773438 4.027344 4.746094-35.050781c.792969-5.828126-.285156-11.699219-2.992187-16.800782l54.585937-.371094c3.703125 8.648438 4.023438 17.605469.84375 25.601563-.246094.617187-.511718 1.222656-.792968 1.820313-.042969.082031-.082032.167968-.121094.25-3.921875 8.078124-11.28125 14.1875-20.976563 17.367187l-15.191406 3.089844c-.109375.019531-.21875.042969-.328125.066406zm29.144531 158.667969c-.320312.164062-.644531.300781-.976562.417968-.769531-1.300781-1.9375-2.378906-3.425781-3.035156-1.921876-.851562-4.011719-.824218-5.820313-.09375-.164063-.246094-.3125-.503906-.449219-.773437-.007812-.019531-.019531-.039063-.027344-.058594 1.671876-1.03125 2.941407-2.710937 3.398438-4.785156.410156-1.875.082031-3.738281-.792969-5.289063.289063-.195312.589844-.375.90625-.539062l4.148438-2.105469c1.03125 3.726563 2.84375 7.230469 5.367187 10.304687.953125 1.160157 1.984375 2.230469 3.085938 3.210938zm37.027344-22.488282c-.34375 3.472657-2.015625 6.605469-4.714844 8.820313-2.695312 2.214844-6.085937 3.242187-9.566406 2.90625-3.476563-.34375-6.605469-2.015625-8.820313-4.714844-2.214843-2.695312-3.246093-6.09375-2.90625-9.566406l.230469-2.328125c.003907-.019531.003907-.039062.003907-.058594l5.566406-56.601562c3.3125 1.847656 6.96875 3.09375 10.835937 3.660156 1.550781.226562 3.097657.335938 4.632813.335938 3.628906 0 7.195312-.625 10.574218-1.835938zm5.105469-75.839843c-3.554688 2.648437-7.921875 3.75-12.308594 3.113281-4.382812-.640625-8.257812-2.949219-10.90625-6.507812l-2.03125-2.726563c-.011719-.011719-.023438-.027344-.035156-.042969l-31.246094-41.867187 4.171875-.851563c.265625-.050781.523437-.121094.777344-.199218 9.828125-3.128907 18.027343-8.496094 24.027343-15.589844l30.941407 41.460937c5.464843 7.335938 3.945312 17.746094-3.390625 23.210938zm0 0"/></svg>