<svg id="Layer_1" enable-background="new 0 0 512 512" height="512" viewBox="0 0 512 512" width="512" xmlns="http://www.w3.org/2000/svg"><g><path d="m80 256c0-120.176 89.826-219.372 206-234.11-9.824-1.247-19.837-1.89-30-1.89-130.339 0-236 105.661-236 236s105.661 236 236 236c10.163 0 20.176-.643 30-1.89-116.174-14.738-206-113.934-206-234.11z" fill="#cee1f2"/><path d="m256 512c-68.38 0-132.667-26.629-181.02-74.98-48.351-48.353-74.98-112.64-74.98-181.02s26.629-132.667 74.98-181.02c48.353-48.351 112.64-74.98 181.02-74.98s132.667 26.629 181.02 74.98c48.351 48.353 74.98 112.64 74.98 181.02s-26.629 132.667-74.98 181.02c-48.353 48.351-112.64 74.98-181.02 74.98zm0-472c-119.103 0-216 96.897-216 216s96.897 216 216 216 216-96.897 216-216-96.897-216-216-216z" fill="#1428bf"/><path d="m254.39 385.939c-33.291 0-66.581-12.672-91.924-38.015-24.555-24.554-38.077-57.2-38.077-91.924s13.522-67.37 38.077-91.924c50.686-50.686 133.16-50.687 183.848 0 7.81 7.811 7.811 20.474 0 28.284s-20.474 7.811-28.284 0c-35.092-35.09-92.188-35.092-127.28 0-16.998 16.999-26.36 39.6-26.36 63.64s9.362 46.641 26.36 63.64c35.092 35.092 92.188 35.09 127.28 0 7.81-7.81 20.473-7.811 28.284 0s7.81 20.474 0 28.284c-25.344 25.343-58.634 38.015-91.924 38.015z" fill="#ff5cf0"/></g></svg>