<?xml version="1.0" encoding="iso-8859-1"?>
<!-- Generator: Adobe Illustrator 19.0.0, SVG Export Plug-In . SVG Version: 6.00 Build 0)  -->
<svg version="1.1" id="Capa_1" xmlns="http://www.w3.org/2000/svg" xmlns:xlink="http://www.w3.org/1999/xlink" x="0px" y="0px"
	 viewBox="0 0 511.999 511.999" style="enable-background:new 0 0 511.999 511.999;" xml:space="preserve">
<path style="fill:#89C947;" d="M476.656,299.96h-60.289c-8.533,3.372-17.716,5.239-27.286,5.239c-9.569,0-18.753-1.867-27.286-5.239
	h-25.791c-3.365,6.254-9.969,10.506-17.569,10.506h-5.214c-7.009,22.087-23.007,40.682-43.443,49.819h24.767
	c22.795,0,41.341,18.545,41.341,41.342v26.585c0.167-0.007,0.33-0.025,0.499-0.025h9.834c6.667,0.002,12.071,5.421,12.071,12.111
	c0,4.371,0,36.897,0,41.267c0,6.69-5.403,12.113-12.071,12.109l-9.834,0.004c-0.169,0-0.332-0.018-0.499-0.025v6.041
	c0,2.655-2.149,4.807-4.807,4.807h155.556c2.755,0,4.989-2.234,4.989-4.989V314.926C491.622,306.674,484.91,299.96,476.656,299.96z"
	/>
<path style="fill:#A2DFF9;" d="M147.444,499.693v-10.546c-5.431-0.661-9.645-5.293-9.645-10.922c0-3.973,0-33.542,0-37.514
	c0-5.631,4.212-10.266,9.645-10.923v-28.163c0-7.504,2.02-14.542,5.529-20.615c-3.956-2.81-8.785-4.469-13.996-4.469h-7.428
	c-7.721,3.27-16.09,5.104-24.842,5.104c-8.753,0-17.123-1.834-24.844-5.104H67.245c-13.363,0-24.236,10.871-24.236,24.234v98.876
	c0,2.677,2.17,4.846,4.849,4.846h104.395C149.596,504.5,147.444,502.348,147.444,499.693z"/>
<path style="opacity:0.1;enable-background:new    ;" d="M83.16,377.082c-0.436-0.173-0.866-0.356-1.297-0.539H67.245
	c-13.363,0-24.236,10.871-24.236,24.234v98.876c0,2.677,2.17,4.846,4.849,4.846h20.991c-2.678,0-4.849-2.169-4.849-4.846v-98.876
	C64,389.156,72.226,379.423,83.16,377.082z"/>
<path style="fill:#FFB98A;" d="M106.707,381.648c-6.423,0-12.636-0.998-18.544-2.812v6.986c0,10.372,8.408,18.782,18.782,18.782
	c10.373,0,18.781-8.41,18.781-18.782v-7.138C119.677,380.593,113.303,381.648,106.707,381.648z"/>
<path style="fill:#F7931E;" d="M160.39,233.981c0.637-5.669,1.725-11.178,3.214-16.481c-12.675-14.787-33.428-22.388-56.897-22.388
	c-38.601,0-69.893,20.522-69.893,59.837v27.554c0-39.315,31.292-54.227,69.893-54.227c17.678,0,33.812,3.141,46.121,10.309
	C154.804,236.36,157.422,234.729,160.39,233.981z"/>
<path style="opacity:0.1;enable-background:new    ;" d="M58.998,239.544c6.389-26.196,29.342-41.102,57.91-43.93
	c-3.331-0.33-6.735-0.502-10.201-0.502c-38.601,0-69.893,20.522-69.893,59.837v27.554C36.814,261.979,45.354,248.117,58.998,239.544
	z"/>
<path style="fill:#FFB98A;" d="M36.814,306.964v-20.606h-6.646c-11.007,0-19.932,8.927-19.932,19.936
	c0,11.011,8.924,19.935,19.932,19.935h9.184C37.71,320.015,36.814,313.548,36.814,306.964z"/>
<path style="fill:#FFD5B3;" d="M170.109,310.466h-5.221c-11.008,0-19.932-8.923-19.932-19.935c0-11.009,8.924-19.936,19.932-19.936
	h1.344v-3.197h-2.206c-8.25,0-15-6.75-15-15v-3.885c0-3.804,1.447-7.278,3.802-9.929c-12.309-7.169-28.442-10.309-46.121-10.309
	c-38.601,0-69.893,14.912-69.893,54.227v24.462c0,39.318,31.292,74.683,69.893,74.683c33.429,0,61.361-26.533,68.248-59.18
	C173.042,318.616,171.421,314.602,170.109,310.466z"/>
<g style="opacity:0.1;">
	<path d="M57.217,306.964v-24.462c0-35.785,25.928-51.347,59.691-53.854c-3.331-0.247-6.735-0.372-10.201-0.372
		c-38.601,0-69.893,14.912-69.893,54.227v24.462c0,39.318,31.292,74.683,69.893,74.683c3.466,0,6.87-0.296,10.201-0.843
		C83.144,375.254,57.217,342.751,57.217,306.964z"/>
</g>
<g>
	<path style="fill:#FFB98A;" d="M166.231,285.76v-15.164h-1.344c-11.008,0-19.932,8.927-19.932,19.936
		c0,11.012,8.924,19.935,19.932,19.935h5.221C167.606,302.581,166.231,294.26,166.231,285.76z"/>
	<path style="fill:#FFB98A;" d="M318.435,270.596h-1.337v15.164c0,8.5-1.375,16.821-3.877,24.706h5.214
		c11.012,0,19.939-8.923,19.939-19.935C338.374,279.523,329.446,270.596,318.435,270.596z"/>
	<path style="fill:#FFB98A;" d="M389.081,305.199c-7.754,0-15.255-1.222-22.361-3.479v13.929c0,12.669,10.271,22.939,22.941,22.939
		c12.669,0,22.936-10.27,22.936-22.939v-14.313C405.148,303.835,397.257,305.199,389.081,305.199z"/>
</g>
<path style="fill:#F7931E;" d="M432.729,87.277h-22.486c-8.194-6.522-18.563-10.429-29.849-10.429h-24.968
	c-26.499,0-47.98,21.481-47.98,47.979v64.567c0-45.922,36.552-69.893,81.636-69.893c43.332,0,78.764,22.154,81.455,64.646
	c0.108-1.143,0.184-2.294,0.184-3.463v-55.416C470.72,104.373,453.625,87.277,432.729,87.277z"/>
<path style="opacity:0.1;enable-background:new    ;" d="M328.073,140.037v-15.209c0-26.498,21.482-47.979,47.98-47.979h-20.628
	c-26.499,0-47.98,21.481-47.98,47.979v64.567C307.445,168.192,315.247,151.681,328.073,140.037z"/>
<path style="fill:#FFB98A;" d="M478.48,190.775h-7.762v27.189c0,6.592-0.757,13.087-2.18,19.381h9.941
	c12.857,0,23.282-10.424,23.282-23.286C501.764,201.201,491.339,190.775,478.48,190.775z"/>
<path style="fill:#FFD5B3;" d="M389.081,119.501c-45.084,0-81.636,23.97-81.636,69.893v0.951
	c8.173,12.508,13.67,27.415,15.493,43.636c-0.001,0-0.003,0-0.005-0.001c6.508,1.636,11.37,7.537,11.37,14.534v3.885
	c0,7.238-5.196,13.319-12.043,14.703c1.089,1.664,2.232,3.29,3.422,4.874c5.705,2.23,10.128,6.999,11.872,12.929
	c14.053,12.532,31.987,20.294,51.526,20.294c45.086,0,81.639-41.309,81.639-87.234v-28.571
	C470.72,143.471,434.167,119.501,389.081,119.501z"/>
<g style="opacity:0.1;">
	<path d="M322.939,233.981c-0.001,0-0.003,0-0.005-0.001c2.958,0.744,5.569,2.366,7.544,4.578
		c-1.607-6.671-2.478-13.576-2.478-20.594v-28.571c0-42.374,31.129-66.04,71.358-69.447c-3.368-0.285-6.794-0.446-10.277-0.446
		c-45.084,0-81.636,23.97-81.636,69.893v0.951C315.618,202.853,321.115,217.759,322.939,233.981z"/>
	<path d="M334.303,250.634v1.765c0,7.238-5.196,13.319-12.043,14.703c1.091,1.667,2.24,3.291,3.434,4.878
		c5.696,2.23,10.112,6.993,11.858,12.914c14.054,12.536,31.986,20.306,51.529,20.306c3.481,0,6.911-0.247,10.277-0.724
		C369.91,300.315,345.359,278.594,334.303,250.634z"/>
</g>
<path style="fill:#FFFFFF;" d="M324.315,481.565c0-4.368,2.313-8.187,5.77-10.316c-3.454-2.131-5.77-5.948-5.771-10.315
	c0.001-4.37,2.314-8.189,5.771-10.317c-3.456-2.131-5.77-5.946-5.77-10.318c0-6.521,5.136-11.821,11.57-12.086v-26.585
	c0-22.796-18.546-41.342-41.341-41.342h-22.02l-26.326,51.775c-2.493,4.903-6.572,4.903-9.065,0l-26.328-51.776h-22.02
	c-22.796,0-41.342,18.545-41.342,41.342v28.163c0.437-0.053,0.878-0.088,1.329-0.088l8.94-0.003
	c6.061,0.003,10.973,4.93,10.973,11.014c0,3.97-2.103,7.441-5.246,9.377c3.141,1.936,5.246,5.407,5.246,9.377
	c0,3.972-2.103,7.445-5.247,9.377c3.144,1.939,5.247,5.407,5.247,9.381c0,6.081-4.912,11.011-10.973,11.011h-8.94
	c-0.451,0-0.893-0.036-1.329-0.089v10.546c0,2.655,2.151,4.807,4.808,4.807h178.826c2.657,0,4.807-2.152,4.807-4.807v-6.041
	C329.45,493.385,324.315,488.086,324.315,481.565z"/>
<g style="opacity:0.1;">
	<path d="M168,499.693V482.03c-1.545,4.203-5.561,7.206-10.286,7.206h-8.94c-0.451,0-0.893-0.036-1.329-0.089v10.546
		c0,2.655,2.151,4.807,4.808,4.807h20.556C170.151,504.5,168,502.348,168,499.693z"/>
	<path d="M188.786,360.285c-22.796,0-41.342,18.545-41.342,41.342v28.163c0.437-0.053,0.878-0.088,1.329-0.088l8.94-0.003
		c4.726,0.003,8.741,3.004,10.286,7.208v-35.28c0-22.796,18.546-41.342,41.342-41.342H188.786z"/>
</g>
<path style="fill:#FFB98A;" d="M241.665,366.364c-11.344,0-22.095-2.848-31.746-7.823l27.214,53.52c2.493,4.902,6.572,4.902,9.065,0
	l27.214-53.52C263.76,363.517,253.009,366.364,241.665,366.364z"/>
<path style="fill:#FB8276;" d="M241.665,152.669c7.213,0,14.208,1.065,20.872,3.057c5.803-6.19,9.431-14.919,9.431-24.584
	c0-2.113-1.713-3.826-3.824-3.826h-52.958c-2.112,0-3.824,1.712-3.824,3.826c0,9.665,3.628,18.394,9.431,24.584
	C227.457,153.735,234.451,152.669,241.665,152.669z"/>
<path style="opacity:0.1;enable-background:new    ;" d="M238.933,152.727c-4.327-5.872-6.933-13.392-6.933-21.584
	c0-2.113,1.712-3.826,3.824-3.826h-20.639c-2.112,0-3.824,1.712-3.824,3.826c0,9.665,3.628,18.394,9.431,24.584
	C226.612,153.987,232.684,152.96,238.933,152.727z"/>
<path style="fill:#FFD5B3;" d="M166.231,267.399v18.361c0,42.434,33.771,80.604,75.434,80.604c41.66,0,75.433-38.17,75.433-80.604
	v-18.361H166.231z"/>
<g style="opacity:0.1;">
	<path d="M187.134,285.76v-18.361h-20.902v18.361c0,42.434,33.771,80.604,75.434,80.604c3.548,0,7.033-0.297,10.451-0.83
		C215.403,359.811,187.134,324.581,187.134,285.76z"/>
</g>
<path style="fill:#EF5050;" d="M164.025,233.514h155.278c1.255,0,2.468,0.173,3.635,0.467
	c-5.153-45.863-39.575-81.312-81.273-81.312c-41.699,0-76.122,35.449-81.275,81.312C161.557,233.688,162.77,233.514,164.025,233.514
	z"/>
<path style="opacity:0.1;enable-background:new    ;" d="M164.025,233.514h16.824c4.892-41.842,34.149-74.919,71.013-80.126
	c-3.341-0.472-6.744-0.718-10.197-0.718c-41.699,0-76.122,35.449-81.275,81.312C161.557,233.688,162.77,233.514,164.025,233.514z"/>
<path style="fill:#FB8276;" d="M334.303,252.399c0,8.25-6.75,15-15,15H164.025c-8.25,0-15-6.75-15-15v-3.885c0-8.25,6.75-15,15-15
	h155.278c8.25,0,15,6.75,15,15v3.885H334.303z"/>
<g style="opacity:0.1;">
	<path d="M170,252.399v-3.885c0-8.25,6.75-15,15-15h-20.975c-8.25,0-15,6.75-15,15v3.885c0,8.25,6.75,15,15,15H185
		C176.75,267.399,170,260.649,170,252.399z"/>
</g>
<path style="fill:#046699;" d="M137.8,448.612H73.646c-1.089,0-2.043-0.955-2.043-2.042v-27.776c0-7.897-6.399-14.298-14.296-14.298
	s-14.299,6.401-14.299,14.298v27.776c0,16.894,13.744,30.637,30.638,30.637H137.8C137.8,472.582,137.8,458.011,137.8,448.612z"/>
<path id="SVGCleanerId_0" style="fill:#FFD5B3;" d="M137.8,478.226c0-3.973,0-33.542,0-37.514c0-6.084,4.913-11.014,10.974-11.011
	l8.94-0.003c6.061,0.003,10.973,4.93,10.973,11.014c0,3.97-2.103,7.441-5.246,9.377c3.141,1.936,5.246,5.407,5.246,9.377
	c0,3.972-2.103,7.445-5.247,9.377c3.144,1.939,5.247,5.407,5.247,9.381c0,6.081-4.912,11.011-10.973,11.011h-8.94
	C142.715,489.235,137.8,484.307,137.8,478.226z"/>
<g>
	<path id="SVGCleanerId_0_1_" style="fill:#FFD5B3;" d="M137.8,478.226c0-3.973,0-33.542,0-37.514
		c0-6.084,4.913-11.014,10.974-11.011l8.94-0.003c6.061,0.003,10.973,4.93,10.973,11.014c0,3.97-2.103,7.441-5.246,9.377
		c3.141,1.936,5.246,5.407,5.246,9.377c0,3.972-2.103,7.445-5.247,9.377c3.144,1.939,5.247,5.407,5.247,9.381
		c0,6.081-4.912,11.011-10.973,11.011h-8.94C142.715,489.235,137.8,484.307,137.8,478.226z"/>
</g>
<path style="fill:#368C0E;" d="M472.236,330.276c-10.708,0-19.388,8.68-19.388,19.387l0.015,93.003
	c-0.01,0.02-0.042,0.054-0.022,0.057h-94.552c0,8.772,0,34.693,0,38.775h94.559c21.38,0,38.774-17.396,38.774-38.775v-93.06
	C491.622,338.956,482.941,330.276,472.236,330.276z"/>
<path style="fill:#48C1E1;" d="M319.954,435.186h-17.578v-17.567c0-1.583-1.288-2.872-2.872-2.872H284.63
	c-1.584,0-2.875,1.289-2.875,2.872v17.567h-17.576c-1.586,0-2.873,1.287-2.873,2.87v14.865c0,1.583,1.287,2.872,2.873,2.872h17.576
	v17.565c0,1.583,1.291,2.872,2.875,2.872h14.875c1.584,0,2.872-1.288,2.872-2.872v-17.565h17.578c1.585,0,2.873-1.288,2.873-2.872
	v-14.865C322.828,436.473,321.54,435.186,319.954,435.186z"/>
<path style="fill:#FFD5B3;" d="M358.289,440.298c0,4.371,0,36.897,0,41.267c0,6.69-5.403,12.113-12.071,12.109l-9.834,0.004
	c-6.668-0.004-12.068-5.423-12.069-12.113c0-4.368,2.313-8.187,5.77-10.316c-3.454-2.131-5.77-5.948-5.771-10.315
	c0.001-4.37,2.314-8.189,5.771-10.317c-3.456-2.131-5.77-5.946-5.77-10.318c0-6.69,5.401-12.111,12.069-12.111h9.834
	C352.885,428.189,358.289,433.608,358.289,440.298z"/>
<path style="fill:#FB8276;" d="M146.603,137.911c-1.76,0-3.413-0.683-4.657-1.92L90.734,85.036
	c-6.174-6.144-9.573-14.322-9.573-23.031c0-8.704,3.399-16.883,9.573-23.027c6.183-6.152,14.402-9.54,23.146-9.54
	s16.963,3.388,23.146,9.54l9.768,9.717l9.771-9.717c6.176-6.152,14.397-9.54,23.141-9.54s16.964,3.388,23.145,9.54
	c6.18,6.15,9.588,14.33,9.588,23.027c0,8.7-3.408,16.878-9.592,23.031l-51.602,50.97
	C150.005,137.233,148.353,137.911,146.603,137.911z"/>
<g style="opacity:0.1;">
	<path d="M111.573,74.598C105.399,68.454,102,60.275,102,51.567c0-8.211,3.028-15.953,8.554-21.961
		c-7.486,0.747-14.428,4.008-19.819,9.373c-6.174,6.144-9.573,14.323-9.573,23.027c0,8.708,3.399,16.887,9.573,23.031l51.212,50.955
		c1.244,1.237,2.897,1.92,4.657,1.92c1.75,0,3.401-0.678,4.642-1.905l11.064-10.928L111.573,74.598z"/>
</g>
<g>
	<path style="fill:#FFC502;" d="M282.073,76.013c-1.299,0-2.43-0.89-2.727-2.149c-4.995-21.129-8.309-24.426-29.543-29.396
		c-1.265-0.295-2.159-1.419-2.159-2.712c0-1.293,0.895-2.417,2.159-2.713c21.234-4.97,24.548-8.268,29.543-29.396
		c0.297-1.258,1.428-2.148,2.727-2.148c1.299,0,2.429,0.889,2.727,2.148c4.995,21.128,8.309,24.426,29.543,29.396
		c1.264,0.296,2.158,1.419,2.158,2.713c0,1.293-0.895,2.417-2.158,2.712c-21.234,4.97-24.548,8.267-29.543,29.396
		C284.502,75.124,283.372,76.013,282.073,76.013z"/>
	<path style="fill:#FFC502;" d="M47.683,167.989c-1.299,0-2.429-0.89-2.727-2.148c-4.995-21.129-8.309-24.426-29.543-29.396
		c-1.264-0.295-2.158-1.419-2.158-2.712s0.894-2.417,2.158-2.712c21.234-4.97,24.548-8.268,29.543-29.397
		c0.297-1.258,1.427-2.147,2.727-2.147c1.299,0,2.429,0.889,2.726,2.147c4.995,21.129,8.309,24.426,29.543,29.397
		c1.265,0.295,2.159,1.419,2.159,2.712c0,1.294-0.895,2.417-2.159,2.712c-21.234,4.97-24.548,8.268-29.543,29.396
		C50.112,167.099,48.982,167.989,47.683,167.989z"/>
</g>
<path d="M102.185,332.076h7.479c4.142,0,7.5-3.358,7.5-7.5v-17.018c0-4.142-3.358-7.5-7.5-7.5s-7.5,3.358-7.5,7.5v9.518
	c-4.132,0.012-7.479,3.365-7.479,7.5C94.685,328.718,98.042,332.076,102.185,332.076z"/>
<path d="M74.073,320.662c4.142,0,7.5-3.358,7.5-7.5v-10.45c0-4.142-3.358-7.5-7.5-7.5s-7.5,3.358-7.5,7.5v10.45
	C66.573,317.304,69.931,320.662,74.073,320.662z"/>
<path d="M81.999,351.001c6.667,6.668,15.526,10.339,24.945,10.339s18.277-3.672,24.944-10.34c2.929-2.929,2.928-7.678-0.001-10.607
	s-7.678-2.929-10.606,0.001c-3.833,3.834-8.925,5.945-14.337,5.945c-5.413,0-10.505-2.112-14.339-5.946
	c-2.929-2.929-7.678-2.929-10.607,0C79.07,343.323,79.07,348.072,81.999,351.001z"/>
<path d="M474.401,244.845h4.08c16.974,0,30.782-13.81,30.782-30.786c0-16.975-13.809-30.785-30.782-30.785h-0.357
	c0.056-0.87,0.096-58.006,0.096-58.006c0-25.084-20.407-45.492-45.491-45.492h-20.016c-9.108-6.554-20.267-10.429-32.319-10.429
	h-24.968c-30.592,0-55.48,24.888-55.48,55.479v44.758c-7.572-7.347-16.237-13.302-25.69-17.484
	c3.306-6.154,5.213-13.313,5.213-20.958c0-6.245-5.08-11.326-11.324-11.326h-52.958c-6.244,0-11.324,5.081-11.324,11.326
	c0,7.645,1.907,14.805,5.213,20.958c-21.597,9.555-39.116,28.313-48.745,51.966c-13.795-10.761-32.316-16.455-53.623-16.455
	c-21.542,0-40.245,5.81-54.086,16.802c-15.247,12.109-23.307,29.584-23.307,50.535v23.931
	c-14.731,0.454-26.578,12.572-26.578,27.414c0,15.128,12.306,27.435,27.432,27.435h3.554c4.839,14.38,13.405,27.064,24.41,36.654
	c-13.071,3.926-22.624,16.063-22.624,30.395v98.876c0,6.808,5.54,12.346,12.349,12.346h438.776c6.887,0,12.489-5.603,12.489-12.489
	V314.926c0-12.388-10.078-22.466-22.467-22.466h-33.252C457.885,280.403,468.927,263.775,474.401,244.845z M494.264,214.06
	c0,8.704-7.08,15.786-15.782,15.786h-0.994c0.482-3.9,0.732-7.866,0.732-11.881v-19.689h0.262
	C487.184,198.275,494.264,205.356,494.264,214.06z M463.22,217.964c0,43.221-33.951,79.734-74.139,79.734
	c-16.757,0-32.421-6.357-44.995-16.898c-1.861-4.886-5.076-9.11-9.189-12.204c4.253-4.096,6.907-9.841,6.907-16.198v-3.885
	c0-8.629-4.886-16.135-12.033-19.908c-0.803-5.196-1.968-10.253-3.45-15.145c0.283,0.437,0.612,0.851,0.995,1.233
	c5.467,5.467,12.649,8.201,19.831,8.201s14.364-2.734,19.831-8.201c2.93-2.929,2.93-7.677,0.001-10.606s-7.678-2.929-10.606-0.001
	c-5.088,5.087-13.363,5.087-18.451,0c-2.928-2.929-7.677-2.928-10.606,0.001c-1.56,1.56-2.28,3.636-2.179,5.678
	c-2.622-7.655-6.058-14.856-10.176-21.481c0.64-45.202,40.199-61.283,74.121-61.283c34.2,0,74.139,16.34,74.139,62.393v28.57H463.22
	z M324.598,285.76v-6.016c3.743,2.146,6.276,6.173,6.276,10.788c0,5.206-3.22,9.668-7.772,11.518
	C324.079,296.753,324.598,291.308,324.598,285.76z M374.22,311.303c4.848,0.907,9.812,1.396,14.861,1.396
	c5.45,0,10.804-0.557,16.016-1.61v4.56c0,8.513-6.925,15.439-15.436,15.439c-8.514,0-15.441-6.926-15.441-15.439L374.22,311.303
	L374.22,311.303z M432.729,94.777c16.813,0,30.491,13.679,30.491,30.492v17.881c-3.372-4.308-7.288-8.255-11.748-11.797
	c-4.75-3.772-10.011-7.002-15.698-9.695c-0.561-9.866-3.712-19.047-8.781-26.881C426.993,94.777,432.729,94.777,432.729,94.777z
	 M314.945,124.827c0-22.32,18.159-40.479,40.48-40.479h24.968c19.233,0,35.366,13.486,39.463,31.498
	c-9.484-2.54-19.808-3.845-30.775-3.845c-24.874,0-46.447,6.692-62.389,19.352c-4.465,3.546-8.374,7.505-11.747,11.819V124.827z
	 M264.249,134.817c-0.558,4.634-2.159,8.882-4.512,12.426c-5.839-1.355-11.882-2.074-18.072-2.074s-12.233,0.719-18.073,2.074
	c-2.353-3.544-3.955-7.792-4.512-12.426H264.249z M241.665,160.169c35.097,0,64.584,28.129,72.397,65.845H235
	c-4.142,0-7.5,3.358-7.5,7.5s3.358,7.5,7.5,7.5h84.304c4.136,0,7.5,3.364,7.5,7.5v3.885c0,4.136-3.364,7.5-7.5,7.5H164.025
	c-4.136,0-7.5-3.364-7.5-7.5v-3.885c0-4.136,3.364-7.5,7.5-7.5H198c4.142,0,7.5-3.358,7.5-7.5s-3.358-7.5-7.5-7.5h-28.735
	C177.08,188.299,206.567,160.169,241.665,160.169z M350.789,481.565c0,2.542-2.048,4.609-4.574,4.609l-9.828,0.004
	c-2.522-0.002-4.572-2.072-4.572-4.613c0-1.611,0.824-3.081,2.204-3.931c2.215-1.365,3.564-3.781,3.565-6.383
	s-1.347-5.019-3.561-6.385c-1.383-0.853-2.209-2.324-2.209-3.931c0-1.613,0.824-3.083,2.203-3.933
	c2.217-1.365,3.566-3.781,3.567-6.384c0.001-2.603-1.348-5.02-3.564-6.386c-1.381-0.852-2.206-2.323-2.206-3.934
	c0-2.543,2.05-4.611,4.569-4.611h9.832c2.521,0.001,4.573,2.069,4.573,4.611v41.267H350.789z M328.385,422.418
	c-2.742,1.237-5.156,3.077-7.055,5.367c-0.451-0.061-0.908-0.1-1.375-0.1h-10.078v-10.067c0-5.719-4.653-10.372-10.372-10.372
	H284.63c-5.721,0-10.375,4.653-10.375,10.372v10.067h-10.076c-5.72,0-10.373,4.652-10.373,10.37v14.865
	c0,5.719,4.653,10.372,10.373,10.372h10.076v10.065c0,5.719,4.654,10.372,10.375,10.372h14.875c5.719,0,10.372-4.653,10.372-10.372
	v-10.065h7.086c0.341,2.858,1.286,5.564,2.767,7.955c-1.883,3.04-2.915,6.588-2.915,10.318c0.001,6.265,2.962,11.841,7.542,15.434
	H154.944v-0.263h2.77c10.186,0,18.473-8.304,18.473-18.511c0-3.373-0.895-6.59-2.534-9.378c1.639-2.788,2.534-6.005,2.534-9.38
	c0-3.373-0.895-6.589-2.535-9.377c1.639-2.788,2.535-6.005,2.535-9.378c0-10.204-8.285-18.509-18.475-18.514l-2.767,0.001v-20.573
	c0-18.661,15.181-33.842,33.842-33.842h17.419l24.243,47.676c2.513,4.942,6.602,7.777,11.218,7.777s8.705-2.835,11.218-7.778
	l24.241-47.675h17.419c18.66,0,33.841,15.181,33.841,33.842v20.792H328.385z M281.755,448.293h-12.949v-5.607h12.949
	c4.143,0,7.5-3.358,7.5-7.5v-12.938h5.622v12.938c0,4.142,3.357,7.5,7.5,7.5h12.951v5.607h-12.951c-4.143,0-7.5,3.358-7.5,7.5
	v12.936h-5.622v-12.936C289.255,451.65,285.897,448.293,281.755,448.293z M188.541,352.792c-7.814,0.039-15.196,1.928-21.74,5.243
	c4.103-5.395,7.593-11.323,10.336-17.659C180.556,344.89,184.383,349.044,188.541,352.792z M159.505,456.474
	c1.053,0.649,1.682,1.768,1.682,2.993c0,1.227-0.626,2.343-1.675,2.988c-2.218,1.364-3.57,3.78-3.572,6.384s1.347,5.022,3.563,6.389
	c1.054,0.65,1.684,1.771,1.684,2.998c0,1.936-1.558,3.511-3.473,3.511h-8.938c-1.917,0-3.476-1.576-3.476-3.511v-37.514
	c0-1.936,1.556-3.511,3.476-3.511l8.934-0.003c1.917,0.001,3.476,1.577,3.476,3.514c0,1.225-0.628,2.344-1.681,2.992
	c-2.216,1.366-3.566,3.782-3.566,6.385C155.94,452.692,157.289,455.108,159.505,456.474z M225.188,372.024
	c5.344,1.198,10.854,1.84,16.477,1.84s11.133-0.643,16.477-1.84l-16.476,32.403L225.188,372.024z M241.665,358.864
	c-36.824,0-67.934-33.478-67.934-73.104v-10.861h135.866v10.861C309.598,325.387,278.488,358.864,241.665,358.864z M158.731,279.743
	v6.018c0,5.548,0.519,10.995,1.495,16.291c-4.55-1.849-7.771-6.312-7.771-11.52C152.456,285.916,154.989,281.888,158.731,279.743z
	 M106.707,202.612c17.221,0,36.157,4.92,48.598,17.14c-0.694,2.903-1.284,5.854-1.748,8.854c-0.557,0.294-1.095,0.619-1.624,0.957
	c-12.026-5.757-27.212-8.788-45.227-8.788c-26.684,0-47.177,6.635-60.358,18.958C53.979,212.665,82.091,202.612,106.707,202.612z
	 M17.736,306.294c0-6.569,5.122-11.951,11.578-12.392v13.063c0,3.985,0.295,7.912,0.842,11.764
	C23.307,318.722,17.736,313.147,17.736,306.294z M44.314,306.964v-24.462c0-38.62,33.929-46.727,62.393-46.727
	c11.97,0,24.895,1.45,35.866,5.987c-0.673,2.133-1.048,4.398-1.048,6.751v3.885c0,6.356,2.654,12.102,6.906,16.197
	c-6.66,5.011-10.976,12.979-10.976,21.936c0,1.685,0.161,3.333,0.453,4.935c-3.217,0.845-5.593,3.764-5.593,7.246v10.45
	c0,4.142,3.358,7.5,7.5,7.5s7.5-3.358,7.5-7.5v-1.583c4.717,3.944,10.774,6.337,17.379,6.383c0.729,1.905,1.525,3.776,2.374,5.617
	c-7.071,28.692-31.847,50.569-60.363,50.569C72.887,374.148,44.314,343.382,44.314,306.964z M117.964,388.221
	c-1.103,5.072-5.622,8.883-11.019,8.883c-5.37,0-9.867-3.773-11-8.806c3.527,0.548,7.117,0.85,10.761,0.85
	C110.522,389.148,114.279,388.821,117.964,388.221z M67.245,384.044h13.114c0.101,0.04,0.203,0.075,0.304,0.115v1.664
	c0,14.492,11.79,26.282,26.282,26.282s26.281-11.79,26.281-26.282v-1.779h5.751c1.399,0,2.754,0.185,4.052,0.512
	c-1.991,5.317-3.085,11.068-3.085,17.072v22.829c-5.741,3.143-9.645,9.25-9.645,16.256v0.399H79.103v-22.318
	c0-12.02-9.778-21.798-21.796-21.798c-2.281,0-4.481,0.354-6.549,1.006C52.087,390.094,58.964,384.044,67.245,384.044z
	 M73.646,469.707c-12.758,0-23.138-10.379-23.138-23.137v-27.776c0-3.749,3.05-6.798,6.799-6.798c3.747,0,6.796,3.049,6.796,6.798
	v27.776c0,5.262,4.281,9.542,9.543,9.542H130.3v13.595H73.646z M50.509,476.858c6.422,4.917,14.442,7.849,23.138,7.849h57.845
	c1.567,4.179,4.583,7.653,8.453,9.772V497H50.509V476.858z M358.25,497c2.657-2.085,4.769-4.832,6.07-8.003h88.528
	c12.048,0,23.032-4.632,31.274-12.204V497H358.25z M484.122,314.926v10.628c-3.587-1.776-7.621-2.779-11.887-2.779
	c-14.826,0-26.888,12.061-26.888,26.888l0.005,32.338c0.001,4.142,3.359,7.5,7.501,7.499c4.143,0,7.5-3.359,7.499-7.501
	l-0.005-32.337c0-6.554,5.333-11.887,11.888-11.887s11.887,5.332,11.887,11.887v93.06c0,17.245-14.029,31.275-31.274,31.275H365.79
	v-23.775h87.052c3.222,0,5.995-2.039,7.049-4.933c0.313-0.838,0.474-1.727,0.474-2.625l-0.006-24.666
	c-0.001-4.142-3.358-7.498-7.5-7.498c-0.001,0-0.001,0-0.002,0c-4.142,0.001-7.499,3.36-7.498,7.502l0.004,17.22h-80.261
	c-2.241-8.354-9.845-14.533-18.883-14.535h-2.833v-19.06c0-26.85-21.778-48.703-48.597-48.836
	c10.388-9.361,18.676-21.319,23.846-34.83c8.663-0.062,16.378-4.162,21.368-10.501h19.218v8.189
	c0,16.784,13.655,30.439,30.441,30.439c16.783,0,30.436-13.655,30.436-30.439v-8.189h56.56
	C480.773,307.46,484.122,310.81,484.122,314.926z"/>
<path d="M406.445,257.974c-9.729,9.725-25.553,9.725-35.279,0.001c-2.928-2.93-7.677-2.929-10.606,0
	c-2.929,2.929-2.929,7.678,0.001,10.606c7.787,7.788,18.015,11.68,28.245,11.68c10.228,0,20.459-3.894,28.245-11.68
	c2.93-2.929,2.93-7.678,0.001-10.607C414.122,255.046,409.374,255.045,406.445,257.974z"/>
<path d="M434.669,204.087c-5.088,5.086-13.363,5.086-18.451,0c-2.93-2.929-7.679-2.929-10.607,0.001
	c-2.929,2.929-2.929,7.678,0.001,10.606c5.468,5.466,12.649,8.2,19.831,8.2s14.363-2.733,19.831-8.2
	c2.93-2.929,2.93-7.677,0.001-10.606C442.346,201.16,437.598,201.158,434.669,204.087z"/>
<path d="M391.174,243.325h4.881c4.143,0,7.5-3.358,7.5-7.5s-3.357-7.5-7.5-7.5h-2.261v-12.994c0-4.142-3.357-7.5-7.5-7.5
	s-7.5,3.358-7.5,7.5v15.494C378.794,237.717,384.348,243.325,391.174,243.325z"/>
<path d="M221.784,283.315c-2.929-2.929-7.678-2.929-10.607,0c-2.187,2.186-5.09,3.391-8.176,3.391c-3.085,0-5.988-1.204-8.174-3.39
	c-2.929-2.929-7.677-2.93-10.606-0.001s-2.93,7.678-0.001,10.606c5.02,5.02,11.689,7.785,18.782,7.785s13.763-2.764,18.782-7.784
	C224.713,290.992,224.713,286.243,221.784,283.315z"/>
<path d="M283.818,283.314c-4.51,4.509-11.845,4.507-16.351,0.001c-2.93-2.929-7.679-2.929-10.607,0
	c-2.929,2.929-2.929,7.678,0,10.606c5.178,5.179,11.979,7.767,18.782,7.767c6.801,0,13.604-2.589,18.781-7.767
	c2.93-2.929,2.93-7.678,0.001-10.607C291.496,280.386,286.747,280.384,283.818,283.314z"/>
<path d="M243.848,320.642h4.528c4.142,0,7.5-3.358,7.5-7.5s-3.358-7.5-7.5-7.5h-1.556v-11.514c0-4.142-3.358-7.5-7.5-7.5
	s-7.5,3.358-7.5,7.5v14.014C231.82,315.035,237.216,320.642,243.848,320.642z"/>
<path d="M258.303,327.836c-4.449,4.449-10.358,6.899-16.639,6.899s-12.19-2.45-16.638-6.899c-2.93-2.93-7.678-2.929-10.606-0.001
	c-2.929,2.929-2.93,7.678-0.001,10.607c7.282,7.283,16.958,11.293,27.246,11.293c10.288,0,19.964-4.011,27.246-11.293
	c2.929-2.929,2.929-7.678-0.001-10.607C265.982,324.907,261.233,324.908,258.303,327.836z"/>
<path d="M136.659,141.31c2.66,2.645,6.192,4.101,9.945,4.101c3.739,0,7.26-1.446,9.912-4.069l21.755-21.489
	c2.947-2.911,2.976-7.66,0.065-10.606c-2.91-2.946-7.659-2.977-10.606-0.065l-21.124,20.866L96.024,79.72
	c-4.748-4.725-7.363-11.016-7.363-17.714c0-6.696,2.615-12.985,7.364-17.711c4.767-4.744,11.108-7.356,17.855-7.356
	s13.088,2.612,17.856,7.357l9.768,9.717c2.925,2.911,7.652,2.91,10.578,0.001l9.776-9.722c4.76-4.742,11.099-7.353,17.848-7.353
	c6.747,0,13.089,2.612,17.855,7.356c4.758,4.735,7.378,11.025,7.378,17.711c0,6.687-2.622,12.978-7.362,17.695l-4.846,4.787
	c-2.947,2.911-2.976,7.66-0.065,10.606c2.911,2.946,7.659,2.976,10.606,0.065l4.866-4.806c7.61-7.572,11.802-17.64,11.802-28.348
	c0-10.706-4.189-20.771-11.797-28.343c-7.596-7.561-17.695-11.724-28.436-11.724c-10.745,0-20.843,4.164-28.429,11.722l-4.482,4.457
	l-4.479-4.455c-7.597-7.56-17.696-11.724-28.435-11.724c-10.74,0-20.838,4.164-28.436,11.724
	c-7.599,7.561-11.783,17.627-11.783,28.343c0,10.719,4.185,20.786,11.783,28.347L136.659,141.31z"/>
<path d="M248.095,51.772c18.489,4.327,19.608,5.44,23.952,23.815c1.101,4.667,5.224,7.927,10.026,7.927
	c4.799,0,8.922-3.257,10.025-7.923c4.345-18.379,5.464-19.492,23.951-23.818c4.682-1.095,7.951-5.213,7.951-10.016
	c0-4.801-3.269-8.919-7.949-10.016c-18.488-4.327-19.608-5.44-23.954-23.821C290.993,3.257,286.872,0,282.073,0
	c-4.803,0-8.925,3.259-10.025,7.922c-4.345,18.379-5.465,19.492-23.953,23.819c-4.681,1.095-7.95,5.214-7.95,10.016
	C240.144,46.56,243.415,50.678,248.095,51.772z M282.073,26.263c3.332,7.725,7.776,12.168,15.506,15.493
	c-7.73,3.325-12.174,7.767-15.506,15.492c-3.332-7.725-7.775-12.167-15.507-15.492C274.297,38.431,278.741,33.989,282.073,26.263z"
	/>
<path d="M13.704,143.747c18.49,4.328,19.609,5.441,23.954,23.819c1.103,4.665,5.225,7.923,10.025,7.923
	c4.802,0,8.924-3.259,10.025-7.923c4.345-18.379,5.464-19.492,23.95-23.819c4.683-1.094,7.953-5.212,7.953-10.016
	c0-4.803-3.271-8.922-7.95-10.015c-18.489-4.328-19.608-5.44-23.953-23.816c-1.101-4.666-5.224-7.925-10.026-7.925
	c-4.8,0-8.923,3.258-10.025,7.922c-4.345,18.378-5.464,19.492-23.951,23.819c-4.682,1.094-7.952,5.212-7.952,10.016
	C5.755,138.535,9.025,142.653,13.704,143.747z M47.683,118.24c3.333,7.725,7.776,12.167,15.507,15.492
	c-7.731,3.325-12.174,7.767-15.506,15.492c-3.332-7.725-7.776-12.167-15.507-15.492C39.908,130.407,44.351,125.966,47.683,118.24z"
	/>
<g>
</g>
<g>
</g>
<g>
</g>
<g>
</g>
<g>
</g>
<g>
</g>
<g>
</g>
<g>
</g>
<g>
</g>
<g>
</g>
<g>
</g>
<g>
</g>
<g>
</g>
<g>
</g>
<g>
</g>
</svg>
