<?xml version="1.0" encoding="iso-8859-1"?>
<!-- Generator: Adobe Illustrator 19.0.0, SVG Export Plug-In . SVG Version: 6.00 Build 0)  -->
<svg version="1.1" id="Capa_1" xmlns="http://www.w3.org/2000/svg" xmlns:xlink="http://www.w3.org/1999/xlink" x="0px" y="0px"
	 viewBox="0 0 512.156 512.156" style="enable-background:new 0 0 512.156 512.156;" xml:space="preserve">
<g transform="translate(-1)">
	<g transform="translate(2 1)">
		<circle style="fill:#0377BC;" cx="256.154" cy="255.075" r="247.467"/>
		<ellipse style="fill:#02A9F4;" cx="242.33" cy="255.075" rx="234.667" ry="247.467"/>
		<g>
			<path style="fill:#8BC34A;" d="M402.928,56.59l-1.707,2.219l-60.928,21.333c-9.452,7.728-18.348,16.112-26.624,25.088
				c-3.072,5.291-23.296,13.312-23.296,13.312s-61.525,4.267-68.437,9.045c-6.827,4.779-6.229,32.683-6.229,32.683l23.381,45.056
				c1.734,3.159,5.665,4.369,8.875,2.731c3.499-1.792,7.168-4.011,10.837-5.888c4.431-3.062,9.865-4.314,15.189-3.499
				c3.589,1.022,6.357,3.887,7.253,7.509c0.125,4.191-1.665,8.212-4.864,10.923c-6.059,6.571-11.947,13.227-17.92,20.053
				c-6.144,7.083-12.203,14.08-18.347,21.163c-1.195,1.451-2.475,2.816-3.669,4.267c-4.656,6.559-6.639,14.645-5.547,22.613
				l0.853,5.803c1.141,8.102-0.976,16.326-5.888,22.869l-16.896,22.869c-1.126,1.46-2.098,3.033-2.901,4.693l-18.432,37.291
				c-1.263,2.671-3.958,4.368-6.912,4.352h-17.237c-2.564-0.014-4.905-1.465-6.059-3.755c-1.433-3.053-0.858-6.672,1.451-9.131
				l1.707-1.621c1.951-1.936,2.731-4.761,2.048-7.424l-16.299-65.963c-0.085-0.256-0.085-0.512-0.171-0.768l-11.691-31.488
				c-0.851-2.264-1.285-4.664-1.28-7.083v-1.536c0.033-7.646-4.264-14.653-11.093-18.091l-1.024-0.512
				c-3.442-1.771-7.332-2.484-11.179-2.048l-22.955,2.56c-6.57,0.765-13.084-1.834-17.323-6.912l-14.507-17.152
				c-3.077-3.656-4.769-8.278-4.779-13.056v-15.104c-0.036-5.333,2.052-10.46,5.803-14.251l18.603-18.859
				c1.134-1.166,2.136-2.454,2.987-3.84l6.059-10.24c3.551-6.05,10.051-9.756,17.067-9.728h24.661
				c5.657-0.045,11.05,2.387,14.763,6.656c3.787,4.156,9.14,6.539,14.763,6.571h9.131l7.851-26.027
				c-5.829-5.328-10.656-11.657-14.251-18.688c-3.755-9.045-24.917-17.579-30.208-18.091c-8.654-4.495-16.615-10.215-23.637-16.981
				l-0.597-0.768c87.757-68.295,210.305-69.622,299.52-3.243L402.928,56.59z"/>
			<path style="fill:#8BC34A;" d="M502.597,255.075c0.059,95.664-55.08,182.776-141.568,223.659l-3.755-7.936l-28.843-61.184
				c-0.439-1.055-0.671-2.185-0.683-3.328v-15.872c0.021-3.33-2.067-6.309-5.205-7.424l-14.848-5.205
				c-1.194-0.436-2.273-1.136-3.157-2.048l-4.693-5.035c-1.795-1.97-2.462-4.718-1.771-7.291c0.691-2.573,2.645-4.618,5.185-5.424
				l35.072-10.581c2.498-0.714,5.186-0.208,7.253,1.365l23.637,18.859c1.415,1.102,3.156,1.702,4.949,1.707h13.995
				c2.655,0.049,5.152-1.26,6.622-3.473c1.469-2.212,1.707-5.022,0.632-7.45l-20.395-43.264c-0.933-1.967-0.982-4.238-0.135-6.243
				c0.848-2.005,2.511-3.552,4.572-4.253l6.656-2.304c3.94-1.346,6.095-5.58,4.864-9.557l-6.997-22.528
				c-3.394-10.723-1.896-22.396,4.096-31.915l2.816-4.437c1.459-2.32,4.001-3.736,6.741-3.755h9.557
				c2.062,0.03,4.05-0.765,5.523-2.206c1.474-1.442,2.311-3.412,2.327-5.474v-8.704c0.011-3.947,2.988-7.255,6.912-7.68
				l44.032-5.803c4.755-0.724,9.616,0.146,13.824,2.475l3.413,1.792c3.032,1.617,6.382,2.549,9.813,2.731l4.949,0.171
				C501.084,223.141,502.628,239.09,502.597,255.075L502.597,255.075z"/>
		</g>
		<path style="fill:#558B30;" d="M502.597,255.075c0.059,95.664-55.08,182.776-141.568,223.659l-3.755-7.936
			c75.132-45.787,120.616-127.742,119.723-215.723c0.005-18.476-1.969-36.899-5.888-54.955c3.035,0.358,5.983,1.254,8.704,2.645
			l3.413,1.792c3.032,1.617,6.382,2.549,9.813,2.731l4.949,0.171C501.084,223.141,502.628,239.09,502.597,255.075L502.597,255.075z"
			/>
	</g>
	<path d="M257.13,0.075C152.047,0.026,57.606,64.198,18.955,161.915S5.294,371.045,81.979,442.892s189.487,89.534,284.482,44.606
		c0.069-0.03,0.143-0.015,0.211-0.047c0.065-0.031,0.102-0.091,0.166-0.123c108.17-51.296,166.338-170.715,140.041-287.508
		S376.847,0.061,257.13,0.075z M387.773,56.17l-48.317,16.913c-0.98,0.347-1.89,0.869-2.683,1.542
		c-10.169,8.083-19.583,17.072-28.125,26.858c-5.616,4.014-11.744,7.256-18.221,9.642c-28.904,2.033-64.171,5.475-71.346,10.45
		c-8.783,6.117-10.25,25.058-9.938,39.875c0.029,1.307,0.358,2.59,0.963,3.75l23.483,45.167c3.882,7.249,12.852,10.058,20.175,6.317
		c1.975-0.992,3.975-2.108,5.987-3.233c1.642-0.917,3.292-1.842,5.275-2.859c2.954-1.483,6.625-3.292,8.429-2.775
		c0.486,0.15,0.953,0.357,1.392,0.617c-0.614,1.496-1.563,2.83-2.775,3.9c-6.075,6.633-12.067,13.333-18.075,20.25l-20.104,23.225
		c-0.683,0.783-1.363,1.567-2.346,2.783c-6.008,8.334-8.559,18.669-7.121,28.842l0.838,5.717c0.84,5.897-0.696,11.886-4.271,16.65
		l-16.825,22.783c-1.45,1.888-2.701,3.921-3.733,6.067l-17.729,36.892H168.68c4.006-4.061,5.609-9.915,4.229-15.45l-16.262-65.7
		h0.012c-0.115-0.662-0.283-1.314-0.5-1.95l-11.746-31.575c-0.475-1.288-0.715-2.652-0.708-4.025v-1.533
		c0.046-10.965-6.164-20.996-16-25.842l-0.75-0.333c-4.915-2.552-10.48-3.582-15.983-2.958l-23.054,2.567
		c-3.723,0.419-7.407-1.062-9.805-3.941l-14.475-17.117c-1.785-2.125-2.767-4.809-2.775-7.583v-15.108
		c-0.04-3.077,1.148-6.043,3.3-8.242l18.658-18.842c1.635-1.677,3.07-3.536,4.279-5.542l6.025-10.233
		c2.013-3.447,5.716-5.555,9.708-5.525h24.7c3.258-0.017,6.358,1.404,8.471,3.883c5.404,5.926,13.046,9.315,21.067,9.342h9.083
		c3.76,0,7.076-2.461,8.166-6.059l7.892-26.025c0.953-3.154,0.008-6.575-2.429-8.792c-4.925-4.458-9.024-9.75-12.108-15.633
		c-5.567-13.467-29.879-22.175-36.542-23.225c-4.36-2.484-8.447-5.42-12.191-8.76C198.916,4.356,305.667,2.303,387.773,56.17z
		 M18.197,256.075c-0.013-71.26,31.833-138.793,86.82-184.118c15.51,12.99,20.406,14.67,23.7,15.034
		c8.736,2.109,16.741,6.537,23.171,12.817c3.099,6.65,7.328,12.712,12.5,17.917l-4.563,15.042h-2.754
		c-3.168-0.011-6.19-1.332-8.35-3.65c-5.351-6.098-13.075-9.588-21.187-9.575h-24.7c-10.027,0.011-19.306,5.306-24.417,13.933
		l-5.917,10.058c-0.51,0.842-1.11,1.627-1.787,2.342l-18.667,18.85c-5.333,5.391-8.302,12.683-8.25,20.266V200.1
		c0.016,6.788,2.412,13.355,6.771,18.558l14.517,17.159c6.086,7.227,15.381,10.935,24.771,9.883l23-2.558
		c2.287-0.256,4.598,0.204,6.613,1.317l0.837,0.383c3.928,2.003,6.382,6.058,6.333,10.467v1.533
		c-0.007,3.434,0.605,6.842,1.808,10.058l11.504,30.908c0.037,0.175,0.071,0.333,0.096,0.425l16.204,65.592l-1.621,1.567
		c-4.7,5.111-5.799,12.576-2.771,18.825c2.598,5.136,7.86,8.379,13.617,8.392h17.229c6.208,0.007,11.877-3.525,14.608-9.1
		l18.496-37.45c0.562-1.15,1.24-2.239,2.025-3.25l16.85-22.825c6.267-8.363,8.956-18.872,7.475-29.217l-0.838-5.733
		c-0.818-5.629,0.521-11.359,3.75-16.042l1.675-1.958c0.663-0.758,1.325-1.517,1.838-2.142l18.308-21.133
		c5.896-6.775,11.799-13.386,17.708-19.833c5.363-4.622,7.973-11.675,6.913-18.674c-1.555-6.588-6.526-11.834-13.021-13.742
		c-7.455-1.548-15.219-0.087-21.6,4.067c-1.829,0.942-3.658,1.958-5.475,2.975c-1.237,0.691-2.467,1.383-3.683,2.033l-21.55-41.45
		c-0.311-7.96,0.678-15.917,2.929-23.558c21.084-3.97,42.416-6.482,63.846-7.517c0.877-0.064,1.74-0.261,2.558-0.583
		c10.45-4.15,23.708-10.45,27.479-16.8c7.357-7.859,15.239-15.209,23.592-22l58.084-20.329
		c41.591,32.675,71.19,78.202,84.177,129.473l-3.103-1.628c-5.785-3.063-12.384-4.237-18.871-3.358l-44.012,5.792
		c-8.199,0.943-14.378,7.897-14.35,16.15v7.85h-8.875c-5.659,0.034-10.914,2.941-13.95,7.717l-2.846,4.483
		c-7.306,11.628-9.137,25.878-5.008,38.975l6.754,21.742l-5.979,2.067c-4.361,1.54-7.866,4.856-9.646,9.125
		c-1.736,4.206-1.612,8.949,0.341,13.058l19.808,42.025l-12.571,0.15l-23.829-19.008c-4.236-3.213-9.747-4.221-14.846-2.717
		l-35.154,10.6c-5.339,1.68-9.447,5.975-10.889,11.383c-1.441,5.408-0.015,11.178,3.78,15.292l4.887,5.233
		c1.79,1.826,3.971,3.222,6.379,4.083l14.342,4.583v15.867c0.032,2.402,0.542,4.773,1.5,6.975l28.885,61.241
		c-73.825,31.822-158.707,24.372-225.86-19.824S18.17,336.467,18.197,256.075z M366.997,468.145l-28.717-60.861v-15.867
		c0.012-6.95-4.362-13.152-10.912-15.475l-14.588-5.025l-3.854-4.133l33.338-10.342l23.575,18.808
		c2.936,2.34,6.579,3.615,10.333,3.617h13.992c5.6,0.029,10.829-2.798,13.871-7.5c3.015-4.665,3.43-10.549,1.1-15.592L385.16,313.4
		l5.862-2.025c8.207-2.923,12.661-11.787,10.108-20.117l-7.013-22.575c-2.626-8.321-1.467-17.376,3.171-24.767l2.35-4.225h9.554
		c8.999,0.037,16.33-7.217,16.387-16.217v-7.992l43.617-5.742c2.978-0.406,6.008,0.149,8.65,1.583l3.404,1.783
		c3.578,1.84,7.47,2.989,11.474,3.385C510.026,318.797,459.191,420.547,366.997,468.145z"/>
</g>
<g>
</g>
<g>
</g>
<g>
</g>
<g>
</g>
<g>
</g>
<g>
</g>
<g>
</g>
<g>
</g>
<g>
</g>
<g>
</g>
<g>
</g>
<g>
</g>
<g>
</g>
<g>
</g>
<g>
</g>
</svg>
