<?xml version="1.0"?>
<svg xmlns="http://www.w3.org/2000/svg" xmlns:xlink="http://www.w3.org/1999/xlink" version="1.1" id="Layer_1" x="0px" y="0px" viewBox="0 0 512 512" style="enable-background:new 0 0 512 512;" xml:space="preserve" width="512px" height="512px" class=""><g><path style="fill:#FFFFFF;" d="M504.721,396.044c-165.812,67.221-331.624-67.221-497.435,0c0-93.362,0-186.725,0-280.088  c165.812-67.221,331.624,67.221,497.435,0C504.721,209.32,504.721,302.682,504.721,396.044z" data-original="#FFFFFF" class=""/><path style="fill:#FC7E00" d="M7.286,209.319c165.812-67.221,331.624,67.221,497.435,0v-93.362  c-165.812,67.221-331.624-67.221-497.435,0" data-original="#F4C653" class="" data-old_color="#F4C653"/><path style="fill:#007A00" d="M7.286,396.044c165.812-67.221,331.624,67.221,497.435,0v-93.362  c-165.812,67.221-331.624-67.221-497.435,0" data-original="#87E87C" class="active-path" data-old_color="#87E87C"/><path d="M508.786,109.917c-2.008-1.353-4.561-1.619-6.804-0.709c-36.185,14.67-75.848,20.685-121.254,18.382  c-40.91-2.073-82.785-10.562-123.281-18.77c-82.575-16.738-167.961-34.046-252.9,0.389C1.798,110.322,0,112.991,0,115.957v280.088  c0,2.422,1.204,4.686,3.214,6.04c2.009,1.353,4.56,1.618,6.804,0.709c36.186-14.67,75.847-20.683,121.254-18.382  c40.91,2.074,82.785,10.562,123.281,18.77c47.618,9.652,96.169,19.493,145.032,19.493c35.871,0,71.911-5.304,107.868-19.882  c2.748-1.115,4.546-3.783,4.546-6.749V115.957C512,113.534,510.796,111.27,508.786,109.917z M497.435,297.698  c-34.961,13.369-73.191,18.823-116.708,16.617c-40.91-2.074-82.785-10.562-123.281-18.77c-79.33-16.08-161.253-32.678-242.882-3.426  v-77.814c34.961-13.369,73.19-18.823,116.708-16.617c40.91,2.074,82.785,10.562,123.281,18.77  c47.618,9.652,96.169,19.494,145.032,19.493c32.541,0,65.22-4.391,97.85-16.084V297.698z M131.273,104.324  c40.91,2.073,82.785,10.562,123.281,18.77c79.33,16.08,161.253,32.687,242.883,3.436v77.806  c-34.961,13.369-73.191,18.823-116.708,16.617c-40.91-2.074-82.785-10.562-123.281-18.77  c-79.331-16.081-161.254-32.679-242.883-3.427v-77.841C49.524,107.548,87.759,102.117,131.273,104.324z M380.727,407.677  c-40.91-2.074-82.785-10.562-123.281-18.77c-47.618-9.652-96.169-19.493-145.032-19.493c-32.541,0-65.22,4.365-97.85,16.058v-77.806  c34.961-13.369,73.19-18.822,116.708-16.617c40.91,2.074,82.785,10.562,123.281,18.77c47.618,9.652,96.169,19.493,145.032,19.493  c32.541,0,65.22-4.391,97.85-16.084v77.858C462.476,404.454,424.241,409.882,380.727,407.677z" data-original="#000000" class="" style="fill:#000000"/><path d="M275.046,246.477h-3.706l2.62-2.621c2.845-2.845,2.845-7.455,0-10.298c-2.843-2.843-7.455-2.843-10.298,0l-2.621,2.62  v-3.706c0-4.022-3.26-7.282-7.282-7.282c-4.022,0-7.282,3.26-7.282,7.282v3.705l-2.619-2.619c-2.845-2.845-7.455-2.845-10.298,0  c-2.843,2.845-2.845,7.455,0,10.298l2.621,2.621h-3.707c-4.022,0-7.282,3.26-7.282,7.282c0,4.022,3.26,7.282,7.282,7.282h3.706  l-2.621,2.62c-2.845,2.845-2.845,7.455,0,10.298c1.422,1.422,3.286,2.133,5.149,2.133c1.863,0,3.727-0.711,5.149-2.133l2.619-2.619  v3.705c0,4.022,3.26,7.282,7.282,7.282c4.022,0,7.282-3.26,7.282-7.282v-3.706l2.621,2.62c1.423,1.423,3.286,2.133,5.149,2.133  s3.727-0.711,5.149-2.133c2.845-2.845,2.845-7.455,0-10.298l-2.619-2.621h3.706c4.022,0,7.282-3.26,7.282-7.282  S279.068,246.477,275.046,246.477z" data-original="#000000" class="" style="fill:#000000"/></g> </svg>
