<svg height="511pt" viewBox="-24 0 511 511.99859" width="511pt" xmlns="http://www.w3.org/2000/svg"><path d="m210.117188 134.378906c1.699218-2.144531 4.636718-2.917968 6.605468-4.816406 4.804688-4.640625 1.292969-13.269531-4.386718-16.789062-5.683594-3.515626-12.703126-4.074219-18.808594-6.792969-6.105469-2.722657-11.617188-9.480469-9.039063-15.636719 3.785157-8.160156 9.894531-7.21875 11.773438-13.144531 1.875-5.921875-4.597657-12.066407.03125-21.390625 4.628906-9.324219 16.9375-18.472656 12.742187-28.226563-3.550781-6.917969-13.074218-7.988281-20.726562-6.554687-7.652344 1.429687-15.492188 4.429687-22.984375 2.320312-6.359375-1.785156-11.144531-6.929687-16.917969-10.125-16.28125-9.011718-53.292969-7.78125-53.292969 6.511719 0 20.589844 9.394531 23.511719 11.480469 29.25 5.203125 14.335937 10.386719 30.371094 4.382812 44.390625-2.546874 5.953125-6.910156 10.917969-11.199218 15.773438-11.71875 13.261718-23.4375 26.519531-35.160156 39.78125-11.773438-4.101563-26.210938 4.550781-28.128907 16.851562-2.113281 13.546875 1.183594 21.273438-2.933593 30.019531-4.117188 8.746094-25.554688 20.957031-25.554688 29.414063 0 28.394531 55.5 36.367187 59.082031 49.800781 3.144531 18.410156 6.292969 36.824219 9.441407 55.238281 6.667968 39.027344 4.371093 28.613282 54.964843 164.738282 3.871094 10.414062 9.390625 12.765624 17.230469 4.578124 18.660156-19.484374 38.160156-40.558593 43.054688-67.066406 2.375-12.847656 1.09375-26.140625 3.242187-39.027344 2.148437-12.886718 9.007813-26.335937 21.378906-30.597656 5.285157-1.820312 11.25-1.84375 16.003907-4.789062 4.574218-2.832032 7.203124-7.851563 9.984374-12.453125 11.386719-18.851563 28.695313-34.085938 48.863282-42.992188 3.539062-1.5625 7.371094-3.101562 9.542968-6.296875 2.257813-3.320312 2.191407-7.65625 3.507813-11.445312 3.542969-10.207032 18.75-13.839844 26.539063-6.347656 5.300781-5.054688 9.59375-11.167969 12.546874-17.871094-13.601562-14.425782-16.40625-35.605469-12.363281-38.96875 5.988281-4.980469 33.9375-3.984375 30.941407 2.992187-5.804688 13.527344 17.351562 13.359375 16.972656 33.886719-.148438 7.828125 12.035156 27.207031 22.988281 19.085938 10.949219-8.125 9.8125-37.707032 19.117187-54.957032 15.671876-29.054687 21.398438-42.0625 33.300782-50.140625 4.339844-2.945312-.136719-46.472656-9.824219-48.5-9.683594-2.03125-70.574219 22.886719-73.566406 25.875-2.996094 2.992188-2.976563 14.03125-5.480469 15.488281-2.507812 1.457032-19.539062 4.890626-24.5 3.175782-4.957031-1.71875-12.195312-17.324219-23.050781-14.503906-10.855469 2.816406-6.863281 20.757812-10.855469 22.75-3.992188 1.992187-29.292969 2.394531-43.21875-6.054688-3.484375-2.113281-6.917969-4.550781-10.914062-5.359375-3.917969-.792969-7.960938.066406-11.957032.15625-10.519531.234375-41.863281-17.355469-30.855468-31.230469zm0 0" fill="#58c748"/><path d="m118.402344 13.21875c5.777344 3.199219 10.5625 8.34375 16.921875 10.128906 7.492187 2.109375 15.328125-.894531 22.980469-2.324218.449218-.082032.902343-.15625 1.359374-.222657-3.832031-2.308593-7.316406-5.398437-11.261718-7.582031-10.339844-5.722656-29.035156-7.304688-41.308594-4.042969 4.265625.957031 8.175781 2.308594 11.308594 4.042969zm0 0" fill="#51b842"/><path d="m331.019531 221.714844c.011719-.011719.03125-.019532.046875-.035156-4.957031-4.113282-25.070312-4.105469-30.046875.035156-4.039062 3.363281-1.238281 24.542968 12.363281 38.96875-2.953124 6.703125-7.246093 12.8125-12.546874 17.871094-7.789063-7.496094-22.996094-3.859376-26.539063 6.34375-1.316406 3.792968-1.25 8.128906-3.507813 11.449218-2.171874 3.195313-6.007812 4.734375-9.542968 6.296875-20.167969 8.90625-37.476563 24.136719-48.863282 42.992188-2.78125 4.601562-5.410156 9.621093-9.984374 12.453125-4.753907 2.945312-10.71875 2.964844-16.003907 4.789062-12.371093 4.261719-19.230469 17.710938-21.378906 30.597656-2.148437 12.886719-.871094 26.179688-3.242187 39.023438-3.988282 21.59375-17.664063 39.578125-32.683594 56.039062.785156 2.113282 1.585937 4.261719 2.398437 6.453126 3.871094 10.410156 9.390625 12.765624 17.230469 4.574218 18.660156-19.480468 38.160156-40.558594 43.054688-67.066406 2.375-12.847656 1.09375-26.136719 3.242187-39.023438 2.148437-12.886718 9.007813-26.339843 21.378906-30.597656 5.285157-1.824218 11.25-1.84375 16.003907-4.789062 4.574218-2.832032 7.203124-7.851563 9.984374-12.453125 11.386719-18.855469 28.695313-34.085938 48.863282-42.992188 3.539062-1.5625 7.371094-3.105469 9.542968-6.300781 2.257813-3.316406 2.191407-7.652344 3.507813-11.445312 3.542969-10.203126 18.75-13.839844 26.539063-6.34375 5.300781-5.058594 9.59375-11.171876 12.546874-17.875-13.601562-14.421876-16.402343-35.601563-12.363281-38.964844zm0 0" fill="#51b842"/><path d="m454.339844 172.585938c-7.5 5.078124-12.539063 12.128906-19.179688 23.910156h-401.960937c.121093-.230469.238281-.460938.351562-.691406 4.117188-8.75.820313-16.480469 2.9375-30.027344 1.910157-12.300782 16.351563-20.953125 28.132813-16.851563 11.71875-13.261719 23.4375-26.519531 35.15625-39.78125 4.292968-4.847656 8.652344-9.820312 11.203125-15.769531 6-14.019531.820312-30.058594-4.390625-44.390625-2.082032-5.738281-11.480469-8.660156-11.480469-29.25 0-14.289063 37.011719-15.527344 53.300781-6.507813 5.769532 3.1875 10.558594 8.339844 16.910156 10.117188 7.5 2.113281 15.339844-.886719 22.988282-2.316406 7.652344-1.433594 17.179687-.363282 20.730468 6.558594 4.191407 9.75-8.121093 18.898437-12.75 28.21875-4.628906 9.332031 1.851563 15.472656-.03125 21.402343-1.878906 5.917969-7.980468 4.980469-11.769531 13.136719-2.578125 6.152344 2.929688 12.910156 9.039063 15.632812 6.101562 2.71875 13.121094 3.277344 18.8125 6.800782 5.679687 3.519531 9.1875 12.148437 4.378906 16.777344-1.96875 1.910156-4.898438 2.679687-6.597656 4.820312-11.011719 13.878906 20.339844 31.46875 30.847656 31.230469 4-.089844 8.039062-.949219 11.960938-.148438 4 .808594 7.429687 3.238281 10.917968 5.359375 13.921875 8.4375 39.222656 8.039063 43.210938 6.050782 4-1.992188 0-19.929688 10.859375-22.75 10.851562-2.820313 18.089843 12.777343 23.050781 14.5 4.960938 1.71875 21.992188-1.722657 24.5-3.171876 2.5-1.460937 2.480469-12.5 5.480469-15.488281 2.988281-2.992187 63.878906-27.910156 73.570312-25.882812 9.679688 2.03125 14.160157 45.5625 9.820313 48.511719zm0 0" fill="#ffb300"/><path d="m179.039062 27.585938c4.191407 9.75-8.121093 18.898437-12.75 28.21875-4.628906 9.332031 1.851563 15.472656-.03125 21.402343-1.878906 5.917969-7.980468 4.980469-11.769531 13.136719-2.578125 6.152344 2.929688 12.910156 9.039063 15.632812 6.101562 2.71875 13.121094 3.277344 18.8125 6.800782 5.679687 3.519531 9.1875 12.148437 4.378906 16.777344-1.96875 1.910156-4.898438 2.679687-6.597656 4.820312-11.011719 13.878906 20.339844 31.46875 30.847656 31.230469 4-.089844 8.039062-.949219 11.960938-.148438 4 .808594 7.429687 3.238281 10.917968 5.359375 13.921875 8.4375 39.222656 8.039063 43.210938 6.050782.328125-.164063.59375-.441407.828125-.796876-5.101563-1.140624-10.039063-2.832031-14.039063-5.253906-3.488281-2.121094-6.917968-4.550781-10.917968-5.359375-3.921876-.800781-7.960938.058594-11.960938.148438-10.507812.238281-41.859375-17.351563-30.847656-31.230469 1.699218-2.140625 4.628906-2.910156 6.597656-4.820312 4.808594-4.628907 1.300781-13.257813-4.378906-16.777344-5.691406-3.523438-12.710938-4.082032-18.8125-6.800782-6.109375-2.722656-11.617188-9.480468-9.039063-15.632812 3.789063-8.15625 9.890625-7.21875 11.769531-13.136719 1.882813-5.929687-4.597656-12.070312.03125-21.402343 4.628907-9.320313 16.941407-18.46875 12.75-28.21875-3.550781-6.921876-13.078124-7.992188-20.730468-6.558594-4.179688.777344-8.414063 2.023437-12.621094 2.652344 1.371094 1.019531 2.527344 2.300781 3.351562 3.90625zm0 0" fill="#ffa000"/><path d="m444.519531 124.074219c-3.433593-.71875-13.289062 1.945312-24.714843 5.816406 5.863281 12.417969 7.980468 40.351563 4.535156 42.695313-7.5 5.078124-12.539063 12.128906-19.179688 23.910156h30c6.640625-11.78125 11.679688-18.832032 19.179688-23.910156 4.339844-2.949219-.140625-46.480469-9.820313-48.511719zm0 0" fill="#ffa000"/><path d="m435.160156 196.496094c-3.890625 6.917968-8.320312 15.480468-14.121094 26.230468-9.300781 17.25-8.167968 46.828126-19.121093 54.949219-10.949219 8.128907-23.128907-11.261719-22.988281-19.082031.390624-20.527344-22.769532-20.359375-16.96875-33.886719 3-6.980469-24.953126-7.972656-30.941407-2.992187-4.039062 3.359375-1.242187 24.539062 12.359375 38.972656-2.949218 6.699219-7.238281 12.808594-12.539062 17.867188-7.789063-7.5-23-3.859376-26.539063 6.339843-1.320312 3.800781-1.25 8.132813-3.511719 11.449219-2.167968 3.203125-6.011718 4.742188-9.539062 6.300781-20.171875 8.910157-37.480469 24.140625-48.871094 42.992188-.96875 1.609375-1.917968 3.257812-2.949218 4.859375h-159.242188c-1.21875-5.761719-2.238281-11.859375-3.667969-20.242188-3.140625-18.417968-6.289062-36.828125-9.441406-55.238281-3.578125-13.429687-59.078125-21.410156-59.078125-49.800781 0-8.238282 20.339844-20.039063 25.199219-28.71875zm0 0" fill="#f5f5f5"/><path d="m331.019531 221.714844c.015625-.011719.03125-.019532.046875-.035156-4.949218-4.113282-25.070312-4.101563-30.046875.035156-4.039062 3.359375-1.242187 24.539062 12.359375 38.972656-2.949218 6.699219-7.238281 12.808594-12.539062 17.867188-7.789063-7.5-23-3.859376-26.539063 6.339843-1.320312 3.800781-1.25 8.132813-3.511719 11.449219-2.167968 3.203125-6.011718 4.742188-9.539062 6.300781-20.171875 8.910157-37.480469 24.140625-48.871094 42.992188-.96875 1.609375-1.917968 3.257812-2.949218 4.859375h30c1.03125-1.601563 1.980468-3.25 2.949218-4.859375 11.390625-18.851563 28.699219-34.082031 48.871094-42.992188 3.527344-1.558593 7.371094-3.097656 9.539062-6.300781 2.261719-3.316406 2.191407-7.648438 3.511719-11.449219 3.539063-10.199219 18.75-13.839843 26.539063-6.339843 5.300781-5.058594 9.589844-11.167969 12.539062-17.867188-13.601562-14.433594-16.398437-35.613281-12.359375-38.972656zm0 0" fill="#ebe3d4"/><path d="m405.160156 196.496094c-3.890625 6.917968-8.320312 15.480468-14.121094 26.230468-6.125 11.363282-7.726562 28.078126-11.238281 40.484376 2.957031 8.832031 12.964844 21.261718 22.117188 14.464843 10.953125-8.121093 9.820312-37.699219 19.121093-54.949219 5.800782-10.75 10.230469-19.3125 14.121094-26.230468zm0 0" fill="#ebe3d4"/><path d="m210 269.996094c0 23.746094-19.253906 43-43 43-23.75 0-43-19.253906-43-43 0-23.75 19.25-43 43-43 23.746094 0 43 19.25 43 43zm0 0" fill="#03a9f4"/><path d="m463.484375 162.097656c-.230469-12.78125-3.71875-42.488281-17.429687-45.363281-12.445313-2.605469-75.636719 23.148437-80.40625 27.910156-3.765626 3.757813-4.390626 9.824219-5.53125 14.734375-4.441407 1.175782-13.261719 2.546875-16.398438 2.175782-4.253906-3.746094-13.386719-18.414063-27.6875-14.703126-11.195312 2.90625-12.886719 13.253907-14.316406 23.503907-29.28125 2.6875-35.785156-9.925781-47.296875-12.257813-5.183594-1.046875-9.902344-.074218-13.617188.011719-5.089843.085937-21.144531-7.957031-24.925781-15.5625-2.085938-4.195313 1.828125-3.515625 6.054688-7.59375 3.402343-3.285156 4.984374-7.828125 4.453124-12.796875-.660156-6.1875-4.625-12.371094-10.101562-15.761719-6.789062-4.207031-14.351562-4.886719-19.703125-7.269531-3.359375-1.5-5.558594-4.621094-5.199219-5.816406 1.082032-2.242188 2.28125-3.058594 4.230469-4.386719 2.4375-1.652344 6.117187-4.15625 7.800781-9.460937 1.417969-4.480469.378906-8.507813-.453125-11.742188-1.664062-6.464844-1.410156-7.457031 5.214844-16.167969 5.210937-6.851562 12.351563-16.238281 7.75-26.9375-.066406-.15625-.136719-.3125-.214844-.460937-6.390625-12.453125-20.886719-12.4375-34.480469-9.265625-5.136718 1.199219-9.984374 2.332031-13.875 1.238281-4.550781-1.28125-9.339843-6.164062-15.316406-9.472656-14.996094-8.300782-42.4375-8.945313-55.402344-1.304688-5.816406 3.429688-9.023437 8.535156-9.023437 14.378906 0 17.464844 6.308594 24.933594 10.074219 29.394532 3.445312 4.078125 6.925781 17.777344 7.738281 22.414062.714844 4.078125 4.601563 6.808594 8.683594 6.09375 4.078125-.714844 6.808593-4.601562 6.09375-8.683594-1.101563-6.273437-4.984375-22.316406-11.054688-29.5-3.0625-3.628906-6.53125-7.738281-6.527343-19.785156.058593-.195312.859374-1.21875 3.46875-2.285156 9.789062-3.996094 29.3125-2.785156 38.683593 2.402344 5.246094 2.902344 10.578125 8.550781 18.519531 10.785156 7.605469 2.140625 14.90625.433594 21.347657-1.070312 4.960937-1.15625 14.796875-3.253907 17.589843 1.273437.804688 2.484375-1.988281 6.4375-5.996093 11.703125-8.054688 10.59375-11.105469 16.164062-7.800781 28.992188 1.058593 4.105468 1.089843 3.464843-1.253907 5.058593-2.644531 1.796875-6.640625 4.515625-9.492187 10.660157-.042969.085937-.078125.171874-.117188.257812-3.40625 8.132812.488282 19.851562 12.902344 25.386719 6.597656 2.9375 13.511719 3.59375 17.914062 6.320312 2.210938 1.371094 3.277344 4.171875 3.089844 5.046875-1.058594.914063-4.59375 2.1875-7.234375 5.519532-4.558593 5.746093-5.195312 12.671874-1.796875 19.511718 6.226563 12.527344 27.605469 24.132813 38.695313 23.878906 4.039062-.089843 7.753906-.820312 10.300781-.304687 2.535156.515625 5.53125 2.609375 8.515625 4.421875 15.316406 9.292969 43.230469 9.957031 50.453125 6.351562 8.902344-4.445312 4.992188-21.0625 9.390625-22.203124 4.9375-1.277344 11.625 11.875 18.714844 14.332031 7.460937 2.582031 26.71875-1.453125 30.722656-3.78125 5.746094-3.339844 5.480469-11.441407 7.195313-16.570313 10.5625-5.570312 53.546874-22.5 65.742187-23.839844 4.40625 6.90625 7.132813 27.925782 6.125 36.164063-6.863281 5.121094-11.792969 11.625-17.476563 21.316406h-14.324218c-4.140625 0-7.5 3.359375-7.5 7.5 0 4.144531 3.359375 7.5 7.5 7.5h6.046875c-11.007813 20.605469-12.070313 20.59375-16.984375 44.257813-2.003906 9.636718-4.269532 20.554687-8.109375 23.402344-.65625.488281-1.085938.730468-2.382813.070312-4.511718-2.304688-8.667968-10.328125-8.636718-12.992188.371093-19.902343-16.675782-26.335937-17.902344-29.960937-.003906-.089844.046875-.457031.324218-1.105469 1.886719-4.398437.515626-9.171875-3.496093-12.164062-8.175781-6.101563-31.585938-5.835938-39.136719.449218-2.601562 2.167969-4.066406 5.625-4.347656 10.273438-.570313 9.410156 3.597656 23.949219 12.589844 35.550781-1.410157 2.507813-3.050782 4.902344-4.882813 7.128907-4.617187-1.960938-9.988281-2.390626-15.359375-1.105469-8.144531 1.953125-14.5 7.425781-17.007812 14.644531-1.371094 3.953125-1.570313 8.140625-2.621094 9.6875-2.625 3.859375-35.917969 11.4375-59.367188 50.867188h-148.863281c-1.957031-10.519532-11.695313-68.652344-12.03125-69.914063-2.296875-8.621094-12.609375-13.492187-25.664063-19.664063-14.664062-6.929687-32.890624-15.542968-33.160156-27.921874.886719-2.417969 7.121094-7.886719 10.878906-11.179688 3.996094-3.507812 7.84375-6.882812 10.679688-10.320312h346.4375c4.140625 0 7.5-3.359376 7.5-7.5 0-4.144532-3.359375-7.5-7.5-7.5h-340.460938c.300782-2.960938.25-5.84375.199219-8.679688-.167969-9.886719-.664062-17.796875 7.460938-22.671875 3.710937-2.230469 7.992187-2.839844 11.449219-1.632813 2.878906 1 6.074218.164063 8.085937-2.117187 39.816406-45.050781 39.363281-44.332031 42.523437-48.710937 2.421876-3.359376 1.664063-8.046876-1.695312-10.46875-3.359375-2.425782-8.046875-1.667969-10.46875 1.691406-2.601562 3.605468-2.554688 3.382812-38.648438 44.21875-6.328124-.84375-13.015624.585937-18.964843 4.15625-13.835938 8.300781-15.007813 20.148437-14.738281 35.792968.207031 12.082032-.347657 12.460938-11.753907 22.464844-8.222656 7.210938-15.988281 14.023438-15.988281 22.175782 0 22.03125 24.132812 33.4375 41.753906 41.765624 6.339844 2.996094 15.84375 7.488282 17.558594 10.035157 18.070312 105.777343 7.121094 65.804687 64.644531 220.589843 2.851563 7.664063 7.65625 14.398438 15.808594 14.398438 4.601563 0 9.253906-2.429688 13.871094-7.246094 17.039062-17.796875 31.820312-34.171875 40.089843-54.324218 1.574219-3.832032-.257812-8.214844-4.089843-9.785157-3.832031-1.574219-8.214844.257813-9.785157 4.089844-7.273437 17.722656-21.082031 32.96875-37.050781 49.640625-1.21875 1.277344-2.101562 1.945312-2.648437 2.289062-.476563-.636718-1.246094-1.90625-2.132813-4.289062-33.359375-89.765625-43.832031-116.054688-48.800781-134.386719h119.257812c-10.886718 5.984375-18.710937 18.382813-21.359374 34.25-1.339844 8.03125-1.429688 15.964844-1.765626 23.75-.175781 4.140625 3.035157 7.636719 7.171876 7.816407.109374.003906.21875.007812.328124.007812 3.996094 0 7.316407-3.152344 7.488282-7.179688.328125-7.632812.40625-14.921874 1.574218-21.925781 1.632813-9.789062 6.804688-21.429687 16.421876-24.742187 10.464843-3.601563 17.867187-.117188 29.085937-18.984375 23.4375-39.390625 51.324219-39.035157 59.070313-50.421875 3.28125-4.828125 3.328124-10.144532 4.390624-13.207032.808594-2.324218 3.234376-4.230468 6.328126-4.972656 3.105468-.742187 6.140624-.140625 7.921874 1.574219 2.894532 2.785156 7.46875 2.796875 10.375.023437 5.984376-5.703124 10.90625-12.714843 14.234376-20.277343 1.214843-2.757813.660156-5.976563-1.40625-8.167969-9.527344-10.109375-12.390626-23.613281-12.03125-28.425781 3.703124-1.179688 12.070312-1.324219 16.84375-.425781-2.234376 16.144531 18.054687 17.230468 17.785156 31.765624-.15625 8.230469 7.125 21.640626 16.742187 26.59375 6.152344 3.167969 12.789063 2.675782 18.210938-1.34375 8.425781-6.25 11.0625-18.953124 13.855469-32.398437 4.386718-21.121094 5.132812-20.730469 13.324218-36.105469 11.152344-20.929687 16.242188-30.484375 24.980469-36.410156 3.726563-2.523438 5.109375-7.203125 4.9375-16.683594zm0 0"/><path d="m116.5 269.992188c0 27.847656 22.652344 50.5 50.5 50.5 27.84375 0 50.5-22.652344 50.5-50.5 0-27.84375-22.65625-50.5-50.5-50.5-27.847656 0-50.5 22.65625-50.5 50.5zm86 0c0 19.578124-15.925781 35.5-35.5 35.5s-35.5-15.921876-35.5-35.5c0-19.574219 15.925781-35.5 35.5-35.5s35.5 15.925781 35.5 35.5zm0 0"/><path d="m159.5 250.148438v1.738281l-1.230469-1.230469c-2.929687-2.929688-7.679687-2.929688-10.605469 0-2.929687 2.929688-2.929687 7.679688 0 10.605469l1.230469 1.230469h-1.742187c-4.140625 0-7.5 3.359374-7.5 7.5 0 4.144531 3.359375 7.5 7.5 7.5h1.742187l-1.230469 1.230468c-2.929687 2.929688-2.929687 7.679688 0 10.609375 1.464844 1.460938 3.382813 2.195313 5.300782 2.195313 1.921875 0 3.839844-.730469 5.304687-2.195313l1.230469-1.230469v1.738282c0 4.144531 3.355469 7.5 7.5 7.5 4.140625 0 7.5-3.355469 7.5-7.5v-1.738282l1.230469 1.230469c1.460937 1.460938 3.382812 2.195313 5.300781 2.195313 1.921875 0 3.839844-.730469 5.304688-2.195313 2.929687-2.929687 2.929687-7.679687 0-10.609375l-1.230469-1.230468h1.738281c4.144531 0 7.5-3.355469 7.5-7.5 0-4.140626-3.355469-7.5-7.5-7.5h-1.738281l1.230469-1.230469c2.929687-2.925781 2.929687-7.675781 0-10.605469-2.929688-2.929688-7.679688-2.929688-10.605469 0l-1.230469 1.230469v-1.738281c0-4.144532-3.359375-7.5-7.5-7.5-4.144531 0-7.5 3.355468-7.5 7.5zm0 0"/></svg>