<?xml version="1.0"?>
<svg xmlns="http://www.w3.org/2000/svg" height="512px" viewBox="0 -72 512 512" width="512px" class=""><g><path d="m389.464844 369.175781c-48.898438 0-87.113282-11.5625-126.667969-23.523437-61.929687-18.730469-125.964844-38.097656-244.859375-18.054688-4.464844.753906-9.03125-.5-12.488281-3.421875s-5.449219-7.21875-5.449219-11.746093v-288.421876c0-7.511718 5.421875-13.921874 12.824219-15.171874 126.007812-21.238282 196.597656.109374 258.878906 18.945312 63.269531 19.136719 117.90625 35.660156 220.636719 5.917969 4.644531-1.34375 9.652344-.425781 13.519531 2.480469 3.863281 2.90625 6.140625 7.460937 6.140625 12.296874v288.421876c0 6.847656-4.527344 12.871093-11.105469 14.777343-43.761719 12.667969-79.828125 17.5-111.429687 17.5zm0 0" fill="#ffda45" data-original="#FFDA45" class="" style="fill:#FF8000" data-old_color="#ffda45"/><path d="m0 184.585938v127.84375c0 4.527343 1.992188 8.824218 5.449219 11.746093s8.027343 4.175781 12.492187 3.421875c118.890625-20.042968 182.929688-.675781 244.859375 18.054688 39.550781 11.960937 77.765625 23.523437 126.664063 23.523437 31.601562 0 67.667968-4.832031 111.429687-17.5 6.578125-1.90625 11.105469-7.929687 11.105469-14.777343v-152.3125zm0 0" fill="#82d9b6" data-original="#82D9B6" class="" style="fill:#018201" data-old_color="#82d9b6"/><path d="m505.859375 36.179688c-3.867187-2.90625-8.875-3.824219-13.519531-2.480469-102.730469 29.742187-157.367188 13.21875-220.636719-5.917969-5.167969-1.5625-10.394531-3.140625-15.703125-4.714844v320.53125c2.269531.683594 4.535156 1.371094 6.796875 2.054688 39.554687 11.960937 77.769531 23.523437 126.667969 23.523437 31.601562 0 67.667968-4.832031 111.429687-17.5 6.578125-1.90625 11.105469-7.929687 11.105469-14.777343v-288.421876c0-4.835937-2.277344-9.390624-6.140625-12.296874zm0 0" fill="#ffb13b" data-original="#FFB13B" class="active-path" style="fill:#FF8000" data-old_color="#ffb13b"/><path d="m256 184.585938v159.011718c2.269531.683594 4.535156 1.371094 6.800781 2.054688 39.550781 11.960937 77.765625 23.523437 126.664063 23.523437 31.601562 0 67.667968-4.832031 111.429687-17.5 6.578125-1.90625 11.105469-7.929687 11.105469-14.777343v-152.3125zm0 0" fill="#06ccab" data-original="#06CCAB" class="" style="fill:#018201" data-old_color="#06ccab"/><path d="m389.464844 273.035156c-48.898438 0-87.113282-11.558594-126.667969-23.523437-61.925781-18.730469-125.964844-38.097657-244.859375-18.054688l-17.9375 3.023438v-127.339844l12.824219-2.164063c126.007812-21.242187 196.597656.109376 258.878906 18.945313 63.269531 19.136719 117.90625 35.664063 220.636719 5.917969l19.660156-5.691406v128.171874l-11.105469 3.214844c-43.761719 12.667969-79.828125 17.5-111.429687 17.5zm0 0" fill="#f5fafc" data-original="#F5FAFC" class="" style="fill:#FFFFFF" data-old_color="#f5fafc"/><path d="m256 202.929688c8.046875 0 15.753906-7.078126 15.382812-15.382813-.375-8.335937-6.757812-15.382813-15.382812-15.382813-8.046875 0-15.753906 7.074219-15.382812 15.382813.375 8.332031 6.757812 15.382813 15.382812 15.382813zm0 0" fill="#aeabd6" data-original="#AEABD6" class="" style="fill:#0000FB" data-old_color="#aeabd6"/><path d="m271.707031 123.921875c-5.167969-1.5625-10.398437-3.140625-15.707031-4.714844v128.25c2.269531.683594 4.535156 1.371094 6.800781 2.054688 39.550781 11.960937 77.765625 23.519531 126.664063 23.519531 31.601562 0 67.667968-4.828125 111.429687-17.5l11.105469-3.214844v-128.167968l-19.660156 5.691406c-102.730469 29.742187-157.367188 13.21875-220.632813-5.917969zm0 0" fill="#e1f1fa" data-original="#E1F1FA" class="" style="fill:#FFFFFF" data-old_color="#e1f1fa"/><path d="m271.382812 187.546875c-.375-8.335937-6.757812-15.382813-15.382812-15.382813v30.765626c8.046875 0 15.753906-7.078126 15.382812-15.382813zm0 0" fill="#897bad" data-original="#897BAD" class="" style="fill:#0000FB" data-old_color="#897bad"/></g> </svg>
