<?xml version="1.0"?>
<svg xmlns="http://www.w3.org/2000/svg" xmlns:xlink="http://www.w3.org/1999/xlink" version="1.1" id="Capa_1" x="0px" y="0px" viewBox="0 0 491.102 491.102" style="enable-background:new 0 0 491.102 491.102;" xml:space="preserve" width="512px" height="512px" class=""><g><path style="fill:#FFEEB6" d="M444.343,420.571c0.522,30.302-88.816,54.857-198.531,54.857S46.759,450.873,46.759,420.571  c0-25.6,62.694-47.02,147.853-53.29h2.612v70.008h48.588H294.4v-69.486h3.657C382.694,374.073,444.343,395.494,444.343,420.571z" data-original="#D4E1F4" class="active-path" data-old_color="#D4E1F4"/><g>
	<circle style="fill:#4DCFE0;" cx="245.812" cy="55.38" r="39.706" data-original="#4DCFE0" class=""/>
	<path style="fill:#4DCFE0;" d="M294.4,284.735v83.069v69.486h-48.588h-48.588v-70.008v-82.547h-2.09h-45.976V200.62   c0-37.616,30.302-67.918,67.918-67.918h57.469c37.616,0,67.918,30.302,67.918,67.918v84.114H294.4z" data-original="#4DCFE0" class=""/>
</g><g>
	<path style="fill:#3A2C51" d="M245.812,110.759c-30.302,0-55.38-25.078-55.38-55.38S215.51,0,245.812,0   c30.302,0,55.38,25.078,55.38,55.38S276.114,110.759,245.812,110.759z M245.812,31.347c-13.061,0-24.033,10.971-24.033,24.033   s10.971,24.033,24.033,24.033s24.033-10.971,24.033-24.033S258.873,31.347,245.812,31.347z" data-original="#3A2C51" class="" data-old_color="#3A2C51"/>
	<path style="fill:#3A2C51" d="M310.073,353.176v-52.767h32.392c8.882,0,15.673-6.792,15.673-15.673V200.62   c0-45.975-37.616-83.592-83.592-83.592h-57.469c-45.976,0-83.592,37.616-83.592,83.592v84.114c0,8.882,6.792,15.673,15.673,15.673   h32.392v52.245c-47.02,4.18-150.465,19.853-150.465,67.918c0,48.588,111.282,70.531,214.727,70.531   c96.131,0,176.065-17.763,202.71-44.931c9.404-9.927,11.494-19.331,11.494-25.6C460.016,372.506,356.049,357.355,310.073,353.176z    M164.833,269.061V200.62c0-28.735,23.51-52.245,52.245-52.245h57.469c28.735,0,52.245,23.51,52.245,52.245v68.441h-16.718v-83.592   h-31.347v236.147h-17.241V316.604h-31.347v105.012h-17.241V185.469h-31.347v83.592H164.833z M245.812,459.755   c-117.551,0-181.812-27.69-183.38-39.184c0.522-7.314,36.571-28.212,119.118-36.571v53.29c0,8.882,6.792,15.673,15.673,15.673   h48.588H294.4c8.882,0,15.673-6.792,15.673-15.673v-52.767c81.502,7.837,117.551,28.212,118.596,36.049   C427.102,432.588,362.841,459.755,245.812,459.755z" data-original="#3A2C51" class="" data-old_color="#3A2C51"/>
</g></g> </svg>
