<?xml version="1.0"?>
<svg xmlns="http://www.w3.org/2000/svg" height="512px" viewBox="0 -27 511.99932 511" width="512px" class=""><g><path d="m213.410156 25.089844-206.746094 358.09375c-18.929687 32.789062 4.730469 73.773437 42.589844 73.773437h413.492188c37.859375 0 61.519531-40.984375 42.589844-73.773437l-206.746094-358.09375c-18.929688-32.785156-66.25-32.785156-85.179688 0zm0 0" fill="#65687f" data-original="#65687F" class="active-path" data-old_color="#65687f" style="fill:#020202"/><path d="m49.253906 415.160156c-2.828125 0-4.980468-1.242187-6.394531-3.691406s-1.414063-4.9375 0-7.386719l206.746094-358.09375c1.414062-2.449219 3.566406-3.691406 6.394531-3.691406s4.980469 1.242187 6.394531 3.691406l206.746094 358.09375c1.417969 2.449219 1.417969 4.933594 0 7.386719-1.414063 2.449219-3.5625 3.691406-6.394531 3.691406zm0 0" fill="#ffe37d" data-original="#FFE37D" class="" style="fill:#F1BE04" data-old_color="#ffe37d"/><g fill="#65687f"><path d="m239.660156 260.070312c-9.460937 5.589844-15.800781 15.890626-15.800781 27.667969h-70.320313c0-37.5625 20.21875-70.402343 50.359376-88.238281zm0 0" data-original="#65687F" class="active-path" data-old_color="#65687F" style="fill:#020202"/><path d="m358.457031 287.738281h-70.320312c0-11.78125-6.332031-22.078125-15.800781-27.667969l35.761718-60.570312c30.148438 17.835938 50.359375 50.675781 50.359375 88.238281zm0 0" data-original="#65687F" class="active-path" data-old_color="#65687F" style="fill:#020202"/><path d="m306.367188 376.988281c-14.871094 8.414063-32.0625 13.214844-50.367188 13.214844-18.667969 0-36.164062-4.988281-51.246094-13.714844l35.171875-60.914062c4.726563 2.738281 10.214844 4.308593 16.074219 4.308593 5.738281 0 11.125-1.503906 15.796875-4.148437zm0 0" data-original="#65687F" class="active-path" data-old_color="#65687F" style="fill:#020202"/><path d="m274.617188 288.136719c0-10.273438-8.339844-18.613281-18.613282-18.613281-10.292968 0-18.617187 8.339843-18.617187 18.613281 0 10.277343 8.324219 18.617187 18.617187 18.617187 10.273438 0 18.613282-8.339844 18.613282-18.617187zm0 0" data-original="#65687F" class="active-path" data-old_color="#65687F" style="fill:#020202"/></g></g> </svg>
