<svg height="512pt" viewBox="0 0 512 512.00015" width="512pt" xmlns="http://www.w3.org/2000/svg"><path d="m512 256.269531c0 .320313 0 .640625-.011719.960938 0 1.308593-.019531 2.621093-.046875 3.917969-.070312 3.480468-.203125 6.953124-.410156 10.402343-.300781 5.089844-.761719 10.140625-1.359375 15.140625-.5625 4.707032-1.25 9.367188-2.0625 14-1.597656 9.078125-3.679687 18-6.210937 26.71875-3.617188 12.511719-8.179688 24.628906-13.589844 36.269532-27.457032 59.152343-76.839844 106.050781-137.699219 130.269531-.320313.132812-.628906.25-.949219.371093-11.199218 4.410157-22.789062 8.050782-34.691406 10.851563-.128906.027344-.257812.058594-.386719.089844-2.863281.667969-5.75 1.289062-8.660156 1.859375-1.871094.378906-3.75.730468-5.632813 1.058594-10.148437 1.769531-20.507812 2.949218-31.039062 3.46875-.621094.042968-1.238281.070312-1.859375.101562-.332031.011719-.671875.03125-1 .039062-3.53125.152344-7.089844.210938-10.660156.210938-12.550781-.011719-24.898438-.929688-36.960938-2.699219-4.308593-.621093-8.578125-1.351562-12.808593-2.191406-.230469-.050781-.472657-.089844-.699219-.140625-12.929688-2.597656-25.492188-6.167969-37.621094-10.628906-3.519531-1.300782-7-2.667969-10.449219-4.121094-92.421875-38.6875-157.300781-130.039062-157.191406-236.488281.148438-141.378907 114.890625-255.878907 256.269531-255.730469 119.0625.128906 219.0625 81.511719 247.5625 191.640625.339844 1.328125.679688 2.660156 1 4 .699219 2.890625 1.347657 5.789063 1.949219 8.71875.390625 1.929687.769531 3.871094 1.109375 5.820313.121094.582031.21875 1.160156.320313 1.742187 1.140624 6.519531 2.019531 13.117187 2.648437 19.796875.421875 4.429688.722656 8.890625.910156 13.382812.160157 3.699219.230469 7.429688.230469 11.167969zm0 0" fill="#ff475a"/><path d="m510.171875 286.691406c-.5625 4.707032-1.25 9.367188-2.0625 14-1.597656 9.078125-3.679687 18-6.210937 26.71875-3.617188 12.511719-8.179688 24.628906-13.589844 36.269532-27.457032 59.152343-76.839844 106.050781-137.699219 130.269531-.320313.132812-.628906.25-.949219.371093-11.199218 4.410157-22.789062 8.050782-34.691406 10.851563-.128906.027344-.257812.058594-.386719.089844-2.863281.667969-5.75 1.289062-8.660156 1.859375l-101.5-101.0625 50.136719-59.71875-109.976563-110.238282 175-140zm0 0" fill="#f03049"/><path d="m379.425781 406.0625h-175v-140h114.832031l29.503907-31.851562 11.179687 31.851562h19.484375zm0 0" fill="#fff"/><path d="m379.421875 266.058594v140h-123.273437v-140h63.113281l29.5-31.847656 11.179687 31.847656zm0 0" fill="#ebf6fc"/><path d="m299.304688 305.007812 24.03125 64.261719h-14.671876l-4.859374-14.3125h-24.03125l-5.039063 14.3125h-14.21875l24.296875-64.261719zm.808593 39.421876-8.097656-23.582032h-.179687l-8.371094 23.582032zm0 0" fill="#3233c4"/><path d="m144.578125 96.101562h175v140h-114.835937l-29.277344 30.960938-11.40625-30.960938h-19.480469zm0 0" fill="#ffbf00"/><path d="m256 96.101562h63.582031v140h-63.582031zm0 0" fill="#ebb200"/><path d="m247.644531 191.703125c-4.257812 2.460937-9.449219 3.6875-15.566406 3.6875-4.921875 0-9.347656-.851563-13.277344-2.5625-3.929687-1.710937-7.246093-4.066406-9.945312-7.066406s-4.769531-6.523438-6.210938-10.574219c-1.4375-4.050781-2.160156-8.414062-2.160156-13.09375 0-4.800781.722656-9.253906 2.160156-13.367188 1.441407-4.105468 3.511719-7.695312 6.210938-10.753906s6.015625-5.460937 9.945312-7.199218c3.929688-1.742188 8.355469-2.609376 13.277344-2.609376 4.976563 0 9.417969.867188 13.316406 2.609376 3.902344 1.738281 7.203125 4.140624 9.902344 7.199218s4.769531 6.644532 6.210937 10.753906c1.4375 4.113282 2.160157 8.566407 2.160157 13.367188 0 4.679688-.722657 9.03125-2.160157 13.050781-1.441406 4.019531-3.511718 7.558594-6.210937 10.617188l8.007813 7.289062-6.570313 6.84375zm-2.066406-14.851563c1.199219-1.617187 2.15625-3.628906 2.878906-6.027343.71875-2.398438 1.078125-5.3125 1.078125-8.730469 0-2.820312-.3125-5.550781-.945312-8.191406-.628906-2.636719-1.632813-4.992188-3.011719-7.0625-1.382813-2.070313-3.183594-3.71875-5.402344-4.949219s-4.917969-1.847656-8.097656-1.847656c-3.183594 0-5.882813.613281-8.101563 1.84375-2.222656 1.226562-4.019531 2.875-5.398437 4.9375-1.382813 2.066406-2.386719 4.414062-3.015625 7.050781-.632812 2.636719-.945312 5.359375-.945312 8.175781 0 2.691407.3125 5.3125.945312 7.855469.628906 2.546875 1.632812 4.835938 3.015625 6.871094 1.378906 2.035156 3.179687 3.667968 5.398437 4.894531 2.21875 1.230469 4.917969 1.84375 8.101563 1.84375 1.5 0 2.636719-.054687 3.417969-.164063.777344-.105468 1.53125-.320312 2.25-.644531l-6.03125-5.492187 6.570312-7.019532zm0 0" fill="#3a3aeb"/><path d="m256 199.21875.738281.671875 6.570313-6.839844-7.308594-6.652343zm7.671875-37.128906c0-4.800782-.722656-9.25-2.160156-13.359375-1.3125-3.742188-3.140625-7.050781-5.511719-9.921875v46.113281c2.371094-2.863281 4.199219-6.121094 5.511719-9.78125 1.4375-4.019531 2.160156-8.371094 2.160156-13.050781zm0 0" fill="#3233c4"/></svg>