<?xml version="1.0"?>
<svg xmlns="http://www.w3.org/2000/svg" height="512px" viewBox="0 -42 469.33333 469" width="512px"><g><path d="m90.667969 384.167969h-53.335938c-20.585937 0-37.332031-16.746094-37.332031-37.335938 0-7.742187 2.390625-15.273437 6.71875-21.183593l92.226562-133.480469-92.480468-133.847657c-4.074219-5.546874-6.464844-13.078124-6.464844-20.820312 0-20.585938 16.746094-37.332031 37.332031-37.332031h53.335938c12.4375 0 24.019531 6.25 31.015625 16.722656l106.519531 154.476563c4.074219 5.523437 6.464844 13.054687 6.464844 20.800781 0 7.742187-2.390625 15.273437-6.722657 21.183593l-106.410156 154.28125c-6.847656 10.28125-18.429687 16.535157-30.867187 16.535157zm-53.335938-352c-2.898437 0-5.332031 2.429687-5.332031 5.332031 0 1.152344.363281 2.046875.535156 2.261719l99.027344 143.296875c3.777344 5.460937 3.777344 12.714844 0 18.195312l-98.773438 142.933594c-.425781.597656-.789062 1.492188-.789062 2.644531 0 2.902344 2.433594 5.335938 5.332031 5.335938h53.335938c2.386719 0 3.773437-1.558594 4.394531-2.496094l106.816406-154.859375c.425782-.597656.789063-1.492188.789063-2.644531 0-1.152344-.363281-2.050781-.535157-2.261719l-106.921874-155.050781c-.769532-1.132813-2.15625-2.6875-4.542969-2.6875zm0 0" data-original="#000000" class="active-path" data-old_color="#000000" fill="#374957"/><path d="m325.332031 384.167969h-53.332031c-20.585938 0-37.332031-16.746094-37.332031-37.335938 0-7.742187 2.386719-15.273437 6.71875-21.183593l92.222656-133.480469-92.480469-133.847657c-4.074218-5.546874-6.460937-13.078124-6.460937-20.820312 0-20.585938 16.746093-37.332031 37.332031-37.332031h53.332031c12.4375 0 24.023438 6.25 31.019531 16.722656l106.519532 154.476563c4.074218 5.523437 6.460937 13.054687 6.460937 20.800781 0 7.742187-2.386719 15.273437-6.71875 21.183593l-106.410156 154.28125c-6.847656 10.28125-18.433594 16.535157-30.871094 16.535157zm-53.332031-352c-2.902344 0-5.332031 2.429687-5.332031 5.332031 0 1.152344.363281 2.046875.53125 2.261719l99.03125 143.296875c3.773437 5.460937 3.773437 12.714844 0 18.195312l-98.773438 142.933594c-.425781.597656-.789062 1.492188-.789062 2.644531 0 2.902344 2.429687 5.335938 5.332031 5.335938h53.332031c2.390625 0 3.777344-1.558594 4.394531-2.496094l106.816407-154.859375c.425781-.597656.789062-1.492188.789062-2.644531 0-1.152344-.363281-2.050781-.53125-2.261719l-106.921875-155.050781c-.769531-1.132813-2.15625-2.6875-4.546875-2.6875zm0 0" data-original="#000000" class="active-path" data-old_color="#000000" fill="#374957"/></g> </svg>
