<svg id="Layer_1" enable-background="new 0 0 512 512" height="512" viewBox="0 0 512 512" width="512" xmlns="http://www.w3.org/2000/svg"><g><path d="m490.068 368.445c14.081-30.913 21.932-65.262 21.932-101.447 0-135.311-109.691-245.002-245.002-245.002s-245.002 109.691-245.002 245.002c0 124.522 92.899 227.341 213.17 242.946z" fill="#1c2e7a"/><g><path d="m405.922 195.264c-2.857 0-5.568-1.692-6.73-4.497-1.539-3.715.225-7.974 3.94-9.513l40.701-16.859c3.714-1.538 7.975.225 9.513 3.941 1.539 3.715-.226 7.974-3.94 9.513l-40.701 16.859c-.911.378-1.855.556-2.783.556z" fill="#e80054"/></g><g><path d="m76.704 196.726c-.929 0-1.872-.179-2.783-.556l-24.431-10.12c-3.715-1.539-5.479-5.798-3.94-9.513s5.799-5.479 9.513-3.94l24.431 10.12c3.715 1.539 5.479 5.798 3.94 9.513-1.162 2.804-3.873 4.496-6.73 4.496z" fill="#cc0053"/></g><g><path d="m45.594 344.517c-2.857 0-5.568-1.693-6.729-4.496-1.539-3.715.226-7.974 3.941-9.513l32.416-13.427c3.715-1.538 7.974.225 9.513 3.941 1.539 3.715-.226 7.974-3.94 9.513l-32.416 13.427c-.913.376-1.856.555-2.785.555z" fill="#cc0053"/></g><g><path d="m159.142 458.29c-.928 0-1.872-.179-2.783-.556-3.715-1.539-5.479-5.798-3.94-9.513l13.114-31.661c1.539-3.715 5.798-5.479 9.513-3.94s5.479 5.798 3.94 9.513l-13.115 31.661c-1.161 2.803-3.872 4.496-6.729 4.496z" fill="#cc0053"/></g><g><path d="m306.417 102.736c-.929 0-1.872-.179-2.783-.556-3.715-1.539-5.479-5.798-3.941-9.513l11.096-26.788c1.539-3.715 5.797-5.479 9.513-3.94 3.715 1.539 5.479 5.798 3.94 9.513l-11.096 26.788c-1.161 2.803-3.872 4.496-6.729 4.496z" fill="#e80054"/></g><g><path d="m172.68 102.736c-2.857 0-5.568-1.693-6.73-4.497l-13.055-31.517c-1.539-3.715.226-7.974 3.941-9.513 3.716-1.538 7.974.225 9.513 3.94l13.055 31.517c1.539 3.715-.226 7.974-3.941 9.513-.911.378-1.854.557-2.783.557z" fill="#e80054"/></g><g><path d="m349.577 227.969c6.186-10.758 17.288-17.181 29.698-17.181 12.411 0 23.513 6.423 29.699 17.181l10.309 17.926c-5.686-94.331-83.975-169.079-179.734-169.079-99.454 0-180.078 80.624-180.078 180.078 0 96.098 75.276 174.608 170.079 179.797z" fill="#ff4155"/></g><path d="m277.374 353.527-.791-1.548c-38.135-6.715-29.53-44.418-29.53-44.418l-4.359-15.033c-17.055-14.971-2.628-29.756-2.628-29.756l-17.501-17.501c-30.684-7.895-26.86-35.273-26.86-35.273l-6.999-13.401c-51.299-48.617-11.403-108.624-11.309-108.766-68.829 25.312-117.927 91.453-117.927 169.064 0 96.098 75.276 174.608 170.079 179.797z" fill="#e80054"/><g><path d="m239.548 89.876c-4.021 0-7.281-3.26-7.281-7.281v-51.937c0-4.021 3.26-7.281 7.281-7.281s7.281 3.26 7.281 7.281v51.937c0 4.021-3.26 7.281-7.281 7.281z" fill="#e80054"/></g><g><path d="m136.952 161.58c-1.863 0-3.727-.711-5.148-2.133l-45.445-45.445c-2.844-2.843-2.844-7.453 0-10.297 2.843-2.844 7.453-2.844 10.297 0l45.445 45.445c2.844 2.843 2.844 7.453 0 10.296-1.422 1.423-3.285 2.134-5.149 2.134z" fill="#ff4155"/></g><g><path d="m67.353 264.176h-29.91c-4.021 0-7.281-3.26-7.281-7.281s3.26-7.281 7.281-7.281h29.91c4.021 0 7.281 3.26 7.281 7.281s-3.26 7.281-7.281 7.281z" fill="#e80054"/></g><g><path d="m81.411 422.313c-1.863 0-3.727-.711-5.148-2.133-2.844-2.843-2.844-7.453 0-10.297l33.261-33.261c2.843-2.844 7.453-2.844 10.296 0 2.844 2.843 2.844 7.453 0 10.297l-33.261 33.261c-1.421 1.422-3.285 2.133-5.148 2.133z" fill="#e80054"/></g><g><path d="m363.905 139.818c-1.863 0-3.727-.711-5.148-2.133-2.844-2.843-2.844-7.453 0-10.297l33.707-33.706c2.844-2.843 7.454-2.843 10.297 0 2.844 2.843 2.844 7.453 0 10.297l-33.707 33.706c-1.422 1.422-3.286 2.133-5.149 2.133z" fill="#e80054"/></g><g><g><path d="m186.814 215.829c-5.26 0-9.708-4.274-9.708-9.708 0-6.073 5.527-10.701 11.601-9.523 4.674.948 7.815 5.027 7.815 9.523 0 5.235-4.246 9.708-9.708 9.708z" fill="#ff7186"/></g></g><g><g><ellipse cx="239.373" cy="301.637" fill="#ff7186" rx="9.708" ry="9.708" transform="matrix(.924 -.383 .383 .924 -97.21 114.565)"/></g></g><g><path d="m176.105 325.54c-1.863 0-3.727-.711-5.148-2.133-2.844-2.843-2.844-7.453 0-10.297l19.783-19.783c2.843-2.844 7.453-2.844 10.297 0 2.844 2.843 2.844 7.453 0 10.297l-19.783 19.783c-1.422 1.422-3.285 2.133-5.149 2.133z" fill="#ff4155"/></g><g><path d="m227.935 189.851c-3.324 0-6.325-2.29-7.093-5.668l-7.565-33.265c-.892-3.921 1.564-7.822 5.485-8.714 3.92-.891 7.822 1.564 8.714 5.485l7.565 33.265c.892 3.921-1.564 7.822-5.485 8.714-.543.123-1.086.183-1.621.183z" fill="#e80054"/></g><path d="m477.499 392.397c4.858-8.137 9.265-16.574 13.17-25.286l-80.433-139.868c-6.449-11.215-18.024-17.911-30.962-17.911-12.937 0-24.511 6.696-30.961 17.911l-.001.001-132.973 231.235c-6.43 11.182-6.412 24.524.047 35.689 4.256 7.357 10.733 12.744 18.342 15.574 10.881 1.478 21.984 2.257 33.27 2.257 36.997 0 72.074-8.207 103.521-22.89z" fill="#4b6bb2"/><path d="m370.519 489.109 56.819-51.365c-29.412-8.108-35.53-40.725-36.547-48.119-.13-.945-.724-1.756-1.585-2.167l-23.067-11.004c-.365-.174-.769-.263-1.174-.269-29.487-.401-35.182-29.421-36.248-38.643-.163-1.409-1.334-2.522-2.752-2.512-6.097.044-7.576-4.978-7.88-8.368-.139-1.545-1.478-2.716-3.023-2.585-10.618.897-13.105-6.413-13.601-11.251-.089-.872-.557-1.576-1.195-2.03l-84.927 147.684c-6.43 11.182-6.412 24.524.047 35.689 4.256 7.357 10.733 12.743 18.342 15.573 10.881 1.478 21.984 2.258 33.27 2.258 36.997 0 72.074-8.207 103.521-22.891z" fill="#3c58a0"/><path d="m384.991 241.764c-2.537-4.416-8.896-4.41-11.43-.001l-132.971 231.23c-2.54 4.405.646 9.883 5.711 9.883h136.632c37.408-20.132 68.975-49.703 91.53-85.525z" fill="#ffdd40"/><path d="m440.864 439.571c-41.159-.467-48.916-41.534-50.074-49.946-.13-.945-.724-1.756-1.585-2.167l-23.067-11.004c-.365-.174-.769-.263-1.174-.269-29.487-.401-35.182-29.421-36.248-38.643-.163-1.409-1.334-2.522-2.752-2.512-2.265.017-3.891-.668-5.057-1.706l-80.317 139.669c-2.54 4.405.645 9.883 5.711 9.883h136.632c21.43-11.533 40.931-26.176 57.931-43.305z" fill="#ffb332"/><g><path d="m385.043 318.607h-11.533c-7.74 0-13.753 6.742-12.872 14.431l5.767 50.309c.75 6.542 6.287 11.48 12.872 11.48 6.584 0 12.122-4.939 12.872-11.48l5.767-50.309c.88-7.689-5.133-14.431-12.873-14.431z" fill="#3c58a0"/></g><g><ellipse cx="379.276" cy="435.545" fill="#3c58a0" rx="18.597" ry="18.597" transform="matrix(.228 -.974 .974 .228 -131.255 705.561)"/></g><g><ellipse cx="382.839" cy="430.166" fill="#4b6bb2" rx="8.281" ry="8.28" transform="matrix(.16 -.987 .987 .16 -102.968 739.359)"/></g><path d="m379.278 231.173h-.002c-5.026 0-9.522 2.602-12.027 6.96l-132.966 231.223c-2.505 4.344-2.504 9.527.002 13.866 2.509 4.342 7.001 6.935 12.016 6.935h121.952c9.432-4.286 18.538-9.16 27.284-14.562h-148.044l131.783-229.165 90.728 157.772c3.078-4.544 5.997-9.203 8.771-13.958l-87.47-152.107c-2.506-4.36-7.001-6.963-12.027-6.964z" fill="#ffe98d"/><path d="m368.253 490.157c9.432-4.286 18.538-9.161 27.284-14.561h-148.044l80.379-139.775c-.498-.489-1.166-.794-1.907-.789-6.097.044-7.576-4.978-7.88-8.368-.06-.662-.348-1.246-.769-1.697l-83.032 144.39c-2.505 4.343-2.504 9.527.002 13.866 2.509 4.342 7.001 6.935 12.016 6.935h121.951z" fill="#ffdd40"/><g><ellipse cx="296.87" cy="187.982" fill="#ff7186" rx="23.536" ry="23.536" transform="matrix(.16 -.987 .987 .16 63.762 450.907)"/></g><g><circle cx="240.067" cy="245.272" fill="#ff7186" r="17.501"/></g><g><ellipse cx="123.59" cy="258.403" fill="#ff7186" rx="23.626" ry="23.625" transform="matrix(.157 -.988 .988 .157 -150.973 340.024)"/></g><g><circle cx="239.376" cy="16.381" fill="#ff7186" r="16.381"/></g><g><circle cx="410.907" cy="85.387" fill="#ff7186" r="27.424"/></g><g><circle cx="416.941" cy="79.502" fill="#f9a0b1" r="12.048"/></g><g><ellipse cx="67.353" cy="429.351" fill="#ff7186" rx="27.424" ry="27.424" transform="matrix(.37 -.929 .929 .37 -356.469 333.153)"/></g><g><circle cx="167.744" cy="326.776" fill="#ff7186" r="16.311"/></g><g><ellipse cx="19.207" cy="256.895" fill="#ff7186" rx="19.207" ry="19.207" transform="matrix(.287 -.958 .958 .287 -232.396 201.578)"/></g><g><ellipse cx="459.518" cy="165.417" fill="#ff7186" rx="16.381" ry="16.381" transform="matrix(.078 -.997 .997 .078 258.678 610.594)"/></g><g><ellipse cx="153.776" cy="463.967" fill="#ff7186" rx="16.381" ry="16.381" transform="matrix(.161 -.987 .987 .161 -328.896 541.036)"/></g><g><ellipse cx="32.476" cy="342.667" fill="#ff7186" rx="16.381" ry="16.381" transform="matrix(.228 -.974 .974 .228 -308.562 296.106)"/></g><g><circle cx="81.062" cy="98.409" fill="#ff7186" r="16.381"/></g><g><path d="m54.842 175.557c0 6.275-5.087 11.361-11.361 11.361-6.275 0-11.361-5.087-11.361-11.361s5.087-11.361 11.361-11.361 11.361 5.087 11.361 11.361z" fill="#ff7186"/></g><g><path d="m332.738 59.243c0 6.274-5.087 11.361-11.361 11.361-6.275 0-11.361-5.087-11.361-11.361 0-6.275 5.087-11.361 11.361-11.361 6.274-.001 11.361 5.086 11.361 11.361z" fill="#ff7186"/></g><g><ellipse cx="153.776" cy="49.823" fill="#ff7186" rx="16.381" ry="16.381" transform="matrix(.924 -.383 .383 .924 -7.361 62.64)"/></g><g><ellipse cx="216.989" cy="134.408" fill="#ff7186" rx="16.381" ry="16.381" transform="matrix(.469 -.883 .883 .469 -3.521 262.957)"/></g><path d="m499.405 223.284c4.001 0 7.245-3.227 7.278-7.22-1.729-8.179-3.869-16.205-6.392-24.061-.291-.035-.585-.059-.885-.059-4.021 0-7.281 3.26-7.281 7.281v16.779c0 4.02 3.26 7.28 7.28 7.28z" fill="#ff7186"/><g><g><path d="m499.406 286.539c-4.021 0-7.281-3.26-7.281-7.281v-16.779c0-4.021 3.26-7.281 7.281-7.281s7.281 3.26 7.281 7.281v16.779c-.001 4.021-3.26 7.281-7.281 7.281z" fill="#ff7186"/></g></g><g><g><path d="m475.64 233.928-14.531-8.389c-3.482-2.01-4.675-6.463-2.665-9.946 2.01-3.482 6.463-4.676 9.946-2.665l14.53 8.389c3.483 2.01 4.676 6.463 2.665 9.946-2.016 3.493-6.473 4.67-9.945 2.665z" fill="#ff7186"/></g></g><g><g><path d="m458.445 262.89c-2.011-3.482-.818-7.935 2.665-9.946l14.531-8.389c3.482-2.01 7.935-.818 9.946 2.665 2.011 3.482.818 7.935-2.665 9.946l-14.53 8.389c-3.469 2.002-7.928.833-9.947-2.665z" fill="#ff7186"/></g></g><path d="m506.295 214.281c-2.194-.604-4.503-.934-6.889-.934-14.301 0-25.894 11.593-25.894 25.894s11.593 25.894 25.894 25.894c4.546 0 8.816-1.175 12.53-3.233-.334-16.316-2.267-32.237-5.641-47.621z" fill="#ff4155"/><path d="m507.884 222.116c-.772-.155-1.57-.238-2.387-.238-6.674 0-12.084 5.41-12.084 12.084s5.41 12.084 12.084 12.084c1.977 0 3.837-.484 5.485-1.326-.69-7.641-1.724-15.182-3.098-22.604z" fill="#ff7186"/><g><path d="m83.566 424.644c0 6.654-5.394 12.048-12.048 12.048s-12.048-5.394-12.048-12.048 5.394-12.048 12.048-12.048 12.048 5.394 12.048 12.048z" fill="#f9a0b1"/></g><g><ellipse cx="128.952" cy="253.275" fill="#f9a0b1" rx="8.988" ry="8.988" transform="matrix(.707 -.707 .707 .707 -141.323 165.365)"/></g><g><ellipse cx="303.233" cy="180.798" fill="#f9a0b1" rx="8.988" ry="8.988" transform="matrix(.673 -.74 .74 .673 -34.596 283.314)"/></g></g></svg>