<svg xmlns="http://www.w3.org/2000/svg" id="flag-icon-css-aq" viewBox="0 0 640 480">
  <path fill="#3a7dce" fill-rule="evenodd" d="M0 0h640v480H0z"/>
  <path fill="#fff" d="M184.8 225.3c-2.9-5.9-2.9-5.9-2.9-11.8-1.4 0-1.7.3-2.5 0-.8-.2-1.2 5.5-3.9 4.4-.4-.6 2-4.7-.6-6.4-.8-.5.2-3.9-.2-5.4 0 0-3.3 1.8-5.7-4.4-1.3-1.6-3 1.5-3 1.5s.8 1.9-.5 2.3c-1.9-1.4-3.2-.6-5.6-2.5-2.3-2 .5-4.1-4-5.7 3-7.4 3-6 10.2-8.9-4.4-3-4.4-3-7.3-7.4-4.3-1.4-5.7-3-10-5.9-5.8-7.3-8.7-22.1-8.7-32.4 3.6-3.5 8.6 11.8 15.9 16.2l10 4.4c5.8 3 7.3 6 11.6 8.9l13 4.4c5.8 4.4 8.7 10.3 13 11.8 4.7 0 5.6-2.7 7.1-3 8.5-.4 12.8-1.5 14.5-4 1.7-2.2 5.8 1.1 17.4-3.3l-1.5-6s3.1-2.5 7.3-1.4c-.2-2.7-.4-9.9 3.7-13.1-2.5-2.7-.9-4.6-.9-4.6s2.3-2.3 2.6-3.5c-1.2-6.5 1-6.6 1.6-8.5s-2-1.2-1.3-3.9c.7-2.6 4.9-3.2 5.5-5.4.5-2.2-1.2-3.3-1.1-3.8.9-2 .1-7 0-8.9 7.7-2 10.3-8.5 13-5.9 1.4-8.8 2.8-11.8 11.5-11.8 1.2-2.7-3.1-5-1.4-5.9 2.9-.3 5-.2 8.5 4.3 1 1.4 1.2-2 2.3-2.4 1-.4 3.7-.4 4-2.2.5-1.8 1-4.1 2.5-7 1.2-2.5 2.2.9 3.2 5.6a157 157 0 0125.7 3.2c4.3 1.1 7.2-1.2 11.3-1.6 3.1 3.1 6 .8 7.6 7.5 2.3 3.6 6 .3 6.9 1.3 4.8 13.6 21.4 4.5 22.7 4.7 2 0 4.7 6 6.3 6 2.8-.5 2-2.4 4.4-1.7-.7 5.2 4.6 11 4.6 14.9 0 0 1.3.6 2.5-.5s2.3-4 3.3-4l6.5 1.2c7.8 2.8 11.8 3.4 14.8 4.8 1.5 2.6 2.8 4 5.7 3.5 2.4 1.6.6 3.8 2 3.9 3-1.5 3.9-3.1 6.8-1.6a17.6 17.6 0 017.2 7.4c0 1.4-1.5 7.3 0 16.2.7 3 1 5.3 4.1 10.3-.8 5.3 4 14 4 16.2 0 3-2.4 4.5-3.8 7.5 5.8 4.4 0 11.8-2.9 16.2 21.7 4.4 11.6 13.3 28.9 8.8-4.3 10.4-2.8 9.5 1.5 19.9-8.6 5.9-.2 7.7-6 15-.3.5 3.5 6.5 8.8 6.5-1.4 11.8-5.8 7.4-4.3 25-11.4-.2-6.8 13.3-14.4 11.9.4 8.4 4.3 9.2 2.8 17.7-5.7 1.5-5.7 1.5-8.6 5.9l-4.4-1.5c-1.4 7.4-4.3 8.9 0 16.3H439c-.1 2.5 2.5 3.2 3 5.9-.3 1-8.3 5.7-14.5 5.9-1.6 3.6 4.3 7.5 4 9.3-6.8 1.4-9.8 9.9-9.8 9.9s3.5 1.4 2.9 3c-1.9-1.5-2.9-1.6-5.8-1.6-1.4.4-5 0-8.3 5.8-3.7 1.2-5.5.8-8.3 4.6-1.2-3.7-3 0-5.2 1.4s-5.1 4.9-5.5 4.7c0-1 1.3-4.7 1.3-4.7l-7.2 1.5-.9.1c-.5 0-.4-4.3-1.8-4.1-1.3.1-5.2 5.5-6.6 5.6-1.3.2-1.7-1.7-2.9-1.5-1.1.2-3.4 5.6-4.2 5.8-.8.1-4-3.4-6.8-2.9-14.2 5.1-16.4-10-18.7-1.5-3-1.6-2.4-.7-5.4.1-2 .5-2.1-2.6-3.9-2.5-3.4 0-3.2 3.4-5.1 2.4-1.5-7-10.8-5.7-11.7-8.6-.7-3.1 4-3 5.6-5.2 1.1-3-1.3-4.1 3.5-7 6.2-4.3 2.6-6 3.7-9.2 2-4.6 2-5.8.4-9.9 0 0-4.9-13.2-5.8-13.2-3-.9-3 4.9-7.2 6.4-8.6 3-24-7.5-26.6-7.5-2.4 0-13.7 2.8-13.3-3-1.6 5.6-7.8 1.3-8.2 1.3-5.8 0-3.6 4.6-7.5 4.4-1.7-.6-19.5-1.6-19.5-1.6v3l-11.6-6-10-3c-8.7-2.9-4.4-10.3-18.8-5.8v-9H195c3-17.6 0-8.8-1.4-25l-5.8 1.5c-5.7-8 8-6.5-4.3-11.8 0 0 .2-8.8-2.9-6-.6.4 1.5 4.5 1.5 4.5-11.6-1.5-14.5-4.4-14.5-16.2 0 0 9.5 1.3 8.7 0a73 73 0 01-2.8-17.6c-.2-2 8.8-6.8 7-11.5 1.2-.4 4.4-.5 4.4-.5"/>
  <path fill="none" stroke="#fff" stroke-linecap="round" stroke-linejoin="round" stroke-width="2.1" d="M574.6 284.3a3 3 0 000 2.8c1-1.3.2-1.9 0-2.8z"/>
  <path fill="none" stroke="#fff" stroke-linejoin="round" stroke-width="2" d="M203.3 167.8s-2.4-.3-1.9 1.8c.8-1.7 1.8-1.7 1.9-1.8zm.5-5c-1.3 0-3-.2-2.4 2 .8-1.7 2.4-1.9 2.4-2zm9.1 28.3s2.1-.1 1.6 2c-.8-1.6-1.5-1.9-1.6-2z"/>
</svg>
