<?xml version="1.0" standalone="no"?>
<!DOCTYPE svg PUBLIC "-//W3C//DTD SVG 1.1//EN" "http://www.w3.org/Graphics/SVG/1.1/DTD/svg11.dtd">
<svg xmlns="http://www.w3.org/2000/svg">
<defs >
<font id="SourceSansPro" horiz-adv-x="410" ><font-face
    font-family="Source Sans Pro Light"
    units-per-em="1000"
    panose-1="2 11 4 3 3 4 3 9 2 4"
    ascent="984"
    descent="-273"
    alphabetic="0" />
<glyph unicode=" " glyph-name="space" horiz-adv-x="189" />
<glyph unicode="!" glyph-name="exclam" horiz-adv-x="253" d="M174 600L187 672H228L214 600L127 179H95L174 600ZM76 -12Q60 -12 51 -2T42 23Q42 43 56 59T91 76Q107 76 115 66T123 39Q123 19 110 4T76 -12Z" />
<glyph unicode="&quot;" glyph-name="quotedbl" horiz-adv-x="347" d="M156 600L169 672H210L196 600L163 464H132L156 600ZM290 600L303 672H344L330 600L297 464H266L290 600Z" />
<glyph unicode="#" glyph-name="numbersign" horiz-adv-x="464" d="M108 214H27L36 250H118L170 420H87L97 456H182L243 650H278L217 456H357L418 650H453L392 456H473L463 420H381L329 250H412L403 214H317L250 0H216L283 214H142L75 0H41L108 214ZM295 250L347
420H205L153 250H295Z" />
<glyph unicode="$" glyph-name="dollar" horiz-adv-x="462" d="M329 649Q365 641 395 619T445 567L415 542Q395 573 365 594T296 616Q268 616 245 607T204 583T176 545T166 495Q166 460 182 436T222 390T275 350T328 306T369 250T385 173Q385 135 372 102T334
43T276 4T201 -12L182 -110H146L166 -10Q120 -2 83 24T23 79L51 107Q74 75 111 50T197 24Q228 24 255 34T302 63T333 108T344 165Q344 206 328 235T288 288T235 331T182 373T141 422T125 488Q125 523 137 553T172 604T226 638T293 652L314 750H350L329 649Z" />
<glyph unicode="%" glyph-name="percent" horiz-adv-x="768" d="M180 258Q151 258 130 269T94 301T73 348T66 406Q66 449 77 496T110 582T165 646T242 672Q271 672 292 661T328 629T349 583T356 525Q356 481 345 434T312 348T256 284T180 258ZM240 641Q206 641
181 619T138 562T112 487T103 411Q103 360 121 325T182 289Q216 289 241 311T284 368T310 443T319 519Q319 570 301 605T240 641ZM131 -12L621 672H657L167 -12H131ZM551 -12Q522 -12 501 -1T465 31T444 78T437 136Q437 179 448 226T481 312T536 376T613 402Q642
402 663 391T699 359T720 313T727 255Q727 211 716 164T683 78T627 14T551 -12ZM611 371Q577 371 552 349T509 292T483 217T474 141Q474 90 492 55T553 19Q587 19 612 41T655 98T681 173T690 249Q690 300 672 335T611 371Z" />
<glyph unicode="&amp;" glyph-name="ampersand" horiz-adv-x="553" d="M58 143Q58 89 91 56T177 23Q218 23 258 43T335 95Q293 143 258 204T200 330Q171 311 146 291T101 249T70 200T58 143ZM211 484Q211 461 214 437T224 387Q255 406 284 426T335 468T370 515T384
572Q384 597 371 617T327 637Q302 637 281 626T244 594T220 545T211 484ZM547 344Q515 275 476 212T388 98Q415 72 440 52T491 22L472 -12Q420 9 358 69Q316 31 269 10T168 -12Q135 -12 107 -2T59 28T28 74T16 136Q16 176 30 209T69 269T125 320T189 365Q172 425
172 480Q172 523 185 558T220 618T270 657T330 671Q354 671 371 664T399 643T416 614T422 578Q422 539 406 508T363 449T303 399T234 353Q254 290 288 230T364 123Q409 169 443 224T507 344H547Z" />
<glyph unicode="&apos;" glyph-name="quotesingle" horiz-adv-x="213" d="M156 600L169 672H210L196 600L163 464H132L156 600Z" />
<glyph unicode="(" glyph-name="parenleft" horiz-adv-x="268" d="M126 -175Q101 -110 86 -30T70 134Q70 221 86 299T132 450T205 592T302 730L328 713Q221 582 165 437T108 127Q108 90 111 51T119 -26T134 -99T155 -165L126 -175V-175Z" />
<glyph unicode=")" glyph-name="parenright" horiz-adv-x="270" d="M150 730Q176 666 191 586T206 422Q206 334 190 256T144 105T71 -37T-26 -175L-51 -157Q55 -26 111 119T168 429Q168 466 165 505T157 582T143 655T122 721L150 730V730Z" />
<glyph unicode="*" glyph-name="asterisk" horiz-adv-x="382" d="M157 491L222 574L139 619L150 644L243 612L265 712L293 710L285 609L381 623L386 596L288 568L326 476L301 461L253 546L177 473L157 491Z" />
<glyph unicode="+" glyph-name="plus" horiz-adv-x="462" d="M226 314H48V348H227V548H263V348H442V314H263V108H226V314Z" />
<glyph unicode="," glyph-name="comma" horiz-adv-x="213" d="M-33 -121Q8 -103 34 -74T67 -7H62Q46 -7 36 2T26 28Q26 45 38 60T72 76Q91 76 101 63T111 27Q111 -3 101 -30T72 -81T30 -123T-24 -151L-33 -121Z" />
<glyph unicode="-" glyph-name="hyphen" horiz-adv-x="287" d="M43 269H253L245 232H36L43 269Z" />
<glyph unicode="." glyph-name="period" horiz-adv-x="213" d="M55 -12Q39 -12 31 -2T22 23Q22 43 36 59T71 76Q87 76 94 66T102 39Q102 19 89 4T55 -12Z" />
<glyph unicode="/" glyph-name="slash" horiz-adv-x="347" d="M397 710H433L-38 -160H-73L397 710Z" />
<glyph unicode="0" glyph-name="zero" horiz-adv-x="462" d="M190 -12Q152 -12 125 5T80 52T54 119T45 198Q45 278 64 359T118 505T198 610T299 651Q336 651 363 633T408 586T434 518T443 439Q443 359 424 279T371 134T291 29T190 -12ZM296 616Q251 616 212 576T145
475T101 341T85 202Q85 167 91 135T110 78T143 39T191 24Q221 24 248 42T299 91T342 163T374 249T395 343T403 435Q403 471 397 504T378 561T345 601T296 616Z" />
<glyph unicode="1" glyph-name="one" horiz-adv-x="462" d="M38 36H181L289 571H176L182 599Q220 604 253 614T310 639H344L222 36H359L353 0H30L38 36Z" />
<glyph unicode="2" glyph-name="two" horiz-adv-x="462" d="M-5 27Q101 118 177 184T301 303T372 401T395 495Q395 520 388 541T366 579T329 605T275 615Q240 615 203 598T129 544L105 573Q148 610 189 630T279 651Q356 651 396 609T436 502Q436 447 414 399T346
298T230 183T64 37H374L368 0H-9L-5 27Z" />
<glyph unicode="3" glyph-name="three" horiz-adv-x="462" d="M24 118Q36 101 51 85T85 55T128 33T181 24Q220 24 253 36T310 69T347 120T361 183Q361 211 350 235T314 278T252 306T159 316L167 351Q232 351 276 365T348 402T387 451T399 502Q399 552 372 583T284
615Q251 615 212 600T145 558L121 588Q157 617 200 634T289 651Q365 651 402 613T440 510Q440 448 400 400T285 333V329Q338 313 370 277T402 188Q402 143 386 107T339 44T268 3T177 -12Q143 -12 115 -2T64 23T24 58T-5 95L24 118Z" />
<glyph unicode="4" glyph-name="four" horiz-adv-x="462" d="M247 0L285 189H8L12 215L377 639H415L332 225H421L414 189H325L287 0H247ZM292 225L339 458Q344 483 351 514T367 577H363Q343 550 323 526T284 479L67 225H292Z" />
<glyph unicode="5" glyph-name="five" horiz-adv-x="462" d="M27 116Q37 100 50 84T80 54T122 33T179 24Q215 24 248 38T307 79T348 143T364 225Q364 297 328 331T232 366Q197 366 172 357T117 331L95 348L175 639H450L442 603H204L142 377Q161 387 185 394T239
401Q311 401 358 359T405 233Q405 177 386 132T336 55T262 6T174 -12Q139 -12 112 -3T62 22T24 55T-3 93L27 116Z" />
<glyph unicode="6" glyph-name="six" horiz-adv-x="462" d="M252 344Q239 344 221 340T182 326T138 299T94 254Q93 241 93 229T92 202Q92 163 100 130T125 74T165 37T219 23Q249 23 277 38T326 78T359 135T372 204Q372 268 342 306T252 344ZM435 551Q417 583 393
599T335 615Q292 615 254 592T184 526T131 426T99 300Q134 341 178 360T258 380Q331 380 371 334T412 214Q412 167 397 126T355 54T293 6T216 -12Q178 -12 148 4T96 48T64 114T52 198Q52 295 74 378T134 522T224 617T338 651Q386 651 416 630T466 574L435 551Z"
/>
<glyph unicode="7" glyph-name="seven" horiz-adv-x="462" d="M132 0Q153 94 178 175T240 329T324 469T440 603H112L120 639H498L493 611Q418 539 366 468T278 323T219 169T177 0H132V0Z" />
<glyph unicode="8" glyph-name="eight" horiz-adv-x="462" d="M214 338Q183 321 158 303T114 264T85 216T74 158Q74 125 86 100T117 57T163 31T216 22Q246 22 275 31T327 60T364 105T378 167Q378 200 364 224T327 268T275 304T214 338ZM299 334Q321 347 342 364T380
402T407 447T417 501Q417 529 408 550T383 587T347 609T304 617Q278 617 254 608T212 582T182 541T171 486Q171 457 180 435T205 395T246 363T299 334ZM34 154Q34 192 47 223T82 279T132 322T190 355V359Q161 386 147 414T132 483Q132 523 146 554T185 606T240
639T307 651Q336 651 363 642T410 615T443 569T456 505Q456 472 447 445T420 395T379 354T328 319V315Q340 306 356 293T385 261T408 221T418 173Q418 130 402 96T358 37T293 1T215 -12Q180 -12 148 -2T90 29T50 81T34 154Z" />
<glyph unicode="9" glyph-name="nine" horiz-adv-x="462" d="M237 295Q250 295 268 299T308 313T351 342T395 387Q396 399 396 411T397 437Q397 476 389 509T364 565T324 602T270 616Q240 616 212 601T163 561T129 504T116 435Q116 371 146 333T237 295ZM54 88Q71
56 95 40T153 24Q195 24 234 47T304 113T358 213T390 339Q354 298 311 279T231 259Q158 259 117 305T76 425Q76 472 91 513T133 585T195 633T272 651Q311 651 341 636T393 592T425 526T437 441Q437 343 415 261T355 117T264 22T150 -12Q103 -12 73 9T22 65L54 88Z"
/>
<glyph unicode=":" glyph-name="colon" horiz-adv-x="213" d="M123 378Q107 378 99 388T90 413Q90 433 104 449T139 466Q155 466 162 456T170 429Q170 409 157 394T123 378ZM55 -12Q39 -12 31 -2T22 23Q22 43 36 59T71 76Q87 76 94 66T102 39Q102 19 89 4T55 -12Z" />
<glyph unicode=";" glyph-name="semicolon" horiz-adv-x="213" d="M123 378Q107 378 99 388T90 413Q90 433 104 449T139 466Q155 466 162 456T170 429Q170 409 157 394T123 378ZM-33 -121Q8 -103 34 -74T67 -7H62Q46 -7 36 2T26 28Q26 45 38 60T72 76Q91 76 101
63T111 27Q111 -3 101 -30T72 -81T30 -123T-24 -151L-33 -121Z" />
<glyph unicode="&lt;" glyph-name="less" horiz-adv-x="462" d="M46 348L442 510V472L219 382L96 332V328L219 279L442 189V150L46 312V348Z" />
<glyph unicode="=" glyph-name="equal" horiz-adv-x="462" d="M48 414V448H442V414H48ZM48 469V503H442V469H48Z" />
<glyph unicode="&gt;" glyph-name="greater" horiz-adv-x="462" d="M48 189L271 279L394 328V332L271 382L48 472V510L444 348V312L48 150V189Z" />
<glyph unicode="?" glyph-name="question" horiz-adv-x="388" d="M130 -12Q114 -12 106 -2T97 23Q97 43 111 59T146 76Q162 76 169 66T177 39Q177 19 164 4T130 -12ZM144 183Q146 226 162 260T201 322T251 376T301 426T339 480T354 543Q354 592 328 619T256 646Q222
646 190 630T135 587L110 614Q136 642 175 662T260 682Q323 682 359 648T395 551Q395 510 380 478T342 417T292 364T241 311T200 252T181 180L144 183Z" />
<glyph unicode="@" glyph-name="at" horiz-adv-x="783" d="M560 85Q587 85 613 102T661 151T696 229T710 335Q710 393 695 441T648 525T571 579T464 598Q392 598 324 566T202 476T115 340T82 171Q82 104 101 52T154 -37T236 -93T339 -112Q381 -112 416 -103T484
-75L499 -103Q459 -126 418 -135T336 -145Q273 -145 220 -124T128 -63T68 34T46 164Q46 264 81 350T176 498T311 595T467 631Q534 631 586 610T673 550T727 459T746 342Q746 273 730 219T686 128T624 72T553 52Q517 52 496 73T467 128H465Q440 99 412 80T350 60Q329
60 309 68T274 92T250 133T240 190Q240 233 255 274T296 349T356 402T431 422Q455 422 474 409T506 371H508L521 414H552L504 201Q498 176 498 155T504 119T524 94T560 85ZM277 197Q277 143 300 119T355 94Q381 94 407 111T459 163L498 336Q481 367 464 378T430
389Q396 389 368 371T320 325T288 263T277 197Z" />
<glyph unicode="A" glyph-name="A" horiz-adv-x="488" d="M370 264L355 391Q350 446 344 501T332 616H328Q299 556 270 502T210 391L142 264H370ZM374 229H123L0 0H-48L315 659H362L443 0H400L374 229Z" />
<glyph unicode="B" glyph-name="B" horiz-adv-x="571" d="M170 659H332Q425 659 475 622T525 516Q525 480 511 451T475 401T427 368T376 351V347Q400 341 422 330T462 302T490 262T500 207Q500 154 481 115T426 51T342 13T234 0H39L170 659ZM266 367Q375 367 428
407T482 512Q482 565 442 594T315 623H206L154 367H266ZM219 36Q273 36 317 45T392 74T441 126T458 204Q458 260 413 296T282 332H148L88 36H219Z" />
<glyph unicode="C" glyph-name="C" horiz-adv-x="540" d="M58 248Q58 321 81 396T147 533T252 632T392 671Q448 671 485 644T546 578L514 555Q494 589 464 611T389 634Q321 634 268 598T177 507T121 384T101 254Q101 205 112 163T145 91T203 43T286 25Q332 25
369 42T442 89L465 61Q424 27 381 8T281 -12Q225 -12 184 7T114 62T72 144T58 248Z" />
<glyph unicode="D" glyph-name="D" horiz-adv-x="577" d="M170 659H279Q347 659 398 641T483 589T534 508T551 403Q551 317 528 244T461 116T351 31T199 0H39L170 659ZM200 36Q273 36 330 65T427 143T487 259T508 400Q508 450 494 491T451 561T379 607T277 623H205L88
36H200Z" />
<glyph unicode="E" glyph-name="E" horiz-adv-x="489" d="M170 659H518L510 622H205L154 368H412L404 331H148L88 37H402L394 0H39L170 659Z" />
<glyph unicode="F" glyph-name="F" horiz-adv-x="455" d="M170 659H518L510 622H205L152 355H410L402 318H146L82 0H39L170 659Z" />
<glyph unicode="G" glyph-name="G" horiz-adv-x="575" d="M58 248Q58 323 81 398T147 534T255 633T402 671Q430 671 453 664T496 643T530 614T557 578L525 555Q505 589 475 611T399 634Q328 634 273 598T179 507T121 384T101 254Q101 207 111 165T145 92T206 43T296
25Q341 25 374 39T431 75L473 286H321L329 322H522L467 54Q432 24 389 6T291 -12Q232 -12 189 7T116 60T73 143T58 248Z" />
<glyph unicode="H" glyph-name="H" horiz-adv-x="605" d="M170 659H213L154 368H494L553 659H596L464 0H421L488 331H148L82 0H39L170 659Z" />
<glyph unicode="I" glyph-name="I" horiz-adv-x="227" d="M170 659H213L82 0H39L170 659Z" />
<glyph unicode="J" glyph-name="J" horiz-adv-x="436" d="M334 172Q319 88 272 38T150 -12Q90 -12 54 16T1 90L34 110Q61 25 151 25Q208 25 243 66T292 177L388 659H431L334 172V172Z" />
<glyph unicode="K" glyph-name="K" horiz-adv-x="532" d="M170 659H213L142 301H144L522 659H573L323 416L474 0H429L290 388L130 238L82 0H39L170 659Z" />
<glyph unicode="L" glyph-name="L" horiz-adv-x="440" d="M170 659H213L90 37H383L375 0H39L170 659Z" />
<glyph unicode="M" glyph-name="M" horiz-adv-x="684" d="M170 659H232L296 273L321 127H325L400 273L614 659H675L543 0H501L589 436Q598 478 608 525T629 613H625L547 470L330 74H293L224 470L201 613H197Q189 571 182 525T167 436L80 0H39L170 659Z" />
<glyph unicode="N" glyph-name="N" horiz-adv-x="605" d="M170 659H216L391 191L437 57H441Q449 105 456 154T473 251L554 659H597L465 0H421L248 466L200 605H196Q188 556 180 508T162 413L81 0H39L170 659Z" />
<glyph unicode="O" glyph-name="O" horiz-adv-x="618" d="M277 -12Q223 -12 183 8T115 64T75 151T61 262Q61 308 70 356T98 449T144 535T206 605T283 653T374 671Q428 671 468 651T536 595T576 508T590 397Q590 351 581 303T553 210T507 124T445 54T368 6T277
-12ZM371 634Q308 634 259 599T175 509T123 390T105 267Q105 213 115 169T146 92T201 43T280 25Q343 25 393 60T477 150T529 269T547 392Q547 446 537 490T506 567T451 616T371 634Z" />
<glyph unicode="P" glyph-name="P" horiz-adv-x="531" d="M170 659H343Q434 659 486 623T539 506Q539 450 519 409T463 341T375 300T260 286H138L82 0H39L170 659ZM256 322Q375 322 435 367T496 502Q496 567 453 595T325 623H205L146 322H256Z" />
<glyph unicode="Q" glyph-name="Q" horiz-adv-x="618" d="M105 267Q105 213 115 169T146 92T201 43T280 25Q343 25 393 60T477 150T529 269T547 392Q547 446 537 490T506 567T451 616T371 634Q308 634 259 599T175 509T123 390T105 267ZM501 -146Q474 -153 445
-153Q372 -153 316 -119T241 -9Q196 -3 162 19T106 77T72 160T61 262Q61 308 70 356T98 449T144 535T206 605T283 653T374 671Q428 671 468 651T536 595T576 508T590 397Q590 329 569 258T509 127T413 29T284 -12Q299 -65 343 -90T448 -115Q472 -115 496 -109L501
-146Z" />
<glyph unicode="R" glyph-name="R" horiz-adv-x="531" d="M265 337Q372 337 429 383T487 510Q487 572 445 597T317 623H205L150 337H265ZM336 659Q425 659 477 625T530 514Q530 469 515 433T471 370T405 326T320 304L445 0H397L275 301H142L82 0H39L170 659H336Z" />
<glyph unicode="S" glyph-name="S" horiz-adv-x="493" d="M49 123Q81 76 125 51T232 25Q268 25 298 36T351 66T387 114T400 177Q400 219 377 248T315 300L230 351Q210 363 191 378T158 411T136 451T127 501Q127 535 141 565T180 619T240 657T317 671Q377 671 422
645T495 582L465 556Q440 588 402 611T311 634Q279 634 253 623T209 593T181 552T171 506Q171 460 197 433T258 385L341 337Q388 309 416 273T444 182Q444 138 428 103T382 42T313 2T227 -12Q158 -12 105 16T16 100L49 123Z" />
<glyph unicode="T" glyph-name="T" horiz-adv-x="497" d="M300 620H98L106 659H553L545 620H343L219 0H176L300 620Z" />
<glyph unicode="U" glyph-name="U" horiz-adv-x="600" d="M168 659H211L134 273Q128 250 126 230T124 192Q124 112 162 69T277 25Q308 25 337 37T392 75T436 142T468 242L551 659H594L509 236Q495 167 471 120T417 44T349 1T273 -12Q182 -12 132 38T81 184Q81
204 83 224T90 269L168 659Z" />
<glyph unicode="V" glyph-name="V" horiz-adv-x="463" d="M83 659H125L159 269Q164 215 169 160T179 48H183Q210 102 238 159T294 269L497 659H541L195 0H145L83 659Z" />
<glyph unicode="W" glyph-name="W" horiz-adv-x="734" d="M107 659H150L148 270Q146 216 146 162T144 54H148Q173 108 198 162T246 270L427 659H471L484 270Q488 162 490 54H494Q537 162 584 270L745 659H789L508 0H454L440 453Q440 492 440 530T440 608H436Q421
568 404 531T369 453L160 0H106L107 659Z" />
<glyph unicode="X" glyph-name="X" horiz-adv-x="459" d="M222 343L109 659H154L223 459Q231 436 237 416T252 372H255Q290 418 324 464L467 659H513L270 337L393 0H348L275 209Q266 233 258 258T240 309H238Q217 283 197 256T160 203L10 0H-36L222 343Z" />
<glyph unicode="Y" glyph-name="Y" horiz-adv-x="433" d="M194 268L85 659H129L184 451Q194 415 202 381T221 309H225Q249 344 272 380T320 451L464 659H510L237 268L183 0H140L194 268Z" />
<glyph unicode="Z" glyph-name="Z" horiz-adv-x="505" d="M7 26L472 622H147L155 659H531L526 633L63 37H422L414 0H1L7 26Z" />
<glyph unicode="[" glyph-name="bracketleft" horiz-adv-x="270" d="M173 -124L166 -152H15L187 708H338L335 680H214L54 -124H173Z" />
<glyph unicode="\" glyph-name="backslash" horiz-adv-x="347" d="M89 710H121L261 -160H229L89 710Z" />
<glyph unicode="]" glyph-name="bracketright" horiz-adv-x="270" d="M65 -124L228 680H107L112 708H265L93 -152H-60L-54 -124H65Z" />
<glyph unicode="^" glyph-name="asciicircum" horiz-adv-x="464" d="M234 670H268L413 288H377L301 491L253 623H251L204 491L128 288H90L234 670Z" />
<glyph unicode="_" glyph-name="underscore" horiz-adv-x="484" d="M436 -81L429 -115H-29L-21 -81H436Z" />
<glyph unicode="`" glyph-name="grave" horiz-adv-x="508" d="M273 706H319L378 570H346L273 706Z" />
<glyph unicode="a" glyph-name="a" horiz-adv-x="527" d="M44 161Q44 230 66 290T124 396T208 466T305 492Q347 492 378 471T429 414H432L451 480H485L389 0H354L365 76H361Q324 38 279 13T184 -12Q121 -12 83 32T44 161ZM193 24Q240 24 285 51T373 128L423 369Q397
416 368 436T304 456Q261 456 222 432T152 367T104 275T86 169Q86 96 114 60T193 24Z" />
<glyph unicode="b" glyph-name="b" horiz-adv-x="526" d="M40 0L184 719H225L183 510L162 413H164Q202 444 247 468T341 492Q405 492 443 448T481 319Q481 250 459 190T401 84T317 14T221 -12Q178 -12 148 9T97 66H94L75 0H40ZM332 456Q292 456 244 431T155 367L103
111Q129 64 158 44T221 24Q264 24 303 48T373 113T422 206T440 312Q440 384 411 420T332 456Z" />
<glyph unicode="c" glyph-name="c" horiz-adv-x="430" d="M42 178Q42 248 64 305T123 404T206 469T301 492Q343 492 371 476T422 434L396 406Q374 432 353 444T298 456Q257 456 219 434T150 375T102 289T84 184Q84 106 117 65T217 24Q253 24 284 39T341 74L362
44Q336 24 299 6T212 -12Q134 -12 88 37T42 178Z" />
<glyph unicode="d" glyph-name="d" horiz-adv-x="528" d="M451 510L493 719H534L389 0H354L365 76H361Q324 38 279 13T184 -12Q121 -12 83 32T44 161Q44 230 66 290T124 396T208 466T305 492Q347 492 378 471T428 415H432L451 510ZM193 24Q240 24 285 51T373 128L423
369Q397 416 368 436T304 456Q261 456 222 432T152 367T104 275T86 169Q86 96 114 60T193 24Z" />
<glyph unicode="e" glyph-name="e" horiz-adv-x="471" d="M42 186Q42 254 64 310T121 407T201 470T292 492Q331 492 358 480T403 445T428 391T436 322Q436 296 432 274T423 238H88Q78 181 86 141T114 74T164 36T231 23Q263 23 294 37T351 70L370 40Q341 19 304
4T225 -12Q141 -12 92 38T42 186ZM392 271Q398 299 398 328Q398 352 393 375T374 417T340 446T288 457Q256 457 226 444T169 405T124 346T94 271H392Z" />
<glyph unicode="f" glyph-name="f" horiz-adv-x="256" d="M79 476L143 480L165 590Q180 662 214 696T297 731Q322 731 339 725T372 709L354 678Q343 685 330 690T297 695Q261 695 238 665T206 590L184 480H290L282 444H176L88 0H47L135 444H73L79 476Z" />
<glyph unicode="g" glyph-name="g" horiz-adv-x="521" d="M479 480L374 -41Q356 -130 304 -180T167 -231Q115 -231 76 -211T4 -165L27 -135Q54 -160 89 -177T169 -195Q240 -195 280 -149T337 -26L361 82H357Q320 47 277 23T183 -2Q121 -2 83 41T44 169Q44 236
66 294T124 397T205 466T299 492Q341 492 372 471T422 414H426L445 480H479ZM191 35Q231 35 278 61T367 132L417 369Q389 416 361 436T298 456Q257 456 219 432T152 368T104 278T86 176Q86 105 114 70T191 35Z" />
<glyph unicode="h" glyph-name="h" horiz-adv-x="504" d="M184 719H225L171 453L158 403H162Q209 442 250 467T336 492Q398 492 424 460T450 375Q450 357 449 344T442 310L380 0H339L401 304Q405 326 407 339T409 366Q409 411 389 433T323 455Q291 455 249 432T153
354L82 0H40L184 719Z" />
<glyph unicode="i" glyph-name="i" horiz-adv-x="220" d="M137 480H178L82 0H40L137 480ZM183 596Q169 596 160 605T150 629Q150 649 162 661T192 674Q206 674 215 665T225 640Q225 621 213 609T183 596Z" />
<glyph unicode="j" glyph-name="j" horiz-adv-x="220" d="M64 -88Q50 -154 22 -191T-57 -229Q-79 -229 -93 -225T-120 -213L-104 -180Q-95 -186 -85 -189T-57 -193Q-27 -193 -9 -166T21 -93L137 480H178L64 -88ZM184 596Q170 596 160 605T150 629Q150 649 162
661T192 674Q206 674 216 665T226 640Q226 621 213 609T184 596Z" />
<glyph unicode="k" glyph-name="k" horiz-adv-x="447" d="M184 719H225L120 190H123L407 480H457L269 285L385 0H342L238 258L107 125L82 0H40L184 719Z" />
<glyph unicode="l" glyph-name="l" horiz-adv-x="232" d="M184 719H225L94 59Q92 51 92 47T92 39Q92 24 106 24Q110 24 112 24T123 28L126 -5Q118 -9 111 -10T92 -12Q72 -12 60 -1T48 31Q48 42 53 62L184 719Z" />
<glyph unicode="m" glyph-name="m" horiz-adv-x="782" d="M137 480H171L160 404H164Q205 442 247 467T324 492Q354 492 374 484T408 463T427 431T435 392Q485 440 530 466T610 492Q670 492 696 460T723 375Q723 357 722 344T715 310L653 0H611L673 304Q678 326
679 339T681 366Q681 411 662 433T598 455Q575 455 532 432T438 354L367 0H326L387 304Q392 326 393 339T395 366Q395 411 376 433T312 455Q289 455 246 432T153 354L82 0H40L137 480Z" />
<glyph unicode="n" glyph-name="n" horiz-adv-x="510" d="M137 480H171L160 404H164Q209 442 250 467T336 492Q398 492 424 460T450 375Q450 357 449 344T442 310L380 0H339L401 304Q405 326 407 339T409 366Q409 411 389 433T323 455Q291 455 249 432T153 354L82
0H40L137 480Z" />
<glyph unicode="o" glyph-name="o" horiz-adv-x="504" d="M206 -12Q132 -12 88 37T44 178Q44 245 65 302T121 402T202 468T297 492Q372 492 416 443T460 302Q460 235 439 178T382 78T301 12T206 -12ZM294 456Q255 456 218 434T151 375T103 289T85 184Q85 106 117
65T210 24Q249 24 286 46T352 105T400 191T418 297Q418 375 386 415T294 456Z" />
<glyph unicode="p" glyph-name="p" horiz-adv-x="524" d="M71 -43L38 -217H-3L137 480H171L161 412H165Q203 444 247 468T341 492Q405 492 443 448T481 319Q481 250 459 190T401 84T317 14T221 -12Q179 -12 147 10T94 65H92L71 -43ZM332 456Q292 456 244 431T155
366L103 107Q129 62 158 43T221 24Q264 24 303 48T373 113T422 206T440 312Q440 384 411 420T332 456Z" />
<glyph unicode="q" glyph-name="q" horiz-adv-x="527" d="M365 78H363Q326 40 280 14T184 -12Q121 -12 83 32T44 161Q44 230 66 290T124 396T208 466T305 492Q347 492 378 471T429 414H432L451 480H485L346 -217H304L339 -43L365 78ZM193 24Q233 24 281 51T373
128L423 369Q397 416 368 436T304 456Q261 456 222 432T152 367T104 275T86 169Q86 96 114 60T193 24Z" />
<glyph unicode="r" glyph-name="r" horiz-adv-x="317" d="M137 480H171L156 389H160Q190 432 227 462T311 492Q321 492 331 491T354 484L338 445Q331 448 323 450T300 453Q262 453 220 418T145 318L82 0H40L137 480Z" />
<glyph unicode="s" glyph-name="s" horiz-adv-x="389" d="M28 99Q48 67 83 45T164 23Q189 23 211 31T250 53T277 85T287 124Q287 138 283 150T269 175T241 199T195 227Q163 244 141 259T104 290T84 322T78 357Q78 387 90 412T123 455T171 482T229 492Q270 492
303 476T362 434L335 408Q315 428 290 442T228 457Q205 457 185 450T150 429T127 399T118 363Q118 346 125 333T145 308T173 287T207 267Q246 246 269 228T306 194T323 163T327 131Q327 98 314 72T279 27T226 -2T159 -12Q133 -12 109 -5T64 16T26 44T-1 77L28 99Z"
/>
<glyph unicode="t" glyph-name="t" horiz-adv-x="299" d="M142 444H67L73 476L151 480L184 617H219L191 480H321L313 444H183L118 129Q116 120 115 111T114 91Q114 58 128 41T182 24Q199 24 213 29T240 41L251 10Q237 2 217 -5T174 -12Q146 -12 127 -5T95 16T78
46T73 83Q73 97 74 107T77 131L142 444Z" />
<glyph unicode="u" glyph-name="u" horiz-adv-x="518" d="M379 0H345L355 78H351Q307 40 266 14T181 -12Q119 -12 93 20T66 105Q66 123 67 136T74 170L136 480H177L116 176Q111 154 110 141T108 114Q108 69 128 47T193 25Q225 25 267 49T363 126L434 480H475L379 0Z" />
<glyph unicode="v" glyph-name="v" horiz-adv-x="419" d="M58 480H99L145 177Q151 142 155 106T165 35H169Q187 70 206 106T244 177L407 480H450L187 0H134L58 480Z" />
<glyph unicode="w" glyph-name="w" horiz-adv-x="683" d="M69 480H110L134 166Q137 133 139 101T144 36H148Q163 68 177 100T206 166L350 480H400L422 166Q424 133 425 101T429 36H433Q447 68 461 100T492 166L638 480H678L452 0H396L376 299Q374 334 373 371T369
442H365Q350 408 335 371T303 299L166 0H110L69 480Z" />
<glyph unicode="x" glyph-name="x" horiz-adv-x="393" d="M177 254L82 480H125L175 359Q183 336 190 318T206 279H210Q227 299 244 318T279 359L384 480H430L227 245L329 0H286L235 130Q226 153 217 176T196 221H192Q157 177 115 132L1 0H-47L177 254Z" />
<glyph unicode="y" glyph-name="y" horiz-adv-x="419" d="M-62 -174Q-46 -183 -28 -183Q15 -183 52 -147T119 -49L140 -7L59 480H100L147 179Q152 144 157 107T167 36H171Q189 71 207 107T246 179L408 480H450L154 -59Q138 -89 120 -118T79 -169T29 -205T-31 -219Q-39
-219 -51 -217T-78 -207L-62 -174V-174Z" />
<glyph unicode="z" glyph-name="z" horiz-adv-x="391" d="M-6 25L352 444H107L115 480H413L409 455L50 36H332L324 0H-10L-6 25Z" />
<glyph unicode="{" glyph-name="braceleft" horiz-adv-x="268" d="M48 -76Q48 -49 57 -11T76 68T96 146T105 208Q105 218 103 227T93 245T71 258T35 263L42 293Q68 293 85 300T114 319T131 345T140 375Q149 423 156 475T175 578Q182 616 192 641T218 681T253 702T302
708H337L332 680H302Q257 680 238 654T207 574Q199 529 192 481T176 384Q166 339 150 313T101 278V274Q123 265 130 250T137 218Q137 191 129 152T110 73T91 -5T82 -68Q82 -96 95 -110T144 -124H172L165 -152H131Q88 -152 68 -135T48 -76Z" />
<glyph unicode="|" glyph-name="bar" horiz-adv-x="217" d="M99 750H132V-250H99V750Z" />
<glyph unicode="}" glyph-name="braceright" horiz-adv-x="270" d="M229 632Q229 605 220 566T201 486T181 408T172 346Q172 337 174 328T184 311T205 298T242 293L234 263Q208 263 191 256T162 237T145 211T136 181Q127 133 120 80T102 -24Q94 -62 84 -86T58
-125T23 -146T-25 -152H-61L-55 -124H-25Q20 -124 39 -99T69 -20Q78 25 85 73T101 170Q110 216 127 242T176 278V282Q153 291 146 306T139 338Q139 364 147 402T166 481T185 559T194 622Q194 651 182 665T133 680H104L111 708H145Q189 708 209 690T229 632Z" />
<glyph unicode="~" glyph-name="asciitilde" horiz-adv-x="462" d="M49 312Q70 354 97 373T154 393Q181 393 204 379T247 348T287 317T327 303Q349 303 367 317T404 366L431 350Q410 308 383 289T326 269Q299 269 276 283T233 314T193 345T153 359Q131 359 113
345T76 296L49 312Z" />
<glyph unicode="&#xa0;" glyph-name="uni00A0" horiz-adv-x="189" />
<glyph unicode="&#xa1;" glyph-name="exclamdown" horiz-adv-x="253" d="M77 -120L64 -192H23L37 -120L125 302H157L77 -120ZM176 492Q192 492 200 482T209 457Q209 438 195 421T160 404Q144 404 137 414T129 441Q129 461 142 476T176 492Z" />
<glyph unicode="&#xa2;" glyph-name="cent" horiz-adv-x="462" d="M304 524Q272 521 240 503T181 456T139 386T123 296Q123 229 149 187T227 137L304 524ZM345 560Q383 555 409 537T455 496L427 469Q407 493 388 507T338 524L261 135Q299 137 330 151T387 185L404
153Q375 135 340 118T254 99L232 -11H198L220 101Q155 109 118 156T81 288Q81 349 101 398T155 483T229 538T311 561L332 667H366L345 560Z" />
<glyph unicode="&#xa3;" glyph-name="sterling" horiz-adv-x="462" d="M156 327Q154 356 152 385T149 440Q149 490 162 529T201 596T260 637T336 652Q385 652 416 627T466 570L434 547Q417 576 392 596T333 616Q301 616 275 604T230 568T200 514T189 443Q189 417
192 387T197 327H358L351 293H199V277Q199 200 174 144T96 41V37H369L363 0H7L12 24Q87 63 123 128T159 270Q159 275 159 281T158 293H63L71 323L156 327Z" />
<glyph unicode="&#xa4;" glyph-name="currency" horiz-adv-x="462" d="M332 194Q306 171 274 158T208 144Q141 144 106 190L34 127L13 153L87 218Q81 234 78 252T74 294Q74 340 90 380T135 452L87 516L114 538L161 475Q187 495 217 507T279 519Q311 519 336 508T379
475L453 540L474 514L398 447Q413 415 413 369Q413 325 398 286T357 218L412 145L386 124L332 194ZM275 485Q245 485 216 471T164 432T127 374T113 301Q113 241 138 210T211 179Q241 179 270 193T322 232T359 290T373 363Q373 423 348 454T275 485Z" />
<glyph unicode="&#xa5;" glyph-name="yen" horiz-adv-x="462" d="M153 639L205 443Q213 410 222 376T239 304H243Q268 342 290 376T335 443L460 639H503L277 301H423L416 272H256L242 197H402L395 167H235L202 0H161L194 167H34L41 197H201L215 272H54L61 301H207L111
639H153Z" />
<glyph unicode="&#xa6;" glyph-name="brokenbar" horiz-adv-x="217" d="M99 750H132V278H99V750ZM132 218V-250H99V218H132Z" />
<glyph unicode="&#xa7;" glyph-name="section" horiz-adv-x="460" d="M288 174Q331 191 354 214T377 285Q377 321 357 345T309 389T249 426T193 467Q150 450 125 423T99 350Q99 314 119 291T169 249T231 214T288 174ZM403 585Q381 611 352 628T289 646Q271 646
255 640T225 622T203 594T195 556Q195 528 211 508T252 471T305 438T358 401T399 355T416 292Q416 233 388 202T308 149Q324 123 324 91Q324 62 313 37T282 -7T235 -37T176 -48Q133 -48 94 -30T23 22L49 51Q75 22 109 5T179 -13Q200 -13 219 -6T253 14T275 45T284
84Q284 115 268 136T226 173T172 204T118 237T77 281T60 343Q60 398 91 435T172 492Q164 504 160 518T155 549Q155 580 165 604T194 646T237 672T291 681Q334 681 369 661T431 612L403 585Z" />
<glyph unicode="&#xa8;" glyph-name="dieresis" horiz-adv-x="508" d="M262 598Q248 598 240 606T232 628Q232 647 243 659T269 671Q283 671 291 663T299 639Q299 622 288 610T262 598ZM413 598Q399 598 391 606T383 628Q383 647 394 659T420 671Q434 671 442
663T450 639Q450 622 439 610T413 598Z" />
<glyph unicode="&#xa9;" glyph-name="copyright" horiz-adv-x="661" d="M183 273Q183 328 201 372T249 447T313 494T384 511Q419 511 440 497T479 460L454 438Q439 457 423 467T380 478Q353 478 324 463T272 422T234 360T219 280Q219 218 248 188T327 157Q360
157 387 171T440 203L457 176Q427 154 397 139T323 124Q261 124 222 161T183 273ZM298 -12Q240 -12 193 8T111 65T58 152T39 265Q39 336 64 405T135 529T248 618T395 652Q453 652 500 632T582 576T635 488T654 376Q654 305 629 236T557 111T445 22T298 -12ZM393
624Q320 624 260 592T158 509T92 395T69 269Q69 212 85 166T132 86T204 35T300 17Q373 17 433 49T535 132T601 246T624 372Q624 429 608 475T561 555T489 606T393 624Z" />
<glyph unicode="&#xaa;" glyph-name="ordfeminine" horiz-adv-x="348" d="M63 378Q63 423 78 462T117 531T173 578T239 595Q263 595 283 583T317 545H321L334 587H361L298 269H270L279 320H275Q249 293 220 277T157 261Q115 261 89 290T63 378ZM163 292Q192 292
224 311T283 362L311 509Q294 541 276 552T238 564Q212 564 187 549T142 508T110 450T98 383Q98 335 116 314T163 292Z" />
<glyph unicode="&#xab;" glyph-name="guillemotleft" horiz-adv-x="382" d="M40 236L47 276L205 430L224 410L78 251L166 87L142 72L40 236ZM182 236L189 276L347 430L366 410L220 251L308 87L284 72L182 236Z" />
<glyph unicode="&#xac;" glyph-name="logicalnot" horiz-adv-x="462" d="M48 348H442V108H405V314H48V348Z" />
<glyph unicode="&#xad;" glyph-name="uni00AD" horiz-adv-x="287" d="M43 269H253L245 232H36L43 269Z" />
<glyph unicode="&#xae;" glyph-name="registered" horiz-adv-x="384" d="M206 623H263Q292 623 308 608T324 565Q324 541 310 524T274 499L303 418H272L247 492H209L193 418H164L206 623ZM240 518Q265 518 279 529T294 562Q294 578 285 587T257 597H229L215 518H240ZM224
330Q192 330 164 341T114 374T81 426T68 493Q68 534 83 572T124 641T185 689T262 707Q294 707 322 695T372 662T405 610T418 543Q418 501 403 463T362 395T300 348T224 330ZM260 680Q226 680 197 665T145 625T110 567T97 497Q97 436 131 396T226 356Q259 356 289
370T341 410T376 468T389 539Q389 600 355 640T260 680Z" />
<glyph unicode="&#xaf;" glyph-name="overscore" horiz-adv-x="508" d="M231 640H449L444 606H225L231 640Z" />
<glyph unicode="&#xb0;" glyph-name="degree" horiz-adv-x="292" d="M201 450Q159 450 132 478T105 551Q105 578 114 602T139 644T176 673T223 684Q265 684 292 656T319 583Q319 556 310 532T285 490T248 461T201 450ZM221 655Q202 655 187 647T160 624T142 591T136
555Q136 523 154 501T203 479Q222 479 237 487T264 510T281 543T287 579Q287 611 270 633T221 655Z" />
<glyph unicode="&#xb1;" glyph-name="plusminus" horiz-adv-x="462" d="M226 317H48V352H227V548H263V352H442V317H263V115H226V317ZM48 0V35H442V0H48Z" />
<glyph unicode="&#xb2;" glyph-name="two.sups" horiz-adv-x="346" d="M98 468Q165 516 211 553T287 621T329 680T343 738Q343 773 325 791T269 810Q245 810 221 795T177 757L155 780Q178 805 208 823T273 842Q323 842 351 815T380 742Q380 709 367 678T325 616T255
549T155 471H345L340 440H94L98 468Z" />
<glyph unicode="&#xb3;" glyph-name="three.sups" horiz-adv-x="346" d="M118 526Q132 498 156 479T218 459Q257 459 286 480T315 544Q315 577 286 602T196 627L203 656Q240 656 265 664T307 684T331 713T339 745Q339 775 320 793T267 811Q220 811 174 774L157
801Q208 842 271 842Q317 842 346 818T375 748Q375 711 349 681T278 638Q316 627 334 601T352 549Q352 520 341 498T312 460T269 436T217 428Q171 428 139 452T90 508L118 526Z" />
<glyph unicode="&#xb4;" glyph-name="acute" horiz-adv-x="508" d="M387 706H437L309 570H271L387 706Z" />
<glyph unicode="&#xb5;" glyph-name="uni00B5" horiz-adv-x="514" d="M113 176Q108 154 107 141T105 114Q105 69 125 47T190 25Q222 25 264 49T360 126L431 480H472L376 0H341L352 78H348Q306 40 266 15T184 -11Q149 -11 123 3T85 54L68 -42L38 -198H-3L133 480H174L113
176Z" />
<glyph unicode="&#xb6;" glyph-name="paragraph" horiz-adv-x="492" d="M439 659H480L332 -80H291L439 659ZM298 242Q253 242 213 253T142 285T93 339T75 414Q75 475 97 521T156 597T240 643T337 659H388L304 242H298Z" />
<glyph unicode="&#xb7;" glyph-name="middot" horiz-adv-x="213" d="M114 286Q98 286 90 296T81 321Q81 341 95 357T130 374Q146 374 153 364T161 337Q161 317 148 302T114 286Z" />
<glyph unicode="&#xb8;" glyph-name="cedilla" horiz-adv-x="508" d="M200 2H234L192 -58Q210 -64 224 -77T238 -113Q238 -135 228 -151T199 -179T158 -198T109 -209L105 -185Q147 -177 174 -162T202 -119Q202 -101 189 -92T146 -74L200 2Z" />
<glyph unicode="&#xb9;" glyph-name="one.sups" horiz-adv-x="344" d="M275 768H184L189 793Q227 799 250 807T295 830H323L246 440H210L275 768Z" />
<glyph unicode="&#xba;" glyph-name="ordmasculine" horiz-adv-x="342" d="M173 261Q122 261 93 294T63 387Q63 434 78 472T117 538T173 580T236 595Q288 595 317 562T347 469Q347 422 332 384T293 318T237 276T173 261ZM234 564Q207 564 183 550T139 512T109
457T97 390Q97 343 117 317T176 291Q203 291 227 305T271 343T301 398T313 465Q313 513 293 538T234 564Z" />
<glyph unicode="&#xbb;" glyph-name="guillemotright" horiz-adv-x="382" d="M205 266L197 226L40 72L21 92L167 251L78 415L103 430L205 266ZM347 266L339 226L182 72L163 92L309 251L220 415L245 430L347 266Z" />
<glyph unicode="&#xbc;" glyph-name="onequarter" horiz-adv-x="730" d="M218 598H127L132 623Q170 629 193 637T238 660H266L189 270H153L218 598ZM120 -12L610 672H646L156 -12H120ZM576 145L594 237L619 338H615L544 256L446 145H576ZM660 116H603L580 0H547L570
116H399L403 138L627 390H658L609 145H667L660 116Z" />
<glyph unicode="&#xbd;" glyph-name="onehalf" horiz-adv-x="749" d="M214 598H123L128 623Q166 629 189 637T234 660H262L185 270H149L214 598ZM92 -12L582 672H618L128 -12H92ZM411 28Q478 76 524 113T600 181T642 240T656 298Q656 333 638 351T582 370Q558
370 534 355T490 317L468 340Q491 365 521 383T586 402Q636 402 664 375T693 302Q693 269 680 238T638 176T568 109T468 31H658L653 0H407L411 28Z" />
<glyph unicode="&#xbe;" glyph-name="threequarters" horiz-adv-x="749" d="M78 356Q92 328 116 309T178 289Q217 289 246 310T275 374Q275 407 246 432T156 457L163 486Q200 486 225 494T267 514T291 543T299 575Q299 605 280 623T227 641Q180 641 134 604L117
631Q168 672 231 672Q277 672 306 648T335 578Q335 541 309 511T238 468Q276 457 294 431T312 379Q312 350 301 328T272 290T229 266T177 258Q131 258 99 282T50 338L78 356ZM160 -12L650 672H686L196 -12H160ZM597 145L615 237L640 338H636L565 256L467 145H597ZM681
116H624L601 0H568L591 116H420L424 138L648 390H679L630 145H688L681 116Z" />
<glyph unicode="&#xbf;" glyph-name="questiondown" horiz-adv-x="388" d="M259 494Q275 494 283 484T292 459Q292 439 278 423T243 406Q227 406 220 416T212 443Q212 463 225 478T259 494ZM245 299Q243 256 227 222T188 160T138 106T88 56T50 2T35 -61Q35 -110
61 -137T133 -164Q167 -164 199 -148T255 -105L279 -132Q253 -160 214 -180T129 -200Q66 -200 31 -166T-5 -69Q-5 -28 10 4T48 65T98 118T148 171T189 230T208 302L245 299Z" />
<glyph unicode="&#xc0;" glyph-name="Agrave" horiz-adv-x="488" d="M370 264L355 391Q350 446 344 501T332 616H328Q299 556 270 502T210 391L142 264H370ZM374 229H123L0 0H-48L315 659H362L443 0H400L374 229ZM249 813H295L371 709H335L249 813Z" />
<glyph unicode="&#xc1;" glyph-name="Aacute" horiz-adv-x="488" d="M370 264L355 391Q350 446 344 501T332 616H328Q299 556 270 502T210 391L142 264H370ZM374 229H123L0 0H-48L315 659H362L443 0H400L374 229ZM408 813H460L338 709H299L408 813Z" />
<glyph unicode="&#xc2;" glyph-name="Acircumflex" horiz-adv-x="488" d="M370 264L355 391Q350 446 344 501T332 616H328Q299 556 270 502T210 391L142 264H370ZM374 229H123L0 0H-48L315 659H362L443 0H400L374 229ZM336 813H374L445 709H410L354 783H350L264
709H224L336 813Z" />
<glyph unicode="&#xc3;" glyph-name="Atilde" horiz-adv-x="488" d="M370 264L355 391Q350 446 344 501T332 616H328Q299 556 270 502T210 391L142 264H370ZM374 229H123L0 0H-48L315 659H362L443 0H400L374 229ZM210 716Q213 732 221 748T240 777T266 798T296
806Q313 806 325 797T348 776T369 756T395 746Q413 746 426 762T448 804H476Q473 787 465 771T446 743T420 722T390 714Q373 714 361 723T338 744T317 764T291 774Q273 774 260 758T239 716H210Z" />
<glyph unicode="&#xc4;" glyph-name="Adieresis" horiz-adv-x="488" d="M370 264L355 391Q350 446 344 501T332 616H328Q299 556 270 502T210 391L142 264H370ZM374 229H123L0 0H-48L315 659H362L443 0H400L374 229ZM266 723Q252 723 244 731T236 753Q236 771
247 783T273 795Q287 795 295 787T303 764Q303 747 292 735T266 723ZM417 723Q403 723 395 731T387 753Q387 771 398 783T424 795Q438 795 446 787T454 764Q454 747 443 735T417 723Z" />
<glyph unicode="&#xc5;" glyph-name="Aring" horiz-adv-x="488" d="M370 264L355 391Q350 446 344 501T332 616H328Q299 556 270 502T210 391L142 264H370ZM374 229H123L0 0H-48L315 659H362L443 0H400L374 229ZM340 698Q308 698 287 716T266 773Q266 792 273
809T292 838T321 858T355 866Q387 866 408 847T429 790Q429 771 422 754T403 725T374 705T340 698ZM353 840Q330 840 313 822T295 776Q295 724 342 724Q365 724 382 742T400 788Q400 812 388 826T353 840Z" />
<glyph unicode="&#xc6;" glyph-name="AE" horiz-adv-x="782" d="M469 622H465Q423 563 382 506T298 389L200 253H395L469 622ZM511 622L460 368H705L697 331H454L394 37H695L687 0H345L388 217H174L18 0H-32L449 659H810L802 622H511Z" />
<glyph unicode="&#xc7;" glyph-name="Ccedilla" horiz-adv-x="540" d="M58 248Q58 321 81 396T147 533T252 632T392 671Q448 671 485 644T546 578L514 555Q494 589 464 611T389 634Q321 634 268 598T177 507T121 384T101 254Q101 205 112 163T145 91T203 43T286
25Q332 25 369 42T442 89L465 61Q424 27 381 8T281 -12Q225 -12 184 7T114 62T72 144T58 248ZM261 2H295L253 -58Q271 -64 285 -77T299 -113Q299 -135 289 -151T260 -179T219 -198T170 -209L166 -185Q208 -177 235 -162T263 -119Q263 -101 250 -92T207 -74L261
2Z" />
<glyph unicode="&#xc8;" glyph-name="Egrave" horiz-adv-x="489" d="M170 659H518L510 622H205L154 368H412L404 331H148L88 37H402L394 0H39L170 659ZM265 813H311L387 709H351L265 813Z" />
<glyph unicode="&#xc9;" glyph-name="Eacute" horiz-adv-x="489" d="M170 659H518L510 622H205L154 368H412L404 331H148L88 37H402L394 0H39L170 659ZM424 813H476L354 709H315L424 813Z" />
<glyph unicode="&#xca;" glyph-name="Ecircumflex" horiz-adv-x="489" d="M170 659H518L510 622H205L154 368H412L404 331H148L88 37H402L394 0H39L170 659ZM352 813H390L461 709H426L370 783H366L280 709H240L352 813Z" />
<glyph unicode="&#xcb;" glyph-name="Edieresis" horiz-adv-x="489" d="M170 659H518L510 622H205L154 368H412L404 331H148L88 37H402L394 0H39L170 659ZM282 723Q268 723 260 731T252 753Q252 771 263 783T289 795Q303 795 311 787T319 764Q319 747 308 735T282
723ZM433 723Q419 723 411 731T403 753Q403 771 414 783T440 795Q454 795 462 787T470 764Q470 747 459 735T433 723Z" />
<glyph unicode="&#xcc;" glyph-name="Igrave" horiz-adv-x="227" d="M170 659H213L82 0H39L170 659ZM108 813H154L230 709H194L108 813Z" />
<glyph unicode="&#xcd;" glyph-name="Iacute" horiz-adv-x="227" d="M170 659H213L82 0H39L170 659ZM267 813H319L197 709H158L267 813Z" />
<glyph unicode="&#xce;" glyph-name="Icircumflex" horiz-adv-x="227" d="M170 659H213L82 0H39L170 659ZM195 813H233L304 709H269L213 783H209L123 709H83L195 813Z" />
<glyph unicode="&#xcf;" glyph-name="Idieresis" horiz-adv-x="227" d="M170 659H213L82 0H39L170 659ZM125 723Q111 723 103 731T95 753Q95 771 106 783T132 795Q146 795 154 787T162 764Q162 747 151 735T125 723ZM276 723Q262 723 254 731T246 753Q246 771
257 783T283 795Q297 795 305 787T313 764Q313 747 302 735T276 723Z" />
<glyph unicode="&#xd0;" glyph-name="Eth" horiz-adv-x="595" d="M218 36Q291 36 348 65T445 143T505 259T526 400Q526 450 512 491T469 561T397 607T295 623H223L172 365H336L329 334H165L106 36H218ZM297 659Q365 659 416 641T501 589T552 508T569 403Q569 317
546 244T479 116T369 31T217 0H57L123 334H52L59 363L130 365L188 659H297Z" />
<glyph unicode="&#xd1;" glyph-name="Ntilde" horiz-adv-x="605" d="M170 659H216L391 191L437 57H441Q449 105 456 154T473 251L554 659H597L465 0H421L248 466L200 605H196Q188 556 180 508T162 413L81 0H39L170 659ZM262 716Q265 732 273 748T292 777T318 798T348
806Q365 806 377 797T400 776T421 756T447 746Q465 746 478 762T500 804H528Q525 787 517 771T498 743T472 722T442 714Q425 714 413 723T390 744T369 764T343 774Q325 774 312 758T291 716H262Z" />
<glyph unicode="&#xd2;" glyph-name="Ograve" horiz-adv-x="618" d="M277 -12Q223 -12 183 8T115 64T75 151T61 262Q61 308 70 356T98 449T144 535T206 605T283 653T374 671Q428 671 468 651T536 595T576 508T590 397Q590 351 581 303T553 210T507 124T445 54T368
6T277 -12ZM371 634Q308 634 259 599T175 509T123 390T105 267Q105 213 115 169T146 92T201 43T280 25Q343 25 393 60T477 150T529 269T547 392Q547 446 537 490T506 567T451 616T371 634ZM311 813H357L433 709H397L311 813Z" />
<glyph unicode="&#xd3;" glyph-name="Oacute" horiz-adv-x="618" d="M277 -12Q223 -12 183 8T115 64T75 151T61 262Q61 308 70 356T98 449T144 535T206 605T283 653T374 671Q428 671 468 651T536 595T576 508T590 397Q590 351 581 303T553 210T507 124T445 54T368
6T277 -12ZM371 634Q308 634 259 599T175 509T123 390T105 267Q105 213 115 169T146 92T201 43T280 25Q343 25 393 60T477 150T529 269T547 392Q547 446 537 490T506 567T451 616T371 634ZM470 813H522L400 709H361L470 813Z" />
<glyph unicode="&#xd4;" glyph-name="Ocircumflex" horiz-adv-x="618" d="M277 -12Q223 -12 183 8T115 64T75 151T61 262Q61 308 70 356T98 449T144 535T206 605T283 653T374 671Q428 671 468 651T536 595T576 508T590 397Q590 351 581 303T553 210T507 124T445
54T368 6T277 -12ZM371 634Q308 634 259 599T175 509T123 390T105 267Q105 213 115 169T146 92T201 43T280 25Q343 25 393 60T477 150T529 269T547 392Q547 446 537 490T506 567T451 616T371 634ZM398 813H436L507 709H472L416 783H412L326 709H286L398 813Z" />
<glyph unicode="&#xd5;" glyph-name="Otilde" horiz-adv-x="618" d="M277 -12Q223 -12 183 8T115 64T75 151T61 262Q61 308 70 356T98 449T144 535T206 605T283 653T374 671Q428 671 468 651T536 595T576 508T590 397Q590 351 581 303T553 210T507 124T445 54T368
6T277 -12ZM371 634Q308 634 259 599T175 509T123 390T105 267Q105 213 115 169T146 92T201 43T280 25Q343 25 393 60T477 150T529 269T547 392Q547 446 537 490T506 567T451 616T371 634ZM272 716Q275 732 283 748T302 777T328 798T358 806Q375 806 387 797T410
776T431 756T457 746Q475 746 488 762T510 804H538Q535 787 527 771T508 743T482 722T452 714Q435 714 423 723T400 744T379 764T353 774Q335 774 322 758T301 716H272Z" />
<glyph unicode="&#xd6;" glyph-name="Odieresis" horiz-adv-x="618" d="M277 -12Q223 -12 183 8T115 64T75 151T61 262Q61 308 70 356T98 449T144 535T206 605T283 653T374 671Q428 671 468 651T536 595T576 508T590 397Q590 351 581 303T553 210T507 124T445
54T368 6T277 -12ZM371 634Q308 634 259 599T175 509T123 390T105 267Q105 213 115 169T146 92T201 43T280 25Q343 25 393 60T477 150T529 269T547 392Q547 446 537 490T506 567T451 616T371 634ZM328 723Q314 723 306 731T298 753Q298 771 309 783T335 795Q349
795 357 787T365 764Q365 747 354 735T328 723ZM479 723Q465 723 457 731T449 753Q449 771 460 783T486 795Q500 795 508 787T516 764Q516 747 505 735T479 723Z" />
<glyph unicode="&#xd7;" glyph-name="multiply" horiz-adv-x="462" d="M90 145L66 169L221 332L66 493L90 517L245 356L400 517L424 493L269 332L424 169L400 145L245 308L90 145Z" />
<glyph unicode="&#xd8;" glyph-name="Oslash" horiz-adv-x="618" d="M141 101Q162 65 196 45T280 25Q343 25 393 60T477 150T529 269T547 392Q547 430 543 462T527 523L141 101ZM513 554Q492 592 457 613T371 634Q308 634 259 599T175 509T123 390T105 267Q105
190 126 133L513 554ZM558 558Q575 525 582 485T590 397Q590 351 581 303T553 210T507 124T445 54T368 6T277 -12Q221 -12 180 9T112 69L27 -24L1 -2L94 99Q61 165 61 262Q61 308 70 356T98 449T144 535T206 605T283 653T374 671Q432 671 474 649T542 586L629 680L650
658L558 558Z" />
<glyph unicode="&#xd9;" glyph-name="Ugrave" horiz-adv-x="600" d="M168 659H211L134 273Q128 250 126 230T124 192Q124 112 162 69T277 25Q308 25 337 37T392 75T436 142T468 242L551 659H594L509 236Q495 167 471 120T417 44T349 1T273 -12Q182 -12 132 38T81
184Q81 204 83 224T90 269L168 659ZM299 813H345L421 709H385L299 813Z" />
<glyph unicode="&#xda;" glyph-name="Uacute" horiz-adv-x="600" d="M168 659H211L134 273Q128 250 126 230T124 192Q124 112 162 69T277 25Q308 25 337 37T392 75T436 142T468 242L551 659H594L509 236Q495 167 471 120T417 44T349 1T273 -12Q182 -12 132 38T81
184Q81 204 83 224T90 269L168 659ZM458 813H510L388 709H349L458 813Z" />
<glyph unicode="&#xdb;" glyph-name="Ucircumflex" horiz-adv-x="600" d="M168 659H211L134 273Q128 250 126 230T124 192Q124 112 162 69T277 25Q308 25 337 37T392 75T436 142T468 242L551 659H594L509 236Q495 167 471 120T417 44T349 1T273 -12Q182 -12 132
38T81 184Q81 204 83 224T90 269L168 659ZM386 813H424L495 709H460L404 783H400L314 709H274L386 813Z" />
<glyph unicode="&#xdc;" glyph-name="Udieresis" horiz-adv-x="600" d="M168 659H211L134 273Q128 250 126 230T124 192Q124 112 162 69T277 25Q308 25 337 37T392 75T436 142T468 242L551 659H594L509 236Q495 167 471 120T417 44T349 1T273 -12Q182 -12 132
38T81 184Q81 204 83 224T90 269L168 659ZM316 723Q302 723 294 731T286 753Q286 771 297 783T323 795Q337 795 345 787T353 764Q353 747 342 735T316 723ZM467 723Q453 723 445 731T437 753Q437 771 448 783T474 795Q488 795 496 787T504 764Q504 747 493 735T467
723Z" />
<glyph unicode="&#xdd;" glyph-name="Yacute" horiz-adv-x="433" d="M194 268L85 659H129L184 451Q194 415 202 381T221 309H225Q249 344 272 380T320 451L464 659H510L237 268L183 0H140L194 268ZM366 813H418L296 709H257L366 813Z" />
<glyph unicode="&#xde;" glyph-name="Thorn" horiz-adv-x="543" d="M170 660H213L190 538H320Q411 538 462 502T514 386Q514 330 494 289T438 220T350 179T235 165H114L81 0H39L170 660ZM231 201Q350 201 410 246T471 381Q471 447 428 474T301 502H182L122 201H231Z" />
<glyph unicode="&#xdf;" glyph-name="germandbls" horiz-adv-x="524" d="M148 536Q156 575 173 610T214 673T269 715T339 731Q393 731 425 701T458 610Q458 577 448 552T421 507T386 471T351 437T325 402T314 362Q314 339 325 322T355 291T393 262T431 230T460
189T472 134Q472 104 461 78T429 31T380 0T318 -12Q283 -12 247 1T182 41L205 69Q231 48 258 36T319 23Q342 23 362 31T398 52T423 85T432 127Q432 155 420 175T391 213T353 244T315 275T285 309T273 354Q273 382 283 404T310 444T345 479T380 515T406 556T417
607Q417 645 399 670T336 695Q308 695 284 682T241 645T207 590T186 524L82 0H40L148 536Z" />
<glyph unicode="&#xe0;" glyph-name="agrave" horiz-adv-x="527" d="M44 161Q44 230 66 290T124 396T208 466T305 492Q347 492 378 471T429 414H432L451 480H485L389 0H354L365 76H361Q324 38 279 13T184 -12Q121 -12 83 32T44 161ZM193 24Q240 24 285 51T373
128L423 369Q397 416 368 436T304 456Q261 456 222 432T152 367T104 275T86 169Q86 96 114 60T193 24ZM268 706H314L373 570H341L268 706Z" />
<glyph unicode="&#xe1;" glyph-name="aacute" horiz-adv-x="527" d="M44 161Q44 230 66 290T124 396T208 466T305 492Q347 492 378 471T429 414H432L451 480H485L389 0H354L365 76H361Q324 38 279 13T184 -12Q121 -12 83 32T44 161ZM193 24Q240 24 285 51T373
128L423 369Q397 416 368 436T304 456Q261 456 222 432T152 367T104 275T86 169Q86 96 114 60T193 24ZM382 706H432L304 570H266L382 706Z" />
<glyph unicode="&#xe2;" glyph-name="acircumflex" horiz-adv-x="527" d="M44 161Q44 230 66 290T124 396T208 466T305 492Q347 492 378 471T429 414H432L451 480H485L389 0H354L365 76H361Q324 38 279 13T184 -12Q121 -12 83 32T44 161ZM193 24Q240 24 285 51T373
128L423 369Q397 416 368 436T304 456Q261 456 222 432T152 367T104 275T86 169Q86 96 114 60T193 24ZM335 706H364L431 570H399L346 668H342L249 570H213L335 706Z" />
<glyph unicode="&#xe3;" glyph-name="atilde" horiz-adv-x="527" d="M44 161Q44 230 66 290T124 396T208 466T305 492Q347 492 378 471T429 414H432L451 480H485L389 0H354L365 76H361Q324 38 279 13T184 -12Q121 -12 83 32T44 161ZM193 24Q240 24 285 51T373
128L423 369Q397 416 368 436T304 456Q261 456 222 432T152 367T104 275T86 169Q86 96 114 60T193 24ZM203 581Q214 616 234 642T283 669Q304 669 317 660T340 640T360 620T388 611Q402 611 414 627T435 667H463Q453 633 433 606T384 579Q363 579 350 588T327 608T305
629T278 638Q265 638 253 622T231 581H203Z" />
<glyph unicode="&#xe4;" glyph-name="adieresis" horiz-adv-x="527" d="M44 161Q44 230 66 290T124 396T208 466T305 492Q347 492 378 471T429 414H432L451 480H485L389 0H354L365 76H361Q324 38 279 13T184 -12Q121 -12 83 32T44 161ZM193 24Q240 24 285 51T373
128L423 369Q397 416 368 436T304 456Q261 456 222 432T152 367T104 275T86 169Q86 96 114 60T193 24ZM257 598Q243 598 235 606T227 628Q227 647 238 659T264 671Q278 671 286 663T294 639Q294 622 283 610T257 598ZM408 598Q394 598 386 606T378 628Q378 647
389 659T415 671Q429 671 437 663T445 639Q445 622 434 610T408 598Z" />
<glyph unicode="&#xe5;" glyph-name="aring" horiz-adv-x="527" d="M44 161Q44 230 66 290T124 396T208 466T305 492Q347 492 378 471T429 414H432L451 480H485L389 0H354L365 76H361Q324 38 279 13T184 -12Q121 -12 83 32T44 161ZM193 24Q240 24 285 51T373 128L423
369Q397 416 368 436T304 456Q261 456 222 432T152 367T104 275T86 169Q86 96 114 60T193 24ZM325 535Q293 535 272 555T251 613Q251 632 258 649T277 680T306 701T341 709Q373 709 393 690T414 632Q414 612 407 595T388 564T359 543T325 535ZM339 683Q316 683
299 663T281 615Q281 591 293 576T327 561Q350 561 367 581T385 629Q385 654 373 668T339 683Z" />
<glyph unicode="&#xe6;" glyph-name="ae" horiz-adv-x="765" d="M38 103Q38 153 61 188T127 247T230 281T365 296Q369 314 370 326T372 353Q372 403 351 429T278 456Q244 456 208 443T136 410L121 442Q156 462 198 477T283 492Q337 492 369 465T407 380Q442 432
488 462T585 492Q624 492 651 480T696 445T721 391T729 322Q729 296 725 274T716 238H395Q386 191 391 152T414 84T459 39T523 23Q556 23 587 37T645 70L663 40Q634 19 597 4T518 -12Q465 -12 424 18T367 93Q316 43 264 16T158 -12Q134 -12 112 -5T74 17T48 52T38
103ZM685 271Q691 299 691 328Q691 352 686 375T667 417T633 446T581 457Q554 457 526 444T474 405T430 346T401 271H685ZM359 263Q296 261 244 252T156 223T99 177T79 112Q79 68 105 46T170 24Q207 24 256 48T356 126Q350 165 351 195T359 263Z" />
<glyph unicode="&#xe7;" glyph-name="ccedilla" horiz-adv-x="430" d="M42 178Q42 248 64 305T123 404T206 469T301 492Q343 492 371 476T422 434L396 406Q374 432 353 444T298 456Q257 456 219 434T150 375T102 289T84 184Q84 106 117 65T217 24Q253 24 284 39T341
74L362 44Q336 24 299 6T212 -12Q134 -12 88 37T42 178ZM190 2H224L182 -58Q200 -64 214 -77T228 -113Q228 -135 218 -151T189 -179T148 -198T99 -209L95 -185Q137 -177 164 -162T192 -119Q192 -101 179 -92T136 -74L190 2Z" />
<glyph unicode="&#xe8;" glyph-name="egrave" horiz-adv-x="471" d="M42 186Q42 254 64 310T121 407T201 470T292 492Q331 492 358 480T403 445T428 391T436 322Q436 296 432 274T423 238H88Q78 181 86 141T114 74T164 36T231 23Q263 23 294 37T351 70L370 40Q341
19 304 4T225 -12Q141 -12 92 38T42 186ZM392 271Q398 299 398 328Q398 352 393 375T374 417T340 446T288 457Q256 457 226 444T169 405T124 346T94 271H392ZM249 706H295L354 570H322L249 706Z" />
<glyph unicode="&#xe9;" glyph-name="eacute" horiz-adv-x="471" d="M42 186Q42 254 64 310T121 407T201 470T292 492Q331 492 358 480T403 445T428 391T436 322Q436 296 432 274T423 238H88Q78 181 86 141T114 74T164 36T231 23Q263 23 294 37T351 70L370 40Q341
19 304 4T225 -12Q141 -12 92 38T42 186ZM392 271Q398 299 398 328Q398 352 393 375T374 417T340 446T288 457Q256 457 226 444T169 405T124 346T94 271H392ZM363 706H413L285 570H247L363 706Z" />
<glyph unicode="&#xea;" glyph-name="ecircumflex" horiz-adv-x="471" d="M42 186Q42 254 64 310T121 407T201 470T292 492Q331 492 358 480T403 445T428 391T436 322Q436 296 432 274T423 238H88Q78 181 86 141T114 74T164 36T231 23Q263 23 294 37T351 70L370
40Q341 19 304 4T225 -12Q141 -12 92 38T42 186ZM392 271Q398 299 398 328Q398 352 393 375T374 417T340 446T288 457Q256 457 226 444T169 405T124 346T94 271H392ZM316 706H345L412 570H380L327 668H323L230 570H194L316 706Z" />
<glyph unicode="&#xeb;" glyph-name="edieresis" horiz-adv-x="471" d="M42 186Q42 254 64 310T121 407T201 470T292 492Q331 492 358 480T403 445T428 391T436 322Q436 296 432 274T423 238H88Q78 181 86 141T114 74T164 36T231 23Q263 23 294 37T351 70L370
40Q341 19 304 4T225 -12Q141 -12 92 38T42 186ZM392 271Q398 299 398 328Q398 352 393 375T374 417T340 446T288 457Q256 457 226 444T169 405T124 346T94 271H392ZM238 598Q224 598 216 606T208 628Q208 647 219 659T245 671Q259 671 267 663T275 639Q275 622
264 610T238 598ZM389 598Q375 598 367 606T359 628Q359 647 370 659T396 671Q410 671 418 663T426 639Q426 622 415 610T389 598Z" />
<glyph unicode="&#xec;" glyph-name="igrave" horiz-adv-x="220" d="M137 480H178L82 0H40L137 480ZM122 706H168L227 570H195L122 706Z" />
<glyph unicode="&#xed;" glyph-name="iacute" horiz-adv-x="220" d="M137 480H178L82 0H40L137 480ZM236 706H286L158 570H120L236 706Z" />
<glyph unicode="&#xee;" glyph-name="icircumflex" horiz-adv-x="220" d="M137 480H178L82 0H40L137 480ZM189 706H218L285 570H253L200 668H196L103 570H67L189 706Z" />
<glyph unicode="&#xef;" glyph-name="idieresis" horiz-adv-x="220" d="M137 480H178L82 0H40L137 480ZM111 598Q97 598 89 606T81 628Q81 647 92 659T118 671Q132 671 140 663T148 639Q148 622 137 610T111 598ZM262 598Q248 598 240 606T232 628Q232 647 243
659T269 671Q283 671 291 663T299 639Q299 622 288 610T262 598Z" />
<glyph unicode="&#xf0;" glyph-name="eth" horiz-adv-x="517" d="M218 24Q260 24 295 47T355 111T396 203T414 314Q403 332 390 348T360 377T324 398T282 406Q238 406 203 386T142 333T102 258T88 171Q88 142 96 115T121 68T162 36T218 24ZM379 599Q414 549 434
486T454 342Q454 269 437 205T389 92T312 16T212 -12Q176 -12 146 2T94 40T60 96T48 166Q48 219 64 268T111 356T185 418T281 442Q321 442 354 420T413 363Q411 432 393 486T344 584L195 521L185 548L326 608Q304 634 278 655T222 697L243 724Q277 703 306 678T361
622L507 684L517 657L379 599Z" />
<glyph unicode="&#xf1;" glyph-name="ntilde" horiz-adv-x="510" d="M137 480H171L160 404H164Q209 442 250 467T336 492Q398 492 424 460T450 375Q450 357 449 344T442 310L380 0H339L401 304Q405 326 407 339T409 366Q409 411 389 433T323 455Q291 455 249 432T153
354L82 0H40L137 480ZM213 581Q224 616 244 642T293 669Q314 669 327 660T350 640T370 620T398 611Q412 611 424 627T445 667H473Q463 633 443 606T394 579Q373 579 360 588T337 608T315 629T288 638Q275 638 263 622T241 581H213Z" />
<glyph unicode="&#xf2;" glyph-name="ograve" horiz-adv-x="504" d="M206 -12Q132 -12 88 37T44 178Q44 245 65 302T121 402T202 468T297 492Q372 492 416 443T460 302Q460 235 439 178T382 78T301 12T206 -12ZM294 456Q255 456 218 434T151 375T103 289T85 184Q85
106 117 65T210 24Q249 24 286 46T352 105T400 191T418 297Q418 375 386 415T294 456ZM273 706H319L378 570H346L273 706Z" />
<glyph unicode="&#xf3;" glyph-name="oacute" horiz-adv-x="504" d="M206 -12Q132 -12 88 37T44 178Q44 245 65 302T121 402T202 468T297 492Q372 492 416 443T460 302Q460 235 439 178T382 78T301 12T206 -12ZM294 456Q255 456 218 434T151 375T103 289T85 184Q85
106 117 65T210 24Q249 24 286 46T352 105T400 191T418 297Q418 375 386 415T294 456ZM387 706H437L309 570H271L387 706Z" />
<glyph unicode="&#xf4;" glyph-name="ocircumflex" horiz-adv-x="504" d="M206 -12Q132 -12 88 37T44 178Q44 245 65 302T121 402T202 468T297 492Q372 492 416 443T460 302Q460 235 439 178T382 78T301 12T206 -12ZM294 456Q255 456 218 434T151 375T103 289T85
184Q85 106 117 65T210 24Q249 24 286 46T352 105T400 191T418 297Q418 375 386 415T294 456ZM340 706H369L436 570H404L351 668H347L254 570H218L340 706Z" />
<glyph unicode="&#xf5;" glyph-name="otilde" horiz-adv-x="504" d="M206 -12Q132 -12 88 37T44 178Q44 245 65 302T121 402T202 468T297 492Q372 492 416 443T460 302Q460 235 439 178T382 78T301 12T206 -12ZM294 456Q255 456 218 434T151 375T103 289T85 184Q85
106 117 65T210 24Q249 24 286 46T352 105T400 191T418 297Q418 375 386 415T294 456ZM208 581Q219 616 239 642T288 669Q309 669 322 660T345 640T365 620T393 611Q407 611 419 627T440 667H468Q458 633 438 606T389 579Q368 579 355 588T332 608T310 629T283
638Q270 638 258 622T236 581H208Z" />
<glyph unicode="&#xf6;" glyph-name="odieresis" horiz-adv-x="504" d="M206 -12Q132 -12 88 37T44 178Q44 245 65 302T121 402T202 468T297 492Q372 492 416 443T460 302Q460 235 439 178T382 78T301 12T206 -12ZM294 456Q255 456 218 434T151 375T103 289T85
184Q85 106 117 65T210 24Q249 24 286 46T352 105T400 191T418 297Q418 375 386 415T294 456ZM262 598Q248 598 240 606T232 628Q232 647 243 659T269 671Q283 671 291 663T299 639Q299 622 288 610T262 598ZM413 598Q399 598 391 606T383 628Q383 647 394 659T420
671Q434 671 442 663T450 639Q450 622 439 610T413 598Z" />
<glyph unicode="&#xf7;" glyph-name="divide" horiz-adv-x="462" d="M245 473Q229 473 219 484T209 512Q209 528 219 538T245 549Q261 549 271 539T281 512Q281 496 271 485T245 473ZM245 109Q229 109 219 120T209 148Q209 164 219 174T245 185Q261 185 271 175T281
148Q281 132 271 121T245 109ZM48 314V348H442V314H48Z" />
<glyph unicode="&#xf8;" glyph-name="oslash" horiz-adv-x="504" d="M112 71Q144 24 209 24Q249 24 286 46T353 105T401 192T419 296Q419 341 407 376L112 71ZM394 404Q362 456 294 456Q255 456 217 434T150 375T102 288T84 184Q84 135 98 99L394 404ZM438 407Q460
363 460 302Q460 234 439 177T382 77T301 12T206 -12Q128 -12 84 43L21 -22L0 -2L68 68Q44 111 44 178Q44 245 65 302T121 402T202 468T297 492Q337 492 369 477T422 433L488 501L509 480L438 407Z" />
<glyph unicode="&#xf9;" glyph-name="ugrave" horiz-adv-x="518" d="M379 0H345L355 78H351Q307 40 266 14T181 -12Q119 -12 93 20T66 105Q66 123 67 136T74 170L136 480H177L116 176Q111 154 110 141T108 114Q108 69 128 47T193 25Q225 25 267 49T363 126L434
480H475L379 0ZM263 706H309L368 570H336L263 706Z" />
<glyph unicode="&#xfa;" glyph-name="uacute" horiz-adv-x="518" d="M379 0H345L355 78H351Q307 40 266 14T181 -12Q119 -12 93 20T66 105Q66 123 67 136T74 170L136 480H177L116 176Q111 154 110 141T108 114Q108 69 128 47T193 25Q225 25 267 49T363 126L434
480H475L379 0ZM377 706H427L299 570H261L377 706Z" />
<glyph unicode="&#xfb;" glyph-name="ucircumflex" horiz-adv-x="518" d="M379 0H345L355 78H351Q307 40 266 14T181 -12Q119 -12 93 20T66 105Q66 123 67 136T74 170L136 480H177L116 176Q111 154 110 141T108 114Q108 69 128 47T193 25Q225 25 267 49T363 126L434
480H475L379 0ZM330 706H359L426 570H394L341 668H337L244 570H208L330 706Z" />
<glyph unicode="&#xfc;" glyph-name="udieresis" horiz-adv-x="518" d="M379 0H345L355 78H351Q307 40 266 14T181 -12Q119 -12 93 20T66 105Q66 123 67 136T74 170L136 480H177L116 176Q111 154 110 141T108 114Q108 69 128 47T193 25Q225 25 267 49T363 126L434
480H475L379 0ZM252 598Q238 598 230 606T222 628Q222 647 233 659T259 671Q273 671 281 663T289 639Q289 622 278 610T252 598ZM403 598Q389 598 381 606T373 628Q373 647 384 659T410 671Q424 671 432 663T440 639Q440 622 429 610T403 598Z" />
<glyph unicode="&#xfd;" glyph-name="yacute" horiz-adv-x="419" d="M-62 -174Q-46 -183 -28 -183Q15 -183 52 -147T119 -49L140 -7L59 480H100L147 179Q152 144 157 107T167 36H171Q189 71 207 107T246 179L408 480H450L154 -59Q138 -89 120 -118T79 -169T29
-205T-31 -219Q-39 -219 -51 -217T-78 -207L-62 -174V-174ZM320 706H370L242 570H204L320 706Z" />
<glyph unicode="&#xfe;" glyph-name="thorn" horiz-adv-x="524" d="M221 -12Q179 -12 148 10T94 65H92L71 -43L38 -217H-3L184 719H225L183 510L162 413H164Q202 444 247 468T341 492Q405 492 443 448T481 319Q481 250 459 190T401 84T317 14T221 -12ZM332 456Q292
456 244 431T155 367L103 107Q129 62 158 43T221 24Q264 24 303 48T373 113T422 206T440 312Q440 384 411 420T332 456Z" />
<glyph unicode="&#xff;" glyph-name="ydieresis" horiz-adv-x="419" d="M-62 -174Q-46 -183 -28 -183Q15 -183 52 -147T119 -49L140 -7L59 480H100L147 179Q152 144 157 107T167 36H171Q189 71 207 107T246 179L408 480H450L154 -59Q138 -89 120 -118T79 -169T29
-205T-31 -219Q-39 -219 -51 -217T-78 -207L-62 -174V-174ZM195 598Q181 598 173 606T165 628Q165 647 176 659T202 671Q216 671 224 663T232 639Q232 622 221 610T195 598ZM346 598Q332 598 324 606T316 628Q316 647 327 659T353 671Q367 671 375 663T383 639Q383
622 372 610T346 598Z" />
<glyph unicode="&#x2013;" glyph-name="endash" horiz-adv-x="462" d="M43 268H426L417 234H36L43 268Z" />
<glyph unicode="&#x2014;" glyph-name="emdash" horiz-adv-x="768" d="M43 268H733L725 234H36L43 268Z" />
<glyph unicode="&#x2018;" glyph-name="quoteleft" horiz-adv-x="213" d="M239 674Q199 651 178 620T155 556H159Q175 556 185 548T196 522Q196 505 186 493T158 481Q141 481 129 494T117 531Q117 588 147 631T226 699L239 674Z" />
<glyph unicode="&#x2019;" glyph-name="quoteright" horiz-adv-x="213" d="M113 508Q154 531 175 562T197 626H193Q177 626 167 634T156 660Q156 677 167 689T195 701Q212 701 223 688T235 651Q235 594 205 551T126 483L113 508Z" />
<glyph unicode="&#x201a;" glyph-name="quotesinglbase" horiz-adv-x="213" d="M-15 -116Q26 -93 47 -62T69 2H65Q49 2 39 10T28 36Q28 53 39 65T67 77Q84 77 95 64T107 27Q107 -30 77 -73T-2 -141L-15 -116Z" />
<glyph unicode="&#x201c;" glyph-name="quotedblleft" horiz-adv-x="347" d="M239 674Q199 651 178 620T155 556H159Q175 556 185 548T196 522Q196 505 186 493T158 481Q141 481 129 494T117 531Q117 588 147 631T226 699L239 674ZM373 674Q333 651 312 620T289
556H293Q309 556 319 548T330 522Q330 505 320 493T292 481Q275 481 263 494T251 531Q251 588 281 631T360 699L373 674Z" />
<glyph unicode="&#x201d;" glyph-name="quotedblright" horiz-adv-x="347" d="M113 508Q154 531 175 562T197 626H193Q177 626 167 634T156 660Q156 677 167 689T195 701Q212 701 223 688T235 651Q235 594 205 551T126 483L113 508ZM247 508Q288 531 309 562T331
626H327Q311 626 301 634T290 660Q290 677 301 689T329 701Q346 701 357 688T369 651Q369 594 339 551T260 483L247 508Z" />
<glyph unicode="&#x201e;" glyph-name="quotedblbase" horiz-adv-x="218" d="M-15 -116Q26 -93 47 -62T69 2H65Q49 2 39 10T28 36Q28 53 39 65T67 77Q84 77 95 64T107 27Q107 -30 77 -73T-2 -141L-15 -116ZM118 -116Q159 -93 180 -62T202 2H198Q182 2 172 10T161
36Q161 53 172 65T200 77Q217 77 228 64T240 27Q240 -30 210 -73T131 -141L118 -116Z" />
<glyph unicode="&#x2022;" glyph-name="bullet" horiz-adv-x="274" d="M129 156Q91 156 67 182T42 251Q42 273 49 295T71 334T105 362T152 373Q188 373 213 347T238 278Q238 255 231 233T209 194T174 167T129 156Z" />
<glyph unicode="&#x2039;" glyph-name="guilsinglleft" horiz-adv-x="240" d="M40 236L47 276L205 430L224 410L78 251L166 87L142 72L40 236Z" />
<glyph unicode="&#x203a;" glyph-name="guilsinglright" horiz-adv-x="240" d="M205 266L197 226L40 72L21 92L167 251L78 415L103 430L205 266Z" />
</font>
</defs>
</svg>
