<?xml version="1.0" encoding="iso-8859-1"?>
<!-- Generator: Adobe Illustrator 19.0.0, SVG Export Plug-In . SVG Version: 6.00 Build 0)  -->
<svg version="1.1" id="Layer_1" xmlns="http://www.w3.org/2000/svg" xmlns:xlink="http://www.w3.org/1999/xlink" x="0px" y="0px"
	 viewBox="0 0 505 505" style="enable-background:new 0 0 505 505;" xml:space="preserve">
<circle style="fill:#90DFAA;" cx="252.5" cy="252.5" r="252.5"/>
<circle style="fill:#54C0EB;" cx="252.5" cy="252.5" r="168.2"/>
<path style="fill:#324A5E;" d="M252.5,77C155.8,77,77,155.7,77,252.5C77,349.2,155.7,428,252.5,428S428,349.2,428,252.5
	S349.2,77,252.5,77z M132.8,152.8c8.5,8,17.7,15,27.4,21.1c-6,20.8-9.7,44.1-10.4,68.9H97C99.1,208.6,112.2,177.5,132.8,152.8z
	 M184.1,340.3c18.2-8.9,38-14.2,58.7-15.4v82.4C218.7,401.7,197.5,376.3,184.1,340.3z M193.1,396.6c-17.4-7.2-33.3-17.5-46.9-30.2
	c6.4-6,13.2-11.3,20.4-16.1C173.6,368.5,182.6,384.2,193.1,396.6z M242.7,97.8v82.4c-20.7-1.3-40.5-6.5-58.7-15.4
	C197.5,128.7,218.7,103.3,242.7,97.8z M166.6,154.7c-7.1-4.8-14-10.1-20.4-16.1c13.6-12.7,29.4-23,46.9-30.2
	C182.6,120.8,173.6,136.5,166.6,154.7z M242.7,199.8v43h-73.4c0.7-21,3.8-41.1,8.8-59.2C198.1,193,220,198.5,242.7,199.8z
	 M242.7,262.3v43c-22.7,1.2-44.6,6.8-64.7,16.2c-4.9-18.1-8-38.2-8.8-59.2H242.7z M262.3,324.8c20.7,1.3,40.5,6.5,58.7,15.4
	c-13.4,36-34.7,61.5-58.7,67V324.8z M262.3,305.2v-43h73.4c-0.7,21-3.8,41.1-8.8,59.2C306.9,312,285,306.5,262.3,305.2z
	 M262.3,242.7v-43c22.7-1.2,44.6-6.8,64.7-16.2c4.9,18.1,8,38.2,8.8,59.2H262.3z M262.3,180.2V97.8c24,5.5,45.2,31,58.7,67
	C302.8,173.6,282.9,178.9,262.3,180.2z M311.9,108.4c17.4,7.2,33.3,17.5,46.9,30.2c-6.4,6-13.2,11.3-20.4,16.1
	C331.4,136.5,322.4,120.8,311.9,108.4z M149.7,262.3c0.8,24.8,4.4,48.1,10.4,68.9c-9.7,6-18.8,13.1-27.4,21.1
	c-20.6-24.7-33.7-55.9-35.8-90H149.7z M311.9,396.6c10.5-12.4,19.5-28.1,26.5-46.3c7.1,4.8,14,10.1,20.4,16.1
	C345.2,379.1,329.3,389.4,311.9,396.6z M372.2,352.2c-8.5-8-17.7-15-27.4-21.1c6-20.8,9.7-44.1,10.4-68.9H408
	C405.9,296.4,392.8,327.5,372.2,352.2z M355.3,242.7c-0.8-24.8-4.4-48.1-10.4-68.9c9.7-6,18.8-13.1,27.4-21.1
	c20.6,24.7,33.7,55.9,35.8,90L355.3,242.7L355.3,242.7z"/>
<path style="fill:#FF7058;" d="M451.1,305.2H53.9c-6.8,0-12.2-5.5-12.2-12.2v-80.9c0-6.8,5.5-12.2,12.2-12.2h397.2
	c6.8,0,12.2,5.5,12.2,12.2V293C463.3,299.7,457.9,305.2,451.1,305.2z"/>
<g>
	<path style="fill:#FFFFFF;" d="M130.7,220.3h14.5v65.2h-14.5l-31-40.8v40.8H85.1v-65.2h13.6l32,42V220.3z"/>
	<path style="fill:#FFFFFF;" d="M227,220.3v13h-32.5v13.4h29.2v12.4h-29.2v13.5H228v12.9h-48v-65.2H227z"/>
	<path style="fill:#FFFFFF;" d="M279.9,257.8l11.6-37.5h15.2l11.5,37.5l13-37.5H347l-22.9,65.2h-10.8L299,240.2l-14.1,45.3h-10.8
		l-22.8-65.2h15.8L279.9,257.8z"/>
	<path style="fill:#FFFFFF;" d="M388,233.3c-1.4,1.2-2.1,2.7-2.1,4.6c0,1.9,0.9,3.4,2.6,4.5s5.7,2.4,11.8,4c6.2,1.5,11,3.8,14.4,6.9
		c3.4,3,5.1,7.5,5.1,13.3s-2.2,10.6-6.6,14.2s-10.1,5.5-17.3,5.5c-10.3,0-19.6-3.8-27.9-11.5l8.7-10.6c7,6.2,13.5,9.2,19.5,9.2
		c2.7,0,4.8-0.6,6.3-1.7s2.3-2.7,2.3-4.7s-0.8-3.5-2.4-4.7s-4.8-2.3-9.6-3.5c-7.6-1.8-13.1-4.1-16.6-7s-5.3-7.4-5.3-13.6
		c0-6.2,2.2-11,6.7-14.3c4.4-3.4,10-5,16.6-5c4.3,0,8.7,0.7,13.1,2.2s8.1,3.6,11.4,6.3l-7.4,10.6c-5.7-4.3-11.5-6.4-17.5-6.4
		C391.3,231.6,389.4,232.1,388,233.3z"/>
</g>
<g>
</g>
<g>
</g>
<g>
</g>
<g>
</g>
<g>
</g>
<g>
</g>
<g>
</g>
<g>
</g>
<g>
</g>
<g>
</g>
<g>
</g>
<g>
</g>
<g>
</g>
<g>
</g>
<g>
</g>
</svg>
